<svg xmlns="http://www.w3.org/2000/svg" width="135" height="135" viewBox="0 0 135 135"><g transform="translate(-180 -5863)"><g transform="translate(180 5863)" fill="#fff" stroke="#f14141" stroke-width="3"><circle cx="67.5" cy="67.5" r="67.5" stroke="none"/><circle cx="67.5" cy="67.5" r="66" fill="none"/></g><g transform="translate(208 5893.038)"><g transform="translate(1.15 1.15)"><g transform="translate(10.774 22.608)"><path d="M131,210.035a348.09,348.09,0,0,1-51.792,0,108.567,108.567,0,0,1-.992-27.185q.352-3.944.992-7.887c11.414-.849,22.829,1.971,34.243,2.244,5.85.141,11.7-2.679,17.549-2.244a108.652,108.652,0,0,1,0,35.072Z" transform="translate(-77.782 -173.999)" fill="#e27d47"/><path d="M85.21,173.275a165.362,165.362,0,0,0,0,35.86q-3-.17-6.006-.394a108.652,108.652,0,0,1,0-35.072Q82.207,173.446,85.21,173.275Z" transform="translate(-77.779 -172.704)" fill="#dd6938"/><path d="M130.53,174.016a29.534,29.534,0,0,1-7.8,12.234,90.04,90.04,0,0,1-36.185,0A31.813,31.813,0,0,1,80.6,178.4q.352-3.944.992-7.887,17.122-1.274,34.243-.865C121.231,171.864,126.363,173.706,130.53,174.016Z" transform="translate(-80.168 -169.551)" fill="#dd6938"/><path d="M138.862,170.518a29.534,29.534,0,0,1-7.8,12.235,90.042,90.042,0,0,1-36.185,0,29.549,29.549,0,0,1-7.8-12.235A348.5,348.5,0,0,1,138.862,170.518Z" transform="translate(-85.646 -169.554)" fill="#eaaa89"/></g><path d="M77.15,404.633H14.038a6.538,6.538,0,1,0,0,13.076H77.15a6.538,6.538,0,0,0,0-13.076Z" transform="translate(-7.5 -345.988)" fill="#c3bec6"/><g transform="translate(3.553 62.198)"><circle cx="2.985" cy="2.985" r="2.985" fill="#655e66"/><circle cx="2.985" cy="2.985" r="2.985" transform="translate(63.112)" fill="#655e66"/><circle cx="2.985" cy="2.985" r="2.985" transform="translate(50.49)" fill="#655e66"/><circle cx="2.985" cy="2.985" r="2.985" transform="translate(37.867)" fill="#655e66"/><circle cx="2.985" cy="2.985" r="2.985" transform="translate(25.245)" fill="#655e66"/><circle cx="2.985" cy="2.985" r="2.985" transform="translate(12.622)" fill="#655e66"/></g><circle cx="15.757" cy="15.757" r="15.757" transform="translate(44.673)" fill="#78d0b1"/><path d="M316.894,53.43a15.757,15.757,0,1,1,0-31.2,15.758,15.758,0,0,0,0,31.2Z" transform="translate(-254.244 -22.072)" fill="#66b49d"/></g><g transform="translate(0 0)"><path d="M70.8,73.215H66.48a110.2,110.2,0,0,0,.82-25.828,16.908,16.908,0,0,0,8.025-25.756,1.15,1.15,0,0,0-1.868,1.341,14.614,14.614,0,1,1-2.96-3.065,1.15,1.15,0,0,0,1.405-1.82A16.747,16.747,0,0,0,61.58,14.57a16.908,16.908,0,0,0-15.9,22.669c-10.78-.2-21.677.106-32.423.907a1.15,1.15,0,0,0-1.049.962,110.288,110.288,0,0,0-.207,34.108H7.687a7.687,7.687,0,0,0,0,15.375H70.8a7.687,7.687,0,0,0,0-15.375ZM13.889,43.64a32.909,32.909,0,0,0,6.464,8.713,1.151,1.151,0,0,0,.552.3c.077.017,1.91.417,4.872.847a1.162,1.162,0,0,0,.167.012,1.15,1.15,0,0,0,.164-2.288c-2.18-.317-3.752-.621-4.392-.751a30.081,30.081,0,0,1-6.789-10.138c10.554-.74,21.243-1,31.808-.772a16.952,16.952,0,0,0,12.145,8.607,31.065,31.065,0,0,1-2.106,2.3,94.886,94.886,0,0,1-17.53,1.744c-2.779,0-5.707-.151-8.7-.45a1.15,1.15,0,0,0-.228,2.288c3.071.306,6.075.461,8.93.461a94.566,94.566,0,0,0,18.341-1.863,1.149,1.149,0,0,0,.552-.3,33.309,33.309,0,0,0,3.5-3.97,16.909,16.909,0,0,0,3.413-.357,107.934,107.934,0,0,1-.894,25.189H14.33a107.972,107.972,0,0,1-.442-29.575ZM70.8,86.291H7.687a5.388,5.388,0,0,1,0-10.776H70.8a5.388,5.388,0,0,1,0,10.776Z" transform="translate(0 -14.57)"/><path d="M27.311,420.309a4.135,4.135,0,1,0,4.135,4.135,4.139,4.139,0,0,0-4.135-4.135Zm0,5.97a1.835,1.835,0,1,1,1.835-1.835A1.837,1.837,0,0,1,27.311,426.279Z" transform="translate(-19.623 -358.111)"/><path d="M439.015,420.309a4.135,4.135,0,1,0,4.135,4.135,4.139,4.139,0,0,0-4.135-4.135Zm0,5.97a1.835,1.835,0,1,1,1.835-1.835A1.837,1.837,0,0,1,439.015,426.279Z" transform="translate(-368.215 -358.111)"/><path d="M356.674,420.309a4.135,4.135,0,1,0,4.135,4.135,4.139,4.139,0,0,0-4.135-4.135Zm0,5.97a1.835,1.835,0,1,1,1.835-1.835A1.837,1.837,0,0,1,356.674,426.279Z" transform="translate(-298.496 -358.111)"/><path d="M274.333,420.309a4.135,4.135,0,1,0,4.135,4.135,4.139,4.139,0,0,0-4.135-4.135Zm0,5.97a1.835,1.835,0,1,1,1.835-1.835A1.837,1.837,0,0,1,274.333,426.279Z" transform="translate(-228.778 -358.111)"/><path d="M191.993,420.309a4.135,4.135,0,1,0,4.135,4.135,4.139,4.139,0,0,0-4.135-4.135Zm0,5.97a1.835,1.835,0,1,1,1.835-1.835A1.837,1.837,0,0,1,191.993,426.279Z" transform="translate(-159.06 -358.111)"/><path d="M109.652,420.309a4.135,4.135,0,1,0,4.135,4.135,4.139,4.139,0,0,0-4.135-4.135Zm0,5.97a1.835,1.835,0,1,1,1.835-1.835A1.837,1.837,0,0,1,109.652,426.279Z" transform="translate(-89.342 -358.111)"/><path d="M367.209,76.531l-6.636,12.243-4.8-5.422a1.15,1.15,0,0,0-1.722,1.524l5.886,6.652a1.15,1.15,0,0,0,.861.388,1.172,1.172,0,0,0,.131-.007,1.15,1.15,0,0,0,.88-.594l7.419-13.687a1.15,1.15,0,0,0-2.022-1.1Z" transform="translate(-299.535 -66.523)"/></g></g></g></svg>