<svg xmlns="http://www.w3.org/2000/svg" width="220.689" height="203.118" viewBox="0 0 220.689 203.118"><g transform="translate(-765 -6595.441)"><g transform="translate(765.378 6601.417)"><path d="M115.9,0A33.619,33.619,0,0,0,92.127,9.847L0,101.974H35.193a33.619,33.619,0,0,0,23.773-9.847L151.093,0Z" transform="matrix(0.998, -0.07, 0.07, 0.998, -0.379, 4.564)" fill="#fde2e2"/><path d="M144.875,0a42.024,42.024,0,0,0-29.716,12.309L0,127.468H43.991a42.024,42.024,0,0,0,29.716-12.309L188.866,0Z" transform="matrix(0.998, -0.07, 0.07, 0.998, 23.012, 69.985)" fill="#fde2e2"/></g><g transform="translate(809.994 6643.048)"><g transform="translate(2.045 2.004)"><path d="M71.243,290.933,8,252.016,71.243,218l63.243,34.016Z" transform="translate(-8 -164.448)" fill="#9ccc65"/><path d="M149.42,342.805l63.243-38.917-30.231-16.26a92.616,92.616,0,0,1-69.494,32.727Z" transform="translate(-86.177 -216.32)" fill="#83bd46"/><path d="M72.962,98.258c0,14.5-24.481,51.265-24.481,51.265S24,112.76,24,98.258,34.961,72,48.481,72,72.962,83.756,72.962,98.258Z" transform="translate(-19.92 -55.679)" fill="#b2ebf2"/><path d="M344.962,34.258c0,14.5-24.481,51.265-24.481,51.265S296,48.76,296,34.258,306.961,8,320.481,8,344.962,19.756,344.962,34.258Z" transform="translate(-222.557 -8)" fill="#b2ebf2"/><path d="M122.3,157.421s9.345-1.619,12.917-5.191,3.444-6.9,1.311-9.037-5.465-2.261-9.036,1.311S122.3,157.421,122.3,157.421Z" transform="translate(-93.152 -107.595)" fill="#9ccc65"/><path d="M356.24,90.64a6.86,6.86,0,0,1,5.44-2.64c3.756,0,6.8,2.078,6.8,6.6,0,3.789-2.72,15.841-8.16,15.841-2.448,0-4.08-2.493-4.08-2.493s-1.632,2.493-4.08,2.493c-5.44,0-8.16-12.052-8.16-15.841,0-4.522,3.045-6.6,6.8-6.6a6.86,6.86,0,0,1,5.44,2.64Z" transform="translate(-258.316 -67.599)" fill="#ea7432"/><path d="M71.126,157.425s-9.345-1.619-12.917-5.191-3.444-6.9-1.311-9.036,5.465-2.261,9.036,1.311S71.126,157.425,71.126,157.425Z" transform="translate(-43.306 -107.598)" fill="#9ccc65"/><path d="M367.8,89.641a14.149,14.149,0,0,1-19.228,12.918c1.278,4.438,3.609,9.1,6.995,9.1,2.448,0,4.08-2.493,4.08-2.493s1.632,2.493,4.08,2.493c5.44,0,8.16-12.052,8.16-15.841,0-3.362-1.683-5.371-4.088-6.182Z" transform="translate(-261.722 -68.822)" fill="#e2601e"/><circle cx="3.06" cy="3.06" r="3.06" transform="translate(87.724 22.441)" fill="#fa9664"/><circle cx="2.04" cy="2.04" r="2.04" transform="translate(95.884 26.521)" fill="#fa9664"/><path d="M134.878,143.168a20.578,20.578,0,0,1-11.94,12.447c-.432,1.706-.641,2.91-.641,2.91s9.345-1.619,12.917-5.191C139.7,148.852,138.185,144.579,134.878,143.168Z" transform="translate(-93.15 -108.699)" fill="#83bd46"/><circle cx="2.55" cy="2.55" r="2.55" transform="translate(14.281 36.041)" fill="#c6ed93"/><circle cx="1.7" cy="1.7" r="1.7" transform="translate(20.401 40.802)" fill="#c6ed93"/><g transform="translate(18.445 48.144)"><path d="M80.329,273.765c5.336,9.264,10.117,16.445,10.117,16.445a311.091,311.091,0,0,0,17.08-29.366A41.694,41.694,0,0,1,80.329,273.765Z" transform="translate(-80.329 -244.51)" fill="#80deea"/><path d="M352.328,209.727c5.336,9.265,10.117,16.445,10.117,16.445a310.952,310.952,0,0,0,17.086-29.379A41.7,41.7,0,0,1,352.328,209.727Z" transform="translate(-282.965 -196.793)" fill="#80deea"/></g></g><g transform="translate(0.006 -0.048)"><path d="M129.5,314.086l-18.8-10.114a2.04,2.04,0,1,0-1.933,3.593L124.444,316,65.287,352.4,6.13,316l8.244-4.435a2.04,2.04,0,1,0-1.933-3.593L1.078,314.086a2.041,2.041,0,0,0-.1,3.534c66.688,40.9,63.708,39.946,65.381,38.917,65.581-40.824,64.277-38.462,64.213-40.714a2.04,2.04,0,0,0-1.074-1.737Z" transform="translate(-0.006 -226.262)"/><path d="M231.008,216.558l4.134-2.224c15.34,8.15,14.731,8.167,15.7,8.167a2.043,2.043,0,0,0,.969-3.837l-15.7-8.443c-1.6-.862-2.55.6-7.033,2.744a2.04,2.04,0,1,0,1.933,3.593Z" transform="translate(-169.86 -156.413)"/><path d="M175.078,267.56a2.04,2.04,0,0,0,.83,2.763l4.333,2.33-10.918,5.872a2.042,2.042,0,0,0,.969,3.837c.951,0,.383-.03,14.256-7.393l26.47,14.237-10.9,6.707L188.074,288.5a2.04,2.04,0,1,0-2.139,3.475l10.291,6.333L184.548,305.5,163.2,292.358a2.04,2.04,0,1,0-2.137,3.475l19.595,12.058-4.849,2.984a2.04,2.04,0,1,0,2.138,3.475l6.6-4.063c6.667,3.984,6.656,4.367,7.671,4.367a2.042,2.042,0,0,0,1.071-3.778l-4.849-2.984,11.678-7.186,5.707,3.511a2.04,2.04,0,1,0,2.139-3.475l-3.953-2.432,11.161-6.868,6.638,3.57a2.04,2.04,0,1,0,1.933-3.593l-4.553-2.448,4.656-2.866a2.04,2.04,0,1,0-2.138-3.475l-6.672,4.106-26.18-14.082,4.333-2.33a2.04,2.04,0,1,0-1.933-3.593l-6.707,3.607-6.707-3.607A2.04,2.04,0,0,0,175.078,267.56Z" transform="translate(-119.266 -198.516)"/><path d="M316.219,80.658c1.013-1.522,24.823-37.449,24.823-52.4,0-22.441-23.336-35.755-40.782-23.864a2.04,2.04,0,1,0,2.3,3.372c14.794-10.082,34.4,1.376,34.4,20.492,0,11.554-16.944,38.94-22.441,47.519-5.5-8.58-22.441-35.966-22.441-47.519a25.976,25.976,0,0,1,1.044-7.322,2.04,2.04,0,1,0-3.915-1.15A30.046,30.046,0,0,0,288,28.262c0,14.947,23.81,50.875,24.823,52.4a2.04,2.04,0,0,0,3.4,0Z" transform="translate(-214.558 0.048)"/><path d="M336,64.81c0,3.64,2.662,17.881,10.2,17.881a6.455,6.455,0,0,0,4.08-1.559,6.455,6.455,0,0,0,4.08,1.559c7.538,0,10.2-14.241,10.2-17.881,0-7.519-6.995-9.829-11.837-8.135-1.37-8.228-10.6-10.949-10.6-6.626a2.04,2.04,0,0,0,2.04,2.04c1.92,0,3.957,2.661,4.474,4.91C343.785,54.75,336,56.846,336,64.81ZM348.667,62.1a2.04,2.04,0,0,0,1.613.791c1.968,0,1.915-2.64,5.44-2.64,2.172,0,4.76.792,4.76,4.561,0,5.508-4.426,18.238-8.493,12.23a2.033,2.033,0,0,0-3.406-.012c-4.1,6.06-8.5-6.8-8.5-12.218,0-3.77,2.589-4.56,4.76-4.56A4.794,4.794,0,0,1,348.667,62.1Z" transform="translate(-250.318 -35.756)"/><path d="M44.219,144.694c1.013-1.522,24.823-37.449,24.823-52.4,0-15.6-11.9-28.3-26.521-28.3a24.93,24.93,0,0,0-11.1,2.591,2.04,2.04,0,1,0,1.8,3.661,20.883,20.883,0,0,1,9.3-2.171c12.374,0,22.441,10.863,22.441,24.218,0,11.554-16.944,38.94-22.441,47.519-5.5-8.58-22.441-35.966-22.441-47.519a25.488,25.488,0,0,1,2.489-11.1,2.04,2.04,0,1,0-3.68-1.762A29.537,29.537,0,0,0,16,92.3c0,14.947,23.81,50.875,24.823,52.4a2.04,2.04,0,0,0,3.4,0Z" transform="translate(-11.921 -47.667)"/><path d="M64.052,153.332v7.507h-2.04a2.04,2.04,0,1,0,0,4.08h8.16a2.04,2.04,0,1,0,0-4.08h-2.04V153.3c2.771-.575,9.635-2.275,12.905-5.545,11.073-11.073-8.244-23.959-15.023-2.1-6.794-21.9-26.087-8.961-15.023,2.1C54.325,151.087,61.391,152.79,64.052,153.332Zm9.26-13.3c.961-.961,2.519-2.22,4.085-2.22,2.078,0,5.049,2.766.755,7.061-1.8,1.8-5.768,3.161-8.789,3.948C70.151,145.8,71.507,141.833,73.312,140.029Zm-18.68-2.22c1.566,0,3.124,1.26,4.085,2.22,1.8,1.8,3.161,5.768,3.948,8.789-3.021-.788-6.984-2.144-8.789-3.948-4.273-4.272-1.324-7.061.755-7.061Z" transform="translate(-35.492 -99.624)"/><circle cx="2.04" cy="2.04" r="2.04" transform="translate(12.239 24.493)"/><circle cx="2.04" cy="2.04" r="2.04" transform="translate(59.161 85.696)"/><circle cx="2.04" cy="2.04" r="2.04" transform="translate(77.522 10.213)"/></g></g></g></svg>