<svg xmlns="http://www.w3.org/2000/svg" width="220.689" height="203.118" viewBox="0 0 220.689 203.118"><g transform="translate(8682 4924.559)"><g transform="translate(-8681.621 -4918.583)"><path d="M115.9,0A33.619,33.619,0,0,0,92.127,9.847L0,101.974H35.193a33.619,33.619,0,0,0,23.773-9.847L151.093,0Z" transform="matrix(0.998, -0.07, 0.07, 0.998, -0.379, 4.564)" fill="#fde2e2"/><path d="M144.875,0a42.024,42.024,0,0,0-29.716,12.309L0,127.468H43.991a42.024,42.024,0,0,0,29.716-12.309L188.866,0Z" transform="matrix(0.998, -0.07, 0.07, 0.998, 23.012, 69.985)" fill="#fde2e2"/></g><g transform="translate(-8636.965 -4888.296)"><g transform="translate(1.923 1.913)"><g transform="translate(0 21.205)"><path d="M100.459,120.84h-72.8a8.914,8.914,0,0,1-8.913-8.913v-.012A8.914,8.914,0,0,1,27.657,103h72.8Z" transform="translate(-15.874 -99.847)" fill="#ffe20d"/><path d="M66.564,149.907,12.677,112.58a12.047,12.047,0,0,1-3.05-16.747l0,0a12.027,12.027,0,0,1,16.746-3.054L80.262,130.1a12.047,12.047,0,0,1,3.05,16.747l0,0A12.027,12.027,0,0,1,66.564,149.907Z" transform="translate(-7.492 -90.634)" fill="#ffbe00"/><g transform="translate(16.192 65.419)"><g transform="translate(0 23.508)"><path d="M120.81,455.916H70.976l4.551-16.635h40.731Z" transform="translate(-70.976 -439.281)" fill="#8caabd"/><path d="M218.714,439.281h-10.2l4.551,16.635h10.2Z" transform="translate(-173.431 -439.281)" fill="#809cad"/></g><path d="M110.648,347.114h29.6v23.509h-29.6Z" transform="translate(-100.529 -347.114)" fill="#ffbe00"/></g><path d="M125.31,257.286,88.752,271.262A13.772,13.772,0,0,1,70.966,263.3l0-.009a13.783,13.783,0,0,1,7.953-17.784l36.558-13.976a13.772,13.772,0,0,1,17.786,7.962l0,.009a13.783,13.783,0,0,1-7.953,17.784Z" transform="translate(-54.097 -194.914)" fill="#ffe20d"/><path d="M158.626,239.5l0-.009a13.772,13.772,0,0,0-17.786-7.962l-.189.072a13.738,13.738,0,0,1,7.773,7.89l0,.009a13.783,13.783,0,0,1-7.953,17.784l-36.369,13.9a13.716,13.716,0,0,0,10.013.072l36.558-13.976A13.783,13.783,0,0,0,158.626,239.5Z" transform="translate(-79.46 -194.915)" fill="#f7d900"/><g transform="translate(6.726 6.931)"><ellipse cx="7.168" cy="7.179" rx="7.168" ry="7.179" transform="translate(51.758 35.423)" fill="#8caabd"/><ellipse cx="5.469" cy="5.477" rx="5.469" ry="5.477" fill="#8caabd"/></g></g><g transform="translate(75.641)"><path d="M305.353,45.429A8.914,8.914,0,0,0,317.6,48.412l4.562-2.779,1.568-.955,16.386,5.685a5.557,5.557,0,0,0,6.773-2.712l7.668-14.946a5.569,5.569,0,0,0-9.9-5.1l-5.462,10.646-14.044-4.885,2.1-14.719,11.816.028a5.657,5.657,0,0,0,5.717-5.365,5.576,5.576,0,0,0-5.556-5.773l-16.8-.04a5.558,5.558,0,0,0-5.516,4.776l-2.446,17.157-6.146,3.745A8.913,8.913,0,0,0,305.353,45.429Z" transform="translate(-304.048 -7.5)" fill="#8caabd"/></g><g transform="translate(80.74 0)"><path d="M384.1,7.54a5.576,5.576,0,0,1,5.556,5.773,5.643,5.643,0,0,1-5.28,5.348l7.215.017a5.657,5.657,0,0,0,5.717-5.365,5.576,5.576,0,0,0-5.556-5.773l-16.8-.04c-.133,0-.263.008-.394.017Z" transform="translate(-361.672 -7.5)" fill="#809cad"/><path d="M333.748,146.628l-4.344,2.647-4.562,2.779a8.952,8.952,0,0,1-.8.435,8.9,8.9,0,0,0,8.455-.435l6.13-3.735Z" transform="translate(-324.039 -111.141)" fill="#809cad"/><path d="M450.378,75.109a5.562,5.562,0,0,0-6.372.907,5.576,5.576,0,0,1,1.132,6.593L437.47,97.555a5.533,5.533,0,0,1-1.558,1.866l2.436.845a5.557,5.557,0,0,0,6.773-2.712l7.668-14.946A5.576,5.576,0,0,0,450.378,75.109Z" transform="translate(-407.377 -57.404)" fill="#809cad"/></g></g><g transform="translate(0.017 0)"><path d="M247.446,258.276a9.081,9.081,0,1,0-9.081,9.092A9.1,9.1,0,0,0,247.446,258.276Zm-14.336,0a5.255,5.255,0,1,1,5.255,5.266A5.266,5.266,0,0,1,233.109,258.276Z" transform="translate(-170.805 -185.626)" fill="#060606"/><path d="M33.745,110.307a7.39,7.39,0,1,0,7.382,7.39A7.394,7.394,0,0,0,33.745,110.307Zm0,10.954A3.564,3.564,0,1,1,37.3,117.7,3.564,3.564,0,0,1,33.745,121.261Z" transform="translate(-19.643 -82.172)" fill="#060606"/><path d="M126.539,17.917a7.545,7.545,0,0,0-10.07,3.231l-4.7,9.166-10.985-3.821,1.641-11.513L112.576,15c9.635,0,9.919-14.94.17-14.964L95.947,0H95.93a7.507,7.507,0,0,0-7.4,6.427l-.3,2.182a1.914,1.914,0,0,0,3.79.523l.3-2.174A3.662,3.662,0,0,1,95.93,3.826h.008l16.8.04c4.738.012,4.58,7.312-.151,7.312l-11.817-.028h0a1.913,1.913,0,0,0-1.894,1.643l-2.1,14.719a1.913,1.913,0,0,0,1.265,2.077l14.044,4.885a1.913,1.913,0,0,0,2.331-.934l5.462-10.646c2.154-4.2,8.648-.837,6.5,3.35l-7.668,14.946a3.681,3.681,0,0,1-4.444,1.778L97.875,37.284a1.913,1.913,0,0,0-1.622.174l-6.13,3.735c-7.475,4.553-15.2-7.149-7.293-11.968l6.146-3.745a1.913,1.913,0,0,0,.9-1.36l.707-4.886a1.914,1.914,0,0,0-3.787-.547l-.577,3.995L83.462,24.36h-60.6c-6.342-4.589-15.885-4.126-20.39,2.881A13.977,13.977,0,0,0,6.019,46.635L36.67,67.867c-4.152,1.587-8.714,2.833-12.615,4.991a1.914,1.914,0,0,0,1.852,3.348,11.985,11.985,0,0,1,1.519-.709L63.984,61.521A11.872,11.872,0,0,1,72.453,83.7L35.895,97.679A11.871,11.871,0,0,1,20.4,82.855a1.914,1.914,0,0,0-3.632-1.2,15.7,15.7,0,0,0,9.554,19.692v8.787H22.667a1.913,1.913,0,0,0-1.845,1.408l-4.166,15.227H10.719a1.913,1.913,0,0,0,0,3.826H75.347a1.913,1.913,0,1,0,0-3.826H69.41L65.244,111.54a1.913,1.913,0,0,0-1.845-1.408H59.744V92.657L73.82,87.276A15.7,15.7,0,0,0,70,57.011L54.143,46.024H86.061c4.3.177,7.916-2.7,11.413-4.83l15.533,5.389a7.583,7.583,0,0,0,9.1-3.645l7.668-14.946a7.5,7.5,0,0,0-3.239-10.074Zm-61.1,108.85H20.622l3.5-12.809H61.939Zm-9.525-16.635H30.148v-7.914a15.684,15.684,0,0,0,7.113-.966L55.918,94.12Zm6.7-52.184L41,66.212,8.2,43.49A10.127,10.127,0,0,1,19.717,26.832L63.985,57.5C63.526,57.626,63.069,57.775,62.618,57.947ZM28.389,28.185H78.226a10.976,10.976,0,0,0-.01,14.013H48.62Z" transform="translate(-0.017 0)" fill="#060606"/><path d="M332.749,134.761a1.914,1.914,0,0,0,0-3.826A1.914,1.914,0,0,0,332.749,134.761Z" transform="translate(-246.504 -97.538)" fill="#060606"/></g></g></g></svg>