<svg xmlns="http://www.w3.org/2000/svg" width="220.689" height="203.118" viewBox="0 0 220.689 203.118"><g transform="translate(8682 4604.559)"><g transform="translate(-8681.621 -4598.583)"><path d="M115.9,0A33.619,33.619,0,0,0,92.127,9.847L0,101.974H35.193a33.619,33.619,0,0,0,23.773-9.847L151.093,0Z" transform="matrix(0.998, -0.07, 0.07, 0.998, -0.379, 4.564)" fill="#fde2e2"/><path d="M144.875,0a42.024,42.024,0,0,0-29.716,12.309L0,127.468H43.991a42.024,42.024,0,0,0,29.716-12.309L188.866,0Z" transform="matrix(0.998, -0.07, 0.07, 0.998, 23.012, 69.985)" fill="#fde2e2"/></g><g transform="translate(-8638.959 -4570.607)"><g transform="translate(4.177 4.177)"><path d="M6,3H27.768v8.707H6Z" transform="translate(0.53 -3)" fill="#f9e109"/><path d="M8,7H21.061v6.53A6.53,6.53,0,1,1,8,13.53Z" transform="translate(2.884 1.707)" fill="#f8664f"/><rect width="126" height="26" rx="4" transform="translate(-0.177 100.431)" fill="#e9f1f2"/><path d="M129.254,64.129v2.286a8.707,8.707,0,0,1-8.707,8.707H11.707A8.707,8.707,0,0,1,3,66.414V57.707A8.707,8.707,0,0,1,11.707,49h19.7a5.442,5.442,0,0,0,5.333,4.354h82.718A5.442,5.442,0,0,1,124.9,58.8a5.42,5.42,0,0,0,4.354,5.333Z" transform="translate(-3 51.132)" fill="#d0d8da"/><path d="M9,53H109.132v8.707H9Z" transform="translate(4.061 55.84)" fill="#656b76"/><g transform="translate(8.707 82.718)"><circle cx="4.5" cy="4.5" r="4.5" transform="translate(0.116 25.713)" fill="#f9e109"/><circle cx="4.5" cy="4.5" r="4.5" transform="translate(24.116 25.713)" fill="#f9e109"/><circle cx="4.5" cy="4.5" r="4.5" transform="translate(50.116 25.713)" fill="#f9e109"/><circle cx="4.5" cy="4.5" r="4.5" transform="translate(76.116 25.713)" fill="#f9e109"/><circle cx="4.5" cy="4.5" r="4.5" transform="translate(100.116 25.713)" fill="#f9e109"/><path d="M48,41H65.414V58.414H48Z" transform="translate(41.248 -41)" fill="#f9e109"/><path d="M28,41H45.414V58.414H28Z" transform="translate(17.713 -41)" fill="#f9e109"/><path d="M8,41H25.414V58.414H8Z" transform="translate(-5.823 -41)" fill="#f9e109"/></g><path d="M65.414,51.884v6.53H48V41h4.354v2.177a8.707,8.707,0,0,0,8.707,8.707Z" transform="translate(49.956 41.718)" fill="#fcbc04"/><path d="M45.414,51.884v6.53H28V41h4.354v2.177a8.707,8.707,0,0,0,8.707,8.707Z" transform="translate(26.42 41.718)" fill="#fcbc04"/><path d="M25.414,51.884v6.53H8V41h4.354v2.177a8.707,8.707,0,0,0,8.707,8.707Z" transform="translate(2.884 41.718)" fill="#fcbc04"/><path d="M61.324,58.927a4.354,4.354,0,1,1-5.747-5.747,4.116,4.116,0,0,0-.392,1.785,4.367,4.367,0,0,0,4.354,4.354,4.116,4.116,0,0,0,1.785-.392Z" transform="translate(55.831 56.051)" fill="#fcbc04"/><path d="M50.324,58.927a4.354,4.354,0,1,1-5.747-5.747,4.116,4.116,0,0,0-.392,1.785,4.367,4.367,0,0,0,4.354,4.354,4.116,4.116,0,0,0,1.785-.392Z" transform="translate(42.886 56.051)" fill="#fcbc04"/><path d="M38.324,58.927a4.354,4.354,0,1,1-5.747-5.747,4.116,4.116,0,0,0-.392,1.785,4.367,4.367,0,0,0,4.354,4.354A4.116,4.116,0,0,0,38.324,58.927Z" transform="translate(28.764 56.051)" fill="#fcbc04"/><path d="M26.324,58.927a4.354,4.354,0,1,1-5.747-5.747,4.116,4.116,0,0,0-.392,1.785,4.367,4.367,0,0,0,4.354,4.354,4.116,4.116,0,0,0,1.785-.392Z" transform="translate(14.643 56.051)" fill="#fcbc04"/><path d="M15.324,58.927A4.354,4.354,0,1,1,9.578,53.18a4.116,4.116,0,0,0-.392,1.785,4.367,4.367,0,0,0,4.354,4.354,4.116,4.116,0,0,0,1.785-.392Z" transform="translate(1.698 56.051)" fill="#fcbc04"/><path d="M64.945,36.591,41,25.707,45.354,17,69.3,30.061Z" transform="translate(41.718 13.475)" fill="#f9e109"/><path d="M69.3,30.061l-4.354,6.53L41,25.707,45.354,17l5.856,3.2a8.507,8.507,0,0,1,.675,3.33,9.234,9.234,0,0,1-.3,2.2,6.53,6.53,0,0,0,6.966-1.524Z" transform="translate(41.718 13.475)" fill="#fcbc04"/><path d="M37,7l2.177,21.768H52.238L54.414,7Z" transform="translate(37.011 1.707)" fill="#f9e109"/><path d="M44.815,12.638a4.273,4.273,0,0,0-1.267,3.455,4.517,4.517,0,0,0,4.58,3.968,4.508,4.508,0,0,1,4.484,4.957l-.374,3.751H39.177L37,7H54.414l-.435,4.354h-6.1a4.256,4.256,0,0,0-3.069,1.284Z" transform="translate(37.011 1.707)" fill="#fcbc04"/><path d="M35,3H61.121v8.707H35Z" transform="translate(34.657 -3)" fill="#f8664f"/><ellipse cx="9" cy="8.5" rx="9" ry="8.5" transform="translate(73.823 24.431)" fill="#f8664f"/><path d="M58.707,37.53l-4.354,2.177L50,37.53V31h8.707Z" transform="translate(52.309 29.95)" fill="#f8664f"/><circle cx="6.5" cy="6.5" r="6.5" transform="translate(99.823 39.431)" fill="#f8664f"/><path d="M61.121,3V7.2H42.815a4.338,4.338,0,0,0-4.354,4.354v.152H35V3Z" transform="translate(34.657 -3)" fill="#cc5144"/><path d="M53.631,25.853A8.7,8.7,0,1,1,42.138,14.36a8.557,8.557,0,0,0-.784,3.57,8.707,8.707,0,0,0,8.707,8.707,8.557,8.557,0,0,0,3.57-.784Z" transform="translate(37.01 10.368)" fill="#cc5144"/><path d="M61.487,29.89a6.53,6.53,0,1,1-8.62-8.62,6.426,6.426,0,0,0-.588,2.677,6.53,6.53,0,0,0,6.53,6.53,6.426,6.426,0,0,0,2.677-.588Z" transform="translate(51.119 18.5)" fill="#cc5144"/><path d="M58.707,37.53l-4.354,2.177L50,37.53V31h2.177v2.177A4.367,4.367,0,0,0,56.53,37.53Z" transform="translate(52.309 29.95)" fill="#cc5144"/><path d="M27.768,3V7.2H13.815a4.338,4.338,0,0,0-4.354,4.354v.152H6V3Z" transform="translate(0.53 -3)" fill="#fcbc04"/><path d="M21.061,7v4.354H18.884a6.53,6.53,0,0,0-6.53,6.53,6.748,6.748,0,0,0,.283,1.894A6.491,6.491,0,0,1,8,13.53V7Z" transform="translate(2.884 1.707)" fill="#cc5144"/></g><g transform="translate(2 2)"><circle cx="2" cy="2" r="2" transform="translate(83 32.608)" fill="#010101"/><path d="M10,18.177V61.713a2.177,2.177,0,1,0,4.354,0V18.177a2.177,2.177,0,1,0-4.354,0Z" transform="translate(7.414 14.475)" fill="#010101"/><path d="M21.259,20.329a2.177,2.177,0,0,0,3.078,0,8.707,8.707,0,0,0,0-12.312A2.177,2.177,0,1,0,21.259,11.1a4.354,4.354,0,0,1,0,6.156,2.177,2.177,0,0,0,0,3.078Z" transform="translate(19.913 4.33)" fill="#010101"/><path d="M24.088,26.738a2.177,2.177,0,1,0,3.078,3.078,17.436,17.436,0,0,0,0-24.628,2.177,2.177,0,1,0-3.078,3.078A13.078,13.078,0,0,1,24.088,26.738Z" transform="translate(23.242 1.001)" fill="#010101"/><circle cx="2.177" cy="2.177" r="2.177" transform="translate(33.74 16.326)" fill="#010101"/><path d="M28.177,6.354H69.536v4.354H45.591a2.177,2.177,0,0,0,0,4.354h2.394l1.583,15.821a10.786,10.786,0,0,0,12.26,16.306l12.643,5.749a8.707,8.707,0,0,0,5.949,5.351V62.95H78.243a2.177,2.177,0,0,0-2.177,2.177H65.182A2.177,2.177,0,0,0,63.005,67.3V80.364a2.177,2.177,0,0,0,2.177,2.177h4.354a2.177,2.177,0,0,0,0-4.354H67.359V69.48h8.707v2.177a2.177,2.177,0,0,0,1.2,1.959l4.354,2.177a2.177,2.177,0,0,0,1.946,0l4.354-2.177a2.177,2.177,0,0,0,1.2-1.959V69.48h8.707v8.707H95.657a2.177,2.177,0,0,0,0,4.354h4.354a2.177,2.177,0,0,0,2.177-2.177V67.3a2.177,2.177,0,0,0-2.177-2.177H89.127A2.177,2.177,0,0,0,86.95,62.95H84.773V58.287a8.707,8.707,0,0,0,6.53-8.4,2.644,2.644,0,0,0-.039-.461,2.18,2.18,0,0,0-4.354.242.6.6,0,0,0,.039.22,4.354,4.354,0,1,1-4.462-4.354c.061,0,.268.03.329.033A2.135,2.135,0,0,0,85.03,43.6a2.242,2.242,0,0,0-1.939-2.373c-.1-.015-.394-.041-.494-.041a8.583,8.583,0,0,0-2.394.374l-10.79-5.877A10.773,10.773,0,0,0,67.74,30.89l1.589-15.83h2.384a2.177,2.177,0,0,0,2.177-2.177V6.354h28.3a2.177,2.177,0,0,0,0-4.354H28.177a2.177,2.177,0,0,0,0,4.354Zm56.6,63.958L82.6,71.4,80.42,70.312V67.3h4.354ZM52.121,36.829a6.53,6.53,0,1,1,6.53,6.53A6.53,6.53,0,0,1,52.121,36.829ZM68.9,40.346l7.127,3.883A8.64,8.64,0,0,0,74.107,48L66.373,44.48A10.884,10.884,0,0,0,68.9,40.346Zm-5.17-13.083a10.449,10.449,0,0,0-10.161,0l-1.232-12.2H64.965Z" transform="translate(26.243 -2)" fill="#010101"/><path d="M4.177,6.354H8.53v6.53a2.177,2.177,0,0,0,2.177,2.177h2.177v4.354a8.707,8.707,0,1,0,17.414,0V15.061h2.177a2.177,2.177,0,0,0,2.177-2.177V6.354H45.536a2.177,2.177,0,1,0,0-4.354H4.177a2.177,2.177,0,1,0,0,4.354ZM25.945,19.414a4.354,4.354,0,1,1-8.707,0V15.061h8.707ZM30.3,6.354v4.354H12.884V6.354Z" transform="translate(-2 -2)" fill="#010101"/><path d="M100.541,57.414V42.177A2.177,2.177,0,0,0,98.364,40H80.95a2.177,2.177,0,0,0-2.177,2.177V57.414h-6.53a2.177,2.177,0,1,0,0,4.354h28.3a6.53,6.53,0,0,1,6.53,6.53v8.707a6.53,6.53,0,0,1-6.53,6.53H22.177a2.177,2.177,0,0,0,0,4.354h78.364a10.9,10.9,0,0,0,10.884-10.884V68.3a10.9,10.9,0,0,0-10.884-10.884Zm-17.414,0V44.354h4.354V46.53a2.177,2.177,0,0,0,4.354,0V44.354h4.354V57.414Z" transform="translate(19.182 42.718)" fill="#010101"/><path d="M34.652,83.536H12.884a6.53,6.53,0,0,1-6.53-6.53V68.3a6.53,6.53,0,0,1,6.53-6.53H84.718a2.177,2.177,0,1,0,0-4.354h-6.53V42.177A2.177,2.177,0,0,0,76.011,40H58.6a2.177,2.177,0,0,0-2.177,2.177V57.414H34.652V42.177A2.177,2.177,0,0,0,32.475,40H15.061a2.177,2.177,0,0,0-2.177,2.177V57.414A10.9,10.9,0,0,0,2,68.3v8.707A10.9,10.9,0,0,0,12.884,87.889H34.652a2.177,2.177,0,0,0,0-4.354ZM60.773,44.354h4.354V46.53a2.177,2.177,0,0,0,4.354,0V44.354h4.354V57.414H60.773Zm-43.536,0h4.354V46.53a2.177,2.177,0,0,0,4.354,0V44.354H30.3V57.414H17.238Z" transform="translate(-2 42.718)" fill="#010101"/><path d="M88.718,65.061h23.945a6.53,6.53,0,1,0,0-13.061H12.53a6.53,6.53,0,1,0,0,13.061H75.657a2.177,2.177,0,0,0,0-4.354H68.726a6.115,6.115,0,0,0,0-4.354H82.588a6.456,6.456,0,0,0-.4,2.177,6.53,6.53,0,0,0,6.53,6.53Zm2.177-6.53a2.177,2.177,0,1,1-2.177-2.177A2.177,2.177,0,0,1,90.895,58.53Zm3.953-2.177h11.685a6.115,6.115,0,0,0,0,4.354H94.848A6.115,6.115,0,0,0,94.848,56.354Zm17.815,4.354a2.177,2.177,0,1,1,2.177-2.177A2.177,2.177,0,0,1,112.663,60.707ZM34.3,58.53a2.177,2.177,0,1,1,2.177,2.177A2.177,2.177,0,0,1,34.3,58.53Zm-3.953,2.177H18.66a6.115,6.115,0,0,0,0-4.354H30.345a6.115,6.115,0,0,0,0,4.354ZM42.6,56.354H56.467a6.115,6.115,0,0,0,0,4.354H42.6a6.115,6.115,0,0,0,0-4.354Zm-30.075,0a2.177,2.177,0,1,1-2.177,2.177A2.177,2.177,0,0,1,12.53,56.354ZM64.773,58.53A2.177,2.177,0,1,1,62.6,56.354,2.177,2.177,0,0,1,64.773,58.53Z" transform="translate(2.707 56.84)" fill="#010101"/></g></g></g></svg>