<svg xmlns="http://www.w3.org/2000/svg" width="190" height="174.872" viewBox="0 0 190 174.872"><g transform="translate(8682 4604.559)"><g transform="translate(-8682 -4604.559)"><path d="M99.783,0A28.944,28.944,0,0,0,79.316,8.478L0,87.794H30.3a28.944,28.944,0,0,0,20.467-8.478L130.082,0Z" transform="matrix(0.998, -0.07, 0.07, 0.998, 0, 9.074)" fill="#dae3f6"/><path d="M124.729,0A36.18,36.18,0,0,0,99.145,10.6L0,109.742H37.874a36.18,36.18,0,0,0,25.584-10.6L162.6,0Z" transform="matrix(0.998, -0.07, 0.07, 0.998, 20.138, 65.397)" fill="#dae3f6"/></g><g transform="translate(-8637.105 -4575.667)"><g transform="translate(1.692 1.693)"><g transform="translate(0)"><path d="M117.121,151.344H45.659a4.144,4.144,0,0,1-4.144-4.144V52.535a4.144,4.144,0,0,1,4.144-4.144h71.462a4.144,4.144,0,0,1,4.144,4.144V147.2A4.144,4.144,0,0,1,117.121,151.344Z" transform="translate(-41.515 -39.161)" fill="#ffc250"/><path d="M328.9,48.39H315.026a4.144,4.144,0,0,1,4.144,4.144V147.2a4.144,4.144,0,0,1-4.144,4.144H328.9a4.144,4.144,0,0,0,4.144-4.144V52.534A4.144,4.144,0,0,0,328.9,48.39Z" transform="translate(-253.289 -39.16)" fill="#eab14d"/><path d="M71.522,166.323V79.879A1.481,1.481,0,0,1,73,78.4h63.241a1.481,1.481,0,0,1,1.481,1.481v86.444a1.481,1.481,0,0,1-1.481,1.481H73A1.481,1.481,0,0,1,71.522,166.323Z" transform="translate(-64.749 -62.395)" fill="#f5f5f5"/><path d="M310.685,78.4H296.816a1.481,1.481,0,0,1,1.481,1.481v86.444a1.481,1.481,0,0,1-1.481,1.481h13.869a1.481,1.481,0,0,0,1.481-1.481V79.879A1.481,1.481,0,0,0,310.685,78.4Z" transform="translate(-239.19 -62.395)" fill="#eaeaea"/><path d="M165.941,12.657V10.476A2.976,2.976,0,0,0,162.965,7.5H151.309a2.976,2.976,0,0,0-2.976,2.976v2.182a1.217,1.217,0,0,1-1.217,1.217h-4.851a2.922,2.922,0,0,0-2.922,2.922V23.5h35.587V16.8a2.922,2.922,0,0,0-2.922-2.922h-4.851A1.217,1.217,0,0,1,165.941,12.657Z" transform="translate(-117.262 -7.5)" fill="#c2d0da"/><g transform="translate(15.389 24.389)"><path d="M109.694,131.21V118.165a2.617,2.617,0,0,1,2.617-2.617h13.045a2.617,2.617,0,0,1,2.617,2.617V131.21a2.617,2.617,0,0,1-2.617,2.617H112.311A2.617,2.617,0,0,1,109.694,131.21Z" transform="translate(-109.694 -115.548)" fill="#66b49d"/><path d="M109.694,251.617V238.572a2.617,2.617,0,0,1,2.617-2.617h13.045a2.617,2.617,0,0,1,2.617,2.617v13.045a2.617,2.617,0,0,1-2.617,2.617H112.311A2.617,2.617,0,0,1,109.694,251.617Z" transform="translate(-109.694 -208.777)" fill="#66b49d"/><path d="M109.694,372.022V358.977a2.617,2.617,0,0,1,2.617-2.617h13.045a2.617,2.617,0,0,1,2.617,2.617v13.045a2.617,2.617,0,0,1-2.617,2.617H112.311A2.617,2.617,0,0,1,109.694,372.022Z" transform="translate(-109.694 -302.004)" fill="#66b49d"/></g><g transform="translate(43.676 26.302)"><g transform="translate(2.78 0)"><path d="M291.115,180.995l-1.662-2.19-6.22-3.938-2.391-.377L249,224.813a13.108,13.108,0,0,0-1.669,3.941,10.258,10.258,0,0,1,9.092,5.757,13.1,13.1,0,0,0,2.849-3.193Z" transform="translate(-247.328 -163.1)" fill="#fc8086"/><path d="M422.313,126.426l-2.687-1.7a4.489,4.489,0,0,0-6.195,1.392l-2.464,3.894.786,1.585,7.478,4.736,2.008.185,2.466-3.9A4.489,4.489,0,0,0,422.313,126.426Z" transform="translate(-374.03 -124.027)" fill="#8c9ba6"/></g><path d="M0,0H6.4V12.159H0Z" transform="matrix(0.535, -0.845, 0.845, 0.535, 36.299, 11.376)" fill="#c9e2e7"/><path d="M246.883,420.652l-9.068,7.307a1.721,1.721,0,0,1-2.753-1.743l2.729-11.321A10.258,10.258,0,0,1,246.883,420.652Z" transform="translate(-235.011 -349.24)" fill="#7c8b96"/></g></g></g><g transform="translate(0 0)"><g transform="translate(0)"><path d="M136.6,135.668a1.693,1.693,0,0,0-2.367.36l-3.351,4.553-1.146-1.574A1.693,1.693,0,1,0,127,141l1.977,2.715a2.362,2.362,0,0,0,1.9.968h.006a2.361,2.361,0,0,0,1.9-.958l4.188-5.689A1.694,1.694,0,0,0,136.6,135.668Z" transform="translate(-105.762 -104.79)"/><path d="M136.6,258.7a1.693,1.693,0,0,0-2.367.36l-3.351,4.552-1.146-1.574A1.693,1.693,0,1,0,127,264.027l1.977,2.715a2.361,2.361,0,0,0,1.9.968h.006a2.362,2.362,0,0,0,1.9-.958l4.188-5.689A1.694,1.694,0,0,0,136.6,258.7Z" transform="translate(-105.761 -200.047)"/><path d="M136.6,376.479a1.693,1.693,0,0,0-2.367.36l-3.351,4.552-1.146-1.573A1.693,1.693,0,1,0,127,381.811l1.977,2.715a2.361,2.361,0,0,0,1.9.968h.006a2.362,2.362,0,0,0,1.9-.958l4.188-5.689A1.694,1.694,0,0,0,136.6,376.479Z" transform="translate(-105.761 -291.245)"/><path d="M222.218,136.254h20.928a1.693,1.693,0,1,0,0-3.387H222.218a1.693,1.693,0,1,0,0,3.387Z" transform="translate(-178.427 -102.876)"/><path d="M222.218,167.595h10.464a1.693,1.693,0,1,0,0-3.387H222.218a1.693,1.693,0,0,0,0,3.387Z" transform="translate(-178.427 -127.143)"/><path d="M222.218,256.659H236.26a1.693,1.693,0,0,0,0-3.387H222.218a1.693,1.693,0,0,0,0,3.387Z" transform="translate(-178.427 -196.104)"/><path d="M232.682,288a1.693,1.693,0,1,0,0-3.387H222.218a1.693,1.693,0,0,0,0,3.387Z" transform="translate(-178.427 -220.371)"/><path d="M119.553,108.047H106.507a4.315,4.315,0,0,0-4.31,4.31V125.4a4.315,4.315,0,0,0,4.31,4.31h13.045a4.315,4.315,0,0,0,4.31-4.31V112.357A4.315,4.315,0,0,0,119.553,108.047Zm.924,17.356a.925.925,0,0,1-.924.924H106.508a.925.925,0,0,1-.924-.924V112.357a.925.925,0,0,1,.924-.924h13.045a.925.925,0,0,1,.924.924Z" transform="translate(-86.808 -83.659)"/><path d="M119.553,228.453H106.507a4.315,4.315,0,0,0-4.31,4.31v13.045a4.315,4.315,0,0,0,4.31,4.31h13.045a4.315,4.315,0,0,0,4.31-4.31V232.763A4.315,4.315,0,0,0,119.553,228.453Zm.924,17.356a.925.925,0,0,1-.924.924H106.508a.925.925,0,0,1-.924-.924V232.763a.925.925,0,0,1,.924-.924h13.045a.925.925,0,0,1,.924.924Z" transform="translate(-86.808 -176.887)"/><path d="M119.553,348.857H106.507a4.315,4.315,0,0,0-4.31,4.31v13.045a4.315,4.315,0,0,0,4.31,4.31h13.045a4.315,4.315,0,0,0,4.31-4.31V353.167A4.315,4.315,0,0,0,119.553,348.857Zm.924,17.356a.925.925,0,0,1-.924.924H106.508a.925.925,0,0,1-.924-.924V353.167a.925.925,0,0,1,.924-.924h13.045a.925.925,0,0,1,.924.924Z" transform="translate(-86.808 -270.113)"/><path d="M131.358,28.964l-2.687-1.7a6.182,6.182,0,0,0-8.532,1.917l-2.464,3.894-3.422,5.407-3.87,6.115V19.177A3.178,3.178,0,0,0,107.208,16H95.074V12.616h16.244a2.453,2.453,0,0,1,2.451,2.451V29.732a1.693,1.693,0,0,0,3.387,0V15.067a5.844,5.844,0,0,0-5.837-5.837H94.724a4.621,4.621,0,0,0-4.265-2.856H86.085V4.669A4.674,4.674,0,0,0,81.416,0H69.76a4.674,4.674,0,0,0-4.669,4.669V6.374H60.717A4.621,4.621,0,0,0,56.452,9.23H39.857a5.844,5.844,0,0,0-5.837,5.837v94.664a5.844,5.844,0,0,0,5.837,5.837h71.462a5.844,5.844,0,0,0,5.837-5.837V71.763a1.693,1.693,0,0,0-3.387,0v37.968a2.453,2.453,0,0,1-2.451,2.451H39.857a2.453,2.453,0,0,1-2.451-2.451V15.067a2.453,2.453,0,0,1,2.451-2.451H56.1V16H43.968a3.178,3.178,0,0,0-3.175,3.175v86.443a3.178,3.178,0,0,0,3.175,3.175h63.241a3.178,3.178,0,0,0,3.175-3.175V73.665l17-26.869v0l3.421-5.405,2.466-3.9a6.189,6.189,0,0,0-1.917-8.529Zm-6.608.793a2.774,2.774,0,0,1,2.108.366l2.687,1.7a2.8,2.8,0,0,1,.867,3.856l-1.56,2.465-7.411-4.693L123,30.99a2.776,2.776,0,0,1,1.749-1.233ZM92.679,95.308a11.4,11.4,0,0,1-1.072,1.43,11.9,11.9,0,0,0-1.8-1.927L121.36,44.984l2.26,1.431Zm-11.563,10.1a.227.227,0,0,0-.032-.012h0l2.392-9.935A8.525,8.525,0,0,1,89.065,99c-8.966,7.225-7.821,6.29-7.949,6.405ZM119.63,36.316l7.411,4.693-1.611,2.545-7.411-4.693ZM59.488,11.027c0-.021,0-.042,0-.063s0-.014,0-.021a1.229,1.229,0,0,1,1.226-1.183h4.851a2.914,2.914,0,0,0,2.91-2.91V4.669A1.284,1.284,0,0,1,69.76,3.386H81.416A1.284,1.284,0,0,1,82.7,4.669V6.85a2.914,2.914,0,0,0,2.91,2.91H90.46a1.229,1.229,0,0,1,1.226,1.183c0,.007,0,.014,0,.021s0,.041,0,.062V16h-32.2ZM44.18,19.39H107V49.947L89.274,77.952a1.693,1.693,0,1,0,2.862,1.811l24.073-38.041,2.29,1.45L86.946,93a11.89,11.89,0,0,0-2.511-.8,11.45,11.45,0,0,1,.834-1.581L87.9,86.455a1.693,1.693,0,1,0-2.862-1.811L82.407,88.8a14.773,14.773,0,0,0-1.884,4.45h0l-2.729,11.32a3.515,3.515,0,0,0-.1.834H44.18ZM107,105.409H86.512l5.812-4.683a14.768,14.768,0,0,0,3.217-3.607L107,79.017Z" transform="translate(-34.02 0)"/></g></g></g></g></svg>