<svg xmlns="http://www.w3.org/2000/svg" xmlns:xlink="http://www.w3.org/1999/xlink" width="820" height="458.305" viewBox="0 0 820 458.305"><defs><clipPath id="a"><rect width="820" height="458.305" fill="none"/></clipPath></defs><g clip-path="url(#a)"><path d="M79.161,29.781A28.28,28.28,0,1,1,50.881,1.5,28.281,28.281,0,0,1,79.161,29.781Z" transform="translate(-0.733 -0.049)" fill="none" stroke="#000" stroke-miterlimit="10" stroke-width="3"/><line y1="94.497" transform="translate(50.148 58.013)" fill="none" stroke="#000" stroke-miterlimit="10" stroke-width="3"/><line x1="48.341" y1="79.322" transform="translate(50.147 152.51)" fill="none" stroke="#000" stroke-miterlimit="10" stroke-width="3"/><line y1="78.633" x2="48.915" transform="translate(1.232 152.51)" fill="none" stroke="#000" stroke-miterlimit="10" stroke-width="3"/><line x2="90.704" transform="translate(5.371 93.19)" fill="none" stroke="#000" stroke-miterlimit="10" stroke-width="3"/><line x2="158.739" transform="translate(122.348 132.927)" fill="none" stroke="#000" stroke-miterlimit="10" stroke-width="3"/><path d="M286.127,151.369,311.191,136.9l-25.064-14.474Z" transform="translate(-9.275 -3.968)"/><line x2="331.467" transform="translate(337.267 214.028)" fill="none" stroke="#000" stroke-miterlimit="10" stroke-width="3"/><path d="M686.76,235.188l25.064-14.473L686.76,206.241Z" transform="translate(-22.262 -6.686)"/><line x1="331.467" transform="translate(358.096 297.619)" fill="none" stroke="#000" stroke-miterlimit="10" stroke-width="3"/><path d="M373.63,292.631,348.566,307.1l25.064,14.474Z" transform="translate(-11.299 -9.486)"/><rect width="33.281" height="83.591" transform="translate(303.986 130.437)" fill="none" stroke="#000" stroke-miterlimit="10" stroke-width="3"/><rect width="33.281" height="83.591" transform="translate(303.986 330.468)" fill="none" stroke="#000" stroke-miterlimit="10" stroke-width="3"/><rect width="33.281" height="83.591" transform="translate(689.563 214.028)" fill="none" stroke="#000" stroke-miterlimit="10" stroke-width="3"/><path d="M351,341.54h73.345V425.13H378.959" transform="translate(-11.378 -11.071)" fill="none" stroke="#000" stroke-miterlimit="10" stroke-width="3"/><path d="M383.432,412.972l-25.064,14.473,25.064,14.474Z" transform="translate(-11.617 -13.387)"/><line y2="5.806" transform="translate(320.626 64.22)" fill="none" stroke="#000" stroke-miterlimit="10" stroke-width="2"/><line y2="38.224" transform="translate(320.626 80.947)" fill="none" stroke="#000" stroke-miterlimit="10" stroke-width="2" stroke-dasharray="11.287 11.287"/><line y2="5.806" transform="translate(320.626 124.632)" fill="none" stroke="#000" stroke-miterlimit="10" stroke-width="2"/><line y2="5.806" transform="translate(708.138 65.381)" fill="none" stroke="#000" stroke-miterlimit="10" stroke-width="2"/><line y2="118.349" transform="translate(708.138 83.644)" fill="none" stroke="#000" stroke-miterlimit="10" stroke-width="2" stroke-dasharray="12.875 12.875"/><line y2="5.806" transform="translate(708.138 208.223)" fill="none" stroke="#000" stroke-miterlimit="10" stroke-width="2"/><line y2="5.806" transform="translate(708.138 297.94)" fill="none" stroke="#000" stroke-miterlimit="10" stroke-width="2"/><line y2="129.556" transform="translate(708.138 315.011)" fill="none" stroke="#000" stroke-miterlimit="10" stroke-width="2" stroke-dasharray="11.643 11.643"/><line y2="5.806" transform="translate(708.138 450.2)" fill="none" stroke="#000" stroke-miterlimit="10" stroke-width="2"/><line y2="5.806" transform="translate(320.626 217.564)" fill="none" stroke="#000" stroke-miterlimit="10" stroke-width="2"/><line y2="84.411" transform="translate(320.626 234.625)" fill="none" stroke="#000" stroke-miterlimit="10" stroke-width="2" stroke-dasharray="11.632 11.632"/><line y2="5.806" transform="translate(320.626 324.663)" fill="none" stroke="#000" stroke-miterlimit="10" stroke-width="2"/><line y2="5.806" transform="translate(320.626 414.059)" fill="none" stroke="#000" stroke-miterlimit="10" stroke-width="2"/><line y2="16.317" transform="translate(320.626 430.743)" fill="none" stroke="#000" stroke-miterlimit="10" stroke-width="2" stroke-dasharray="11.243 11.243"/><line y2="5.806" transform="translate(320.626 452.499)" fill="none" stroke="#000" stroke-miterlimit="10" stroke-width="2"/><rect width="188.65" height="53.457" transform="translate(226.387 10.763)" fill="none" stroke="#000" stroke-miterlimit="10" stroke-width="3"/><rect width="202.8" height="53.457" transform="translate(615.749 10.763)" fill="none" stroke="#000" stroke-miterlimit="10" stroke-width="3"/></g><text transform="translate(249.839 47.156)" font-size="32" font-family="Roboto-Bold, Roboto" font-weight="700"><tspan x="0" y="0">Nomb</tspan><tspan y="0" letter-spacing="-0.009em">r</tspan><tspan y="0">e 1</tspan></text><text transform="translate(647.128 47.156)" font-size="32" font-family="Roboto-Bold, Roboto" font-weight="700"><tspan x="0" y="0">Nomb</tspan><tspan y="0" letter-spacing="-0.009em">r</tspan><tspan y="0">e 2</tspan></text></svg>