<svg xmlns="http://www.w3.org/2000/svg" width="220.688" height="203.118" viewBox="0 0 220.688 203.118"><g transform="translate(8682 4604.559)"><g transform="translate(-8681.621 -4598.583)"><path d="M115.9,0A33.619,33.619,0,0,0,92.127,9.847L0,101.974H35.193a33.619,33.619,0,0,0,23.773-9.847L151.093,0Z" transform="matrix(0.998, -0.07, 0.07, 0.998, -0.379, 4.564)" fill="#fde2e2"/><path d="M144.875,0a42.024,42.024,0,0,0-29.716,12.309L0,127.468H43.991a42.024,42.024,0,0,0,29.716-12.309L188.866,0Z" transform="matrix(0.998, -0.07, 0.07, 0.998, 23.012, 69.985)" fill="#fde2e2"/></g><g transform="translate(-8655.417 -4572.752)"><g transform="translate(3.169 11.844)"><g transform="translate(65.062 108.436)"><path d="M32,56H58.025V69.012H32Z" transform="translate(-32 -56)" fill="#aab2bd"/></g><g transform="translate(26.025 95.424)"><path d="M118.1,50v8.675a4.35,4.35,0,0,1-4.337,4.337H18.337A4.35,4.35,0,0,1,14,58.675V50Z" transform="translate(-14 -50)" fill="#ccd1d9"/></g><g transform="translate(26.025 17.35)"><path d="M113.761,14H14V92.074H118.1V18.337A4.35,4.35,0,0,0,113.761,14Z" transform="translate(-14 -14)" fill="#69d6f4"/></g><g transform="translate(56.604 56.387)"><path d="M49.57,32l29.321,7.851A30.348,30.348,0,0,1,28.1,53.47Z" transform="translate(-28.1 -32)" fill="#fcd770"/></g><g transform="translate(47.711 27.066)"><path d="M46.512,18.48,54.363,47.8l-21.47,21.47A30.365,30.365,0,0,1,24.3,43.464H43.519a2.175,2.175,0,0,0,2.169-2.169V18.7c.282-.087.542-.152.824-.217Z" transform="translate(-23.999 -18.48)" fill="#b4dd7f"/></g><g transform="translate(70.223 26.023)"><path d="M49.192,18.8a30.389,30.389,0,0,1,22.381,37.41h-.022L42.231,48.363,34.38,19.042A30.306,30.306,0,0,1,49.192,18.8Z" transform="translate(-34.38 -17.999)" fill="#ff826e"/></g><path d="M71.4,33.283v22.6a2.175,2.175,0,0,1-2.169,2.169H12.844L9.612,64.512A4.021,4.021,0,0,1,2,62.712V8.169A2.175,2.175,0,0,1,4.169,6H69.23A2.175,2.175,0,0,1,71.4,8.169V33.283Z" transform="translate(-2 -6)" fill="#e6e9ed"/><g transform="translate(17.35 8.675)"><path d="M44.7,23.012v8.675H39.6c-.26.607-.26.651-.52,1.258l3.6,3.6-6.137,6.137-3.6-3.6c-.607.26-.651.26-1.258.52v5.1H23.012V39.6c-.607-.26-.651-.282-1.258-.52l-3.6,3.6-6.137-6.137,3.6-3.6c-.239-.607-.26-.651-.52-1.258H10V23.012h5.1c.26-.607.26-.651.52-1.258l-3.6-3.6,6.137-6.137,3.6,3.6c.607-.26.651-.26,1.258-.52V10h8.675v5.1c.607.26.651.26,1.258.52l3.6-3.6,6.137,6.137-3.6,3.6c.26.607.26.651.52,1.258ZM31.687,27.35a4.337,4.337,0,1,0-4.337,4.337A4.35,4.35,0,0,0,31.687,27.35Z" transform="translate(-10 -10)" fill="#fcd770"/></g></g><g transform="translate(1 1)"><path d="M21.506,15a6.506,6.506,0,1,0,6.506,6.506A6.514,6.514,0,0,0,21.506,15Zm0,8.675a2.169,2.169,0,1,1,2.169-2.169A2.171,2.171,0,0,1,21.506,23.675Z" transform="translate(15.362 15.362)"/><path d="M46.92,19.319l-9.2-9.2-2.694,2.7V9H22.012v3.813l-2.7-2.7-9.2,9.2,2.694,2.694H9V35.025h3.81l-2.694,2.694,9.2,9.2,2.7-2.694v3.81H35.025V44.224l2.7,2.7,9.2-9.2-2.7-2.694h3.81V22.012h-3.81ZM43.7,30.687H39.323l-1.631,3.936,3.095,3.095-3.069,3.069-3.095-3.1-3.936,1.633V43.7H26.35V39.323L22.414,37.69l-3.1,3.1L16.25,37.718l3.1-3.1-1.631-3.932H13.337V26.35h4.376l1.631-3.936L16.25,19.319l3.067-3.069,3.095,3.1,3.938-1.633V13.337h4.337v4.376l3.936,1.633,3.095-3.1,3.069,3.069-3.095,3.095,1.631,3.936H43.7Z" transform="translate(8.35 8.35)"/><path d="M57,45h4.337v4.337H57Z" transform="translate(64.448 50.424)"/><path d="M53,45h4.337v4.337H53Z" transform="translate(59.773 50.424)"/><path d="M49,45h4.337v4.337H49Z" transform="translate(55.099 50.424)"/><path d="M135.461,22.687V18.35h-4.337V1h-4.337V18.35h-4.337V14.012h-4.337V18.35h-4.337V5.337h-4.337V18.35H105.1V9.675h-4.337V18.35h-8.07L89.8,27.025H74.737V14.012A4.342,4.342,0,0,0,70.4,9.675H5.337A4.342,4.342,0,0,0,1,14.012V68.547a6.19,6.19,0,0,0,11.726,2.767l2.626-5.253H27.025v49.881a6.514,6.514,0,0,0,6.506,6.506H66.062v8.675H53.049v4.337h56.387v-4.337H96.424v-8.675h32.531a6.514,6.514,0,0,0,6.506-6.506V33.531a6.514,6.514,0,0,0-6.506-6.506H94.372l1.447-4.337ZM88.354,31.362l-1.6,4.817a32.554,32.554,0,0,0-12.013.191V31.362Zm-.716,15.866,1.971-5.916A28.176,28.176,0,0,1,109.436,68.23a28.51,28.51,0,0,1-.488,5.179L83.012,66.461,76.064,40.531a28.177,28.177,0,0,1,9.293-.178L83.522,45.86Zm-5.747,23.42,25.925,6.946a28.144,28.144,0,0,1-44.9,12.03Zm-7.155-8.924v-9.4l4.088,15.255L59.861,86.545a27.857,27.857,0,0,1-6.684-20.484H70.4a4.342,4.342,0,0,0,4.337-4.337Zm-62.064,0L8.846,69.373a1.852,1.852,0,0,1-3.509-.826V14.012H70.4V61.724Zm79.414,69.4H70.4v-8.675H92.086Zm36.868-13.012H33.531a2.171,2.171,0,0,1-2.169-2.169v-6.506h99.761v6.506A2.171,2.171,0,0,1,128.955,118.111Zm0-86.749a2.171,2.171,0,0,1,2.169,2.169V105.1H31.362V66.062H48.831A32.508,32.508,0,1,0,90.98,37.2l1.945-5.84Z" transform="translate(-1 -1)"/></g></g></g></svg>