<svg xmlns="http://www.w3.org/2000/svg" width="220.688" height="203.118" viewBox="0 0 220.688 203.118"><g transform="translate(8682 4604.559)"><g transform="translate(-8681.621 -4598.583)"><path d="M115.9,0A33.619,33.619,0,0,0,92.127,9.847L0,101.974H35.193a33.619,33.619,0,0,0,23.773-9.847L151.093,0Z" transform="matrix(0.998, -0.07, 0.07, 0.998, -0.379, 4.564)" fill="#fde2e2"/><path d="M144.875,0a42.024,42.024,0,0,0-29.716,12.309L0,127.468H43.991a42.024,42.024,0,0,0,29.716-12.309L188.866,0Z" transform="matrix(0.998, -0.07, 0.07, 0.998, 23.012, 69.985)" fill="#fde2e2"/></g><g transform="translate(-8639.053 -4570.29)"><path d="M122.925,199.884l-21.148-4.113v-13.76H82.2v13.76l-21.148,4.113c-7.986,2.351-13.469,6.522-13.469,14.847V244.5A5.418,5.418,0,0,0,53,249.92h77.975a5.418,5.418,0,0,0,5.419-5.418V214.731c0-8.325-5.483-12.5-13.469-14.847Zm0,0" transform="translate(-35.055 -133.724)" fill="#fff3de"/><path d="M122.925,238.389l-21.148-4.113a9.789,9.789,0,0,1-19.578,0l-21.148,4.113c-7.986,2.351-13.469,6.522-13.469,14.847v5.877H62.209v29.312h59.557V259.114h14.627v-5.877c0-8.325-5.482-12.5-13.468-14.847Zm0,0" transform="translate(-35.055 -172.23)" fill="#ff9838"/><path d="M231.088,195.771v-13.76H223.1v23.38A9.789,9.789,0,0,0,231.088,195.771Zm0,0" transform="translate(-164.366 -133.725)" fill="#ffe5c2"/><path d="M332.93,249.734l-.3-.059a13.007,13.007,0,0,1,5.692,11.307v9.476H346.4v-5.877C346.4,256.256,340.916,252.085,332.93,249.734Zm0,0" transform="translate(-245.06 -183.574)" fill="#ff8709"/><path d="M103.145,243.827V294.09H162.7V243.827l-9.581-1.862v12.777a3.934,3.934,0,0,1-3.934,3.934H116.659a3.934,3.934,0,0,1-3.934-3.934V241.965Zm0,0" transform="translate(-75.99 -177.894)" fill="#2dd2e3"/><path d="M172.013,51.03h-1.242V46.083a16.989,16.989,0,0,0-5.754-12.91,18.661,18.661,0,0,0-24.942,0,16.987,16.987,0,0,0-5.754,12.91V51.03h-1.242a3.3,3.3,0,0,0-3.3,3.3v3.655a3.3,3.3,0,0,0,3.3,3.3h1.247a16.957,16.957,0,0,0,5.749,12.524,18.661,18.661,0,0,0,24.942,0,16.952,16.952,0,0,0,5.748-12.524h1.247a3.3,3.3,0,0,0,3.3-3.3V54.329A3.3,3.3,0,0,0,172.013,51.03Zm0,0" transform="translate(-95.613 -20.551)" fill="#fff3de"/><path d="M238.212,59.623H236.97V54.676a16.989,16.989,0,0,0-5.754-12.91,21.139,21.139,0,0,0-2.278-1.708l0,32.1a16.956,16.956,0,0,1-5.749,12.524,20.549,20.549,0,0,1-3.55,2.465,19.123,19.123,0,0,0,11.58-4.746,16.957,16.957,0,0,0,5.749-12.524h1.247a3.3,3.3,0,0,0,3.3-3.3V62.922a3.3,3.3,0,0,0-3.3-3.3Zm0,0" transform="translate(-161.812 -29.144)" fill="#ffe5c2"/><path d="M156.392,8H154.5A20.784,20.784,0,0,0,133.719,28.78v5.984h43.457V28.78A20.784,20.784,0,0,0,156.392,8Zm0,0" transform="translate(-98.515 -5.523)" fill="#ff9838"/><path d="M206.147,8h-1.889a20.959,20.959,0,0,0-3,.219A20.787,20.787,0,0,1,219.033,28.78v5.984h7.9V28.78A20.784,20.784,0,0,0,206.147,8Zm0,0" transform="translate(-148.27 -5.523)" fill="#ff8709"/><path d="M167.072,104.831H121.831a3.038,3.038,0,0,1,0-6.077h45.241a3.038,3.038,0,0,1,0,6.077Zm0,0" transform="translate(-87.518 -72.386)" fill="#ff8709"/><path d="M331.066,350.638H283.414v-20.43a1.591,1.591,0,0,1,1.591-1.59h44.471a1.59,1.59,0,0,1,1.59,1.59Zm0,0" transform="translate(-208.799 -241.733)" fill="#eab765"/><path d="M436.089,328.617h-7.964a1.59,1.59,0,0,1,1.59,1.59v20.43h7.964v-20.43A1.59,1.59,0,0,0,436.089,328.617Zm0,0" transform="translate(-315.412 -241.733)" fill="#d9ab5e"/><path d="M125.407,424.445H20.44a12.939,12.939,0,0,1,0-25.879H125.407a12.939,12.939,0,0,1,0,25.879Zm0,0" transform="translate(-5.526 -293.266)" fill="#8ebac5"/><path d="M433.25,398.566h-7.9a12.939,12.939,0,1,1,0,25.879h7.9a12.939,12.939,0,0,0,0-25.879Zm0,0" transform="translate(-313.369 -293.266)" fill="#7ca1b1"/><path d="M41.094,437.721a5.558,5.558,0,1,1,0-11.116H146.061a5.558,5.558,0,1,1,0,11.116Zm0,0" transform="translate(-26.18 -313.924)" fill="#384949"/><g transform="translate(9.355 112.682)"><path d="M445.358,432.163a5.558,5.558,0,1,1-5.559-5.558A5.559,5.559,0,0,1,445.358,432.163Zm0,0" transform="translate(-329.274 -426.606)" fill="#deecf1"/><path d="M46.651,432.163a5.558,5.558,0,1,1-5.558-5.558A5.558,5.558,0,0,1,46.651,432.163Zm0,0" transform="translate(-35.535 -426.606)" fill="#deecf1"/><path d="M172.248,432.163a5.558,5.558,0,1,1-5.558-5.558A5.558,5.558,0,0,1,172.248,432.163Zm0,0" transform="translate(-128.066 -426.606)" fill="#deecf1"/><path d="M319.76,432.163a5.558,5.558,0,1,1-5.559-5.558A5.559,5.559,0,0,1,319.76,432.163Zm0,0" transform="translate(-236.742 -426.606)" fill="#deecf1"/></g><path d="M124.242,103.976V100.2a1.975,1.975,0,0,0-3.949,0v3.136c-.137,0-.274-.006-.411-.006H76.589V88.859h43.7v3.395a1.975,1.975,0,0,0,3.949,0V88.474a3.568,3.568,0,0,0-3.564-3.564H103.313v-3.9c0-8.317-4.87-13.793-14.886-16.741a1.787,1.787,0,0,0-.181-.044l-19.55-3.8V56.3a23.787,23.787,0,0,0,2-1.544,18.783,18.783,0,0,0,6.3-12.079,5.281,5.281,0,0,0,4.678-5.24V33.949a5.013,5.013,0,0,0-1.037-9.438V23.259A22.784,22.784,0,0,0,57.877.5H55.988a22.818,22.818,0,0,0-18.546,9.565,1.974,1.974,0,1,0,3.216,2.291,18.83,18.83,0,0,1,5.8-5.307v3.737a1.975,1.975,0,0,0,3.949,0V5.3a18.715,18.715,0,0,1,4.677-.83V15.5a1.975,1.975,0,1,0,3.949,0V4.484a18.665,18.665,0,0,1,4.429.81v5.493a1.975,1.975,0,1,0,3.949,0V7.047a18.82,18.82,0,0,1,9.277,16.211v1.135H37.179V23.258a18.893,18.893,0,0,1,.516-4.394,1.975,1.975,0,0,0-3.841-.918,22.84,22.84,0,0,0-.624,5.313v1.254a5.013,5.013,0,0,0-1.037,9.438v3.484a5.28,5.28,0,0,0,4.678,5.239,18.788,18.788,0,0,0,6.3,12.08,23.558,23.558,0,0,0,2,1.543v4.125l-19.55,3.8c-.062.012-.121.027-.181.044C15.422,67.214,10.552,72.69,10.552,81.007v22.968a14.915,14.915,0,0,0,4.361,29.178H119.881a14.914,14.914,0,0,0,4.36-29.177ZM88.685,68.486c7.371,2.483,10.679,6.385,10.679,12.521v3.9H88.685ZM33.249,29.406a1.065,1.065,0,0,1,1.063-1.064H79.553a1.064,1.064,0,1,1,0,2.128H34.313a1.064,1.064,0,0,1-1.063-1.063Zm7.438,11.283a1.975,1.975,0,0,0-1.975-1.932H37.466a1.325,1.325,0,0,1-1.324-1.324V34.42H77.724v3.013A1.325,1.325,0,0,1,76.4,38.756H75.153a1.974,1.974,0,0,0-1.974,1.932,14.982,14.982,0,0,1-5.063,11.07,16.689,16.689,0,0,1-22.366,0,14.979,14.979,0,0,1-5.063-11.07Zm24.06,17.76v3.6a7.814,7.814,0,0,1-15.629,0v-3.6a20.885,20.885,0,0,0,7.792,1.56h.044a20.865,20.865,0,0,0,7.792-1.56ZM38.709,65.7l6.7-1.3a11.765,11.765,0,0,0,23.055,0l6.7,1.3V76.848A1.961,1.961,0,0,1,73.2,78.806H40.669a1.96,1.96,0,0,1-1.959-1.958V65.7Zm-9.58,1.862,5.632-1.1V76.848a5.914,5.914,0,0,0,5.908,5.907H73.2a5.914,5.914,0,0,0,5.908-5.907V66.466l5.631,1.1V84.909H76.206a3.569,3.569,0,0,0-3.565,3.564v14.851H29.129ZM14.5,81.007c0-6.135,3.307-10.038,10.678-12.521V84.909H14.5Zm0,7.852H25.18v14.467H14.914c-.138,0-.276,0-.411.006ZM119.881,129.2H14.914a10.965,10.965,0,0,1,0-21.93H119.881a10.965,10.965,0,0,1,0,21.93Zm0,0"/><path d="M140.536,419.105H35.569a7.532,7.532,0,1,0,0,15.064H140.536a7.532,7.532,0,1,0,0-15.064ZM35.569,430.221a3.589,3.589,0,0,1-3.535-2.995c0-.014-.005-.029-.007-.044s-.009-.059-.012-.088l-.006-.045c-.006-.06-.012-.12-.015-.181-.005-.076-.008-.153-.008-.23s0-.153.008-.229c0-.061.009-.121.015-.181l.006-.045c0-.03.007-.06.012-.088s0-.03.007-.045a3.583,3.583,0,1,1,3.535,4.173Zm26.443,0H42.193a7.525,7.525,0,0,0,0-7.167H62.011a7.525,7.525,0,0,0,0,7.167Zm6.624,0a3.583,3.583,0,1,1,3.583-3.584A3.587,3.587,0,0,1,68.635,430.221Zm32.211,0H75.259a7.525,7.525,0,0,0,0-7.167h25.587a7.525,7.525,0,0,0,0,7.167Zm6.624,0a3.583,3.583,0,1,1,3.583-3.584A3.587,3.587,0,0,1,107.47,430.221Zm6.624,0a7.525,7.525,0,0,0,0-7.167h19.818a7.525,7.525,0,0,0,0,7.167Zm26.443,0a3.583,3.583,0,1,1,3.584-3.584A3.588,3.588,0,0,1,140.537,430.221Zm0,0" transform="translate(-20.655 -308.398)"/></g></g></svg>