<svg xmlns="http://www.w3.org/2000/svg" width="105" height="105" viewBox="0 0 105 105">
  <g id="humano" transform="translate(-1 -1)">
    <g id="Grupo_80849" data-name="Grupo 80849" transform="translate(2.694 2.694)">
      <g id="Grupo_80805" data-name="Grupo 80805" transform="translate(13.718 10.161)">
        <path id="Trazado_125130" data-name="Trazado 125130" d="M26.7,14.774H10.1a8.47,8.47,0,0,1,16.6,0Z" transform="translate(-10.1 -8)" fill="#656d78"/>
      </g>
      <g id="Grupo_80806" data-name="Grupo 80806" transform="translate(42.508)">
        <path id="Trazado_125131" data-name="Trazado 125131" d="M43.7,8.774H27.1a8.47,8.47,0,0,1,16.6,0Z" transform="translate(-27.1 -2)" fill="#b27946"/>
      </g>
      <g id="Grupo_80807" data-name="Grupo 80807" transform="translate(71.298 10.161)">
        <path id="Trazado_125132" data-name="Trazado 125132" d="M54.8,8.339A8.48,8.48,0,0,1,60.7,14.774H44.1A8.468,8.468,0,0,1,52.4,8,8.685,8.685,0,0,1,54.8,8.339Z" transform="translate(-44.1 -8)" fill="#e6e9ed"/>
      </g>
      <g id="Grupo_80808" data-name="Grupo 80808" transform="translate(82.002 6.774)">
        <path id="Trazado_125133" data-name="Trazado 125133" d="M63.257,12.774a6.772,6.772,0,0,1-6.774,6.774h-.169a8.553,8.553,0,0,0,0-3.387A8.48,8.48,0,0,0,50.42,9.726a6.782,6.782,0,0,1,12.837,3.048Z" transform="translate(-50.42 -6)" fill="#e6e9ed"/>
      </g>
      <g id="Grupo_80809" data-name="Grupo 80809" transform="translate(10.331 27.266)">
        <path id="Trazado_125134" data-name="Trazado 125134" d="M14.7,19.624A5.074,5.074,0,0,0,19.785,24.7H8.1a8.462,8.462,0,0,1,6.6-6.6Z" transform="translate(-8.1 -18.1)" fill="#b4dd7f"/>
      </g>
      <g id="Grupo_80810" data-name="Grupo 80810" transform="translate(22.016 27.266)">
        <path id="Trazado_125135" data-name="Trazado 125135" d="M26.8,25.5a17.982,17.982,0,0,0-1.321,4.251,10.2,10.2,0,0,0-8.79-5.047H15a5.088,5.088,0,0,0,5.081-5.081V18.1A8.477,8.477,0,0,1,26.8,25.5Z" transform="translate(-15 -18.1)" fill="#b4dd7f"/>
      </g>
      <g id="Grupo_80811" data-name="Grupo 80811" transform="translate(79.597 27.266)">
        <path id="Trazado_125136" data-name="Trazado 125136" d="M60.855,26.4v1.626A11.368,11.368,0,0,0,52.81,24.7H49a5.088,5.088,0,0,0,5.081-5.081V18.1A8.468,8.468,0,0,1,60.855,26.4Z" transform="translate(-49 -18.1)" fill="#b4dd7f"/>
      </g>
      <g id="Grupo_80812" data-name="Grupo 80812" transform="translate(67.793 27.266)">
        <path id="Trazado_125137" data-name="Trazado 125137" d="M53.834,24.7h-.423a11.4,11.4,0,0,0-9.924,5.775H43.47A18.328,18.328,0,0,0,42.03,25.5a8.477,8.477,0,0,1,6.723-7.4v1.524A5.074,5.074,0,0,0,53.834,24.7Z" transform="translate(-42.03 -18.1)" fill="#b4dd7f"/>
      </g>
      <g id="Grupo_80813" data-name="Grupo 80813" transform="translate(38.952 17.105)">
        <path id="Trazado_125138" data-name="Trazado 125138" d="M31.774,13.624A5.074,5.074,0,0,0,36.855,18.7,18.544,18.544,0,0,0,25,22.956V20.4a8.468,8.468,0,0,1,6.774-8.3Z" transform="translate(-25 -12.1)" fill="#ff826e"/>
      </g>
      <g id="Grupo_80814" data-name="Grupo 80814" transform="translate(50.806 17.105)">
        <path id="Trazado_125139" data-name="Trazado 125139" d="M43.855,20.4v2.557A18.544,18.544,0,0,0,32,18.7a5.088,5.088,0,0,0,5.081-5.081V12.1a8.435,8.435,0,0,1,6.774,8.3Z" transform="translate(-32 -12.1)" fill="#ff826e"/>
      </g>
      <g id="Grupo_80815" data-name="Grupo 80815" transform="translate(0 67.285)">
        <path id="Trazado_125140" data-name="Trazado 125140" d="M14.414,47.827l3.963,7.35,3.946,7.333V76.058H2V53.094a11.638,11.638,0,0,1,4.657-9.315,11.457,11.457,0,0,1,4.471-2.049Z" transform="translate(-2 -41.73)" fill="#ff826e"/>
      </g>
      <g id="Grupo_80816" data-name="Grupo 80816" transform="translate(20.323 81.781)">
        <path id="Trazado_125141" data-name="Trazado 125141" d="M20.774,56.573V70.121H14V56.573l3.387-6.283v4.59a1.7,1.7,0,0,0,1.694,1.694Z" transform="translate(-14 -50.29)" fill="#ff826e"/>
      </g>
      <g id="Grupo_80817" data-name="Grupo 80817" transform="translate(16.377 76.21)">
        <path id="Trazado_125142" data-name="Trazado 125142" d="M13.922,47h5.64A17.651,17.651,0,0,0,19,51.369v1.2l-3.387,6.283L11.67,51.522Z" transform="translate(-11.67 -47)" fill="#e6e9ed"/>
      </g>
      <g id="Grupo_80818" data-name="Grupo 80818" transform="translate(16.935 69.435)">
        <path id="Trazado_125143" data-name="Trazado 125143" d="M15.387,43l5.589,2.794a16.386,16.386,0,0,0-1.626,3.98H13.694L12,44.694Z" transform="translate(-12 -43)" fill="#ccd1d9"/>
      </g>
      <g id="Grupo_80819" data-name="Grupo 80819" transform="translate(12.414 71.129)">
        <path id="Trazado_125144" data-name="Trazado 125144" d="M15.545,49.081,13.293,53.6,9.33,46.252,13.852,44Z" transform="translate(-9.33 -44)" fill="#fcd770"/>
      </g>
      <g id="Grupo_80820" data-name="Grupo 80820" transform="translate(20.323 66.048)">
        <path id="Trazado_125145" data-name="Trazado 125145" d="M19.081,41l5.047,1.016a16.586,16.586,0,0,0-4.539,5.165L14,44.387Z" transform="translate(-14 -41)" fill="#ffc729"/>
      </g>
      <g id="Grupo_80821" data-name="Grupo 80821" transform="translate(9.128 66.048)">
        <path id="Trazado_125146" data-name="Trazado 125146" d="M18.584,44.387,15.2,46.081l-4.522,2.252-3.285-6.1a1.248,1.248,0,0,1,.237-.068L13.5,41Z" transform="translate(-7.39 -41)" fill="#ffc729"/>
      </g>
      <g id="Grupo_80822" data-name="Grupo 80822" transform="translate(6.774 33.871)">
        <path id="Trazado_125147" data-name="Trazado 125147" d="M31.4,39.85a12.7,12.7,0,0,1-2.354,3.015l-1.2,1.152a7.98,7.98,0,0,0,.169-1.694V39.139a6.79,6.79,0,0,0-5.131-6.571L21.767,32.3l-.017-.017a5.785,5.785,0,0,1-3.844,2.286l-3.912.559a3.4,3.4,0,0,0-2.913,3.353v3.844a7.98,7.98,0,0,0,.169,1.694l-1.2-1.152A12.935,12.935,0,0,1,6,33.431V25.387A3.4,3.4,0,0,1,9.387,22H22.935a10.2,10.2,0,0,1,8.79,5.047,17.615,17.615,0,0,0-.322,3.421Z" transform="translate(-6 -22)" fill="#b27946"/>
      </g>
      <g id="Grupo_80823" data-name="Grupo 80823" transform="translate(69.232 33.871)">
        <path id="Trazado_125148" data-name="Trazado 125148" d="M63.406,38.478a3.4,3.4,0,0,0-2.913-3.353l-3.912-.559a5.785,5.785,0,0,1-3.844-2.286l-.017.017-1.118.271a6.79,6.79,0,0,0-5.131,6.571v3.184a7.98,7.98,0,0,0,.169,1.694l-1.2-1.152a12.7,12.7,0,0,1-2.354-3.015V30.468a17.684,17.684,0,0,0-.2-2.693H42.9A11.4,11.4,0,0,1,52.821,22h4.234A11.448,11.448,0,0,1,68.486,33.431a12.935,12.935,0,0,1-4.048,9.433l-1.2,1.152a7.981,7.981,0,0,0,.169-1.694Z" transform="translate(-42.88 -22)" fill="#b27946"/>
      </g>
      <g id="Grupo_80824" data-name="Grupo 80824" transform="translate(81.29 67.285)">
        <path id="Trazado_125149" data-name="Trazado 125149" d="M63.548,76.058H50V62.51l3.946-7.333,3.963-7.35,3.285-6.1a11.608,11.608,0,0,1,7.892,6.148,11.707,11.707,0,0,1,1.236,5.216V76.058Z" transform="translate(-50 -41.73)" fill="#e6e9ed"/>
      </g>
      <g id="Grupo_80825" data-name="Grupo 80825" transform="translate(74.516 81.781)">
        <path id="Trazado_125150" data-name="Trazado 125150" d="M52.774,56.573V70.121H46V56.573h1.694a1.7,1.7,0,0,0,1.694-1.694V50.29Z" transform="translate(-46 -50.29)" fill="#e6e9ed"/>
      </g>
      <g id="Grupo_80826" data-name="Grupo 80826" transform="translate(77.344 76.21)">
        <path id="Trazado_125151" data-name="Trazado 125151" d="M53.31,47l2.252,4.522-3.946,7.333-3.387-6.283v-1.2A17.651,17.651,0,0,0,47.67,47Z" transform="translate(-47.67 -47)" fill="#fcd770"/>
      </g>
      <g id="Grupo_80827" data-name="Grupo 80827" transform="translate(75.702 69.435)">
        <path id="Trazado_125152" data-name="Trazado 125152" d="M55.676,44.694l-1.694,5.081H48.326a16.386,16.386,0,0,0-1.626-3.98L52.289,43Z" transform="translate(-46.7 -43)" fill="#ffc729"/>
      </g>
      <g id="Grupo_80828" data-name="Grupo 80828" transform="translate(82.984 71.129)">
        <path id="Trazado_125153" data-name="Trazado 125153" d="M57.215,46.252,53.252,53.6,51,49.081,52.694,44Z" transform="translate(-51 -44)" fill="#ff826e"/>
      </g>
      <g id="Grupo_80829" data-name="Grupo 80829" transform="translate(81.29 66.048)">
        <path id="Trazado_125154" data-name="Trazado 125154" d="M61.194,42.236l-3.285,6.1-4.522-2.252L50,44.387,55.081,41l5.877,1.169a1.248,1.248,0,0,1,.237.068Z" transform="translate(-50 -41)" fill="#fc6e51"/>
      </g>
      <g id="Grupo_80830" data-name="Grupo 80830" transform="translate(71.163 66.048)">
        <path id="Trazado_125155" data-name="Trazado 125155" d="M54.147,44.387l-5.589,2.794a16.586,16.586,0,0,0-4.539-5.165L49.067,41Z" transform="translate(-44.02 -41)" fill="#fc6e51"/>
      </g>
      <g id="Grupo_80831" data-name="Grupo 80831" transform="translate(27.097 88.065)">
        <path id="Trazado_125156" data-name="Trazado 125156" d="M28.161,62.468v5.081H18V54h7.13a20.324,20.324,0,0,0,1.016,3.421Z" transform="translate(-18 -54)" fill="#f0d0b4"/>
      </g>
      <g id="Grupo_80832" data-name="Grupo 80832" transform="translate(64.355 88.065)">
        <path id="Trazado_125157" data-name="Trazado 125157" d="M50.161,54V67.548H40V62.468l2.015-5.047A20.324,20.324,0,0,0,43.031,54Z" transform="translate(-40 -54)" fill="#f0d0b4"/>
      </g>
      <g id="Grupo_80833" data-name="Grupo 80833" transform="translate(23.71 63.627)">
        <path id="Trazado_125158" data-name="Trazado 125158" d="M26.517,64.008H17.694A1.7,1.7,0,0,1,16,62.314V56.522a17.651,17.651,0,0,1,.559-4.369h.017a16.386,16.386,0,0,1,1.626-3.98,16.586,16.586,0,0,1,4.539-5.165,11.843,11.843,0,0,1,1.744-1.135,17.023,17.023,0,0,1,5.877-2.083l1.406-.22,4.945,9.2L43.1,60.621V77.556H29.548V72.476l-2.015-5.047a20.324,20.324,0,0,1-1.016-3.421Z" transform="translate(-16 -39.57)" fill="#b4dd7f"/>
      </g>
      <g id="Grupo_80834" data-name="Grupo 80834" transform="translate(50.806 63.627)">
        <path id="Trazado_125159" data-name="Trazado 125159" d="M48.58,64.008a20.324,20.324,0,0,1-1.016,3.421l-2.015,5.047v5.081H32V60.621l6.385-11.855,4.945-9.2,1.406.22a17.023,17.023,0,0,1,5.877,2.083,11.842,11.842,0,0,1,1.744,1.135A16.586,16.586,0,0,1,56.9,48.173a16.386,16.386,0,0,1,1.626,3.98h.017a17.651,17.651,0,0,1,.559,4.369v5.792A1.7,1.7,0,0,1,57.4,64.008H48.58Z" transform="translate(-32 -39.57)" fill="#b4dd7f"/>
      </g>
      <g id="Grupo_80835" data-name="Grupo 80835" transform="translate(44.422 72.823)">
        <path id="Trazado_125160" data-name="Trazado 125160" d="M41,45,34.615,56.855,28.23,45Z" transform="translate(-28.23 -45)" fill="#ffeaa7"/>
      </g>
      <g id="Grupo_80836" data-name="Grupo 80836" transform="translate(32.177 23.71)">
        <path id="Trazado_125161" data-name="Trazado 125161" d="M39.629,26.161a14.787,14.787,0,0,1-9.382,6.283l-2.473.491V39.71a11.861,11.861,0,0,0,6.774,10.7V50.6a5.066,5.066,0,0,1-4.3,5.013l-1.948.3-1.406.22a17.023,17.023,0,0,0-5.877,2.083L21,58.2V34.629a17.614,17.614,0,0,1,.322-3.421,17.982,17.982,0,0,1,1.321-4.251,18.649,18.649,0,0,1,28.841-6.706,17.627,17.627,0,0,1,1.321,1.2,18.623,18.623,0,0,1,3.81,5.5,18.328,18.328,0,0,1,1.44,4.979,17.683,17.683,0,0,1,.2,2.693V58.2l-.017.017a17.023,17.023,0,0,0-5.877-2.083l-1.406-.22-1.948-.3a5.066,5.066,0,0,1-4.3-5.013v-.051a11.513,11.513,0,0,0,6.774-10.483v-7.13l-2.473-.491a14.845,14.845,0,0,1-9.382-6.283Z" transform="translate(-21 -16)" fill="#656d78"/>
      </g>
      <g id="Grupo_80837" data-name="Grupo 80837" transform="translate(16.935 27.097)">
        <path id="Trazado_125162" data-name="Trazado 125162" d="M22.161,18.169v1.524a5.081,5.081,0,1,1-10.161,0V18.169A7.98,7.98,0,0,1,13.694,18h6.774a7.98,7.98,0,0,1,1.694.169Z" transform="translate(-12 -18)" fill="#f0d0b4"/>
      </g>
      <g id="Grupo_80838" data-name="Grupo 80838" transform="translate(13.548 16.935)">
        <path id="Trazado_125163" data-name="Trazado 125163" d="M26.766,12a7.98,7.98,0,0,1,.169,1.694,8.468,8.468,0,0,1-16.935,0A7.98,7.98,0,0,1,10.169,12Z" transform="translate(-10 -12)" fill="#f0d0b4"/>
      </g>
      <g id="Grupo_80839" data-name="Grupo 80839" transform="translate(45.726 16.935)">
        <path id="Trazado_125164" data-name="Trazado 125164" d="M39.161,12.169v1.524a5.081,5.081,0,0,1-10.161,0V12.169A7.98,7.98,0,0,1,30.694,12h6.774A7.98,7.98,0,0,1,39.161,12.169Z" transform="translate(-29 -12)" fill="#f0d0b4"/>
      </g>
      <g id="Grupo_80840" data-name="Grupo 80840" transform="translate(42.339 6.774)">
        <path id="Trazado_125165" data-name="Trazado 125165" d="M43.766,6a7.98,7.98,0,0,1,.169,1.694A8.468,8.468,0,0,1,27,7.694,7.98,7.98,0,0,1,27.169,6Z" transform="translate(-27 -6)" fill="#f0d0b4"/>
      </g>
      <g id="Grupo_80841" data-name="Grupo 80841" transform="translate(74.516 27.097)">
        <path id="Trazado_125166" data-name="Trazado 125166" d="M56.161,18.169v1.524a5.081,5.081,0,0,1-10.161,0V18.169A7.981,7.981,0,0,1,47.694,18h6.774a7.981,7.981,0,0,1,1.694.169Z" transform="translate(-46 -18)" fill="#f0d0b4"/>
      </g>
      <g id="Grupo_80842" data-name="Grupo 80842" transform="translate(71.129 16.935)">
        <path id="Trazado_125167" data-name="Trazado 125167" d="M60.766,15.387A8.469,8.469,0,0,1,44,13.694,7.981,7.981,0,0,1,44.169,12h16.6a8.553,8.553,0,0,1,0,3.387Z" transform="translate(-44 -12)" fill="#f0d0b4"/>
      </g>
      <g id="Grupo_80843" data-name="Grupo 80843" transform="translate(76.21 61.662)">
        <path id="Trazado_125168" data-name="Trazado 125168" d="M52.081,39.409a8.308,8.308,0,0,0,3.98-1l1.1,4.386-5.081,3.387L47,42.8l1.1-4.386Z" transform="translate(-47 -38.41)" fill="#f0d0b4"/>
      </g>
      <g id="Grupo_80844" data-name="Grupo 80844" transform="translate(72.823 44.151)">
        <path id="Trazado_125169" data-name="Trazado 125169" d="M51.266,28.07a5.785,5.785,0,0,0,3.844,2.286l3.912.559a3.4,3.4,0,0,1,2.913,3.353v3.844a7.981,7.981,0,0,1-.169,1.694,8.438,8.438,0,0,1-4.319,5.775,8.308,8.308,0,0,1-3.98,1l-3.98-1a8.226,8.226,0,0,1-2.015-1.473,8.545,8.545,0,0,1-2.3-4.3A7.981,7.981,0,0,1,45,38.113V34.929a6.79,6.79,0,0,1,5.131-6.571l1.118-.271Z" transform="translate(-45 -28.07)" fill="#f0d0b4"/>
      </g>
      <g id="Grupo_80845" data-name="Grupo 80845" transform="translate(15.242 61.662)">
        <path id="Trazado_125170" data-name="Trazado 125170" d="M21.161,42.8l-5.081,3.387L11,42.8l1.1-4.386a8.308,8.308,0,0,0,3.98,1l3.98-1Z" transform="translate(-11 -38.41)" fill="#f0d0b4"/>
      </g>
      <g id="Grupo_80846" data-name="Grupo 80846" transform="translate(11.855 44.151)">
        <path id="Trazado_125171" data-name="Trazado 125171" d="M20.8,28.358a6.79,6.79,0,0,1,5.131,6.571v3.184a7.981,7.981,0,0,1-.169,1.694,8.545,8.545,0,0,1-2.3,4.3,8.226,8.226,0,0,1-2.015,1.473l-3.98,1a8.308,8.308,0,0,1-3.98-1,8.438,8.438,0,0,1-4.319-5.775A7.98,7.98,0,0,1,9,38.113V34.268a3.4,3.4,0,0,1,2.913-3.353l3.912-.559a5.785,5.785,0,0,0,3.844-2.286l.017.017Z" transform="translate(-9 -28.07)" fill="#f0d0b4"/>
      </g>
      <g id="Grupo_80847" data-name="Grupo 80847" transform="translate(39.477 58.123)">
        <path id="Trazado_125172" data-name="Trazado 125172" d="M47.97,41.824l-4.945,9.2H30.255l-4.945-9.2,1.948-.3a5.066,5.066,0,0,0,4.3-5.013V36.32a11.813,11.813,0,0,0,5.131,1.152H37a11.322,11.322,0,0,0,4.725-1.016v.051a5.066,5.066,0,0,0,4.3,5.013Z" transform="translate(-25.31 -36.32)" fill="#f0d0b4"/>
      </g>
      <g id="Grupo_80848" data-name="Grupo 80848" transform="translate(38.952 33.871)">
        <path id="Trazado_125173" data-name="Trazado 125173" d="M48.71,28.774V35.9a11.513,11.513,0,0,1-6.774,10.483A11.322,11.322,0,0,1,37.21,47.4h-.3A11.876,11.876,0,0,1,25,35.548V28.774l2.473-.491A14.787,14.787,0,0,0,36.855,22a14.845,14.845,0,0,0,9.382,6.283Z" transform="translate(-25 -22)" fill="#f0d0b4"/>
      </g>
    </g>
    <g id="Grupo_80850" data-name="Grupo 80850" transform="translate(1 1)">
      <path id="Trazado_125174" data-name="Trazado 125174" d="M100.664,70.666a13.45,13.45,0,0,0-5.391-2.41l-4.827-.965-.54-2.164A10.179,10.179,0,0,0,93.8,59.475l.86-.82A14.713,14.713,0,0,0,99.226,48a13.06,13.06,0,0,0-3.387-8.771v-.97a10.167,10.167,0,0,0-6.629-9.514A10.178,10.178,0,0,0,91.9,24.595,8.449,8.449,0,1,0,83.889,11.3a10.141,10.141,0,0,0-8.522,17.44,10.1,10.1,0,0,0-5.309,4.551,20.509,20.509,0,0,0-3.009-3.363V28.1a10.167,10.167,0,0,0-6.629-9.514,10.161,10.161,0,1,0-13.84,0A10.167,10.167,0,0,0,39.952,28.1v1.831a20.5,20.5,0,0,0-3.009,3.362,10.111,10.111,0,0,0-5.311-4.551,10.16,10.16,0,1,0-13.841,0,10.183,10.183,0,0,0-6.063,6.264,5.083,5.083,0,0,0-3.953,4.945V48A14.719,14.719,0,0,0,12.34,58.653l.862.821a10.185,10.185,0,0,0,3.892,5.651l-.54,2.164-4.827.965A13.346,13.346,0,0,0,1,81.34V106H106V81.34A13.414,13.414,0,0,0,100.664,70.666ZM32.83,59.477l.347-.332v8.5c-.152.1-.31.19-.459.293l-3.24-.647-.54-2.164a10.185,10.185,0,0,0,3.892-5.651ZM28.452,70.54l1.067.213a18.185,18.185,0,0,0-1.55,1.959l-1.585-.793ZM22.544,77.21,21.7,74.681l1.316-.659,3.3,1.651q-.333.752-.6,1.534H22.544Zm-3.9-1,.854,2.562-.484.969-1.577-2.928ZM22.369,80.6h2.545a19.073,19.073,0,0,0-.2,2.674v.769l-1.694,3.145-2.042-3.8Zm2.34,10.588.351-.65A3.381,3.381,0,0,0,28.1,92.452v10.161H24.71Zm6.774,1.267h4.11a20.984,20.984,0,0,0,.764,2.349l1.9,4.75v3.062H31.484ZM39.5,93.542a17.407,17.407,0,0,1-.354-11.962l.715-2.142-3.211-1.072-.716,2.142a20.8,20.8,0,0,0-1.065,6.573q0,1,.095,1.983H28.1V83.271A15.162,15.162,0,0,1,41.022,68.205l.217-.034L51.806,87.8v14.815H41.645V98.9Zm14-54.21A16.312,16.312,0,0,0,62.542,44.5l1.119.224v5.739a9.818,9.818,0,0,1-9.806,9.807h-.3A10.2,10.2,0,0,1,43.339,50.11V44.727l1.119-.224A16.312,16.312,0,0,0,53.5,39.332ZM49.759,63.114a13.657,13.657,0,0,0,3.8.547h.3a13.175,13.175,0,0,0,3.409-.462,6.7,6.7,0,0,0,4.962,4.393l-3.355,6.231H48.128l-3.355-6.231a6.7,6.7,0,0,0,4.986-4.478ZM53.5,83.8l-3.548-6.59h7.1Zm1.694,4L65.763,68.173l.217.034A15.159,15.159,0,0,1,78.9,83.271v5.794H72.036q.091-.986.093-1.983a20.757,20.757,0,0,0-1.067-6.573l-.715-2.142-3.211,1.072.713,2.141A17.4,17.4,0,0,1,67.5,93.542L65.355,98.9v3.712H55.194ZM73.823,59.145l.347.33a10.185,10.185,0,0,0,3.892,5.651l-.54,2.164-3.24.647c-.149-.1-.307-.195-.459-.293ZM84.456,77.21H81.279q-.267-.785-.6-1.534l3.3-1.653,1.316.659Zm-5.426-4.5a18.614,18.614,0,0,0-1.55-1.959l1.067-.213,2.07,1.379ZM68.742,99.551l1.9-4.75a20.534,20.534,0,0,0,.764-2.349h4.11v10.161H68.742Zm10.161-7.1a3.38,3.38,0,0,0,3.037-1.917l.351.65v11.428H78.9Zm5.081-5.267L82.29,84.04v-.769a18.82,18.82,0,0,0-.207-2.674h2.545l1.4,2.794Zm4.007-7.441-.484-.969.854-2.562,1.208.6ZM92.6,71.177l-1.429,2.654-3.822-1.912,2.07-1.379ZM87.132,68l-3.148,2.1-3.148-2.1.337-1.35a9.966,9.966,0,0,0,5.623,0Zm3.626-11.108a6.774,6.774,0,1,1-13.548,0V53.708a5.073,5.073,0,0,1,3.849-4.928l.139-.036a7.509,7.509,0,0,0,4.188,2.07l3.917.561a1.7,1.7,0,0,1,1.455,1.675Zm4.5-5.3a11.321,11.321,0,0,1-1.113,2.357V53.05a5.1,5.1,0,0,0-4.361-5.028l-3.917-.561a4.183,4.183,0,0,1-3.577-4.122H78.9a7.48,7.48,0,0,0,.41,2.442,8.455,8.455,0,0,0-5.49,7.927V45.032a20.287,20.287,0,0,0-.137-2.28,9.759,9.759,0,0,1,8.185-4.495H86.1A9.753,9.753,0,0,1,95.839,48a11.288,11.288,0,0,1-.581,3.584Zm-9.58-20.1a3.387,3.387,0,1,1-6.774,0Zm6.469,4.876a13.017,13.017,0,0,0-4.112-1.329,6.7,6.7,0,0,0,.938-2.654A6.757,6.757,0,0,1,92.147,36.36ZM82.29,28.1a6.781,6.781,0,0,1-6.774-6.774H89.065A6.781,6.781,0,0,1,82.29,28.1Zm8.468-16.935A5.056,5.056,0,0,1,92.435,21a10.158,10.158,0,0,0-5.111-8.488A5.053,5.053,0,0,1,90.758,11.161ZM82.29,14.548a6.752,6.752,0,0,1,5.833,3.387H76.459A6.747,6.747,0,0,1,82.29,14.548ZM75.6,32.358a6.708,6.708,0,0,0,1.5,3.431,13.222,13.222,0,0,0-4.351,2.786c-.159-.474-.322-.945-.515-1.4A6.726,6.726,0,0,1,75.6,32.358Zm-12.012-4.94a20.2,20.2,0,0,0-4.755-1.973,6.694,6.694,0,0,0,1.346-3.23A6.741,6.741,0,0,1,63.592,27.418Zm-13.479-6.1h6.774a3.387,3.387,0,1,1-6.774,0ZM53.5,17.935a6.781,6.781,0,0,1-6.774-6.774H60.274A6.781,6.781,0,0,1,53.5,17.935Zm0-13.548a6.752,6.752,0,0,1,5.833,3.387H47.669A6.747,6.747,0,0,1,53.5,4.387ZM46.816,22.215a6.694,6.694,0,0,0,1.346,3.23,20.2,20.2,0,0,0-4.755,1.973,6.746,6.746,0,0,1,3.409-5.2ZM53.5,28.1A16.955,16.955,0,0,1,70.435,45.032V65.926a18.877,18.877,0,0,0-3.941-1.067l-3.348-.515A3.36,3.36,0,0,1,60.408,61.9a13.192,13.192,0,0,0,6.639-11.435V41.95L63.2,41.181a12.934,12.934,0,0,1-8.012-5.172V31.484H51.8v4.525a12.943,12.943,0,0,1-8.012,5.172l-3.841.769v8.16a13.534,13.534,0,0,0,6.681,11.643,3.361,3.361,0,0,1-2.779,2.591l-3.348.515a18.877,18.877,0,0,0-3.941,1.067V45.032A16.955,16.955,0,0,1,53.5,28.1ZM34.761,37.173c-.12.285-.212.581-.32.87a11.915,11.915,0,0,0-4.31-2.54,6.7,6.7,0,0,0,1.263-3.147,6.716,6.716,0,0,1,3.367,4.816ZM21.323,31.484H28.1a3.387,3.387,0,1,1-6.774,0ZM24.71,28.1a6.781,6.781,0,0,1-6.774-6.774H31.484A6.781,6.781,0,0,1,24.71,28.1Zm0-13.548a6.752,6.752,0,0,1,5.833,3.387H18.879A6.747,6.747,0,0,1,24.71,14.548Zm-6.686,17.8a6.69,6.69,0,0,0,.855,2.52H15.468A6.8,6.8,0,0,1,18.024,32.351Zm-6.281,19.23A11.27,11.27,0,0,1,11.161,48V39.952a1.7,1.7,0,0,1,1.694-1.694H26.4a8.5,8.5,0,0,1,7.021,3.766,20.472,20.472,0,0,0-.247,3.008v8.676a8.454,8.454,0,0,0-5.49-7.927,7.48,7.48,0,0,0,.41-2.442H24.71a4.186,4.186,0,0,1-3.575,4.124l-3.917.561a5.1,5.1,0,0,0-4.363,5.026v.891a11.335,11.335,0,0,1-1.113-2.359Zm4.5,1.468A1.7,1.7,0,0,1,17.7,51.373l3.917-.561a7.525,7.525,0,0,0,4.188-2.07l.141.036a5.076,5.076,0,0,1,3.849,4.93v3.179a6.774,6.774,0,1,1-13.548,0Zm6.774,14a10.081,10.081,0,0,0,2.811-.4l.337,1.35-3.148,2.1-3.148-2.1.337-1.35A10.081,10.081,0,0,0,23.016,67.048ZM17.58,70.54l2.07,1.379-3.822,1.912L14.4,71.177ZM4.387,81.34a9.883,9.883,0,0,1,6.6-9.357l10.339,19.2v11.426H11.161V83.984H7.774v18.629H4.387Zm98.226,21.273H99.226V83.984H95.839v18.629H85.677V91.187l10.339-19.2a9.877,9.877,0,0,1,6.6,9.355Z" transform="translate(-1 -1)"/>
      <path id="Trazado_125175" data-name="Trazado 125175" d="M34.7,36.391a7.133,7.133,0,0,0,6.417-3.966l.178-.357-3.03-1.516-.178.359a3.787,3.787,0,0,1-6.774,0l-.178-.357-3.03,1.516.178.356A7.133,7.133,0,0,0,34.7,36.391Z" transform="translate(17.799 19.496)"/>
    </g>
  </g>
</svg>
