<svg xmlns="http://www.w3.org/2000/svg" width="105.37" height="105.369" viewBox="0 0 105.37 105.369">
  <g id="supervision" transform="translate(-1 -1)">
    <g id="Grupo_80802" data-name="Grupo 80802" transform="translate(2.7 2.7)">
      <g id="Grupo_80789" data-name="Grupo 80789" transform="translate(3.399 69.68)">
        <path id="Trazado_125099" data-name="Trazado 125099" d="M40.4,75.291H4V61.2A18.239,18.239,0,0,1,22.2,43a18.519,18.519,0,0,1,2.192.136,18.219,18.219,0,0,1,15.822,15.5l1.173,8.158.051.136,8.175-3.722,3.365,7.58-7.444,3.4a12.446,12.446,0,0,1-5.133,1.1Z" transform="translate(-4 -43)" fill="#fcd770"/>
      </g>
      <g id="Grupo_80790" data-name="Grupo 80790" transform="translate(53.229 83.276)">
        <path id="Trazado_125100" data-name="Trazado 125100" d="M40.288,61.18c.935-1.954.986-2.294.986-2.651a4.134,4.134,0,0,0-4.13-4.13h-.068a4.006,4.006,0,0,0-1.716.374l-2.039.918A9.8,9.8,0,0,1,41.682,51h2.991a6.78,6.78,0,0,1,3.4.918,7.181,7.181,0,0,1,1.411,1.071,6.841,6.841,0,0,1,1.988,4.81,3.409,3.409,0,0,1-3.4,3.4H40.3Z" transform="translate(-33.32 -51)" fill="#b4dd7f"/>
      </g>
      <g id="Grupo_80791" data-name="Grupo 80791" transform="translate(50.985 76.478)">
        <path id="Trazado_125101" data-name="Trazado 125101" d="M34.243,58.489l-.017.017-2.226,1V47H49v7.716a6.78,6.78,0,0,0-3.4-.918H42.6a9.8,9.8,0,0,0-8.362,4.691Z" transform="translate(-32 -47)" fill="#aab2bd"/>
      </g>
      <g id="Grupo_80792" data-name="Grupo 80792" transform="translate(23.249 62.882)">
        <path id="Trazado_125102" data-name="Trazado 125102" d="M94.4,39v6.8a6.8,6.8,0,0,1-6.8,6.8h-59.4a18.121,18.121,0,0,0-11.982-6.662V40.7H15.68A5.415,5.415,0,0,0,19.5,39.119L19.623,39Z" transform="translate(-15.68 -39)" fill="#ccd1d9"/>
      </g>
      <g id="Grupo_80793" data-name="Grupo 80793" transform="translate(24.711 18.695)">
        <path id="Trazado_125103" data-name="Trazado 125103" d="M87,13H25.717A16.925,16.925,0,0,1,16.54,26.443a6.821,6.821,0,0,1,2.481,5.251h5.1a3.4,3.4,0,0,1,3.4,3.4,3.424,3.424,0,0,1-3.4,3.4h-5.1l1.445,14.446c.017.17.017.357.017.527a5.435,5.435,0,0,1-1.462,3.722H93.8V19.8A6.8,6.8,0,0,0,87,13Z" transform="translate(-16.54 -13)" fill="#69d6f4"/>
      </g>
      <g id="Grupo_80794" data-name="Grupo 80794" transform="translate(61.182 1.7)">
        <circle id="Elipse_4768" data-name="Elipse 4768" cx="17" cy="17" r="17" transform="translate(0.118 -0.398)" fill="#e6e9ed"/>
      </g>
      <g id="Grupo_80795" data-name="Grupo 80795" transform="translate(42.488 45.887)">
        <path id="Trazado_125104" data-name="Trazado 125104" d="M27,29H40.6V39.2H27Z" transform="translate(-27 -29)" fill="#fcd770"/>
      </g>
      <g id="Grupo_80796" data-name="Grupo 80796">
        <path id="Trazado_125105" data-name="Trazado 125105" d="M35.888,20.695a16.925,16.925,0,0,1-9.177,13.443,6.769,6.769,0,0,0-4.317-1.547H15.6a10.047,10.047,0,0,0-4.878,1.241A16.993,16.993,0,1,1,35.99,19,14.042,14.042,0,0,1,35.888,20.695Z" transform="translate(-2 -2)" fill="#e6e9ed"/>
      </g>
      <g id="Grupo_80797" data-name="Grupo 80797" transform="translate(3.399 44.187)">
        <path id="Trazado_125106" data-name="Trazado 125106" d="M14.2,39.9v8.5A14.92,14.92,0,0,1,4,34.237V28H14.2l-1.6,1.6a6.154,6.154,0,0,0,0,8.7Z" transform="translate(-4 -28)" fill="#656d78"/>
      </g>
      <g id="Grupo_80798" data-name="Grupo 80798" transform="translate(3.399 30.591)">
        <path id="Trazado_125107" data-name="Trazado 125107" d="M27.793,26.8H23.1a3.414,3.414,0,0,0-3.042,1.869L17.6,33.6H4V30.2a10.223,10.223,0,0,1,5.319-8.956A10.047,10.047,0,0,1,14.2,20H21a6.8,6.8,0,0,1,6.8,6.8Z" transform="translate(-4 -20)" fill="#ff826e"/>
      </g>
      <g id="Grupo_80799" data-name="Grupo 80799" transform="translate(16.995 37.389)">
        <path id="Trazado_125108" data-name="Trazado 125108" d="M27.3,24a3.4,3.4,0,0,1,3.4,3.4,3.424,3.424,0,0,1-3.4,3.4H12l2.464-4.929A3.414,3.414,0,0,1,17.506,24H27.3Z" transform="translate(-12 -24)" fill="#fc6e51"/>
      </g>
      <g id="Grupo_80800" data-name="Grupo 80800" transform="translate(49.014 86.675)">
        <path id="Trazado_125109" data-name="Trazado 125109" d="M38.879,53a4.134,4.134,0,0,1,4.13,4.13c0,.357-.051.7-.986,2.651A3.949,3.949,0,0,1,40.578,60.9l-6.373,2.889-3.365-7.58,1.971-.9,2.226-1,.017-.017,2.039-.918A4.006,4.006,0,0,1,38.811,53Z" transform="translate(-30.84 -53)" fill="#f0d0b4"/>
      </g>
      <g id="Grupo_80801" data-name="Grupo 80801" transform="translate(10.197 44.187)">
        <path id="Trazado_125110" data-name="Trazado 125110" d="M11.4,48.394V39.9L9.8,38.3a6.154,6.154,0,0,1,0-8.7L11.4,28H25L26.44,42.446c.017.17.017.357.017.527A5.435,5.435,0,0,1,25,46.695l-.119.119a5.415,5.415,0,0,1-3.824,1.581H21.6v5.234a18.519,18.519,0,0,0-2.192-.136,18.038,18.038,0,0,0-7.937,1.835l-.068-.136Z" transform="translate(-8 -28)" fill="#f0d0b4"/>
      </g>
    </g>
    <g id="Grupo_80803" data-name="Grupo 80803" transform="translate(1 1)">
      <path id="Trazado_125111" data-name="Trazado 125111" d="M18.6,14.586l2.174,6.523h8.023v-3.4H23.22L18.6,3.838,13.181,20.079,11.149,16.01H5v3.4H9.048l4.765,9.527Z" transform="translate(1.798 0.985)"/>
      <path id="Trazado_125112" data-name="Trazado 125112" d="M97.872,80.877a8.507,8.507,0,0,0,8.5-8.5V28.192a8.507,8.507,0,0,0-6.876-8.334,18.681,18.681,0,0,0-37.224-.163H38.389A18.695,18.695,0,1,0,8.417,34.6,11.857,11.857,0,0,0,4.4,43.488v9.645A16.583,16.583,0,0,0,14.6,68.452v4.772A19.91,19.91,0,0,0,4.4,90.583V106.37H43.243v-.039a13.973,13.973,0,0,0,5.088-1.224l13.827-6.285a5.792,5.792,0,0,0,1.455-.95H70.68a5.092,5.092,0,0,0,4.786-3.4h25.805a5.1,5.1,0,1,0,0-10.2h-10.2a1.7,1.7,0,0,1-1.7-1.7v-1.7Zm0-3.4H39.219a20.025,20.025,0,0,0-11.026-6.4v-2.5a7.1,7.1,0,0,0,2.318-1.3h72.46v5.1A5.1,5.1,0,0,1,97.872,77.478Zm-30.591,6.8h-3a11.558,11.558,0,0,0-8.9,4.208V80.877h13.6v3.571A8.49,8.49,0,0,0,67.281,84.276Zm-22.41,9.556L44,87.768a19.69,19.69,0,0,0-2.35-6.892H51.985V90.6ZM22.444,45.186l1.23-2.459a1.69,1.69,0,0,1,1.521-.94H34.99a1.7,1.7,0,0,1,0,3.4ZM80.877,6.1a15.3,15.3,0,1,1-15.3,15.3A15.313,15.313,0,0,1,80.877,6.1Zm-18.608,17a18.688,18.688,0,0,0,37.2.28,5.087,5.087,0,0,1,3.506,4.818v35.69H32.74a7.046,7.046,0,0,0,.286-2.723L31.768,48.585H34.99a5.1,5.1,0,0,0,0-10.2H31.42a8.437,8.437,0,0,0-1.385-3.146,18.554,18.554,0,0,0,8.008-12.148ZM4.4,19.695a15.3,15.3,0,1,1,23.076,13.13,8.418,8.418,0,0,0-4.38-1.234H16.3a11.822,11.822,0,0,0-4.764,1A15.3,15.3,0,0,1,4.4,19.695ZM7.8,43.488a8.507,8.507,0,0,1,8.5-8.5h6.8a5.1,5.1,0,0,1,4.8,3.4H25.194a5.072,5.072,0,0,0-4.561,2.818l-1.99,3.98H7.8Zm0,9.645V48.585h4.658a7.789,7.789,0,0,0-1.259,4.25,7.908,7.908,0,0,0,2.3,5.554l1.1,1.1v5.172A13.181,13.181,0,0,1,7.8,53.132Zm8.1,2.853A4.488,4.488,0,0,1,14.6,52.835,4.425,4.425,0,0,1,15.9,49.684l1.1-1.1H28.354L29.645,61.5A3.7,3.7,0,0,1,28.576,64.5a3.743,3.743,0,0,1-2.626,1.088H21.394v3.4h3.4V70.7c-.165-.005-.326-.024-.491-.024A19.773,19.773,0,0,0,18,71.722V58.08Zm31.023,46.028a10.683,10.683,0,0,1-14.651-6.657l-2.451-8.17-3.256.976,2.451,8.17a14.011,14.011,0,0,0,4.349,6.638H7.8V90.583a16.5,16.5,0,0,1,32.84-2.333L41.645,95.3l-2.26,1.028,1.407,3.093,10.063-4.575,1.99,4.477Zm13.829-6.286-4.811,2.187-1.99-4.478,4.721-2.146a2.547,2.547,0,0,1,1.072-.216,2.435,2.435,0,0,1,1.008,4.653Zm9.927-1.254H65.493a5.656,5.656,0,0,0,.088-.962,5.814,5.814,0,0,0-3.766-5.428,8,8,0,0,1,2.468-.408h3a5.1,5.1,0,0,1,5.1,5.1,1.7,1.7,0,0,1-1.7,1.7Zm20.394-6.8h10.2a1.7,1.7,0,0,1,0,3.4H75.607a8.477,8.477,0,0,0-3.227-5.054V80.877h13.6v1.7a5.1,5.1,0,0,0,5.1,5.1Z" transform="translate(-1 -1)"/>
      <path id="Trazado_125113" data-name="Trazado 125113" d="M57,42h3.4v3.4H57Z" transform="translate(38.173 27.68)"/>
      <path id="Trazado_125114" data-name="Trazado 125114" d="M53,42h3.4v3.4H53Z" transform="translate(35.375 27.68)"/>
      <path id="Trazado_125115" data-name="Trazado 125115" d="M49,42h3.4v3.4H49Z" transform="translate(32.576 27.68)"/>
      <path id="Trazado_125116" data-name="Trazado 125116" d="M42,8h3.4v3.4H42Z" transform="translate(27.68 3.897)"/>
      <path id="Trazado_125117" data-name="Trazado 125117" d="M46,8H59.6v3.4H46Z" transform="translate(30.478 3.897)"/>
      <path id="Trazado_125118" data-name="Trazado 125118" d="M42,12h3.4v3.4H42Z" transform="translate(27.68 6.695)"/>
      <path id="Trazado_125119" data-name="Trazado 125119" d="M46,12H59.6v3.4H46Z" transform="translate(30.478 6.695)"/>
      <path id="Trazado_125120" data-name="Trazado 125120" d="M42,16h3.4v3.4H42Z" transform="translate(27.68 9.493)"/>
      <path id="Trazado_125121" data-name="Trazado 125121" d="M46,16H59.6v3.4H46Z" transform="translate(30.478 9.493)"/>
      <path id="Trazado_125122" data-name="Trazado 125122" d="M43,28H26V41.6H43ZM39.6,38.2H29.4V31.4H39.6Z" transform="translate(16.488 17.887)"/>
      <path id="Trazado_125123" data-name="Trazado 125123" d="M26,24H43v3.4H26Z" transform="translate(16.488 15.089)"/>
      <path id="Trazado_125124" data-name="Trazado 125124" d="M26,20H43v3.4H26Z" transform="translate(16.488 12.291)"/>
      <path id="Trazado_125125" data-name="Trazado 125125" d="M26,16H43v3.4H26Z" transform="translate(16.488 9.493)"/>
      <path id="Trazado_125126" data-name="Trazado 125126" d="M38,34h3.4v3.4H38Z" transform="translate(24.882 22.084)"/>
      <path id="Trazado_125127" data-name="Trazado 125127" d="M42,34H70.892v3.4H42Z" transform="translate(27.68 22.084)"/>
      <path id="Trazado_125128" data-name="Trazado 125128" d="M38,30H73.69v3.4H38Z" transform="translate(24.882 19.286)"/>
      <path id="Trazado_125129" data-name="Trazado 125129" d="M38,26H73.69v3.4H38Z" transform="translate(24.882 16.488)"/>
    </g>
  </g>
</svg>
