<svg id="Grupo_148885" data-name="Grupo 148885" xmlns="http://www.w3.org/2000/svg" xmlns:xlink="http://www.w3.org/1999/xlink" width="104.748" height="104.748" viewBox="0 0 104.748 104.748">
  <defs>
    <clipPath id="clip-path">
      <rect id="Rectángulo_39302" data-name="Rectángulo 39302" width="104.748" height="104.748" fill="none"/>
    </clipPath>
  </defs>
  <g id="Grupo_148884" data-name="Grupo 148884" clip-path="url(#clip-path)">
    <path id="Trazado_211732" data-name="Trazado 211732" d="M103.263,44.594a11.2,11.2,0,0,1-10.115-7.46Q92.62,35.719,92,34.353a11.224,11.224,0,0,1,1.86-12.459,1.637,1.637,0,0,0-.1-2.2l-8.7-8.7a1.638,1.638,0,0,0-2.2-.1A11.235,11.235,0,0,1,70.4,12.75q-1.366-.622-2.782-1.149a11.162,11.162,0,0,1-7.46-10.113A1.637,1.637,0,0,0,58.526,0h-12.3a1.636,1.636,0,0,0-1.629,1.486A11.2,11.2,0,0,1,37.133,11.6q-1.414.528-2.78,1.149a11.227,11.227,0,0,1-12.46-1.86,1.637,1.637,0,0,0-2.2.1l-8.7,8.7a1.637,1.637,0,0,0-.1,2.2,11.233,11.233,0,0,1,1.86,12.459q-.62,1.366-1.149,2.78a11.162,11.162,0,0,1-10.113,7.46A1.637,1.637,0,0,0,0,46.223v12.3a1.637,1.637,0,0,0,1.486,1.63A11.2,11.2,0,0,1,11.6,67.616q.528,1.414,1.149,2.781a11.223,11.223,0,0,1-1.86,12.46,1.636,1.636,0,0,0,.1,2.2l8.7,8.7a1.634,1.634,0,0,0,2.2.1A11.232,11.232,0,0,1,34.352,92q1.368.62,2.781,1.149a11.212,11.212,0,0,1,7.46,10.115,1.636,1.636,0,0,0,1.629,1.485h12.3a1.637,1.637,0,0,0,1.63-1.486,11.2,11.2,0,0,1,7.46-10.113Q69.029,92.621,70.4,92a11.225,11.225,0,0,1,12.46,1.86,1.634,1.634,0,0,0,2.2-.1l8.7-8.7a1.637,1.637,0,0,0,.1-2.2A11.235,11.235,0,0,1,92,70.4q.62-1.366,1.149-2.78a11.162,11.162,0,0,1,10.113-7.46,1.637,1.637,0,0,0,1.486-1.63v-12.3A1.636,1.636,0,0,0,103.263,44.594Zm-1.788,12.459a14.4,14.4,0,0,0-11.394,9.42q-.487,1.307-1.062,2.57A14.468,14.468,0,0,0,90.4,83.786L83.785,90.4A14.469,14.469,0,0,0,69.04,89.02q-1.261.575-2.569,1.062a14.4,14.4,0,0,0-9.42,11.394H47.7a14.4,14.4,0,0,0-9.42-11.394q-1.309-.488-2.571-1.062A14.465,14.465,0,0,0,20.963,90.4l-6.617-6.615a14.467,14.467,0,0,0,1.383-14.743q-.574-1.263-1.062-2.57A14.4,14.4,0,0,0,3.273,57.052V47.7a14.4,14.4,0,0,0,11.393-9.419q.489-1.308,1.063-2.572a14.466,14.466,0,0,0-1.383-14.743l6.616-6.616a14.473,14.473,0,0,0,14.744,1.382q1.263-.574,2.569-1.061A14.4,14.4,0,0,0,47.7,3.274h9.355a14.4,14.4,0,0,0,9.422,11.394q1.306.486,2.569,1.062a14.475,14.475,0,0,0,14.743-1.383L90.4,20.964a14.466,14.466,0,0,0-1.382,14.743q.575,1.263,1.062,2.571a14.4,14.4,0,0,0,11.394,9.42Z" transform="translate(0 -0.001)"/>
    <path id="Trazado_211733" data-name="Trazado 211733" d="M105.068,60.647a14.4,14.4,0,0,0-11.394,9.42q-.487,1.307-1.062,2.57a14.468,14.468,0,0,0,1.382,14.743L87.378,94a14.469,14.469,0,0,0-14.745-1.382q-1.261.575-2.569,1.062a14.4,14.4,0,0,0-9.42,11.394H51.29a14.4,14.4,0,0,0-9.42-11.394q-1.309-.488-2.571-1.062a14.465,14.465,0,0,0-14.743,1.381L17.94,87.379a14.467,14.467,0,0,0,1.383-14.743q-.574-1.263-1.062-2.57A14.4,14.4,0,0,0,6.867,60.646V51.291A14.4,14.4,0,0,0,18.26,41.872q.489-1.308,1.063-2.572A14.466,14.466,0,0,0,17.94,24.557l6.616-6.616A14.473,14.473,0,0,0,39.3,19.323q1.263-.574,2.569-1.061A14.4,14.4,0,0,0,51.29,6.868h9.355a14.4,14.4,0,0,0,9.422,11.394q1.306.486,2.569,1.062a14.475,14.475,0,0,0,14.743-1.383l6.616,6.616A14.466,14.466,0,0,0,92.613,39.3q.575,1.263,1.062,2.571a14.4,14.4,0,0,0,11.394,9.42Z" transform="translate(-3.594 -3.594)" fill="#fbdab3"/>
    <path id="Trazado_211734" data-name="Trazado 211734" d="M77.652,48.3A29.349,29.349,0,1,0,107,77.653,29.383,29.383,0,0,0,77.652,48.3Zm0,55.425a26.076,26.076,0,1,1,26.076-26.076,26.1,26.1,0,0,1-26.076,26.076" transform="translate(-25.278 -25.278)"/>
    <path id="Trazado_211735" data-name="Trazado 211735" d="M81.246,107.322a26.076,26.076,0,1,1,26.076-26.076,26.1,26.1,0,0,1-26.076,26.076" transform="translate(-28.872 -28.872)" fill="#2c78dc"/>
    <path id="Trazado_211736" data-name="Trazado 211736" d="M103.727,82.948H98.161V81.03A3.567,3.567,0,0,0,94.6,77.467h-6.02a3.567,3.567,0,0,0-3.562,3.563v1.918H79.443a4.521,4.521,0,0,0-4.516,4.516v3.362a4.482,4.482,0,0,0,2.189,3.855v9.306a4.38,4.38,0,0,0,4.375,4.375h20.188a4.38,4.38,0,0,0,4.374-4.375v-9.3a4.485,4.485,0,0,0,2.189-3.856V87.463A4.52,4.52,0,0,0,103.727,82.948ZM88.29,81.03a.289.289,0,0,1,.289-.289H94.6a.289.289,0,0,1,.288.289v1.918h-6.6ZM78.2,87.463a1.244,1.244,0,0,1,1.242-1.243c8.029,0,17.217,0,24.285,0a1.244,1.244,0,0,1,1.242,1.243v3.362a1.238,1.238,0,0,1-.872,1.186l-11.286,3.52a4.1,4.1,0,0,1-2.453,0l-11.285-3.52a1.237,1.237,0,0,1-.873-1.186V87.463Zm23.479,17.624H81.491a1.1,1.1,0,0,1-1.1-1.1V95.851l8.994,2.805a7.354,7.354,0,0,0,4.4,0l8.993-2.805v8.135a1.1,1.1,0,0,1-1.1,1.1" transform="translate(-39.211 -40.54)"/>
    <path id="Trazado_211737" data-name="Trazado 211737" d="M102.969,84.624a.289.289,0,0,1,.289-.289h6.02a.289.289,0,0,1,.289.289v1.918h-6.6Z" transform="translate(-53.886 -44.134)" fill="#f7931e"/>
    <path id="Trazado_211738" data-name="Trazado 211738" d="M81.8,97.075a1.243,1.243,0,0,1,1.242-1.242c8.03,0,17.217,0,24.285,0a1.243,1.243,0,0,1,1.242,1.242v3.362a1.237,1.237,0,0,1-.872,1.186l-11.286,3.52a4.1,4.1,0,0,1-2.453,0l-11.285-3.52a1.238,1.238,0,0,1-.873-1.186Z" transform="translate(-42.809 -50.152)" fill="#f7931e"/>
    <path id="Trazado_211739" data-name="Trazado 211739" d="M107.684,125.271H87.5a1.1,1.1,0,0,1-1.1-1.1v-8.135l8.994,2.805a7.355,7.355,0,0,0,4.4,0l8.993-2.805v8.135a1.1,1.1,0,0,1-1.1,1.1" transform="translate(-45.212 -60.723)" fill="#f7931e"/>
  </g>
</svg>
