<svg xmlns="http://www.w3.org/2000/svg" width="121" height="105" viewBox="0 0 121 105">
  <g id="Grupo_148886" data-name="Grupo 148886" transform="translate(-1125 -17249.001)">
    <rect id="Rectángulo_39303" data-name="Rectángulo 39303" width="121" height="105" transform="translate(1125 17249)" fill="none"/>
    <g id="calendario" transform="translate(1125 17175.742)">
      <g id="Grupo_80855" data-name="Grupo 80855" transform="translate(1.771 92.609)">
        <path id="Trazado_125183" data-name="Trazado 125183" d="M150.025,187.417h-79a2.4,2.4,0,0,1-2.39-2.21l-5.448-69.471H147l5.418,69.1a2.4,2.4,0,0,1-2.39,2.585Z" transform="translate(-50.023 -115.735)" fill="#31a7fb"/>
        <path id="Trazado_125184" data-name="Trazado 125184" d="M152.337,183.835H82.5a7.214,7.214,0,0,1-6.934-5.28l-10.4-37.673-1.973-25.15H147Z" transform="translate(-50.025 -115.732)" fill="#1c96f9"/>
        <path id="Trazado_125185" data-name="Trazado 125185" d="M27.075,186.949l-10.683-6.267-6.8-.862a2.4,2.4,0,0,1-2.043-2.881l13.107-61.2Z" transform="translate(-7.494 -115.734)" fill="#1785f8"/>
        <path id="Trazado_125186" data-name="Trazado 125186" d="M49.405,115.735l6.419,71.214-10.683-6.267Z" transform="translate(-36.244 -115.734)" fill="#1576f7"/>
        <g id="Grupo_80854" data-name="Grupo 80854" transform="translate(13.161 0)">
          <path id="Trazado_125187" data-name="Trazado 125187" d="M167.39,176.006,151.23,117.5a2.4,2.4,0,0,0-2.311-1.759H63.184l17,61.547a2.4,2.4,0,0,0,2.311,1.759h82.586A2.4,2.4,0,0,0,167.39,176.006Z" transform="translate(-63.184 -115.735)" fill="#eaf6ff"/>
          <path id="Trazado_125188" data-name="Trazado 125188" d="M413.737,179.04h-8.785A2.4,2.4,0,0,0,407.264,176l-16.16-58.51a2.4,2.4,0,0,0-2.311-1.76h8.785a2.4,2.4,0,0,1,2.311,1.76L416.049,176A2.4,2.4,0,0,1,413.737,179.04Z" transform="translate(-311.842 -115.732)" fill="#d9ecfd"/>
          <path id="Trazado_125189" data-name="Trazado 125189" d="M155.074,131.413l-3.844-13.918a2.4,2.4,0,0,0-2.311-1.759H63.184l4.33,15.678Z" transform="translate(-63.184 -115.734)" fill="#f14141"/>
          <path id="Trazado_125190" data-name="Trazado 125190" d="M391.1,117.492l3.844,13.918h8.785l-3.844-13.918a2.4,2.4,0,0,0-2.311-1.76h-8.785A2.4,2.4,0,0,1,391.1,117.492Z" transform="translate(-311.842 -115.732)" fill="#fb3a82"/>
        </g>
      </g>
      <path id="Trazado_125191" data-name="Trazado 125191" d="M151.312,228.675l-3.052-9.516a2.4,2.4,0,0,0-2.283-1.665H138.95a2.4,2.4,0,0,0-2.283,3.13l3.052,9.516A2.4,2.4,0,0,0,142,231.8h7.027a2.4,2.4,0,0,0,2.283-3.13Z" transform="translate(-104.28 -100.835)" fill="#31a7fb"/>
      <g id="Grupo_80856" data-name="Grupo 80856" transform="translate(0 85.453)">
        <path id="Trazado_125192" data-name="Trazado 125192" d="M120.847,152.408,105.255,95.951A7.151,7.151,0,0,0,93.546,87.9a7.141,7.141,0,0,0-10.767,0,7.141,7.141,0,0,0-10.767,0,7.141,7.141,0,0,0-10.767,0,7.141,7.141,0,0,0-10.767,0,7.141,7.141,0,0,0-10.767,0,7.141,7.141,0,0,0-10.767,0,7.15,7.15,0,0,0-12.326,2.973H15.3a1.774,1.774,0,0,0-2.1,1.362L3.767,136.286a1.772,1.772,0,1,0,3.466.742l4.337-20.25L9.023,155.562l-4.931-.626a.625.625,0,0,1-.533-.751l1.9-8.863a1.772,1.772,0,1,0-3.466-.742l-1.9,8.863a4.17,4.17,0,0,0,3.553,5.01l6.44.817,10.37,6.083.018.009a4.134,4.134,0,0,0,2.3.7h79a4.17,4.17,0,0,0,4.157-4.5l-.3-3.879h11.2a4.17,4.17,0,0,0,4.02-5.28ZM17.261,94.382H26.7a3.612,3.612,0,0,1-3.142,1.838,1.772,1.772,0,0,0,0,3.545,7.168,7.168,0,0,0,6.933-5.383h6.976a3.612,3.612,0,0,1-3.142,1.838,1.772,1.772,0,0,0,0,3.545,7.168,7.168,0,0,0,6.933-5.383h6.976a3.612,3.612,0,0,1-3.142,1.838,1.772,1.772,0,0,0,0,3.545,7.168,7.168,0,0,0,6.933-5.383H59a3.612,3.612,0,0,1-3.142,1.838,1.772,1.772,0,0,0,0,3.545,7.168,7.168,0,0,0,6.933-5.383H69.77a3.612,3.612,0,0,1-3.142,1.838,1.772,1.772,0,0,0,0,3.545,7.168,7.168,0,0,0,6.933-5.383h6.976A3.612,3.612,0,0,1,77.4,96.22a1.772,1.772,0,0,0,0,3.545,7.168,7.168,0,0,0,6.933-5.383h6.976a3.612,3.612,0,0,1-3.142,1.838,1.772,1.772,0,1,0,0,3.545A7.168,7.168,0,0,0,95.1,94.382h5.572a.627.627,0,0,1,.6.459l.113.41a3.594,3.594,0,0,1-2.454.969,1.772,1.772,0,1,0,0,3.545,7.113,7.113,0,0,0,3.454-.891l2.11,7.641H20.612ZM98.93,89a3.614,3.614,0,0,1,3.3,2.147,4.14,4.14,0,0,0-1.56-.308l-4.883,0A3.612,3.612,0,0,1,98.93,89ZM88.162,89a3.612,3.612,0,0,1,3.146,1.844l-6.293,0A3.612,3.612,0,0,1,88.162,89ZM77.4,89a3.612,3.612,0,0,1,3.149,1.849l-6.3,0A3.612,3.612,0,0,1,77.4,89ZM66.628,89a3.612,3.612,0,0,1,3.152,1.854l-6.305,0A3.613,3.613,0,0,1,66.628,89ZM55.861,89a3.612,3.612,0,0,1,3.155,1.858l-6.311,0A3.613,3.613,0,0,1,55.861,89ZM45.093,89a3.613,3.613,0,0,1,3.158,1.863l-6.317,0A3.613,3.613,0,0,1,45.093,89ZM34.326,89a3.614,3.614,0,0,1,3.161,1.868l-6.323,0A3.613,3.613,0,0,1,34.326,89ZM23.559,89a3.613,3.613,0,0,1,3.164,1.873l-6.329,0A3.614,3.614,0,0,1,23.559,89Zm-8.47,28.281,3.355,42.784-5.936-3.482ZM117.325,153.9a.614.614,0,0,1-.5.246H92.883a1.772,1.772,0,1,0,0,3.545h9.188l.326,4.156a.625.625,0,0,1-.623.674h-79a.628.628,0,0,1-.623-.576l-4-51.045,6.048,21.9a1.773,1.773,0,0,0,3.417-.944l-6.019-21.793h83.882l11.957,43.292A.614.614,0,0,1,117.325,153.9Z" transform="translate(0 -85.453)"/>
        <path id="Trazado_125193" data-name="Trazado 125193" d="M169.665,326.327h-50.15a.626.626,0,0,1-.6-.459l-3.769-13.646a1.773,1.773,0,0,0-3.417.944l3.769,13.646a4.181,4.181,0,0,0,4.019,3.06h50.15a1.773,1.773,0,0,0,0-3.545Z" transform="translate(-85.274 -257.637)"/>
        <path id="Trazado_125194" data-name="Trazado 125194" d="M132.3,224.953a4.157,4.157,0,0,0,3.971,2.9h7.026a4.17,4.17,0,0,0,3.971-5.444l-3.052-9.516a4.158,4.158,0,0,0-3.971-2.9h-7.027a4.17,4.17,0,0,0-3.971,5.444Zm.413-11.158a.613.613,0,0,1,.505-.257h7.027a.623.623,0,0,1,.6.434l3.052,9.516a.625.625,0,0,1-.6.816h-7.026a.623.623,0,0,1-.6-.434l-3.052-9.516A.613.613,0,0,1,132.71,213.795Z" transform="translate(-98.545 -180.561)"/>
        <path id="Trazado_125195" data-name="Trazado 125195" d="M218.465,216.582h3.272a1.772,1.772,0,0,0,0-3.545h-3.272a1.772,1.772,0,1,0,0,3.545Z" transform="translate(-165.482 -182.885)"/>
        <path id="Trazado_125196" data-name="Trazado 125196" d="M265.285,216.582h3.272a1.772,1.772,0,0,0,0-3.545h-3.272a1.772,1.772,0,0,0,0,3.545Z" transform="translate(-201.238 -182.885)"/>
        <path id="Trazado_125197" data-name="Trazado 125197" d="M312.1,216.582h3.272a1.772,1.772,0,0,0,0-3.545H312.1a1.772,1.772,0,0,0,0,3.545Z" transform="translate(-236.992 -182.885)"/>
        <path id="Trazado_125198" data-name="Trazado 125198" d="M358.923,216.582H362.2a1.772,1.772,0,0,0,0-3.545h-3.272a1.772,1.772,0,0,0,0,3.545Z" transform="translate(-272.746 -182.885)"/>
        <path id="Trazado_125199" data-name="Trazado 125199" d="M405.742,216.582h3.272a1.772,1.772,0,0,0,0-3.545h-3.272a1.772,1.772,0,0,0,0,3.545Z" transform="translate(-308.501 -182.885)"/>
        <path id="Trazado_125200" data-name="Trazado 125200" d="M226.66,255.7a1.772,1.772,0,0,0,1.772,1.772H231.7a1.772,1.772,0,1,0,0-3.545h-3.272A1.772,1.772,0,0,0,226.66,255.7Z" transform="translate(-173.094 -214.11)"/>
        <path id="Trazado_125201" data-name="Trazado 125201" d="M273.479,255.7a1.772,1.772,0,0,0,1.772,1.772h3.272a1.772,1.772,0,1,0,0-3.545h-3.272A1.772,1.772,0,0,0,273.479,255.7Z" transform="translate(-208.848 -214.11)"/>
        <path id="Trazado_125202" data-name="Trazado 125202" d="M320.3,255.7a1.772,1.772,0,0,0,1.772,1.772h3.272a1.772,1.772,0,0,0,0-3.545h-3.272A1.772,1.772,0,0,0,320.3,255.7Z" transform="translate(-244.602 -214.11)"/>
        <path id="Trazado_125203" data-name="Trazado 125203" d="M373.934,255.7a1.772,1.772,0,0,0-1.772-1.772h-3.272a1.772,1.772,0,1,0,0,3.545h3.272A1.772,1.772,0,0,0,373.934,255.7Z" transform="translate(-280.357 -214.11)"/>
        <path id="Trazado_125204" data-name="Trazado 125204" d="M420.752,255.7a1.772,1.772,0,0,0-1.772-1.772h-3.272a1.772,1.772,0,1,0,0,3.545h3.272A1.772,1.772,0,0,0,420.752,255.7Z" transform="translate(-316.111 -214.11)"/>
        <path id="Trazado_125205" data-name="Trazado 125205" d="M236.626,296.586a1.772,1.772,0,0,0,1.772,1.772h3.272a1.772,1.772,0,1,0,0-3.545H238.4A1.772,1.772,0,0,0,236.626,296.586Z" transform="translate(-180.705 -245.336)"/>
        <path id="Trazado_125206" data-name="Trazado 125206" d="M283.444,296.586a1.772,1.772,0,0,0,1.772,1.772h3.272a1.772,1.772,0,1,0,0-3.545h-3.272A1.772,1.772,0,0,0,283.444,296.586Z" transform="translate(-216.458 -245.336)"/>
        <path id="Trazado_125207" data-name="Trazado 125207" d="M330.264,296.586a1.772,1.772,0,0,0,1.772,1.772h3.272a1.772,1.772,0,1,0,0-3.545h-3.272A1.772,1.772,0,0,0,330.264,296.586Z" transform="translate(-252.213 -245.336)"/>
        <path id="Trazado_125208" data-name="Trazado 125208" d="M382.126,298.359a1.772,1.772,0,0,0,0-3.545h-3.272a1.772,1.772,0,0,0,0,3.545Z" transform="translate(-287.967 -245.336)"/>
        <path id="Trazado_125209" data-name="Trazado 125209" d="M428.945,298.359a1.772,1.772,0,0,0,0-3.545h-3.272a1.772,1.772,0,0,0,0,3.545Z" transform="translate(-323.721 -245.336)"/>
        <path id="Trazado_125210" data-name="Trazado 125210" d="M248.592,335.7H245.32a1.772,1.772,0,1,0,0,3.545h3.272a1.772,1.772,0,1,0,0-3.545Z" transform="translate(-185.991 -276.56)"/>
        <path id="Trazado_125211" data-name="Trazado 125211" d="M295.411,335.7h-3.272a1.772,1.772,0,1,0,0,3.545h3.272a1.772,1.772,0,1,0,0-3.545Z" transform="translate(-221.745 -276.56)"/>
        <path id="Trazado_125212" data-name="Trazado 125212" d="M342.23,335.7h-3.272a1.772,1.772,0,1,0,0,3.545h3.272a1.772,1.772,0,0,0,0-3.545Z" transform="translate(-257.5 -276.56)"/>
        <path id="Trazado_125213" data-name="Trazado 125213" d="M389.049,335.7h-3.272a1.772,1.772,0,1,0,0,3.545h3.272a1.772,1.772,0,1,0,0-3.545Z" transform="translate(-293.254 -276.56)"/>
        <path id="Trazado_125214" data-name="Trazado 125214" d="M435.868,335.7H432.6a1.772,1.772,0,1,0,0,3.545h3.272a1.772,1.772,0,0,0,0-3.545Z" transform="translate(-329.008 -276.56)"/>
        <path id="Trazado_125215" data-name="Trazado 125215" d="M165.011,302.91a1.773,1.773,0,0,0-1.237,2.181l2.187,7.917a1.773,1.773,0,1,0,3.417-.944l-2.187-7.917A1.773,1.773,0,0,0,165.011,302.91Z" transform="translate(-125.021 -251.47)"/>
        <path id="Trazado_125216" data-name="Trazado 125216" d="M195.158,319.659a1.773,1.773,0,0,0-1.237,2.181l1.093,3.958a1.773,1.773,0,1,0,3.417-.944l-1.093-3.959A1.772,1.772,0,0,0,195.158,319.659Z" transform="translate(-148.043 -264.26)"/>
      </g>
    </g>
  </g>
</svg>
