<svg xmlns="http://www.w3.org/2000/svg" xmlns:xlink="http://www.w3.org/1999/xlink" width="610.001" height="344.27" viewBox="0 0 610.001 344.27"><defs><clipPath id="a"><path d="M257.153,0,255.3,106.979l135.528,99.615a50.928,50.928,0,0,0,96.424,32.259h93V0Z" transform="translate(-255.301)" fill="none"/></clipPath><clipPath id="b"><path d="M105.14,72.287V287.425h37.615a61.425,61.425,0,0,0,119.327,0h50.372V72.287Z" transform="translate(-105.14 -72.287)" fill="none"/></clipPath></defs><g transform="translate(-810 -4204.73)"><g transform="translate(-45.597 -58.755)"><g transform="translate(1220.688 4378.282)"><g transform="translate(0 0)"><path d="M543.907,232.85l-3.307-.5-8.1-1.154a93.828,93.828,0,0,0-2.145-37.062l11.218-2.928a106.783,106.783,0,0,0-3.463-10.871,104.251,104.251,0,0,0-14.385-26.044l-5.106,3.834-4.152,3.121a94.077,94.077,0,0,0-27.7-24.721l5.844-9.968a106.075,106.075,0,0,0-38.7-13.5l-1.639,11.457a93.847,93.847,0,0,0-37.069,2.145l-2.927-11.218A104.769,104.769,0,0,0,375.362,133.3l6.955,9.258A93.969,93.969,0,0,0,357.6,170.25l-9.966-5.844a105.228,105.228,0,0,0-13.5,38.7l.094.02,7.544,1.075,3.818.543a94.057,94.057,0,0,0,2.141,37.067l-11.218,2.927a105.422,105.422,0,0,0,17.8,36.884l9.257-6.955a95.022,95.022,0,0,0,27.749,24.75l-5.839,9.965a105.681,105.681,0,0,0,38.657,13.512l.379-2.55,1.256-8.907a94.067,94.067,0,0,0,37.109-2.155l2.928,11.219a104.69,104.69,0,0,0,36.874-17.84l-6.955-9.262a94.235,94.235,0,0,0,24.762-27.7l9.967,5.839a106.026,106.026,0,0,0,13.5-38.7Zm-91.922,34.707a51.2,51.2,0,1,1,38.3-48.371,51.206,51.206,0,0,1-38.3,48.371" transform="translate(-334.131 -113.06)" fill="#9fd1fc"/><path d="M487.986,218.562a51.658,51.658,0,0,0-3.884-20.8L516.311,157.5l5.106-3.834A104.25,104.25,0,0,1,535.8,179.711Z" transform="translate(-331.829 -112.437)" fill="#9fd1fc"/></g></g><g transform="translate(1140.648 4263.485)"><g clip-path="url(#a)"><path d="M424.255,197.043l1.245-1.012c-10.94-13.449-15.395-24.666-13.619-34.293,2.418-13.1,16.2-21.047,28.355-28.057,6.825-3.934,13.272-7.653,16.913-11.867,2.731-3.164,3.864-6.59,3.365-10.184-1.132-8.151-10.223-14.224-10.608-14.479l-.883,1.34c.089.058,8.875,5.935,9.9,13.365a11.019,11.019,0,0,1-2.991,8.909c-3.463,4.011-9.8,7.662-16.5,11.526-12.458,7.184-26.579,15.325-29.132,29.156-1.866,10.117,2.7,21.76,13.952,35.6" transform="translate(-252.928 1.492)" fill="#dfe5f2"/><path d="M381.268,258.067l5.406-3.457c-8.882-13.89-8.879-26.493.007-36.445,14.771-16.543,44.763-3.466,45.063-3.332l2.617-5.86a74.464,74.464,0,0,0-19.084-5.14c-14.342-1.82-25.883,1.659-33.383,10.058-10.85,12.152-11.072,27.84-.626,44.176" transform="translate(-253.485 3.122)" fill="#dfe5f2"/><rect width="48.926" height="10.56" transform="matrix(0.613, -0.79, 0.79, 0.613, 70.703, 84.147)" fill="#dfe5f2"/><path d="M333.264,70.573l9.782,7.583a9.76,9.76,0,0,1-1.81,8.2l-5.5,7.062L320.294,81.406l5.5-7.062a9.761,9.761,0,0,1,7.467-3.771" transform="translate(-254.303 1.084)" fill="#2c78dc"/><rect width="2.804" height="23.119" transform="matrix(0.613, -0.79, 0.79, 0.613, 62.818, 83.573)" fill="#dfe5f2"/><path d="M309.768,136.988l2.774,2.887,26.7-16.071-7.565-7.872Z" transform="translate(-254.465 1.78)" fill="#dfe5f2"/><path d="M283.481,116.929l-3.441-2.046,9.587-29.654,9.385,5.58Z" transform="translate(-254.921 1.309)" fill="#dfe5f2"/><path d="M310.219,90.141,328.612,104.4a5.156,5.156,0,0,0,6.318-8.149L316.536,81.992a5.155,5.155,0,0,0-6.316,8.149" transform="translate(-254.488 1.242)" fill="#2c78dc"/><path d="M331.523,95.714a4.42,4.42,0,0,1,5.09,3.481l3.972,19.7a7.35,7.35,0,1,1-14.51.861l1.8-20.086a4.42,4.42,0,0,1,3.645-3.96" transform="translate(-254.215 1.468)" fill="#2c78dc"/><path d="M334.129,117.106a2.826,2.826,0,1,0,1.928,2.631,2.83,2.83,0,0,0-1.928-2.631" transform="translate(-254.148 1.796)" fill="#dfe5f2"/><path d="M332.9,98.432a2.172,2.172,0,1,0,1.481,2.021,2.175,2.175,0,0,0-1.481-2.021" transform="translate(-254.154 1.509)" fill="#dfe5f2"/><path d="M319.093,84.527a4.419,4.419,0,0,0-4.718-3.969l-20.047,1.457a7.35,7.35,0,1,0,3.062,14.21L316.256,89.1a4.419,4.419,0,0,0,2.837-4.574" transform="translate(-254.808 1.237)" fill="#2c78dc"/><path d="M315.233,83.373a2.171,2.171,0,1,0,.752,2.39,2.174,2.174,0,0,0-.752-2.39" transform="translate(-254.434 1.273)" fill="#dfe5f2"/><path d="M296.774,87.047a2.826,2.826,0,1,0,.979,3.111,2.83,2.83,0,0,0-.979-3.111" transform="translate(-254.734 1.328)" fill="#dfe5f2"/><rect width="38.909" height="12.519" transform="matrix(0.991, -0.133, 0.133, 0.991, 99.925, 43.785)" fill="#dfe5f2"/><path d="M389.739,58.6l24.984-3.348a13.7,13.7,0,1,0-3.64-27.163L386.1,31.44Z" transform="translate(-253.293 0.429)" fill="#083898"/><path d="M358.047,62.857,375.653,60.5l-3.64-27.164-17.606,2.36a13.7,13.7,0,1,0,3.64,27.163" transform="translate(-253.962 0.512)" fill="#2c78dc"/><path d="M348.712,47.2a7.222,7.222,0,1,1,5.09,8.855,7.231,7.231,0,0,1-5.09-8.855m2.935.793a4.182,4.182,0,1,0,5.126-2.947,4.186,4.186,0,0,0-5.126,2.947" transform="translate(-253.871 0.643)" fill="#dfe5f2"/><path d="M516.687,130.683a71.551,71.551,0,0,0,12.306-19.925c6.28-15.686,4.273-30.024-5.807-41.463-7.362-8.355-16.846-13-27.425-13.446-12.2-.509-23.662,4.8-27.566,8.55l4.445,4.628c2.6-2.5,12.279-7.207,22.853-6.766,8.915.372,16.611,4.166,22.878,11.278,8.492,9.636,10.06,21.356,4.664,34.835a65.69,65.69,0,0,1-11.067,17.962Z" transform="translate(-252.032 0.857)" fill="#dfe5f2"/><rect width="4.903" height="17.861" transform="matrix(0.73, -0.684, 0.684, 0.73, 210.492, 62.727)" fill="#dfe5f2"/><rect width="40.033" height="8.356" transform="translate(194.955 105.809) rotate(-40.262)" fill="#dfe5f2"/><path d="M507.3,144.4h0a10.91,10.91,0,0,0,1.244-15.38L465.309,78.134,448.685,92.271l43.235,50.886A10.911,10.911,0,0,0,507.3,144.4" transform="translate(-252.332 1.2)" fill="#dfe5f2"/><path d="M449.015,111.2,403.948,50.524a18.381,18.381,0,0,1,2.909-25.014h0A18.38,18.38,0,0,1,432,26.877l52.048,54.648Z" transform="translate(-253.074 0.325)" fill="#2c78dc"/><path d="M411.054,30.507a11.793,11.793,0,1,1-1.417,16.617,11.807,11.807,0,0,1,1.417-16.617m3.2,3.8a6.828,6.828,0,1,0,9.621.82,6.836,6.836,0,0,0-9.621-.82" transform="translate(-252.974 0.426)" fill="#dfe5f2"/><path d="M418.668,236.548h0a35.418,35.418,0,0,0,49.961-3.554L526.8,165.915a35.417,35.417,0,0,0-53.516-46.407l-58.168,67.078a35.417,35.417,0,0,0,3.555,49.961" transform="translate(-252.98 1.647)" fill="#2c78dc"/><path d="M486.16,128.694a18.647,18.647,0,1,0,26.306-1.871,18.648,18.648,0,0,0-26.306,1.871m5.664,4.911a11.151,11.151,0,1,1,1.119,15.731,11.151,11.151,0,0,1-1.119-15.731" transform="translate(-251.827 1.877)" fill="#dfe5f2"/><path d="M405.908,241.89h64.361V214.28a32.181,32.181,0,0,0-64.361,0Z" transform="translate(-252.989 2.796)" fill="#dfe5f2"/><rect width="104.399" height="24.177" transform="translate(131.255 241.44)" fill="#7699d6"/><path d="M367.468,271H513.7a17.891,17.891,0,0,1,.118,2.046v70.189H367.35V273.049a17.863,17.863,0,0,1,.118-2.046" transform="translate(-253.581 4.161)" fill="#c6352a"/><path d="M399.413,249.249h82.445c17.64,4.793,30.548,13.045,31.894,24.755H367.519c1.346-11.71,14.255-19.962,31.894-24.755" transform="translate(-253.578 3.827)" fill="#7699d6"/><rect width="154.187" height="21.359" transform="translate(109.417 326.047)" fill="#e9990d"/><path d="M453.32,291.114h0a3.94,3.94,0,1,0-3.94-3.94,3.939,3.939,0,0,0,3.94,3.94" transform="translate(-252.321 4.348)" fill="#e9990d"/><path d="M440.168,291.114h0a3.94,3.94,0,1,0-3.94-3.94,3.939,3.939,0,0,0,3.94,3.94" transform="translate(-252.523 4.348)" fill="#e9990d"/><path d="M427.017,291.114h0a3.94,3.94,0,1,0-3.94-3.94,3.939,3.939,0,0,0,3.94,3.94" transform="translate(-252.725 4.348)" fill="#e9990d"/><path d="M413.866,291.114h0a3.94,3.94,0,1,0-3.94-3.94,3.939,3.939,0,0,0,3.94,3.94" transform="translate(-252.927 4.348)" fill="#e9990d"/><path d="M472.189,296.4h23.622v21.692H472.189Zm23.257.366H472.555v20.961h22.891Z" transform="translate(-251.971 4.55)" fill="#e9990d"/><path d="M422.294,204.923a17.881,17.881,0,0,0-2.619,6.432l1.928.375a16.127,16.127,0,0,0,.04,6.305l-1.918.4a17.932,17.932,0,0,0,2.695,6.4l.363-.242,1.264-.854a15.951,15.951,0,0,0,4.49,4.424l-1.079,1.644a17.726,17.726,0,0,0,6.436,2.611l.375-1.928a15.954,15.954,0,0,0,6.3-.033l.4,1.918a17.938,17.938,0,0,0,6.4-2.7l-.006,0-.313-.472-.777-1.151a15.908,15.908,0,0,0,4.42-4.483l1.644,1.078a17.762,17.762,0,0,0,2.616-6.442l-1.927-.375a15.941,15.941,0,0,0-.039-6.3l1.918-.4a17.963,17.963,0,0,0-2.7-6.4l-1.629,1.1A15.914,15.914,0,0,0,446.1,201.4l1.078-1.644a17.8,17.8,0,0,0-6.442-2.616l-.375,1.928a15.96,15.96,0,0,0-6.3.038l-.4-1.918a17.846,17.846,0,0,0-6.4,2.7l.009.014.722,1.071.366.542A15.943,15.943,0,0,0,423.936,206Zm7.763,5.1a8.687,8.687,0,1,1,2.492,12.03,8.682,8.682,0,0,1-2.492-12.03" transform="translate(-252.777 3.027)" fill="#2c78dc"/><path d="M433.985,210v9.415l8.706-5Z" transform="translate(-252.558 3.224)" fill="#2c78dc"/><path d="M424.428,234.626c.316-.457.63-.916.937-1.379a21.691,21.691,0,0,1-9.52-17.929l2.272.023-3.129-4.716-2.857,4.655,2.047.02a23.358,23.358,0,0,0,10.25,19.325" transform="translate(-252.893 3.234)" fill="#2c78dc"/><path d="M459.633,214.869a23.361,23.361,0,0,0-10.511-19.513q-.407.73-.808,1.463a21.85,21.85,0,0,1,3.459,2.869,21.536,21.536,0,0,1,6.192,15.163l-2.271-.023,3.129,4.716,2.857-4.654Z" transform="translate(-252.338 2.999)" fill="#2c78dc"/></g></g></g><g transform="translate(-20.004 28.26)"><path d="M329.666,287.105l-4.031-.445-9.878-1.007a113.854,113.854,0,0,0-4.376-44.809l13.452-4.088a127.084,127.084,0,0,0-23.407-43.871l-10.881,8.874A114.1,114.1,0,0,0,255.8,173.132l6.6-12.357a128.512,128.512,0,0,0-47.54-14.5l-1.436,13.962a113.249,113.249,0,0,0-25.813.309,114.966,114.966,0,0,0-19,4.069l-4.088-13.451q-4.2,1.273-8.252,2.813a126.512,126.512,0,0,0-35.617,20.588l8.872,10.886a113.925,113.925,0,0,0-27.952,33.5q-.341.617-.675,1.239l-2.321-1.239L88.545,213.6q-1.42,2.648-2.714,5.359a127.794,127.794,0,0,0-11.786,42.183l.118.019,9.19.937,4.654.478q-.417,4.072-.541,8.2a113.617,113.617,0,0,0,.9,17.948,115.268,115.268,0,0,0,4.02,18.667l-9.9,3.009-3.547,1.077q1.577,5.192,3.547,10.145a127.324,127.324,0,0,0,19.79,33.692l10.885-8.872a115.206,115.206,0,0,0,34.812,28.659l-6.6,12.358a128.177,128.177,0,0,0,47.486,14.51l.339-3.106L190.29,388a113.982,113.982,0,0,0,44.859-4.392l4.089,13.452a126.84,126.84,0,0,0,43.823-23.385l-8.875-10.886a114.281,114.281,0,0,0,28.676-34.761l12.358,6.6a128.467,128.467,0,0,0,14.5-47.54Zm-69.9,9.658a62.157,62.157,0,1,1,1.573-40.717,62.022,62.022,0,0,1-1.573,40.717m69.9-9.658-4.031-.445-9.878-1.007a113.854,113.854,0,0,0-4.376-44.809l13.452-4.088a127.084,127.084,0,0,0-23.407-43.871l-10.881,8.874A114.1,114.1,0,0,0,255.8,173.132l6.6-12.357a128.512,128.512,0,0,0-47.54-14.5l-1.436,13.962a113.249,113.249,0,0,0-25.813.309,114.966,114.966,0,0,0-19,4.069l-4.088-13.451q-4.2,1.273-8.252,2.813a126.512,126.512,0,0,0-35.617,20.588l8.872,10.886a113.925,113.925,0,0,0-27.952,33.5q-.341.617-.675,1.239l-2.321-1.239L88.545,213.6q-1.42,2.648-2.714,5.359a127.794,127.794,0,0,0-11.786,42.183l.118.019,9.19.937,4.654.478q-.417,4.072-.541,8.2a113.617,113.617,0,0,0,.9,17.948,115.268,115.268,0,0,0,4.02,18.667l-9.9,3.009-3.547,1.077q1.577,5.192,3.547,10.145a127.324,127.324,0,0,0,19.79,33.692l10.885-8.872a115.206,115.206,0,0,0,34.812,28.659l-6.6,12.358a128.177,128.177,0,0,0,47.486,14.51l.339-3.106L190.29,388a113.982,113.982,0,0,0,44.859-4.392l4.089,13.452a126.84,126.84,0,0,0,43.823-23.385l-8.875-10.886a114.281,114.281,0,0,0,28.676-34.761l12.358,6.6a128.467,128.467,0,0,0,14.5-47.54Zm-69.9,9.658a62.157,62.157,0,1,1,1.573-40.717,62.022,62.022,0,0,1-1.573,40.717" transform="translate(828.769 4118.777)" fill="#9fd1fc"/><path d="M310.25,290.313l.521-5.085a107.933,107.933,0,0,0,.566-11.032,109.19,109.19,0,0,0-4.749-31.77l-1.482-4.886,13.352-4.058a121.258,121.258,0,0,0-17.732-33.262L289.9,209.052l-3.225-3.984a108.5,108.5,0,0,0-33.194-27.341l-4.487-2.41,6.542-12.252A122.45,122.45,0,0,0,219.5,152.072l-1.425,13.867-5.081-.522a108.034,108.034,0,0,0-24.631.293l-.017,0a110.145,110.145,0,0,0-18.154,3.888l-4.886,1.485-4.057-13.352q-1.549.54-3.074,1.118-.553.209-1.1.425a121.559,121.559,0,0,0-29.082,16.187l8.83,10.83-3.983,3.224a107.9,107.9,0,0,0-25.288,29.536q-1.058,1.8-2.053,3.657l-2.411,4.487L90.822,220.65a121.718,121.718,0,0,0-10.983,36.041l4.132.42,9.735,1-.522,5.081c-.26,2.539-.432,5.106-.51,7.675q-.052,1.684-.053,3.362a109.345,109.345,0,0,0,.9,13.929A110.493,110.493,0,0,0,97.365,306l1.482,4.886L85.5,314.939q.864,2.474,1.824,4.892a122.489,122.489,0,0,0,15.852,28.326l10.81-8.81,3.224,3.958a109.49,109.49,0,0,0,33.269,27.389l4.487,2.41-6.542,12.257a122.335,122.335,0,0,0,36,11l1.4-13.864,5.088.521a108.067,108.067,0,0,0,11,.561,109.435,109.435,0,0,0,31.852-4.76l4.886-1.485,4.059,13.354a121.2,121.2,0,0,0,33.212-17.716l-8.83-10.832,3.982-3.222a108.514,108.514,0,0,0,27.39-33.211l2.411-4.487,12.256,6.542a122.5,122.5,0,0,0,10.991-36.041Zm-45.628,8.41a67.219,67.219,0,0,1-126.943-4.977,67.652,67.652,0,0,1-2.7-14.11q-.1-1.187-.151-2.386c-.048-1.026-.072-2.051-.072-3.069a67.317,67.317,0,0,1,67.292-67.2c.186,0,.374,0,.561,0,2.039.019,4.1.13,6.127.331a67.576,67.576,0,0,1,30.806,11.124q1.774,1.195,3.466,2.495a67.19,67.19,0,0,1,22.3,75.923C265.1,297.486,264.863,298.106,264.622,298.723Z" transform="translate(828.672 4118.682)" fill="none" stroke="#fff" stroke-miterlimit="10" stroke-width="1.324"/><path d="M209.025,212.389A62.186,62.186,0,0,0,140.869,279.2c-5.156-1.69-8.741-3.4-10.193-5.092-11.215-13.038,10.951-67.8,15.907-74.84s23.208-10.694,23.208-10.694,0-4.172-.521-12.256c-3.651,0-7.564-9.387-7.564-9.387l-3.651-6.259-.894-6.616q4.049-1.535,8.253-2.813L169.5,164.7a114.939,114.939,0,0,1,19-4.067l4.759,36.554Z" transform="translate(827.877 4118.695)" fill="#83c4fc"/><path d="M290.569,291.6c-1.438,1.308-14.057,7.123-28.043,6.3a62.157,62.157,0,0,0-23.166-74.177l33.737-9.316s23.991-.261,27.12,4.433-3.911,67.54-9.648,72.756" transform="translate(826.013 4117.642)" fill="#83c4fc"/><g transform="translate(933.391 4192.298)"><g clip-path="url(#b)"><path d="M221.625,197.48l33.928,18.454,17.262-42.675,8.875,2.23s-5.752,49.576-14.984,58.651-56.342-10.918-56.342-10.918c-11.543-7.383-1.028-30.793,11.261-25.742" transform="translate(-106.811 -73.971)" fill="#f7a594"/><path d="M273.286,179.342s-2.9-9.518-2.208-11.973,10.208-4.833,10.561-3.682,1.058,3.976-5.128,5.064c3.7,4.1,7.55,11.943-3.225,10.59" transform="translate(-107.905 -73.806)" fill="#f7a594"/><path d="M272.791,179.682s0-8.341,1.649-11.545c2.2-4.267,7.737-6.629,7.737-6.629s8.655,8.188,8.82,9.538-8.362,8.743-8.362,8.743-6.3,4.967-9.843-.107" transform="translate(-107.935 -73.775)" fill="#f7a594"/><path d="M274.935,168.73s4.191-20.423,7.388-19.523c1.473.415-2.46,19.923-2.46,19.923Z" transform="translate(-107.971 -73.569)" fill="#f7a594"/><path d="M272.478,176.642a.114.114,0,0,0,.068,0,.11.11,0,0,0,.08-.135c-.712-2.788-1.846-7.678-1.442-9.114.534-1.894,6.8-3.868,9.434-3.9.783-.009.9.166.915.22a2.964,2.964,0,0,1-.153,2.556c-.686,1.12-2.331,1.917-4.888,2.367l-.2.034.134.15c1.536,1.7,3.318,4.321,3.711,6.566a.111.111,0,1,0,.218-.037c-.389-2.227-2.106-4.8-3.631-6.529,2.51-.467,4.14-1.286,4.843-2.434a3.248,3.248,0,0,0,.176-2.737c-.081-.262-.449-.385-1.13-.378-2.664.03-9.068,2.014-9.645,4.061-.419,1.487.723,6.42,1.441,9.23a.11.11,0,0,0,.067.076" transform="translate(-107.903 -73.804)" fill="#e6836f"/><path d="M284.208,173.838l.091.033.074.024.048-.062c1.518-1.969,4.757-2.519,4.79-2.524a.111.111,0,0,0-.036-.219c-.135.022-3.289.558-4.879,2.545l-.009,0c-1.931-.754-4.284-5.7-4.308-5.753a.111.111,0,0,0-.2.094c.1.21,2.416,5.079,4.431,5.867" transform="translate(-108.052 -73.88)" fill="#e6836f"/><path d="M215.36,195.681s7.107.948,24.161,11.844c-1.895,7.343-7.58,26.53-7.58,26.53S205.884,226,202.332,217.236s.237-25.108,13.028-21.556" transform="translate(-106.739 -74.336)" fill="#002e73"/><path d="M130.932,498.892h26.93a3.2,3.2,0,0,0,1.207-1.082c1.387-20.028,3.385-29.672,3.385-29.672l-18.756-.764-4.246,14.9c-6.283,4.3-13.773,13.508-8.52,16.617" transform="translate(-105.54 -78.874)" fill="#231f20"/><path d="M159.875,499.718H127.948c-.809,0-.538-4.441.272-4.441l31.737.179c.833,0,.751,4.262-.082,4.262" transform="translate(-105.512 -79.34)" fill="#231f20"/><path d="M171.244,282.117c-9.385,14.432-16.238,84.174-29.168,189.181l19.114,1.007c5.743-27.971,12.216-42.15,18.792-82.469,15.749-35.586,23.917-69.3,28.108-104.007,4.075-26.165-28.048-39.9-36.846-3.713" transform="translate(-105.756 -75.419)" fill="#002e73"/><path d="M194.726,287.125a591.241,591.241,0,0,0,10.453,94.445c2.088,42.766,4.911,41.335,8.871,91.18l17.275-.229c1.453-21.358,12.976-120.914,4.029-184.813-4.328-28.787-43.389-38.313-40.627-.582" transform="translate(-106.631 -75.456)" fill="#002e73"/><path d="M214.341,476.313c-1.541,8.253-2.647,14.691-2,22.16l41.84.814s4.142-4.034-1.065-10.083-15.1-2.55-21.5-13.121Z" transform="translate(-106.924 -79.019)" fill="#231f20"/><path d="M256.064,499.718H211.611c-.809,0-.6-4.441.212-4.441l44.265.179c.833,0,.808,4.262-.025,4.262" transform="translate(-106.907 -79.34)" fill="#231f20"/><path d="M233.361,283.559c0,8.831-62.715,6.275-62.715-2.557-3.594-77.076-22.221-69.192-17.456-76.949,8.216-13.376,49.721-12.618,64.663-6.868,5.934,2.283,13.9,11.585,16.451,26.414,1.31,7.624-4.3,16.5-5.191,22.665-2.052,14.261,3.831,35.248,4.248,37.3" transform="translate(-105.928 -74.304)" fill="#002e73"/><path d="M194.659,202.887a18.545,18.545,0,0,1-18.721-8.937l.74-21.427,12.137-1.182a36.091,36.091,0,0,1,10.066,2.33l2.732,14.109.6,3.059c1.375,3.011,3.03,10.507-7.558,12.048" transform="translate(-106.32 -73.939)" fill="#f7a594"/><path d="M180.845,177.446c1.9,2.93,9.875,10.433,20.85,10.407l-2.363-12.207Z" transform="translate(-106.402 -74.01)" fill="#e6836f"/><path d="M207.5,148.507c.952,4.221,2.913,13.488,2.592,17.757-.488,6.5-6.558,13.706-11.85,14.652-6.127.623-14.387-1.2-18.871-5.053-2.5-2.925-7.327-9.864-9.55-15.938-4.637-12.669,4.315-23.779,15.671-26.344s19.041,1.766,22.008,14.927" transform="translate(-106.198 -73.297)" fill="#f7a594"/><path d="M173.584,168.264c-2.368-4.168.779-5.858,4.228-2.621-.589-3.146-4.175-12.361-1-15.418,3.587-3.546,19.375-2,27.856-10.846,0,0-6.322-13.86-27.07-5.675-23.435,12.425-4.015,34.559-4.015,34.559" transform="translate(-106.155 -73.268)" fill="#73382a"/><path d="M176.571,164.827c1.794,2.182,1.869,5.076.169,6.464s-4.533.745-6.327-1.436-1.87-5.076-.169-6.465,4.533-.745,6.327,1.437" transform="translate(-106.205 -73.794)" fill="#f7a594"/><path d="M157.579,199.729c7.05-.844,13.963,33.2,9.12,42.529-.013.688-.022,1.386-.04,2.088-.053,2.657-.119,5.4-.2,8.169-.04,1.226-.081,2.461-.12,3.7-.093,2.724-.2,5.46-.307,8.174-.866,21.035-2.172,40.663-2.172,40.663h73.449c-.587-14.424-2.692-29.231-4.132-40.663-.373-2.977-.7-5.726-.942-8.174-.133-1.323-.24-2.559-.315-3.7a29.973,29.973,0,0,1,.062-6.375,13.992,13.992,0,0,0,.164-1.795c.369-10.742-6.682-41.954-11.91-47.6a33.511,33.511,0,0,0-15.514-2.569c.515,15.313-5.575,29.054-5.575,29.054S183.59,209.885,175.109,194c-7.45,1.2-14.243,2.692-17.53,5.727" transform="translate(-106.014 -74.316)" fill="#f29627"/><path d="M232.067,253.368a30.035,30.035,0,0,1,.062-6.375,13.822,13.822,0,0,0,.164-1.795H166.811c-.053,2.656-.12,5.4-.2,8.169Z" transform="translate(-106.165 -75.17)" fill="#fff"/><path d="M166.172,265.44h67.145c-.373-2.977-.7-5.727-.942-8.174h-65.9c-.093,2.724-.2,5.46-.307,8.174" transform="translate(-106.158 -75.371)" fill="#fff"/><path d="M202.43,141.46a18.635,18.635,0,0,0,13.207.086c-1.023,4.6-33.572,11.417-37.747,9.628s15.678-11.673,24.54-9.713" transform="translate(-106.343 -73.436)" fill="#5c2d22"/><path d="M166.215,156.4c-.9-6.618-1.933-23.61,13.114-27.979,13.373-3.882,22.967,4.155,27.5,9.451,1.963.3,7.246-1.133,8.175-.039.217.653.013,1.915-5.359,4.044l.029.051c-19.422,4.262-35.986,9.686-42.988,19a6.643,6.643,0,0,1-2,.573c-.643,0,.963-2.6,1.528-5.105" transform="translate(-106.13 -73.206)" fill="#fff890"/><path d="M193.067,142.254s-6.113-14.416-20.6-10.567l-.281-.615a36.625,36.625,0,0,1,7.793-3.535c4.578-.723,15.183,1.044,21.288,12.171a36.981,36.981,0,0,1-8.2,2.546" transform="translate(-106.258 -73.206)" fill="#ffdd69"/><path d="M167.433,238.868l-9,25.035,38.8,24.609-.776,8.77s-52.136-10.825-56.965-22.9,11.314-63.68,11.314-63.68c5.5-13.205,15.025,17.148,16.624,28.163" transform="translate(-105.698 -74.54)" fill="#f79683"/><path d="M197.888,290.458l20.4.515s-6.265,10.027-20.52,8.209c-18.774-2.394-11.356-9.516.117-8.724" transform="translate(-106.493 -75.924)" fill="#f79683"/><path d="M280.917,288.109v1.059a.865.865,0,0,1-.014.16,1.827,1.827,0,0,1-1.931,1.219H189.765a1.826,1.826,0,0,1-1.93-1.219.868.868,0,0,1-.014-.16v-1.059Z" transform="translate(-106.519 -75.885)" fill="#5d4f99"/><path d="M280.9,289.349a1.827,1.827,0,0,1-1.931,1.219H189.765a1.826,1.826,0,0,1-1.93-1.219Z" transform="translate(-106.519 -75.906)" fill="#241f3c"/><path d="M293.014,226.076l.515.505-.28.394-.663-.929Z" transform="translate(-108.265 -74.851)" fill="#241f3c"/><path d="M279.915,286.909h-72.37a1.84,1.84,0,0,1-1.858-2.233l9.551-56.9a2.75,2.75,0,0,1,2.608-2.234h72.37a1.839,1.839,0,0,1,1.859,2.234l-9.55,56.9a2.752,2.752,0,0,1-2.609,2.233" transform="translate(-106.816 -74.842)" fill="#5d4f99"/><path d="M280.455,287.439h-72.37a1.84,1.84,0,0,1-1.858-2.233l9.551-56.9a2.75,2.75,0,0,1,2.608-2.234h72.37a1.839,1.839,0,0,1,1.858,2.234l-9.55,56.9a2.751,2.751,0,0,1-2.609,2.233" transform="translate(-106.825 -74.851)" fill="#241f3c"/><path d="M241.309,257.581a9.562,9.562,0,1,0,10.627-8.762,9.744,9.744,0,0,0-10.627,8.762" transform="translate(-107.409 -75.229)" fill="#f14141"/><path d="M166.9,242.075l-24.991-12.356s6.936-24.654,14.826-29.368c3.848,2.309,7.672,7.807,9.774,17.342a61.361,61.361,0,0,1,.391,24.383" transform="translate(-105.753 -74.422)" fill="#002e73"/><path d="M199.663,164.767a.209.209,0,0,0,.049,0c.109-.022,2.674-.549,3.489-1.906s-4.522-6.691-6.175-8.3a.25.25,0,0,0-.349.358c3.251,3.161,6.506,7,6.095,7.681-.7,1.167-3.133,1.668-3.157,1.673a.25.25,0,0,0,.049.5" transform="translate(-106.665 -73.658)" fill="#73382a"/><path d="M195.337,170.87a23.157,23.157,0,0,0,7.909-1.486.25.25,0,1,0-.193-.462c-.09.038-9.149,3.725-15.414-.8a.25.25,0,0,0-.293.405,13.45,13.45,0,0,0,7.99,2.345" transform="translate(-106.509 -73.884)" fill="#73382a"/><path d="M201.9,152.475c.228.99.865,1.689,1.423,1.562s.823-1.036.595-2.027-.865-1.689-1.422-1.562-.824,1.036-.6,2.027" transform="translate(-106.752 -73.59)" fill="#5c2d22"/><path d="M185.52,156.948c.346,1.059,1.11,1.759,1.706,1.564s.8-1.211.45-2.271-1.11-1.759-1.705-1.564-.8,1.211-.451,2.271" transform="translate(-106.477 -73.66)" fill="#5c2d22"/><path d="M285.461,145.063a2.527,2.527,0,0,1-3.425-.913,2.459,2.459,0,0,1,.9-3.387,2.527,2.527,0,0,1,3.425.915,2.457,2.457,0,0,1-.9,3.386" transform="translate(-108.084 -73.423)" fill="#062a72"/><path d="M295.373,137.053h0a.786.786,0,0,0,.231-1.087,14.314,14.314,0,0,0-19.284-4.668.787.787,0,0,0-.289,1.074.811.811,0,0,0,1.1.315,12.84,12.84,0,0,1,17.128,4.147.811.811,0,0,0,1.118.219" transform="translate(-107.988 -73.238)" fill="#062a72"/><path d="M292.613,138.952l0,0a.794.794,0,0,0,.215-1.112,11.249,11.249,0,0,0-14.815-3.59.792.792,0,0,0-.315,1.09l0,0a.811.811,0,0,0,1.08.32,9.776,9.776,0,0,1,12.72,3.083.81.81,0,0,0,1.107.208" transform="translate(-108.015 -73.297)" fill="#062a72"/><path d="M289.937,140.793l.009-.006a.79.79,0,0,0,.208-1.124,8.284,8.284,0,0,0-10.5-2.549.789.789,0,0,0-.328,1.1l0,.009a.814.814,0,0,0,1.061.328,6.812,6.812,0,0,1,8.451,2.051.813.813,0,0,0,1.1.194" transform="translate(-108.042 -73.353)" fill="#062a72"/></g></g><path d="M133.032,294.352v41.307a3.218,3.218,0,0,1-3.217,3.217H89.64a127.853,127.853,0,0,1-7.02-14.845V312.809l9.905-3.008a115.15,115.15,0,0,1-4.019-18.668h41.309a3.219,3.219,0,0,1,3.217,3.219" transform="translate(828.626 4116.362)" fill="#83c4fc"/><path d="M120.111,225.314v41.563A5.126,5.126,0,0,1,114.984,272H87.465q.122-4.124.541-8.2l-4.654-.478-9.189-.937-.118-.019A127.792,127.792,0,0,1,85.83,220.189h29.154a5.126,5.126,0,0,1,5.127,5.125" transform="translate(828.769 4117.546)" fill="#83c4fc"/><path d="M93.759,269.351H39.723A17.424,17.424,0,0,1,22.3,251.926V217.236a17.424,17.424,0,0,1,17.424-17.425H93.759a17.425,17.425,0,0,1,17.425,17.425v34.691a17.425,17.425,0,0,1-17.425,17.425" transform="translate(829.632 4117.885)" fill="#dfe5f2"/><path d="M101.356,220.017H33.318a.162.162,0,1,1,0-.324h68.037a.162.162,0,1,1,0,.324" transform="translate(829.451 4117.554)" fill="#062a72"/><path d="M101.356,243.723H33.318a.162.162,0,1,1,0-.324h68.037a.162.162,0,1,1,0,.324" transform="translate(829.451 4117.159)" fill="#062a72"/><path d="M101.356,232.178H33.318a.162.162,0,1,1,0-.324h68.037a.162.162,0,1,1,0,.324" transform="translate(829.451 4117.351)" fill="#062a72"/><path d="M101.351,255.036H32.991l-.139-41.572a.324.324,0,0,1,.323-.324h0a.324.324,0,0,1,.324.323l.137,40.926h67.715a.324.324,0,0,1,0,.648" transform="translate(829.456 4117.663)" fill="#083898"/><path d="M90.065,224.211,65.048,248.255l-12.892-11.4L33.094,254.66a.324.324,0,1,0,.442.473l18.633-17.407,12.9,11.411,25-24.028Z" transform="translate(829.453 4117.479)" fill="#083898"/><path d="M54.194,237.524a1.736,1.736,0,1,1-1.736-1.736,1.735,1.735,0,0,1,1.736,1.736" transform="translate(829.158 4117.285)" fill="#083898"/><path d="M67.519,248.915a1.736,1.736,0,1,1-1.736-1.736,1.735,1.735,0,0,1,1.736,1.736" transform="translate(828.936 4117.096)" fill="#083898"/><path d="M92.948,224.368a1.736,1.736,0,1,1-1.736-1.736,1.735,1.735,0,0,1,1.736,1.736" transform="translate(828.512 4117.505)" fill="#083898"/><path d="M76.322,359.746H122.1a10.939,10.939,0,0,0,10.939-10.939v-42.2A10.94,10.94,0,0,0,122.1,295.67H76.322a10.939,10.939,0,0,0-10.939,10.94v42.2a10.938,10.938,0,0,0,10.939,10.939" transform="translate(828.913 4116.287)" fill="#2c78dc"/><rect width="6.398" height="18.489" transform="translate(943.437 4446.842)" fill="#dfe5f2"/><rect width="6.398" height="21.276" transform="translate(934.518 4444.055)" fill="#dfe5f2"/><rect width="6.398" height="26.929" transform="translate(925.6 4438.4)" fill="#dfe5f2"/><rect width="6.398" height="30.879" transform="translate(916.682 4434.452)" fill="#dfe5f2"/><rect width="6.398" height="39.398" transform="translate(907.763 4425.933)" fill="#dfe5f2"/><path d="M124.618,350.637H72.848a.432.432,0,0,1,0-.864h51.77a.432.432,0,0,1,0,.864" transform="translate(828.796 4115.385)" fill="#a9bee9"/><path d="M36.739,323.143H9.311A9.311,9.311,0,0,1,0,313.832V290.948a9.311,9.311,0,0,1,9.311-9.311H36.739a9.312,9.312,0,0,1,9.311,9.311v22.884a9.311,9.311,0,0,1-9.311,9.311" transform="translate(830.003 4116.521)" fill="#dfe5f2"/><path d="M12.628,300.553H7.873a.674.674,0,1,1,0-1.348h4.755a.674.674,0,1,1,0,1.348" transform="translate(829.883 4116.228)" fill="#2c78dc"/><path d="M12.628,303.043H7.873a.674.674,0,1,1,0-1.348h4.755a.674.674,0,1,1,0,1.348" transform="translate(829.883 4116.187)" fill="#2c78dc"/><path d="M12.628,305.533H7.873a.674.674,0,1,1,0-1.348h4.755a.674.674,0,1,1,0,1.348" transform="translate(829.883 4116.145)" fill="#2c78dc"/><path d="M12.628,308.023H7.873a.674.674,0,1,1,0-1.348h4.755a.674.674,0,1,1,0,1.348" transform="translate(829.883 4116.104)" fill="#2c78dc"/><path d="M26.681,293.355h-.015A10.1,10.1,0,1,0,31.349,312.4l-4.669-8.949Z" transform="translate(829.727 4116.325)" fill="#2c78dc"/><path d="M31.521,312.574a10.1,10.1,0,0,0,5.415-8.949H26.852Z" transform="translate(829.556 4116.154)" fill="#fdd354"/><path d="M26.852,293.355v10.1H36.936a10.1,10.1,0,0,0-10.084-10.1" transform="translate(829.556 4116.325)" fill="#fff"/></g></g></svg>