<svg xmlns="http://www.w3.org/2000/svg" xmlns:xlink="http://www.w3.org/1999/xlink" width="147" height="145" viewBox="0 0 147 145"><defs><clipPath id="a"><rect width="147" height="145" transform="translate(-6177 -8426.548)" fill="#fff"/></clipPath></defs><g transform="translate(6177 8426.548)" clip-path="url(#a)"><g transform="translate(-6320.644 -8422.015)"><path d="M614.689,108.707c3.18,1.585,8.664,4.706,8.664,4.706s10.306,3.309,7.564,7.659c-1.349,2.14-2.648,3.4-6.713,2.648s-8.983-1.041-12.954-4.255,3.439-10.757,3.439-10.757" transform="translate(-409.122 -86.03)" fill="#bfdce6"/><path d="M576.8,115.037a40.981,40.981,0,0,0-3.044,11.085c-.457,3.56,3.19,15.048,5.154,12.726s3.242-11.721,3.242-11.721Z" transform="translate(-400.892 -87.462)" fill="#bfdce6"/><path d="M592.36,103.346c.9-.3.1-6.609.1-6.609s9.226,1.388,9.218,2.99a43.857,43.857,0,0,1-.007,5.278,3.168,3.168,0,0,1-1.122,1.919c-.241.205-3.349,10.676-3.59,10.721-1.869.347-6.189-13.769-4.6-14.3" transform="translate(-405.033 -83.321)" fill="#e48b6a"/><path d="M596.558,245.7a4.12,4.12,0,0,1,.063-2.775c.128-.733-5.652,1.691-5.652,1.691l.178,3.4s3.579.6,4.313-.458a13.12,13.12,0,0,0,1.1-1.858" transform="translate(-404.797 -116.375)" fill="#fff"/><path d="M594.975,249.174s-1.317-3.627-1.52-3.936-.029.85-2.524,1.506a6.98,6.98,0,0,1-2.532-.361c-.232-.173-.073-.766.376-1.369s.58-.97-.076-2.121-1.447-1.982-1.606-1.389a26.89,26.89,0,0,1-.921,2.812,29.37,29.37,0,0,1-3.209,2.625,11.636,11.636,0,0,1-2.649,1.475h0s-.714.253-1.88.6l-.078.024-.007,0h0l-.2.061a1.054,1.054,0,0,0-.142.056c-.73.29-.707.6-.8.908-.02.047-.038.1-.055.144a1.7,1.7,0,0,0,0,1.492,1.847,1.847,0,0,0,.695.873c1.192.983,5,1.044,5,1.044h0a9.331,9.331,0,0,0,2.729-.175,18.028,18.028,0,0,1,2.966-.485,31.8,31.8,0,0,0,3.7-.523c2.3-.4,2.016-.422,2.986-1.061.3-.2.049-1.168-.255-2.2" transform="translate(-401.63 -116.039)" fill="#454545"/><path d="M596.341,251.476c-.1.383.261.8-2.06,1.273s-9.415,1.694-10.7,1.376.011,1.773.011,1.773a9.949,9.949,0,0,0,2.788,0,19.422,19.422,0,0,1,3.448-.624,35.685,35.685,0,0,0,3.634-.505c1.7-.328,1.958-.3,2.376-.58s.743-.414.844-.595.157-.235.052-.963a2.96,2.96,0,0,0-.393-1.15" transform="translate(-402.996 -118.341)" fill="#fff"/><path d="M587.778,245.89a3.5,3.5,0,0,1,1.455,1.468c.448.967.681,1.482.48,1.6s-.416.181-.648-.717a3.145,3.145,0,0,0-1.7-1.944s-.077-.284.125-.4.292-.015.292-.015" transform="translate(-403.977 -117.068)" fill="#fff"/><path d="M586.6,246.987a2.826,2.826,0,0,1,1.181,1.756c.308,1.055.271,1.264-.045,1.328s-.326-.765-.655-1.61a2.134,2.134,0,0,0-.894-1.128s.067-.61.412-.347" transform="translate(-403.715 -117.31)" fill="#fff"/><path d="M585.1,248.187a4.112,4.112,0,0,1,.863,1.714c.156.742.091,1.033-.213,1.032s-.167-.789-.443-1.525a1.814,1.814,0,0,0-.6-.929s-.1-.079.113-.279.284-.014.284-.014" transform="translate(-403.374 -117.579)" fill="#fff"/><path d="M613.492,246.909c.116-3.2.085-4.964.085-4.964l-6.183.819a10.646,10.646,0,0,1-.525,5.393c-.62,1.459,2.522,4.213,2.522,4.213s3.963-2.183,3.87-2.383a29.464,29.464,0,0,1,.231-3.077" transform="translate(-408.377 -116.184)" fill="#e0e0e0"/><path d="M612.973,248.3a3.832,3.832,0,0,1-.147-1.391.52.52,0,0,0-.755-.477c-.647.324-1.415.621-1.267.121.523-1.766.159-1.307-2.694-1.171-.736.036-1.282-.99-1.794-.009a11.6,11.6,0,0,1-3.154,4.179c-1.037.7-1.754.6-1.3,3.193l.043.03a7.673,7.673,0,0,0,.256,1.681c1.931.857,6.159.941,7.51.367s1.037-.681,1.983-1.359,1.962-3.633,1.318-5.165" transform="translate(-407.23 -116.863)" fill="#454545"/><path d="M611.249,248.364a.212.212,0,0,1-.1-.029,8.152,8.152,0,0,0-4.122-1.191.272.272,0,0,1-.242-.257.262.262,0,0,1,.226-.281,8.454,8.454,0,0,1,4.368,1.259.283.283,0,0,1,.088.36.229.229,0,0,1-.222.139" transform="translate(-408.377 -117.237)" fill="#fffbf5"/><path d="M609.388,250.8a.193.193,0,0,1-.115-.043c-.022-.011-2.276-1.64-3.868-1.422l-.037,0a.249.249,0,0,1-.221-.236.268.268,0,0,1,.2-.3c1.768-.205,4.071,1.437,4.171,1.51a.289.289,0,0,1,.073.365.224.224,0,0,1-.207.127" transform="translate(-408.005 -117.73)" fill="#fffbf5"/><path d="M610.18,249.5a.192.192,0,0,1-.115-.043c-.022-.012-2.276-1.64-3.868-1.422l-.036,0a.249.249,0,0,1-.222-.236.268.268,0,0,1,.2-.3c1.768-.205,4.071,1.437,4.171,1.509a.29.29,0,0,1,.074.366.224.224,0,0,1-.207.127" transform="translate(-408.184 -117.436)" fill="#fffbf5"/><path d="M613.063,253.225a3.292,3.292,0,0,0,.131-1.965,16.058,16.058,0,0,1-1.393,2.087,5.229,5.229,0,0,1-3.482,1.845,23.212,23.212,0,0,1-6.416-1.018,10.034,10.034,0,0,0,.3,1.711c1.931.856,6.159.941,7.51.366a6.948,6.948,0,0,0,3.351-3.027" transform="translate(-407.271 -118.292)" fill="#fff"/><path d="M609.407,158.458s2.747,12.972.7,24.771,1.447,13.584.455,19.758-2.176,22.7-2.176,22.7-4.125,1.574-6.342,0c0,0-2.639-17.926-4.006-30.468l-1.366-12.542s1.29,16.739.1,25.245-1.786,18.473-1.786,18.473-6.4,1.691-7.362-.708c0,0-1.067-25.037-1.907-29.016s-2.395-29.326-2.1-35.126Z" transform="translate(-403.124 -97.289)" fill="#406691"/><path d="M615.027,166.623a.106.106,0,0,1-.026,0c-1.256-.281-5.077-1.137-6.179-4.7a.119.119,0,0,1,.227-.07c.951,3.073,3.882,4.06,6,4.535a.119.119,0,0,1-.026.235" transform="translate(-408.836 -98.039)" fill="#2a4a6e"/><path d="M591.961,109.28l.641,9.074s.477-5.78.682-6.733a7.237,7.237,0,0,1,1.15-2.186s3.626-3.936,6.6-3.6a17.733,17.733,0,0,1,7.71,2.881c2.521,1.544-1.006,7.357-2.632,14.609-.046.207-.514,2.761,1.018,8.183,2.026,7.164-.187,7.017-.187,7.017s-3.071,3.327-5.909,1.783-18.8,3.7-18.8,3.7l-.24-4.737.188-15.048s-7.487-7.525-4.235-12.252c1.328-1.932,6.745-4.465,8.738-4.788s5.275,2.094,5.275,2.094" transform="translate(-401.664 -85.375)" fill="#bfdce6"/><path d="M585.993,107.764s-1.448,3.181-.881,12.288.561,9.6-.131,13.515-.039,5.15-1.035,5.489a4.781,4.781,0,0,1-.527.133V150.1s19.024,2.259,25.952-3.641l-1-8.022s-4,1.029-5.909-.549-.283-16.259,0-22.021a46.694,46.694,0,0,1,1.5-9.882s-1.35-1.024-2.405-.257a154.7,154.7,0,0,0-2.286,19.778s.052,2.264-1.7,2.436c-1.353.133-6.741.49-8.079-.053s-1.216-1.92-1.4-5.882c-.233-5.149-.644-10.344.248-14.931,0,0-.4-.368-1.384-.025s-.96.712-.96.712" transform="translate(-403.088 -85.292)" fill="#406691"/><path d="M583.094,143.227h-.008a.1.1,0,0,1-.1-.111c.187-2.49.554-12,0-14.89a9.081,9.081,0,0,0-2.028-4.423.1.1,0,0,1,0-.145.1.1,0,0,1,.145,0,9.1,9.1,0,0,1,2.084,4.529c.6,3.126.143,13.053,0,14.944a.1.1,0,0,1-.1.1" transform="translate(-402.526 -89.407)" fill="#67a1b8"/><path d="M578.809,119.715a.1.1,0,0,1-.1-.069,16.207,16.207,0,0,1-.669-5.911.1.1,0,0,1,.111-.093.1.1,0,0,1,.094.112,15.978,15.978,0,0,0,.659,5.824.1.1,0,0,1-.063.131.088.088,0,0,1-.034.006" transform="translate(-401.862 -87.147)" fill="#67a1b8"/><path d="M614.68,119.158h-.013a.1.1,0,0,1-.089-.115,17.374,17.374,0,0,1,3.511-8.648.1.1,0,0,1,.154.136,17.163,17.163,0,0,0-3.461,8.538.1.1,0,0,1-.1.09" transform="translate(-410.139 -86.404)" fill="#67a1b8"/><path d="M591.535,104.839a31.158,31.158,0,0,1,3.215,4.219c-.04.206-2.664,3.7-3.05,3.756s-2.367-5.608-2.238-6.1a5.591,5.591,0,0,1,2.073-1.878" transform="translate(-404.454 -85.153)" fill="#bfdce6"/><path d="M599.5,109.092c.009-.483,4-4.682,4.32-4.785a5.437,5.437,0,0,1,2.282,1.184,38.2,38.2,0,0,1-3.933,6.432,9.172,9.172,0,0,1-2.669-2.83" transform="translate(-406.726 -85.032)" fill="#bfdce6"/><path d="M595.414,119.026a.1.1,0,0,1-.1-.094c-.262-2.946-.786-7.661-1.108-8.2-.149.179-.388.513-.661.9-1.028,1.44-1.536,2.082-1.82,2.082-.51,0-1.683-3.666-2.163-5.243a.1.1,0,0,1,.2-.06c.741,2.432,1.682,5,1.973,5.1.221,0,1.148-1.3,1.646-2,.3-.419.559-.782.71-.953a.152.152,0,0,1,.164-.05c.481.159,1.046,5.934,1.267,8.41a.1.1,0,0,1-.094.112h-.009" transform="translate(-404.476 -85.945)" fill="#67a1b8"/><path d="M602,113.5h0c-.214,0-.521-.365-1.17-1.2a6.137,6.137,0,0,0-1.076-1.2.209.209,0,0,0-.218.029,2.792,2.792,0,0,0-.846,1.622.1.1,0,0,1-.107.1.1.1,0,0,1-.1-.107,2.969,2.969,0,0,1,.947-1.791.413.413,0,0,1,.413-.036,5.67,5.67,0,0,1,1.148,1.26c.344.441.863,1.106,1.007,1.118.3,0,1.513-2.152,2.471-4.147a.1.1,0,0,1,.187.089c-.481,1-2.094,4.264-2.658,4.264" transform="translate(-406.498 -86.117)" fill="#67a1b8"/><path d="M606.859,154.854l.684,6.55,1.535-.16-.8-6.583Z" transform="translate(-408.393 -96.43)" fill="#2a4a6e"/><path d="M585.373,155.452l-.187,6.583,1.543.044.191-6.542Z" transform="translate(-403.488 -96.609)" fill="#2a4a6e"/><path d="M599.359,183.725a.1.1,0,0,1-.1-.093c-.47-4.979-.749-10.248-.791-11.074a2.6,2.6,0,0,1-1.767-.4,1.745,1.745,0,0,1-.652-1.282c-.183-1.934-.593-8.078-.6-8.14a.1.1,0,0,1,.1-.11.1.1,0,0,1,.11.1c0,.062.413,6.2.6,8.135a1.551,1.551,0,0,0,.571,1.138,2.54,2.54,0,0,0,1.724.35.1.1,0,0,1,.081.022.1.1,0,0,1,.038.075c0,.057.288,5.786.8,11.176a.1.1,0,0,1-.092.111h-.01" transform="translate(-405.81 -98.232)" fill="#2a4a6e"/><path d="M599.251,172.545a.1.1,0,0,1-.1-.1c-.172-3.016-.655-9.649-.66-9.716a.1.1,0,0,1,.205-.015c0,.067.488,6.7.661,9.718a.1.1,0,0,1-.1.109h-.006" transform="translate(-406.498 -98.232)" fill="#2a4a6e"/><path d="M614.6,226.479h0a.1.1,0,0,1-.1-.107c.008-.248.8-24.937.729-33.22-.068-7.533.46-14.253.925-20.181q.079-1,.154-1.97a27.823,27.823,0,0,0-1.014-10.493.1.1,0,1,1,.194-.07,28.056,28.056,0,0,1,1.025,10.579q-.074.968-.154,1.97c-.465,5.924-.992,12.638-.925,20.162.075,8.288-.72,32.981-.728,33.23a.1.1,0,0,1-.1.1" transform="translate(-410.121 -97.722)" fill="#2a4a6e"/><path d="M583.77,168.236a.1.1,0,0,1-.075-.173,8.731,8.731,0,0,0,1.936-4.672.1.1,0,0,1,.111-.094.1.1,0,0,1,.1.11,8.961,8.961,0,0,1-1.992,4.8.1.1,0,0,1-.075.032" transform="translate(-403.144 -98.384)" fill="#2a4a6e"/><path d="M590.422,156.04a30.645,30.645,0,0,1-6.436-.4.119.119,0,1,1,.06-.23c.022.005,2.207.547,9.471.347,7.381-.2,12.853-.95,15.014-2.049a.119.119,0,1,1,.108.212c-2.191,1.114-7.7,1.87-15.115,2.074-1.16.032-2.19.046-3.1.046" transform="translate(-403.196 -96.212)" fill="#2a4a6e"/><path d="M590.13,162.361a27.573,27.573,0,0,1-6.384-.441.119.119,0,0,1,.067-.228c.022.006,2.311.631,9.935.363,7.745-.273,13.492-1.176,15.765-2.477a.119.119,0,1,1,.118.207c-2.306,1.319-8.092,2.233-15.874,2.508-1.376.049-2.579.069-3.625.069" transform="translate(-403.143 -97.539)" fill="#2a4a6e"/><path d="M605.98,88.485s3.544-.829,2.81-3.18-6.993-.436-6.993-.436Z" transform="translate(-407.247 -80.469)" fill="#363334"/><path d="M601,83.636c3.818,2.033,4.222,12.783,2.675,14.261-3.788,3.62-9.768-1.27-10.639-2.389-1.321-1.7-4.045-6.421-.15-10.425s6.044-2.548,8.114-1.447" transform="translate(-404.775 -80.086)" fill="#e48b6a"/><path d="M601,83.636c3.818,2.033,4.222,12.783,2.675,14.261-3.788,3.62-9.768-1.27-10.639-2.389-1.321-1.7-4.045-6.421-.15-10.425s6.044-2.548,8.114-1.447" transform="translate(-404.775 -80.086)" fill="#e48b6a"/><path d="M601.929,93.486a.429.429,0,0,0,.521.344.477.477,0,0,0,.3-.58.429.429,0,0,0-.521-.344.477.477,0,0,0-.3.58" transform="translate(-407.273 -82.45)" fill="#363334"/><path d="M607.983,92.242a.316.316,0,0,0-.223,0,.4.4,0,0,0-.2.5.36.36,0,0,0,.462.243.305.305,0,0,0,.07-.039q-.048-.356-.107-.712" transform="translate(-408.545 -82.299)" fill="#363334"/><path d="M592.171,96.145c-1.482-.867-1.9-2.471-2.265-4.024-1.2-5.126.406-5.707,2.924-7.363s5.587-1.889,6.576-1.121a3.051,3.051,0,0,1,1.161,1.6,2.91,2.91,0,0,0-2.31-.519,2.53,2.53,0,0,0-.434.149c-.089.039-.379.217-.469.269-1.578.914-4.053,3.851-3.947,6a10.354,10.354,0,0,1-.64,3.535c-.12.5-.241,1.676-.6,1.467" transform="translate(-404.465 -80.261)" fill="#363334"/><path d="M593.126,93.058s-1.137-.222-.571,1.495,1.648,2.181,2.048,1.329-.539-2.513-.539-2.513a1.475,1.475,0,0,0-.938-.311" transform="translate(-405.12 -82.486)" fill="#e48b6a"/><path d="M593.891,97.2c0-.014.006-.029.008-.043l0-.028s0-.009,0-.005,0,0,0-.005c.007-.038.017-.075.027-.113a.873.873,0,0,0,.2.1.47.47,0,0,0,.378-.022c.214-.1.2-.21.2-.214a.113.113,0,0,1,.085-.138.119.119,0,0,1,.142.087.371.371,0,0,1-.128.337.805.805,0,0,1-.195.137.7.7,0,0,1-.556.035.994.994,0,0,1-.185-.086.265.265,0,0,0,.016-.042" transform="translate(-405.454 -83.319)" fill="#a3634c"/><path d="M605.734,93.138a9.255,9.255,0,0,1,.931,1.849c.1.432-.7.891-.7.891s1.072-.043,1.195-.838a8.292,8.292,0,0,0-1.421-1.9" transform="translate(-408.138 -82.506)" fill="#a3634c"/><path d="M602.423,90.28c.053.4.118.9-.244.994a7.846,7.846,0,0,0-2.292.325c-.905.389-.783-.274-.178-.875s2.658-.868,2.714-.444" transform="translate(-406.667 -81.813)" fill="#363334"/><path d="M606.831,90.1c.012.4.026.912.4.943a1.769,1.769,0,0,0,.537-.03c.4-.015.088-1.2-.312-1.188-.266.01-.636-.152-.624.275" transform="translate(-408.386 -81.75)" fill="#363334"/><path d="M594.27,94.846a.943.943,0,0,0-.131-.537,1.194,1.194,0,0,0-.4-.4,1.142,1.142,0,0,0-.542-.169.9.9,0,0,0-.287.032.6.6,0,0,0-.135.058c-.021.015-.041.031-.06.046a.286.286,0,0,0-.042.06.512.512,0,0,1,.244.025,2.234,2.234,0,0,1,.221.075,2.643,2.643,0,0,1,.4.2,3.037,3.037,0,0,1,.364.265c.12.1.227.219.364.349" transform="translate(-405.182 -82.642)" fill="#a3634c"/><path d="M602.3,99.118c-.043-.786.649-1.195,1.3-1.568s1.068-.7,1.728-.517a.706.706,0,0,0,.569-.077,1.093,1.093,0,0,1,.607-.1c.4.006.535,0,.668,0,0,0,.181,2.119.253,3.191.09,1.336-.186,2.141-2.322,2.087a2.947,2.947,0,0,1-2.8-3.017" transform="translate(-407.36 -83.348)" fill="#363334"/><path d="M607.577,98.073a.323.323,0,0,0-.4-.258,5.134,5.134,0,0,1-1,.225c-1.373.121-1.375-.232-1.916.255-.24.215.057.941.263,1.475s.979.831,1.063.35.263-.592.878-.6c.466-.008.558.515.932.473a.383.383,0,0,0,.331-.368,7.7,7.7,0,0,0-.149-1.55" transform="translate(-407.784 -83.562)" fill="#e48b6a"/><path d="M602.968,102.85a.112.112,0,0,0-.046-.216,6.208,6.208,0,0,1-5.23-2.717.111.111,0,0,0-.154-.033.112.112,0,0,0-.033.155,6.437,6.437,0,0,0,5.431,2.819.11.11,0,0,0,.032-.007" transform="translate(-406.271 -84.029)" fill="#a3634c"/><path d="M595.116,94.957a2.028,2.028,0,0,0-.18.1c-.048-.326-.1-.679-.173-1.061-.409-2.255-.689-3.256-.689-3.256l1.063-1.834s-.041,1.94.124,3.689c.071.761.135,1.52.264,2.193a4.076,4.076,0,0,0-.408.17" transform="translate(-405.499 -81.548)" fill="#363334"/><path d="M607.483,98.555a4.246,4.246,0,0,1-2.525.109.111.111,0,1,0-.069.211,3.715,3.715,0,0,0,1.539.139,5.257,5.257,0,0,0,1.126-.247.108.108,0,0,0,.074-.1v0a.112.112,0,0,0-.146-.115" transform="translate(-407.929 -83.731)" fill="#a3634c"/><path d="M594.573,88.365c-.084-.98.508-.9,1.431-.809s2.043-1.213,2.647-2.244,1.961.53,3.343.072,1.068-.586,2.162-.268,3.365.374,1.81-1.928c-.9-1.33-1.907-.665-3.01-1.993s-2.555-2.3-4.1-1.515c-1.345.688-.275,1.021-2.608,1.581-2.441.585-4.524,1.407-4.707,4.034s3.032,3.069,3.032,3.069" transform="translate(-404.924 -79.397)" fill="#363334"/><path d="M627.107,93.977a.976.976,0,0,1,1.423.562c.122.39.174.44.788,1.2.262.323,1.142.04,1.62,1.371.7,1.94-1.744,1-2.56-.432s-.473-1.107-.84-1.5-1.271-.82-.43-1.2" transform="translate(-412.897 -82.67)" fill="#e48b6a"/><path d="M631.3,97.087a2.834,2.834,0,0,0-.222-.5,1.794,1.794,0,0,0-.352-.434,1.769,1.769,0,0,0-.484-.292c-.085-.036-.172-.066-.257-.1l-.127-.045-.031-.012-.026-.011a.3.3,0,0,1-.048-.024.944.944,0,0,1-.308-.365c-.087-.15-.161-.314-.249-.473a2.756,2.756,0,0,0-.3-.463,1.251,1.251,0,0,0-.428-.342,2.178,2.178,0,0,1,.579.877c.068.165.138.33.221.5a1.6,1.6,0,0,0,.152.244.791.791,0,0,0,.226.208.49.49,0,0,0,.073.036l.037.015.032.012.128.043c.086.028.169.057.251.087a1.851,1.851,0,0,1,.453.234,2.061,2.061,0,0,1,.371.364c.111.138.207.289.307.44" transform="translate(-413.284 -82.709)" fill="#a3634c"/><path d="M630.358,96.434c-.053,7.114-5.785,18.724,1.4,21.892,4.8,2.117,4.545-7.913,3.595-14.48-.27-1.871-1.116-4.944-1-5.9.2-1.567-4-1.511-4-1.511" transform="translate(-413.209 -83.252)" fill="#e48b6a"/><path d="M634.557,90.145c-.473,2.169,1.673,3.593,1.026,4.8a23.233,23.233,0,0,1-2.332,3.478A5.422,5.422,0,0,1,631,97.213c-1.339-2.3-1.384-1.564-1.8-3.251-.157-.632,1.159-.123,3.123-2.3a6.648,6.648,0,0,1,2.238-1.52" transform="translate(-413.445 -81.829)" fill="#e48b6a"/><path d="M631.992,95.441c2.672-1.322,2.207-4.269,1.182-6.73s-4.135-4.851-6.007-3.355-1.607,3.88.419,5.694,1.609,5.776,4.405,4.391" transform="translate(-412.703 -80.64)" fill="#f2b880"/><path d="M630.27,96.557c-.014-.79.887-.59,1.287-.39s1,.2.9.7-.4.8-.9.6a9.971,9.971,0,0,0-1-.333Z" transform="translate(-413.691 -83.151)" fill="#a17951"/><path d="M629.691,87.556c-.925-.231-.784,1.568,0,1.882s.627.941,1.411,1.254,1.724-.157,1.254-1.254.157-1.254-.157-1.882-1.881.157-2.508,0" transform="translate(-413.415 -81.187)" fill="#a17951"/><path d="M629.873,87.761c-.591-.147-.5,1,0,1.2s.4.6.9.8,1.1-.1.8-.8.1-.8-.1-1.2-1.2.1-1.6,0" transform="translate(-413.508 -81.254)" fill="#7d5e3f"/><path d="M630.182,88.192c-.5.167-.173.507,0,.668.795.734,1.029-.4.695-.568a1.23,1.23,0,0,0-.695-.1" transform="translate(-413.611 -81.384)" fill="#6e523a"/><path d="M631.217,96.475c-.5.167-.173.507,0,.668.795.734,1.029-.4.695-.568a1.23,1.23,0,0,0-.695-.1" transform="translate(-413.845 -83.259)" fill="#6e523a"/><path d="M630.478,88.455c-.215.071-.072.214,0,.286s.358-.143.215-.215a.557.557,0,0,0-.215-.071" transform="translate(-413.712 -81.447)" fill="#3d3939"/><path d="M631.254,96.608c-.215.071-.072.214,0,.286s.359-.143.215-.215a.557.557,0,0,0-.215-.071" transform="translate(-413.888 -83.292)" fill="#3d3939"/><path d="M631.217,86.742c.666.326.634.044.427-.276s-.6-.22-.634-.044.207.32.207.32" transform="translate(-413.857 -80.949)" fill="#d9995d"/><path d="M629.964,93.953c1.439.706,1.371.094.923-.6s-1.29-.475-1.371-.094.448.692.448.692" transform="translate(-413.518 -82.454)" fill="#d9995d"/><path d="M628.091,87.415c1.616-1.846.686-1.988-.515-1.6s-1.215,1.718-.686,1.989,1.2-.387,1.2-.387" transform="translate(-412.85 -80.809)" fill="#d9995d"/><path d="M633.431,93.5c.07.5.98.063,1.708-.7s1.328-1.3.949-1.9-.822-.379-1.486.348-1.265,1.581-1.171,2.245" transform="translate(-414.404 -81.922)" fill="#e48b6a"/><path d="M636.669,93.65c-1.514.937-2.022,1.4-2.323.92s1.533-2.185,2.07-2.217a.69.69,0,0,1,.253,1.3" transform="translate(-414.606 -82.329)" fill="#e48b6a"/><path d="M637.782,94.278c-.292-.583-1.335-.127-2.122.506s-.535.88.271.973c1.468.168,2.136-.909,1.851-1.479" transform="translate(-414.803 -82.704)" fill="#e48b6a"/><path d="M633.847,89.5c.575-.6.961-1.188,1.453-.7a.492.492,0,0,1,.073.094.792.792,0,0,1-.162,1.164l-.016.014c-.649.908-1.833,1.83-2.207,1.673-.6-.254.285-1.645.859-2.248" transform="translate(-414.26 -81.483)" fill="#e48b6a"/><path d="M637.493,95.315a5.491,5.491,0,0,1-1.174.344,1.759,1.759,0,0,1-.583,0c-.045-.014-.091-.02-.135-.036a.938.938,0,0,1-.131-.053.356.356,0,0,1-.174-.153.215.215,0,0,1,.028-.2.781.781,0,0,1,.18-.2,1.089,1.089,0,0,1,.115-.083c.042-.027.079-.046.129-.073a2.877,2.877,0,0,0,.272-.164c.174-.114.339-.234.516-.333a2.9,2.9,0,0,1,.562-.248,2.086,2.086,0,0,0-.607.154,5.216,5.216,0,0,0-.556.285c-.09.049-.179.1-.268.138-.042.02-.1.046-.145.073a1.249,1.249,0,0,0-.141.091.922.922,0,0,0-.235.253.517.517,0,0,0-.069.181.374.374,0,0,0,.026.21.554.554,0,0,0,.277.252,1.211,1.211,0,0,0,.158.062c.053.017.11.026.164.038a1.745,1.745,0,0,0,.648-.037,3.216,3.216,0,0,0,.6-.2,3.573,3.573,0,0,0,.546-.3" transform="translate(-414.777 -82.729)" fill="#a3634c"/><path d="M636.21,92.415a5.738,5.738,0,0,0-.984.629,4.059,4.059,0,0,0-.826.845,1.744,1.744,0,0,0-.152.268.725.725,0,0,0-.077.324.386.386,0,0,0,.056.184.367.367,0,0,0,.141.131.6.6,0,0,0,.331.06,1.374,1.374,0,0,0,.561-.237,2.989,2.989,0,0,0,.453-.371,5.406,5.406,0,0,1-.5.281,2.11,2.11,0,0,1-.261.108.947.947,0,0,1-.259.054.49.49,0,0,1-.229-.057.172.172,0,0,1-.087-.159.571.571,0,0,1,.064-.234,1.645,1.645,0,0,1,.138-.234,3.639,3.639,0,0,1,.354-.436c.127-.14.265-.272.4-.4.282-.259.576-.508.877-.754" transform="translate(-414.574 -82.343)" fill="#a3634c"/><path d="M635.236,90.685a6.923,6.923,0,0,0-.949.836c-.149.151-.289.309-.429.467a4.141,4.141,0,0,0-.385.518,1.607,1.607,0,0,0-.231.627.689.689,0,0,0,.056.357.541.541,0,0,0,.262.256.334.334,0,0,0,.2.023.638.638,0,0,0,.168-.054,1.554,1.554,0,0,0,.276-.176,2.975,2.975,0,0,0,.453-.446,4.969,4.969,0,0,1-.511.361,1.516,1.516,0,0,1-.271.133.309.309,0,0,1-.24.012.4.4,0,0,1-.168-.186.5.5,0,0,1-.026-.258,1.44,1.44,0,0,1,.214-.54,4.315,4.315,0,0,1,.356-.5c.13-.163.265-.323.4-.484.269-.32.54-.638.827-.946" transform="translate(-414.363 -81.951)" fill="#a3634c"/><path d="M634.311,91.795c-.138.072-.262.154-.387.232s-.246.157-.369.227a1.146,1.146,0,0,1-.366.149.128.128,0,0,1-.134-.046.461.461,0,0,1-.058-.2.352.352,0,0,0-.038.241.222.222,0,0,0,.086.123.288.288,0,0,0,.139.05.643.643,0,0,0,.256-.034,1.168,1.168,0,0,0,.219-.1,1.756,1.756,0,0,0,.368-.281,1.7,1.7,0,0,0,.283-.362" transform="translate(-414.298 -82.202)" fill="#a3634c"/><path d="M570.836,115.372a.942.942,0,0,0-.45,1.406c.216.33.222.4.413,1.321.081.394-.668.877.033,2.049,1.023,1.707,1.815-.689,1.242-2.176s-.538-1.031-.607-1.546.165-1.451-.631-1.054" transform="translate(-400.099 -87.517)" fill="#e48b6a"/><path d="M570.8,120.338a2.676,2.676,0,0,1-.237-.47,1.729,1.729,0,0,1-.109-.528,1.682,1.682,0,0,1,.077-.54c.026-.086.056-.169.086-.251l.043-.121.011-.03.008-.026a.4.4,0,0,0,.011-.05.905.905,0,0,0-.084-.453c-.059-.157-.137-.313-.2-.476a2.694,2.694,0,0,1-.162-.508,1.213,1.213,0,0,1,.006-.528,2.087,2.087,0,0,0,.3.967c.081.152.162.306.236.47a1.493,1.493,0,0,1,.089.262.747.747,0,0,1,.018.295.483.483,0,0,1-.018.077l-.012.036-.012.032-.046.123c-.032.08-.06.161-.089.24a1.793,1.793,0,0,0-.1.482,1.957,1.957,0,0,0,.046.5c.035.167.089.332.141.5" transform="translate(-400.1 -87.761)" fill="#a3634c"/><path d="M571.034,121.078c2.229,6.494,11.033,15.363,5.43,20.465-3.743,3.408-6.586-5.85-7.728-12.151-.326-1.794-.493-4.866-.9-5.705-.661-1.374,3.195-2.608,3.195-2.608" transform="translate(-399.545 -88.83)" fill="#e48b6a"/><path d="M562.677,119.174c1.908.975,1.66,3.447,2.954,3.7a22.455,22.455,0,0,0,4.022.386,5.221,5.221,0,0,0,.477-2.419c-.9-2.408-.322-1.991-1.325-3.335-.375-.5-.8.79-3.625.929a6.414,6.414,0,0,0-2.5.74" transform="translate(-398.394 -87.995)" fill="#e48b6a"/><path d="M568.471,120.181c-2.621,1.186-4.538-.963-5.748-3.233s-1.094-6.054,1.168-6.537,3.88,1.174,4,3.795,3.329,4.733.585,5.975" transform="translate(-398.231 -86.397)" fill="#f2b880"/><path d="M563.063,113.973c-.163.7-.355.5-.467.15s.2-.58.355-.5.112.35.112.35" transform="translate(-398.37 -87.139)" fill="#d9995d"/><path d="M569.127,117.477c-.353,1.506-.768,1.082-1.01.323s.434-1.253.768-1.081.243.757.243.757" transform="translate(-399.613 -87.836)" fill="#d9995d"/><path d="M565.114,112.689c-2.594.085-2.087-.771-.966-1.5s2.221.156,2.087.772-1.122.724-1.122.724" transform="translate(-398.519 -86.531)" fill="#d9995d"/><path d="M566.411,120.109c.326.355-.552.771-1.564.85s-1.781.2-2-.452.22-.846,1.169-.9a3.279,3.279,0,0,1,2.392.5" transform="translate(-398.42 -88.494)" fill="#e48b6a"/><path d="M564.55,122.569c1.626-.558,2.279-.655,2.108-1.173s-2.569-.191-2.921.191c-.373.4.1,1.226.814.982" transform="translate(-398.604 -88.841)" fill="#e48b6a"/><path d="M564.333,123.685c-.258-.574.722-1.074,1.676-1.275s.984.139.561.8c-.772,1.2-1.986,1.039-2.237.478" transform="translate(-398.759 -89.118)" fill="#e48b6a"/><path d="M563.178,117.982c-.8.06-1.475-.009-1.408.659a.485.485,0,0,0,.026.112.765.765,0,0,0,.969.59l.019,0c1.075.071,2.487-.249,2.6-.625.179-.6-1.4-.793-2.2-.733" transform="translate(-398.187 -88.127)" fill="#e48b6a"/><path d="M565.34,124.068a5.323,5.323,0,0,0,.975-.665,1.712,1.712,0,0,0,.358-.435c.018-.042.041-.08.057-.123a.953.953,0,0,0,.04-.129.341.341,0,0,0-.008-.224.206.206,0,0,0-.166-.1.746.746,0,0,0-.26.013,1.022,1.022,0,0,0-.133.035c-.045.015-.082.031-.132.053a2.983,2.983,0,0,1-.289.1c-.192.06-.382.11-.565.182a2.8,2.8,0,0,0-.528.268,2.007,2.007,0,0,1,.486-.359,5.1,5.1,0,0,1,.553-.241c.092-.036.182-.074.268-.115.04-.019.094-.046.142-.064a1.315,1.315,0,0,1,.154-.049.9.9,0,0,1,.333-.021.477.477,0,0,1,.176.06.351.351,0,0,1,.141.148.531.531,0,0,1,.02.361,1.223,1.223,0,0,1-.051.156c-.019.05-.047.1-.072.146a1.694,1.694,0,0,1-.424.461,3.1,3.1,0,0,1-.518.322,3.448,3.448,0,0,1-.56.222" transform="translate(-398.849 -89.08)" fill="#a3634c"/><path d="M563.957,121.456a5.568,5.568,0,0,1,1.072-.35,3.952,3.952,0,0,1,1.137-.1,1.792,1.792,0,0,1,.293.051.7.7,0,0,1,.289.142.377.377,0,0,1,.1.154.362.362,0,0,1,.012.185.582.582,0,0,1-.158.285,1.333,1.333,0,0,1-.519.274,2.864,2.864,0,0,1-.555.111,5.233,5.233,0,0,0,.518-.205,1.972,1.972,0,0,0,.24-.128.877.877,0,0,0,.2-.16.475.475,0,0,0,.1-.206.168.168,0,0,0-.066-.162.555.555,0,0,0-.213-.094,1.563,1.563,0,0,0-.259-.04,3.523,3.523,0,0,0-.542,0c-.183.009-.365.032-.549.056-.366.052-.731.12-1.1.193" transform="translate(-398.683 -88.811)" fill="#a3634c"/><path d="M563.268,119.728a6.678,6.678,0,0,1,1.2-.2c.2-.019.407-.027.61-.035a4.011,4.011,0,0,1,.622.029,1.547,1.547,0,0,1,.61.21.66.66,0,0,1,.232.261.522.522,0,0,1,.032.353.325.325,0,0,1-.105.163.62.62,0,0,1-.143.093,1.533,1.533,0,0,1-.3.1,2.866,2.866,0,0,1-.61.064,4.644,4.644,0,0,0,.582-.161,1.425,1.425,0,0,0,.265-.121c.079-.048.15-.112.156-.173a.381.381,0,0,0-.036-.239.486.486,0,0,0-.177-.177,1.388,1.388,0,0,0-.534-.17,4.247,4.247,0,0,0-.59-.039c-.2,0-.4,0-.605,0-.4.005-.806.013-1.212.039" transform="translate(-398.527 -88.471)" fill="#a3634c"/><path d="M564.776,119.423c.138-.059.275-.1.41-.147s.268-.087.395-.137a1.118,1.118,0,0,0,.336-.182.123.123,0,0,0,.046-.128.43.43,0,0,0-.114-.166.331.331,0,0,1,.2.119.211.211,0,0,1,.039.139.279.279,0,0,1-.048.135.626.626,0,0,1-.181.17,1.208,1.208,0,0,1-.207.1,1.758,1.758,0,0,1-.436.1,1.607,1.607,0,0,1-.443-.01" transform="translate(-398.869 -88.283)" fill="#a3634c"/><path d="M627.88,113.741c-.768.231-1.619-.808-2,1.366s2.836,10.307,6.146,10.59c1.79.153,3.4-2.553,3.687-3.783a2.984,2.984,0,0,0-.764-2.364,4.749,4.749,0,0,1-3.207-.189c-1.229-.756-3.865-5.621-3.865-5.621" transform="translate(-412.691 -87.158)" fill="#bfdce6"/><path d="M580.325,140.113a5.305,5.305,0,0,1-2.157,5.157,4.521,4.521,0,0,1-4.562,0,1.46,1.46,0,0,1-.346-1.89,3.1,3.1,0,0,0,3.083-.757c1.643-1.369,2.148-4.21,2.169-5.938s1.813,3.428,1.813,3.428" transform="translate(-400.741 -92.282)" fill="#bfdce6"/><path d="M581.4,138.606a.1.1,0,0,1-.1-.09,9.593,9.593,0,0,0-2.8-5.685.1.1,0,1,1,.133-.149,9.815,9.815,0,0,1,2.862,5.813.1.1,0,0,1-.09.11h-.01" transform="translate(-401.969 -91.45)" fill="#67a1b8"/><path d="M630.414,125.241a.106.106,0,0,1-.046-.01,5.579,5.579,0,0,1-1.855-2c-.874-1.4-1.991-4-2.348-8.463a.1.1,0,0,1,.2-.017c.676,8.434,4.063,10.285,4.1,10.3a.1.1,0,0,1-.046.188" transform="translate(-412.762 -87.377)" fill="#67a1b8"/><path d="M643.118,209.455H627.69l3.8,34.588h23.291l3.763-34.588Z" transform="translate(-413.107 -108.831)" fill="#ffb13d"/><path d="M642.091,223.536a.371.371,0,0,1-.361-.287,4.556,4.556,0,0,1,2.89-5.324l-.556-.282a.371.371,0,0,1,.336-.662l1.468.743a.371.371,0,0,1-.128.7,3.81,3.81,0,0,0-3.287,4.656.371.371,0,0,1-.277.446.36.36,0,0,1-.085.01" transform="translate(-416.257 -110.525)" fill="#fff"/><path d="M646.324,228.8a4.569,4.569,0,0,1-3.241-1.359l0,.764a.371.371,0,0,1-.371.37h0a.371.371,0,0,1-.37-.372l.005-1.848a.371.371,0,0,1,.692-.186,3.824,3.824,0,0,0,3.289,1.889,3.783,3.783,0,0,0,3.025-1.5.371.371,0,1,1,.59.451,4.518,4.518,0,0,1-3.615,1.787" transform="translate(-416.422 -112.573)" fill="#fff"/><path d="M651.57,224.223a.371.371,0,0,1-.337-.215l-.644-1.392a.371.371,0,1,1,.674-.313l.172.372c0-.077.007-.153.007-.231a3.822,3.822,0,0,0-3.016-3.725.371.371,0,1,1,.153-.726,4.553,4.553,0,0,1,3.341,5.983.373.373,0,0,1-.333.246h-.017" transform="translate(-417.733 -110.761)" fill="#fff"/><path d="M645.551,219.99a.371.371,0,0,1-.3-.583l.96-1.379a.371.371,0,0,1,.61.425l-.96,1.379a.37.37,0,0,1-.3.159" transform="translate(-417.065 -110.735)" fill="#fff"/><path d="M644.4,227.092a.382.382,0,0,1-.083-.009l-1.68-.381a.371.371,0,0,1,.164-.724l1.681.381a.371.371,0,0,1-.082.733" transform="translate(-416.424 -112.568)" fill="#fff"/><path d="M652.486,225.5a.371.371,0,0,1-.251-.644l1.233-1.135a.372.372,0,0,1,.5.547l-1.233,1.134a.37.37,0,0,1-.251.1" transform="translate(-418.635 -112.036)" fill="#fff"/><rect width="37.398" height="3.32" transform="translate(211.312 98.427)" fill="#e08b30"/><rect width="24.183" height="3.32" transform="translate(217.938 134.836)" fill="#e08b30"/><path d="M627.846,210.907H658.46l-.063.585H627.91Z" transform="translate(-413.142 -109.159)" fill="#b87227"/><rect width="144.967" height="9.088" transform="translate(164.91 84.132)" fill="#7889b5"/><rect width="144.967" height="9.088" transform="translate(258.732 84.132)" fill="#7889b5"/><rect width="4.46" height="58.446" transform="translate(161.794 79.833)" fill="#6979a1"/><rect width="2.947" height="58.446" transform="translate(195.415 79.833)" fill="#7889b5"/><rect width="2.947" height="58.446" transform="translate(235.998 79.833)" fill="#7889b5"/><rect width="2.947" height="58.446" transform="translate(277.906 79.754)" fill="#7889b5"/><path d="M705.294,160.9a2.261,2.261,0,0,0-3.448-.374,1.742,1.742,0,0,1-1.81.73c-.648-.1-1.851,1.188-.984,2.569s4.018,2.028,5.269.75,1.6-2.844.973-3.675" transform="translate(-429.189 -97.615)" fill="#f3e4bd"/><path d="M714.267,160.56c-.712,2.4,1.368,3.8,3.469,4.572s5.348.225,5.5-1.783-1.472-3.205-3.745-2.993-4.475-2.309-5.22.2" transform="translate(-432.669 -97.511)" fill="#f3e4bd"/><path d="M976.744,167.025H674.622a6.5,6.5,0,1,0,0,12.989H976.744a6.5,6.5,0,1,0,0-12.989" transform="translate(-422.215 -99.228)" fill="#7889b5"/><path d="M679.685,174.156a4.455,4.455,0,1,1-4.455-4.455,4.455,4.455,0,0,1,4.455,4.455" transform="translate(-422.858 -99.834)" fill="#354773"/><path d="M677.331,175.129A1.13,1.13,0,1,1,676.2,174a1.13,1.13,0,0,1,1.13,1.13" transform="translate(-423.83 -100.807)" fill="#576fab"/><path d="M694.12,174.156a4.455,4.455,0,1,1-4.455-4.455,4.455,4.455,0,0,1,4.455,4.455" transform="translate(-426.125 -99.834)" fill="#354773"/><path d="M691.767,175.129a1.13,1.13,0,1,1-1.13-1.13,1.13,1.13,0,0,1,1.13,1.13" transform="translate(-427.097 -100.807)" fill="#576fab"/><path d="M708.556,174.156A4.455,4.455,0,1,1,704.1,169.7a4.455,4.455,0,0,1,4.455,4.455" transform="translate(-429.392 -99.834)" fill="#354773"/><path d="M706.2,175.129a1.13,1.13,0,1,1-1.13-1.13,1.13,1.13,0,0,1,1.13,1.13" transform="translate(-430.365 -100.807)" fill="#576fab"/><path d="M722.992,174.156a4.455,4.455,0,1,1-4.455-4.455,4.455,4.455,0,0,1,4.455,4.455" transform="translate(-432.659 -99.834)" fill="#354773"/><path d="M720.639,175.129a1.13,1.13,0,1,1-1.13-1.13,1.13,1.13,0,0,1,1.13,1.13" transform="translate(-433.632 -100.807)" fill="#576fab"/><path d="M674.773,167.5a4.919,4.919,0,0,1,1.067-.25c.381-.06.769-.107,1.16-.147.782-.084,1.574-.138,2.367-.19,1.588-.1,3.185-.151,4.783-.193,3.2-.07,6.39-.079,9.581-.115l19.15-.158q19.149-.128,38.3-.214c12.766-.069,25.532-.084,38.3-.124l38.3-.041,38.3.039c12.766.042,25.532.055,38.3.124q38.3.162,76.6.579-38.3.463-76.6.579c-12.766.069-25.532.082-38.3.124l-38.3.039-38.3-.041c-12.766-.04-25.532-.055-38.3-.124q-19.151-.073-38.3-.214l-19.15-.158c-3.191-.026-6.386-.076-9.567-.07-1.591,0-3.185.02-4.772.08-.792.033-1.586.069-2.368.134-.394.03-.784.068-1.167.118a5.191,5.191,0,0,0-1.084.224" transform="translate(-423.763 -99.011)" fill="#354773"/><path d="M660.622,157.777c-.864,1.5-.328,4.744,3.943,6.316s8.188-.873,7.248-3.833-2.677-4.576-5.876-4.615-4.733,1.121-5.315,2.132" transform="translate(-420.481 -96.652)" fill="#e3a86d"/><path d="M670.2,165.435c-.4.48-.256.482.046.375s.393-.417.257-.482-.3.107-.3.107" transform="translate(-422.672 -98.841)" fill="#d18e50"/><path d="M672.277,164.089c-1.026,1.239-.414,1.316.367,1.041s.764-1.148.413-1.316-.78.275-.78.275" transform="translate(-423.075 -98.493)" fill="#d18e50"/><path d="M672.055,160.706c1.306,1.843,1.633,1.041,1.545-.118s-1.277-1.457-1.633-1.041.088,1.159.088,1.159" transform="translate(-423.096 -97.496)" fill="#d18e50"/><path d="M608.194,157.636c-.9,3.027,1.725,4.788,4.374,5.765s6.744.284,6.931-2.248-1.856-4.042-4.723-3.775-5.643-2.911-6.583.258" transform="translate(-408.654 -96.783)" fill="#f2b880"/><path d="M618.945,164.492c-.733.282-.491.461-.093.531s.6-.3.491-.461-.4-.07-.4-.07" transform="translate(-411.021 -98.65)" fill="#d9995d"/><path d="M613.908,158.254c-1.584.609-1.061,1-.2,1.147s1.3-.659,1.06-1-.859-.151-.859-.151" transform="translate(-409.757 -97.232)" fill="#d9995d"/><path d="M619.666,161.3c.3,2.832,1.151,2.154,1.77.826s-.5-2.391-1.151-2.154-.62,1.328-.62,1.328" transform="translate(-411.291 -97.624)" fill="#d9995d"/><path d="M621.28,162.181a3.155,3.155,0,0,0,4.129,2.523,2.431,2.431,0,0,1,2.718.155c.757.517,3.044-.4,2.771-2.658s-3.867-4.948-6.2-4.08-3.708,2.641-3.414,4.061" transform="translate(-411.647 -97.175)" fill="#f2b880"/><path d="M630.055,160.121c.619.313.593.049.4-.254s-.556-.213-.593-.049.19.3.19.3" transform="translate(-413.598 -97.563)" fill="#d9995d"/><path d="M626.038,161.426c.619.313.593.049.4-.254s-.555-.213-.593-.049.19.3.19.3" transform="translate(-412.689 -97.859)" fill="#d9995d"/><path d="M629.21,165.449c.619.313.593.049.4-.253s-.555-.214-.593-.049.19.3.19.3" transform="translate(-413.407 -98.769)" fill="#d9995d"/><path d="M628.776,165.762c.436.22.417.034.283-.179s-.391-.149-.417-.034.134.213.134.213" transform="translate(-413.322 -98.87)" fill="#d9995d"/><path d="M626.766,159.9c1.125.57,1.078.089.732-.46s-1.01-.387-1.078-.089.346.549.346.549" transform="translate(-412.818 -97.429)" fill="#d9995d"/><path d="M626.1,164.593c-1.181.443-.794.734-.155.851s.968-.483.794-.734-.638-.117-.638-.117" transform="translate(-412.575 -98.67)" fill="#d9995d"/><path d="M623.052,161.885c1.184-1.317.514-1.429-.357-1.161s-.894,1.228-.514,1.429.871-.268.871-.268" transform="translate(-411.807 -97.776)" fill="#d9995d"/><path d="M652.988,161.663a3.155,3.155,0,0,0,4.129,2.523,2.429,2.429,0,0,1,2.718.156c.757.516,3.044-.4,2.771-2.659s-3.867-4.948-6.2-4.08-3.708,2.641-3.414,4.061" transform="translate(-418.824 -97.058)" fill="#f2b880"/><path d="M661.763,159.6c.619.313.593.049.4-.254s-.555-.213-.593-.049.19.3.19.3" transform="translate(-420.774 -97.446)" fill="#d9995d"/><path d="M657.746,160.909c.619.313.593.049.4-.254s-.555-.213-.593-.049.19.3.19.3" transform="translate(-419.865 -97.742)" fill="#d9995d"/><path d="M660.918,164.93c.619.313.593.049.4-.254s-.555-.213-.593-.049.19.3.19.3" transform="translate(-420.583 -98.652)" fill="#d9995d"/><path d="M660.484,165.245c.436.221.417.034.283-.179s-.391-.149-.417-.034.134.213.134.213" transform="translate(-420.498 -98.753)" fill="#d9995d"/><path d="M658.474,159.38c1.125.57,1.078.089.732-.46s-1.01-.387-1.078-.089.346.549.346.549" transform="translate(-419.994 -97.312)" fill="#d9995d"/><path d="M657.809,164.076c-1.181.444-.794.735-.155.852s.968-.483.794-.735-.638-.117-.638-.117" transform="translate(-419.751 -98.553)" fill="#d9995d"/><path d="M654.76,161.367c1.184-1.317.514-1.429-.357-1.161s-.894,1.228-.515,1.429.871-.268.871-.268" transform="translate(-418.983 -97.658)" fill="#d9995d"/><path d="M556.6,160.073c.42-1.68-.986-4.652-5.524-4.993s-7.634,3.082-5.92,5.673,3.829,3.667,6.917,2.829,4.244-2.375,4.528-3.508" transform="translate(-394.32 -96.52)" fill="#e3a86d"/><path d="M548.866,157.22c.25-.57.115-.533-.147-.349s-.263.51-.115.535.261-.186.261-.186" transform="translate(-395.186 -96.903)" fill="#d18e50"/><path d="M546.934,158.836c.646-1.473.036-1.379-.638-.9s-.421,1.313-.036,1.379.675-.479.675-.479" transform="translate(-394.591 -97.1)" fill="#d18e50"/><path d="M547.907,161.855c-1.761-1.414-1.856-.553-1.454.537s1.627,1.051,1.856.553-.4-1.09-.4-1.09" transform="translate(-394.677 -97.891)" fill="#d18e50"/><path d="M588.376,160.2c2.589-1.193,3.553-.183,4.013,1.605a3.375,3.375,0,0,1-3.3,3.885c-2.145.08-4.244-1.317-3.667-3.219s2.054-1.856,2.954-2.271" transform="translate(-403.519 -97.567)" fill="#f2b880"/><path d="M586.314,162.192c-.822,1.206-.263,1.224.419.91s.595-1.1.262-1.223-.682.313-.682.313" transform="translate(-403.65 -98.059)" fill="#d9995d"/><path d="M590.122,166.1c-.853.571-.493.73.035.7s.678-.562.493-.73-.528.026-.528.026" transform="translate(-404.489 -98.999)" fill="#d9995d"/><path d="M591.21,162.758c-1.495,2.192-.477,2.224.762,1.653s1.081-2,.477-2.224-1.239.571-1.239.571" transform="translate(-404.683 -98.124)" fill="#d9995d"/><rect width="65.472" height="55.766" transform="translate(96.421 76.167)" fill="#8fa0bf"/><rect width="154.128" height="0.594" transform="translate(7.685 98.871)" fill="#7889b5"/><path d="M659.146,167.025H357.024a6.5,6.5,0,1,0,0,12.989H659.146a6.5,6.5,0,1,0,0-12.989" transform="translate(-350.338 -99.228)" fill="#7889b5"/><path d="M549.779,174.156a4.455,4.455,0,1,1-4.455-4.455,4.455,4.455,0,0,1,4.455,4.455" transform="translate(-393.458 -99.834)" fill="#354773"/><path d="M547.426,175.129A1.13,1.13,0,1,1,546.3,174a1.13,1.13,0,0,1,1.13,1.13" transform="translate(-394.431 -100.807)" fill="#576fab"/><path d="M564.228,174.156a4.455,4.455,0,1,1-4.455-4.455,4.455,4.455,0,0,1,4.455,4.455" transform="translate(-396.728 -99.834)" fill="#354773"/><path d="M561.875,175.129a1.13,1.13,0,1,1-1.13-1.13,1.13,1.13,0,0,1,1.13,1.13" transform="translate(-397.701 -100.807)" fill="#576fab"/><path d="M578.64,174.156a4.455,4.455,0,1,1-4.455-4.455,4.455,4.455,0,0,1,4.455,4.455" transform="translate(-399.99 -99.834)" fill="#354773"/><path d="M576.286,175.129a1.13,1.13,0,1,1-1.13-1.13,1.13,1.13,0,0,1,1.13,1.13" transform="translate(-400.962 -100.807)" fill="#576fab"/><path d="M593.076,174.156a4.455,4.455,0,1,1-4.456-4.455,4.455,4.455,0,0,1,4.456,4.455" transform="translate(-403.257 -99.834)" fill="#354773"/><path d="M590.722,175.129a1.13,1.13,0,1,1-1.13-1.13,1.13,1.13,0,0,1,1.13,1.13" transform="translate(-404.229 -100.807)" fill="#576fab"/><path d="M607.511,174.156a4.455,4.455,0,1,1-4.455-4.455,4.455,4.455,0,0,1,4.455,4.455" transform="translate(-406.524 -99.834)" fill="#354773"/><path d="M605.158,175.129a1.13,1.13,0,1,1-1.13-1.13,1.13,1.13,0,0,1,1.13,1.13" transform="translate(-407.496 -100.807)" fill="#576fab"/><path d="M621.947,174.156a4.455,4.455,0,1,1-4.455-4.455,4.455,4.455,0,0,1,4.455,4.455" transform="translate(-409.791 -99.834)" fill="#354773"/><path d="M619.594,175.129a1.13,1.13,0,1,1-1.13-1.13,1.13,1.13,0,0,1,1.13,1.13" transform="translate(-410.764 -100.807)" fill="#576fab"/><path d="M636.383,174.156a4.455,4.455,0,1,1-4.455-4.455,4.455,4.455,0,0,1,4.455,4.455" transform="translate(-413.058 -99.834)" fill="#354773"/><path d="M634.03,175.129A1.13,1.13,0,1,1,632.9,174a1.13,1.13,0,0,1,1.13,1.13" transform="translate(-414.031 -100.807)" fill="#576fab"/><path d="M650.819,174.156a4.455,4.455,0,1,1-4.455-4.455,4.455,4.455,0,0,1,4.455,4.455" transform="translate(-416.325 -99.834)" fill="#354773"/><path d="M648.465,175.129a1.13,1.13,0,1,1-1.13-1.13,1.13,1.13,0,0,1,1.13,1.13" transform="translate(-417.298 -100.807)" fill="#576fab"/><path d="M665.281,174.156a4.455,4.455,0,1,1-4.455-4.455,4.455,4.455,0,0,1,4.455,4.455" transform="translate(-419.598 -99.834)" fill="#354773"/><path d="M662.928,175.129A1.13,1.13,0,1,1,661.8,174a1.13,1.13,0,0,1,1.13,1.13" transform="translate(-420.571 -100.807)" fill="#576fab"/><path d="M679.717,174.156a4.455,4.455,0,1,1-4.455-4.455,4.455,4.455,0,0,1,4.455,4.455" transform="translate(-422.865 -99.834)" fill="#354773"/><path d="M677.364,175.129a1.13,1.13,0,1,1-1.13-1.13,1.13,1.13,0,0,1,1.13,1.13" transform="translate(-423.838 -100.807)" fill="#576fab"/><path d="M694.166,174.156a4.455,4.455,0,1,1-4.455-4.455,4.455,4.455,0,0,1,4.455,4.455" transform="translate(-426.135 -99.834)" fill="#354773"/><path d="M691.813,175.129a1.13,1.13,0,1,1-1.13-1.13,1.13,1.13,0,0,1,1.13,1.13" transform="translate(-427.108 -100.807)" fill="#576fab"/><path d="M694.1,174.156a4.455,4.455,0,1,1-4.455-4.455,4.455,4.455,0,0,1,4.455,4.455" transform="translate(-426.121 -99.834)" fill="#354773"/><path d="M691.751,175.129a1.13,1.13,0,1,1-1.13-1.13,1.13,1.13,0,0,1,1.13,1.13" transform="translate(-427.094 -100.807)" fill="#576fab"/><path d="M708.54,174.156a4.455,4.455,0,1,1-4.455-4.455,4.455,4.455,0,0,1,4.455,4.455" transform="translate(-429.388 -99.834)" fill="#354773"/><path d="M706.187,175.129a1.13,1.13,0,1,1-1.13-1.13,1.13,1.13,0,0,1,1.13,1.13" transform="translate(-430.361 -100.807)" fill="#576fab"/><path d="M723,174.156a4.455,4.455,0,1,1-4.455-4.455A4.455,4.455,0,0,1,723,174.156" transform="translate(-432.661 -99.834)" fill="#354773"/><path d="M720.649,175.129a1.13,1.13,0,1,1-1.13-1.13,1.13,1.13,0,0,1,1.13,1.13" transform="translate(-433.634 -100.807)" fill="#576fab"/><rect width="154.128" height="8.554" transform="translate(7.633 129.88)" fill="#7889b5"/><path d="M355.1,167.5a4.937,4.937,0,0,1,1.068-.25c.381-.06.769-.107,1.16-.147.782-.084,1.574-.138,2.367-.19,1.588-.1,3.185-.151,4.783-.193,3.2-.07,6.39-.079,9.581-.115l19.149-.158q19.149-.128,38.3-.214c12.766-.069,25.532-.084,38.3-.124l38.3-.041,38.3.039c12.766.042,25.532.055,38.3.124q38.3.162,76.6.579-38.3.463-76.6.579c-12.766.069-25.532.082-38.3.124l-38.3.039-38.3-.041c-12.766-.04-25.532-.055-38.3-.124q-19.15-.073-38.3-.214l-19.149-.158c-3.191-.026-6.386-.076-9.567-.07-1.592,0-3.185.02-4.772.08-.792.033-1.586.069-2.369.134-.392.03-.783.068-1.166.118a5.188,5.188,0,0,0-1.085.224" transform="translate(-351.417 -99.011)" fill="#354773"/><path d="M680.335,107.373h0a10.861,10.861,0,0,0-10.861,10.861v48.811a1.69,1.69,0,0,0,1.691,1.69h18.341a1.69,1.69,0,0,0,1.69-1.69V118.234a10.861,10.861,0,0,0-10.861-10.861" transform="translate(-422.563 -85.728)" fill="#a9b3cc"/><path d="M696.061,118.395c0-.033,0-.067,0-.1,0-.078-.007-.156-.012-.234,0-.035,0-.07-.006-.105-.006-.085-.013-.17-.021-.255,0-.023,0-.046-.006-.07-.011-.107-.023-.214-.037-.32,0-.025-.007-.05-.01-.074-.012-.082-.023-.164-.036-.245l-.016-.1c-.013-.078-.028-.156-.043-.232-.005-.029-.01-.057-.016-.086-.021-.1-.043-.209-.067-.313l0-.012c-.023-.1-.048-.2-.073-.3l-.023-.084c-.021-.077-.043-.153-.065-.229-.008-.028-.016-.056-.025-.085-.028-.089-.056-.178-.085-.267,0-.011-.007-.022-.011-.032-.034-.1-.07-.2-.107-.3l-.021-.055c-.031-.081-.062-.162-.094-.242l-.03-.074c-.033-.08-.067-.159-.1-.239l-.023-.052q-.13-.292-.278-.576l-.029-.055c-.041-.078-.083-.156-.126-.233l-.029-.051q-.16-.281-.334-.552l-.016-.024c-.053-.081-.107-.162-.162-.242l-.029-.041c-.058-.084-.117-.166-.177-.248l-.006-.009q-.2-.265-.407-.515l-.022-.026c-.065-.077-.131-.153-.2-.228l-.015-.018q-.221-.246-.456-.48l0,0c-.076-.076-.153-.149-.232-.222l-.017-.016q-.363-.337-.757-.641l-.012-.009q-.4-.305-.822-.574v59.692h3.381a1.691,1.691,0,0,0,1.69-1.69V118.723c0-.11,0-.219-.005-.328" transform="translate(-427.434 -86.217)" fill="#8fa0bf"/><path d="M684.446,168.743h3.1V108.073a10.81,10.81,0,0,0-3.1-.668Z" transform="translate(-425.952 -85.735)" fill="#99a8c7"/><path d="M674.067,109.954l0,0a10.868,10.868,0,0,0-.966.841l-.009.008a10.888,10.888,0,0,0-.857.944l-.01.012a10.865,10.865,0,0,0-.739,1.038l-.01.015q-.226.362-.424.743v55.437a1.688,1.688,0,0,0,.471.068h4.373V108.814a10.855,10.855,0,0,0-1.827,1.14" transform="translate(-422.92 -86.054)" fill="#bdc9e6"/><path d="M676.168,135.688h-.927a.182.182,0,0,0-.188.175v.1a.181.181,0,0,0,.188.174h.927a.181.181,0,0,0,.189-.174v-.1a.182.182,0,0,0-.189-.175" transform="translate(-423.826 -92.136)" fill="#fff"/><path d="M678.888,135.688h-.927a.182.182,0,0,0-.188.175v.1a.181.181,0,0,0,.188.174h.927a.181.181,0,0,0,.189-.174v-.1a.182.182,0,0,0-.189-.175" transform="translate(-424.442 -92.136)" fill="#fff"/><path d="M681.608,135.688h-.927a.182.182,0,0,0-.188.175v.1a.181.181,0,0,0,.188.174h.927a.181.181,0,0,0,.189-.174v-.1a.182.182,0,0,0-.189-.175" transform="translate(-425.057 -92.136)" fill="#fff"/><path d="M684.328,135.688H683.4a.182.182,0,0,0-.188.175v.1a.181.181,0,0,0,.188.174h.927a.181.181,0,0,0,.189-.174v-.1a.182.182,0,0,0-.189-.175" transform="translate(-425.673 -92.136)" fill="#fff"/><path d="M676.168,136.7h-.927a.182.182,0,0,0-.188.174v.1a.181.181,0,0,0,.188.174h.927a.181.181,0,0,0,.189-.174v-.1a.182.182,0,0,0-.189-.174" transform="translate(-423.826 -92.366)" fill="#fff"/><path d="M678.888,136.7h-.927a.182.182,0,0,0-.188.174v.1a.181.181,0,0,0,.188.174h.927a.181.181,0,0,0,.189-.174v-.1a.182.182,0,0,0-.189-.174" transform="translate(-424.442 -92.366)" fill="#fff"/><path d="M681.608,136.7h-.927a.182.182,0,0,0-.188.174v.1a.181.181,0,0,0,.188.174h.927a.181.181,0,0,0,.189-.174v-.1a.182.182,0,0,0-.189-.174" transform="translate(-425.057 -92.366)" fill="#fff"/><path d="M684.328,136.7H683.4a.182.182,0,0,0-.188.174v.1a.181.181,0,0,0,.188.174h.927a.181.181,0,0,0,.189-.174v-.1a.182.182,0,0,0-.189-.174" transform="translate(-425.673 -92.366)" fill="#fff"/><path d="M687.048,135.688h-.927a.182.182,0,0,0-.188.175v.1a.181.181,0,0,0,.188.174h.927a.181.181,0,0,0,.189-.174v-.1a.182.182,0,0,0-.189-.175" transform="translate(-426.288 -92.136)" fill="#fff"/><path d="M689.768,135.688h-.927a.182.182,0,0,0-.188.175v.1a.181.181,0,0,0,.188.174h.927a.181.181,0,0,0,.189-.174v-.1a.182.182,0,0,0-.189-.175" transform="translate(-426.904 -92.136)" fill="#fff"/><path d="M692.488,135.688h-.927a.182.182,0,0,0-.188.175v.1a.181.181,0,0,0,.188.174h.927a.181.181,0,0,0,.189-.174v-.1a.182.182,0,0,0-.189-.175" transform="translate(-427.52 -92.136)" fill="#fff"/><path d="M687.048,136.7h-.927a.182.182,0,0,0-.188.174v.1a.181.181,0,0,0,.188.174h.927a.181.181,0,0,0,.189-.174v-.1a.182.182,0,0,0-.189-.174" transform="translate(-426.288 -92.366)" fill="#fff"/><path d="M689.768,136.7h-.927a.182.182,0,0,0-.188.174v.1a.181.181,0,0,0,.188.174h.927a.181.181,0,0,0,.189-.174v-.1a.182.182,0,0,0-.189-.174" transform="translate(-426.904 -92.366)" fill="#fff"/><path d="M692.488,136.7h-.927a.182.182,0,0,0-.188.174v.1a.181.181,0,0,0,.188.174h.927a.181.181,0,0,0,.189-.174v-.1a.182.182,0,0,0-.189-.174" transform="translate(-427.52 -92.366)" fill="#fff"/><path d="M673.519,136.185a.8.8,0,1,1-.8-.8.8.8,0,0,1,.8.8" transform="translate(-423.118 -92.068)" fill="#fff"/><path d="M690.186,125.137H670.777a.421.421,0,0,0-.421.421v6.383a.421.421,0,0,0,.421.42h19.409a.421.421,0,0,0,.421-.42v-6.383a.421.421,0,0,0-.421-.421" transform="translate(-422.763 -89.748)" fill="#bbc6e3"/><rect width="19.35" height="6.394" transform="translate(248.044 35.803)" fill="#354773"/><path d="M674.133,130.5a1.328,1.328,0,0,1-.266-.027l.045-.221a1.112,1.112,0,0,0,.221.022,1.1,1.1,0,1,0-.614-.187l-.127.186a1.325,1.325,0,1,1,.741.227" transform="translate(-423.318 -90.363)" fill="#e8eb54"/><path d="M673.969,130.9a1.887,1.887,0,1,1,1.318-3.239l-.159.162a1.661,1.661,0,1,0,.409,1.741l.214.075a1.89,1.89,0,0,1-1.782,1.262" transform="translate(-423.154 -90.199)" fill="#e8eb54"/><rect width="7.522" height="0.252" transform="translate(253.536 38.45)" fill="#b0ffcd"/><rect width="4.877" height="0.582" transform="translate(254.859 36.877)" fill="#b0ffcd"/><rect width="6.039" height="0.252" transform="translate(253.537 38.971)" fill="#b0ffcd"/><rect width="1.694" height="0.252" transform="translate(253.536 39.492)" fill="#b0ffcd"/><rect width="5.026" height="0.252" transform="translate(254.779 40.013)" fill="#b0ffcd"/><rect width="7.522" height="0.252" transform="translate(253.536 40.535)" fill="#b0ffcd"/><rect width="3.584" height="0.252" transform="translate(253.537 41.055)" fill="#b0ffcd"/><rect width="0.339" height="2.366" transform="translate(262.334 38.816)" fill="#e8eb54"/><rect width="0.339" height="4.531" transform="translate(263.01 36.651)" fill="#e8eb54"/><rect width="0.339" height="0.648" transform="translate(263.686 40.534)" fill="#e8eb54"/><rect width="0.339" height="2.799" transform="translate(264.362 38.382)" fill="#e8eb54"/><rect width="0.339" height="3.578" transform="translate(265.037 37.604)" fill="#e8eb54"/><rect width="0.339" height="0.395" transform="translate(266.342 40.787)" fill="#e8eb54"/><rect width="0.339" height="1.789" transform="translate(265.713 39.393)" fill="#e8eb54"/></g></g></svg>