<svg xmlns="http://www.w3.org/2000/svg" xmlns:xlink="http://www.w3.org/1999/xlink" width="190" height="145" viewBox="0 0 190 145"><defs><clipPath id="a"><rect width="190" height="145" transform="translate(-6149 -8627)" fill="#fff"/></clipPath></defs><g transform="translate(6149 8627)" clip-path="url(#a)"><g transform="translate(1.983)"><path d="M792.927,396.939c7.371,3.257,13.665,7.186,17.224,8.1,1.426.366,2.807,3.234-2.786,3.241a76.422,76.422,0,0,1-11.633-1.9c-10.128-2.88-11.45-4.175-12.985-7.419-1.381-2.919,3.778-4.849,10.18-2.02" transform="translate(-6895.187 -8983.513)" fill="#e48b6a"/><path d="M788.305,393.308c.283.8.784-.206,1.285.044s2,1.252,2.253,2.254-.25,1.251-.25,3.255v2.253l-3.917-1.191Z" transform="translate(-6896.155 -8983.09)" fill="#bfdce6"/><path d="M852.876,494.035h-5.714a3.02,3.02,0,0,1-2.927-2.27l-20.387-79.387a1.609,1.609,0,0,0-1.56-1.21h-6.215a.706.706,0,1,1,0-1.411h6.215a3.022,3.022,0,0,1,2.927,2.271L845.6,491.414a1.608,1.608,0,0,0,1.56,1.21h5.714a.706.706,0,1,1,0,1.411" transform="translate(-6901.359 -8986.182)" fill="#3d3939"/><path d="M779.876,372.287c2.741,1.342,2.491,2.094,2.491,3.6a8.267,8.267,0,0,0,.5,2.754,23.447,23.447,0,0,1,3.854,9.713c1.153,6.31-6.445-10.53-6.445-10.53Z" transform="translate(-6894.689 -8979.141)" fill="#bfdce6"/><path d="M749.187,513.159c-1.123-.59.819-4.678.819-4.678l-6.483-1.362s-2.081,4.992-2.448,6.595,1.88,2.346,1.88,2.346l6.3-2.177Z" transform="translate(-6887.39 -9004.477)" fill="#e48b6a"/><path d="M749.471,516.826s1.477-.018.473-1.194c-.583-.682-.409-1.6-.888-1.865-1.246-.7-.642.884-3.38.884-.823,0-2.549-.279-3.073-1.347s-1.139-2.209-1.786-1.056a26.291,26.291,0,0,0-1.183,2.461,14.661,14.661,0,0,0,2.4,1.316c.648.166,7.435.8,7.435.8" transform="translate(-6887.127 -9005.351)" fill="#454545"/><path d="M756.287,522.468s-.384,1.046-.707,1.13c-.636.164-8.456.629-9.82.322-.928-.209-1.016-.934-3-2.079l-.467.537-3.082-2.465a17.445,17.445,0,0,1-.161-2.694c.1-.669,17.235,5.249,17.235,5.249" transform="translate(-6887.014 -9006.366)" fill="#dedede"/><path d="M740.077,513.87c-1.226,1.818-1.394,3.743-.3,4.832s3.872,2.4,5.008,3.439,9.8.309,11.225-.126.29-4.84-2.841-4.847-3.62-1.676-3.62-1.676a5.406,5.406,0,0,1-3.16.917c-1.848-.063-6.315-2.539-6.315-2.539" transform="translate(-6887.018 -9005.746)" fill="#454545"/><path d="M751.365,516.239a3.239,3.239,0,0,0-3.491,2.03s.052.73.555.063a5.8,5.8,0,0,1,.928-1.155,3.988,3.988,0,0,1,2.336-.546Z" transform="translate(-6888.676 -9006.185)" fill="#dedede"/><path d="M752.191,517.007a3.5,3.5,0,0,0-3.112,2.208s.052.731.556.063a5.848,5.848,0,0,1,.928-1.154,3.832,3.832,0,0,1,2.287-.751Z" transform="translate(-6888.902 -9006.335)" fill="#dedede"/><path d="M753.658,517.7a3.752,3.752,0,0,0-3.212,2.168s.052.73.555.063.514-.833.929-1.155a5.207,5.207,0,0,1,2.564-.931Z" transform="translate(-6889.159 -9006.465)" fill="#dedede"/><path d="M799.841,506.423c-1.182-.464-2.684-6.414-2.684-6.414L791.6,501s.817,5.594.866,7.451,2.308,2.3,2.308,2.3l5.3-3.527Z" transform="translate(-6896.894 -9003.141)" fill="#e48b6a"/><path d="M794.48,517.407a8.287,8.287,0,0,0,.647,1.315,16.239,16.239,0,0,0,4.379-.664s.193-.642.486-.691,2.8-.5,3.87-.05,6.981-1.569,8.453-2.395c.442-.246.166-2.034.166-2.034l-14.648,3.331Z" transform="translate(-6897.434 -9005.561)" fill="#dedede"/><path d="M792.269,510.309c0-.283.2-.485.437-.437,1.028.207,3.609.612,4.852-.237a11.451,11.451,0,0,0,2.179-1.924.411.411,0,0,1,.512-.095,6.648,6.648,0,0,0,5.033,1.115c3.159-.725,7.631.826,6.812,3.867-.132.492-3.584,1.856-6.561,2.667-1.83.5-4.27.554-5.907.894-1.683.35-3.061.6-3.728.685-2.492.3-3.593-2.245-3.628-6.535" transform="translate(-6897.019 -9004.562)" fill="#454545"/><path d="M805.488,509.245a3.2,3.2,0,0,0-.807,1.507c-.146.849-.446.9-.51.516a3.909,3.909,0,0,1,.712-1.855,2.378,2.378,0,0,0,.332-.357l.416.063Z" transform="translate(-6899.254 -9004.841)" fill="#dedede"/><path d="M804.428,508.874a3.7,3.7,0,0,0-1.078,1.486c-.2.755-.3.892-.376.851s-.246-.2-.1-.64a3.2,3.2,0,0,1,1.235-1.8Z" transform="translate(-6899.001 -9004.788)" fill="#dedede"/><path d="M803.372,508.473l-.308-.146a3.708,3.708,0,0,0-.86.963,2.914,2.914,0,0,0-.4,1.057c-.007.235.244.313.322-.019a3.389,3.389,0,0,1,.512-1.143,3.973,3.973,0,0,1,.737-.712" transform="translate(-6898.81 -9004.704)" fill="#dedede"/><path d="M769.4,367.047l.2,5.646s6.731,1.128,8.708,1.311l-.2-5.548Z" transform="translate(-6892.722 -8978.155)" fill="#e48b6a"/><path d="M777.868,351.471c4.263,2.077,4.937,12.231,3.33,13.94-3.128,3.327-10.48.457-11.882-.218-3.486-1.679-4.393-7.28-.281-11.82s6.524-3.028,8.834-1.9" transform="translate(-6892.141 -8975.007)" fill="#e48b6a"/><path d="M784.692,358.834c.751,1.752,1.7,2.47,1.835,3.2.119.628-1.225,1.181-1.225,1.181l-1.044-1.919Z" transform="translate(-6895.513 -8976.611)" fill="#e48b6a"/><path d="M772.751,365.417a.9.9,0,0,1-.208.158.767.767,0,0,1-.609.06,2.9,2.9,0,0,1-1.333-1.07c-.036-.065-.075-.495-.016-.535a.129.129,0,0,1,.174.053c.006.011.61,1.119,1.247,1.306a.516.516,0,0,0,.413-.039c.23-.123.211-.237.213-.243a.123.123,0,0,1,.088-.154.13.13,0,0,1,.159.09.41.41,0,0,1-.127.374" transform="translate(-6892.938 -8977.586)" fill="#a3634c"/><path d="M781.476,360.642a.471.471,0,0,0,.616.3.524.524,0,0,0,.239-.674.471.471,0,0,0-.616-.3.523.523,0,0,0-.239.674" transform="translate(-6894.983 -8976.817)" fill="#363334"/><path d="M769.18,352.963c2.7-1.913,6.048-2.288,7.163-1.485a4.408,4.408,0,0,1,.353.282.512.512,0,0,1-.408.885,2.728,2.728,0,0,0-1.631.247c-.1.046-.407.253-.5.313-1.693,1.064-1.417,2.444-.986,4.412.3,1.388.514,2.336.682,2.984a.51.51,0,0,1-.391.627c-.249.053-.787.391-.873.152-.192-.534-.728-2.052-.949-1.923-1.473.859-2.255,2.868-2.638,4.736-.113.55-.64,1.659-.831,1.249a24.749,24.749,0,0,1-1.9-4.3c-1.51-5.57.222-6.269,2.917-8.183" transform="translate(-6892.026 -8975.154)" fill="#333"/><path d="M771.37,361.124s-1.52.025-.832,1.884,1.891,2.326,2.3,1.376-.365-2.761-.365-2.761a1.459,1.459,0,0,0-1.1-.5" transform="translate(-6892.901 -8977.041)" fill="#e48b6a"/><path d="M780.05,358.086a1.894,1.894,0,0,1,2.087-.425c.415.211.42.781-.471.97a2.063,2.063,0,0,0-1.366.707c-.359.36-.7.43-.751,0a1.653,1.653,0,0,1,.5-1.251" transform="translate(-6894.627 -8976.364)" fill="#333"/><path d="M770.92,362.487a.577.577,0,0,1,.3-.179.8.8,0,0,1,.361,0,1.482,1.482,0,0,1,.619.32,2.407,2.407,0,0,1,.45.5,1.8,1.8,0,0,1,.278.609c-.151-.165-.3-.318-.448-.469s-.3-.294-.46-.426a2.158,2.158,0,0,0-.5-.327.8.8,0,0,0-.593-.028" transform="translate(-6893.007 -8977.26)" fill="#a3634c"/><path d="M769.49,354.068l-.417-.668s-3.644,1.193-3.9,3.626,1.056,6.158,1.523,7.276a3.279,3.279,0,0,0,1.368,1.576l.431-6.783Z" transform="translate(-6891.919 -8975.59)" fill="#333"/><path d="M775.059,361.366a7.814,7.814,0,0,0,3.207,5.194c1.26.726,1.87-1.99,1.87-1.99l.886.267s.489,1.506,1.163,1.846a.6.6,0,0,0,.9-.308,2.333,2.333,0,0,1,.7,1.069c.063.5-.639,1.255-.426,1.891s-.675,1.108-1.839,1.274-4.985-.72-6-2.022-1.506-5.019-1.869-6.389,1.4-.833,1.4-.833" transform="translate(-6893.511 -8977.068)" fill="#333"/><path d="M784.8,364.178c-1.392-.345-2.86-.4-3.165.9s1.325,1.781,1.134.89.335-1.057.584-.973a7.363,7.363,0,0,0,1.108.35c.222.01.4,0,.4,0a.323.323,0,0,0,.295-.15.973.973,0,0,0,.136-.6c-.011-.236-.309-.5-.309-.5Z" transform="translate(-6895.014 -8977.576)" fill="#333"/><path d="M776.132,351.938a8.2,8.2,0,0,0,3.084,0,1.75,1.75,0,0,0-.168-2.027c-.823-.831.022-1.521-1.318-1.77s-.691-.358-2.187-.482-2-.5-3.723-.266c-2.077.284-5.071,1.226-5.984,2.982a3.542,3.542,0,0,0-.287,3.044,7.126,7.126,0,0,0-.46,4.663c.668,2.466,2.9-2.959,2.9-2.959s4.687-4.569,4.923-4.57,3.22,1.385,3.22,1.385" transform="translate(-6891.871 -8974.447)" fill="#333"/><path d="M785.112,366.535a4.508,4.508,0,0,1-1.372-.288.125.125,0,1,0-.112.223,4.608,4.608,0,0,0,1.443.313c.015-.081.028-.164.041-.248" transform="translate(-6895.382 -8978.002)" fill="#a3634c"/><path d="M769.737,370.119a14.485,14.485,0,0,1-.451,2.851l8.156,13.609s3.032-5.3,2.609-7.929a23.466,23.466,0,0,0-1.117-4.4,11.832,11.832,0,0,0-.875-1.69c-.187-.339-2.166-.586-2.166-.586Z" transform="translate(-6892.7 -8978.732)" fill="#e48b6a"/><path d="M753.148,426.259s-5.118,12.989-5.052,25.6-3.874,13.853-3.922,20.437-2.543,23.385-2.543,23.385a6.648,6.648,0,0,0,7.423,1.679s5.871-18.154,9.479-30.94l3.608-12.786s4.822-16.471,5.526-22.545Z" transform="translate(-6887.503 -8989.281)" fill="#406691"/><path d="M785.243,463.844c-2.257.377-6.27,3.144-5.909,5.276,1.511,5.1.5,7.7,2.59,11.612,2.847,5.342,8.026,20.106,8.026,20.106a7,7,0,0,0,7.259-2.186s-2.807-17.468-5.245-29.52c-.189-.936-.364-1.8-.525-2.6-.588-2.856-4.107-3.04-6.2-2.691" transform="translate(-6894.583 -8996.321)" fill="#406691"/><path d="M758,436.99s4.963,13.049,13.5,22.328a41.963,41.963,0,0,1,4.474,5.672c.157-.2,1.661,3.191,6.972.508,4.175-2.109,4.572-4.678,4.019-6.369-4.125-8.251-3.885-7.957-3.885-7.957s-4.759-14.617-8.329-19.583Z" transform="translate(-6890.578 -8990.284)" fill="#406691"/><path d="M769.232,372.579c6.424,1.679,8.427,2.43,8.927,3.431a17.624,17.624,0,0,0,1.753,2.5l-2.253-1-1.251,2.5s-7.511-5.257-8.262-6.759c0,0,.3-1.736,1.152-1.619Z" transform="translate(-6892.485 -8979.017)" fill="#bfdce6"/><path d="M766.72,373.631a5.705,5.705,0,0,0-5.257,3.255c-1.753,3.5-5.508,21.03-6.009,28.79a108.541,108.541,0,0,0,0,14.02s20.279,8.762,25.536-18.025c.763-3.884,2.855-3.48,2.5-6.009-1.251-9.013-2.754-10.765-6.009-16.774l-6.009-3Z" transform="translate(-6890.059 -8979.391)" fill="#bfdce6"/><path d="M751.5,429.124s.881-12.848,3.194-18.441l2.02-18,.293,12.16c.251,2.254,2.754,6.51,9.263,5.508s8.227-3.883,9.012-5.257c1-1.752,2-5.257,1.5-11.517-.884-11.051-5.257-17.775-10.766-18.275s-6.388,4.939-6.388,4.939a8.792,8.792,0,0,1,1.8-4.259c1.581-1.933,7.59-2.684,12.1,2.323s6.009,17.025,6.009,18.526,2.508,1.448,2.508,1.448-2.258,15.075-3.01,19.332c-.469,2.66-1.5,5.007-2,8.512a42.954,42.954,0,0,1,2.754,8.511c.679,3.145-14.52-5.758-14.771-6.009s-13.519.5-13.519.5" transform="translate(-6889.357 -8979.557)" fill="#406691"/><path d="M779.489,422.493l-.46,6.92,1.622.108.463-6.877Z" transform="translate(-6894.53 -8988.574)" fill="#2a4a6e"/><path d="M755.964,421.218l-.992,6.864,1.609.232.992-6.82Z" transform="translate(-6890.009 -8988.335)" fill="#2a4a6e"/><path d="M771.01,424.257c-2.178,0-4.59-.092-7.1-.28-7.221-.543-9.27-1.285-9.354-1.316a.141.141,0,1,1,.1-.264c.02.007,2.112.76,9.276,1.3,7.092.534,13.416.292,15.734-.6a.141.141,0,1,1,.1.264c-1.527.588-4.743.9-8.76.9" transform="translate(-6889.915 -8988.555)" fill="#2a4a6e"/><path d="M770.757,430.282c-2.153,0-4.6-.087-7.223-.264-7.586-.512-9.729-1.346-9.817-1.382a.141.141,0,0,1,.106-.262c.021.008,2.209.855,9.73,1.362,7.126.481,13.1.279,15.208-.512a.142.142,0,0,1,.182.083.14.14,0,0,1-.083.181c-1.393.523-4.293.794-8.1.794" transform="translate(-6889.758 -8989.678)" fill="#2a4a6e"/><path d="M765.574,452.894a.141.141,0,0,1-.112-.055c-8.866-11.5-9.66-17.659-9.667-17.72a.141.141,0,0,1,.281-.033c.006.06.8,6.151,9.61,17.58a.141.141,0,0,1-.112.227" transform="translate(-6890.165 -8990.917)" fill="#2a4a6e"/><path d="M793.6,493.208a.142.142,0,0,1-.14-.119c-.045-.29-4.535-29.066-7.49-33.744-1.493-2.363-14.549-23.246-13.539-28.891a.141.141,0,0,1,.278.05c-.8,4.5,8.107,20.152,13.5,28.691,2.985,4.727,7.346,32.664,7.53,33.852a.141.141,0,0,1-.118.161l-.022,0" transform="translate(-6893.28 -8990.048)" fill="#2a4a6e"/><path d="M774.018,436.312a.141.141,0,0,1-.028-.279,6.532,6.532,0,0,0,4.98-5.57.141.141,0,1,1,.281.029,6.816,6.816,0,0,1-5.2,5.817.114.114,0,0,1-.028,0" transform="translate(-6893.563 -8990.048)" fill="#2a4a6e"/><path d="M790.4,401.987c7.811,1.984,13.085,4.314,16.748,4.622,1.467.124,4.891,3.217-.621,4.155a76.375,76.375,0,0,1-11.787.062c-10.467-1.152-11.986-2.209-14.04-5.152-1.848-2.648,2.917-5.41,9.7-3.688" transform="translate(-6894.769 -8984.62)" fill="#e48b6a"/><path d="M811.222,411.991c.3-.04,2.991.27,4.241-1.247s2.03-1.441,1.537-2.767l-.7.067a.5.5,0,0,1-.629.177,1.588,1.588,0,0,0-1.322.158c-.14.191-.851.741-1.408,1.279a20.448,20.448,0,0,0-1.715,2.333" transform="translate(-6900.58 -8985.847)" fill="#e48b6a"/><path d="M812.243,411.9c-.141-.329.3-.374,0-.551l1.895-2.559a3.486,3.486,0,0,0,2.176,1.342c1.212.058,4.422.454,4.065,1.223s-1.806.691-3.1.488-1.682.681-2.961.892a2.246,2.246,0,0,1-1.544-.468c-.274-.195-.472-.232-.529-.367" transform="translate(-6900.767 -8985.999)" fill="#e48b6a"/><path d="M813.182,412.635a2.2,2.2,0,0,0,2.121.018l.075-.038a3.352,3.352,0,0,1,2.292-.565l.068.006c.967.087,2.17.2,2.615-.282.141-.153.2-.27.171-.369-.054-.2-.486-.352-.923-.486a18.372,18.372,0,0,0-3.014-.467c-.679-.055-.812-.183-.832-.255a.085.085,0,0,1,.047-.093.065.065,0,0,1,.083.044s.09.114.713.165a18.37,18.37,0,0,1,3.044.472c.608.188.95.336,1.017.586a.567.567,0,0,1-.2.5c-.492.529-1.681.421-2.731.327l-.068-.007a3.206,3.206,0,0,0-2.215.55l-.076.038a1.946,1.946,0,0,1-2.19-.1c-.008-.061.022.022.006-.041" transform="translate(-6900.947 -8986.245)" fill="#a3634c"/><path d="M818.5,409.457a8.776,8.776,0,0,1,.21-1.31,4.247,4.247,0,0,0,.17-.865.92.92,0,0,0-.359-.812.057.057,0,0,1-.024-.072.829.829,0,0,0-.64-.17c-.7.142-3.225,1.056-4.79.985a5.111,5.111,0,0,0-3.3.528c-.061.087.072-.032.01.056-.083.118-.146.248-.223.37-.058.5,1.574.161,1.569.675,0,.25-.011.5-.017.749.043.024.092.038.133.064a1.9,1.9,0,0,1,.951,1.57,1.784,1.784,0,0,1-.032.191,3.049,3.049,0,0,0,1.077.158c1.668-.039,2.752-2.038,3.121-1.8s-.185,1.061-.185,1.061c-2.808.123-1.792,1.36-1.792,1.36a8.043,8.043,0,0,0,3.058-.383c.724-.418.937-2.006.983-2.446l.081.093" transform="translate(-6900.266 -8985.515)" fill="#e48b6a"/><path d="M820.547,408.056a7.847,7.847,0,0,0-.417-1.165,1.257,1.257,0,0,1,0,.222,3.839,3.839,0,0,1-.576,1.3,9.743,9.743,0,0,0-.444,1.071l.086.158c.568,1.038-.107,1.314-.924,1.96a1.221,1.221,0,0,0-.432,1.463,20.68,20.68,0,0,0,2.523-1.5c1.02-.753.873-1.148.184-3.508" transform="translate(-6901.807 -8985.643)" fill="#e48b6a"/><path d="M813,411.831a.13.13,0,0,1,.051-.111.132.132,0,0,1,.185.024s.235.2,1.245,0a4.045,4.045,0,0,0,1.7-1.159c.421-.408.676-.653.89-.519.386.241,0,1-.084,1.147a.132.132,0,0,1-.1.067,8.619,8.619,0,0,0-1.468.337.619.619,0,0,0-.405.41.55.55,0,0,0,.109.487c.215.23,2.555-.243,3.072-.553.324-.194.388-.5.56-1.333.051-.246.111-.534.19-.875,0-.017.083-.781.179-1.287a.132.132,0,0,1,.259.05c-.094.5-.179,1.273-.18,1.281-.08.355-.14.642-.19.886-.183.885-.26,1.252-.683,1.506s-3.049.932-3.411.495a.814.814,0,0,1-.161-.723l.006-.022a1.831,1.831,0,0,1-.232.065c-1.182.241-1.463-.037-1.507-.1a.127.127,0,0,1-.027-.073m3.975-1.436a.13.13,0,0,0-.045-.11,2.93,2.93,0,0,0-.568.485c-.136.132-.287.279-.451.422.367-.088.727-.145.873-.167a1.531,1.531,0,0,0,.19-.63" transform="translate(-6900.914 -8985.918)" fill="#a3634c"/><path d="M817.786,413.9c.61.079,2.415-1.283,2.435-1.3.68-.53,1.059-.854.959-1.348a.138.138,0,1,0-.271.055c.061.3-.149.521-.858,1.075a6.992,6.992,0,0,1-2.207,1.254h0a.709.709,0,0,1-.042-.52.138.138,0,0,0-.267-.071.941.941,0,0,0,.112.786.221.221,0,0,0,.143.068" transform="translate(-6901.758 -8986.441)" fill="#a3634c"/><path d="M771.179,382.018c2.776.861,11.728,15.992,13.735,15.927,2.141-.071,1.025,9.993-5.523,6.562-6.059-3.174-16.256-13.593-15.787-17.977s4.127-5.58,7.575-4.512" transform="translate(-6891.628 -8980.899)" fill="#e48b6a"/><path d="M765.474,379.049c6.009-2.5,7.761,3.755,11.516,8.512s5.257,6.759,5.257,6.759.25-1,1.251,0,2,1,1.753,2.755a79.213,79.213,0,0,0-.75,8.011c0,2-.5,2-2.254,2s-3.755-1.5-3.255-3c0,0-6.259-2.253-9.764-6.759s-6.906-7.268-7.26-11.516c-.5-6.009,3.5-6.76,3.5-6.76" transform="translate(-6891.316 -8980.303)" fill="#bfdce6"/><path d="M782.756,408.129h-.006a.142.142,0,0,1-.136-.147c.249-6.234,2.761-9.317,2.787-9.348a.141.141,0,0,1,.217.181c-.025.029-2.476,3.047-2.721,9.178a.141.141,0,0,1-.141.136" transform="translate(-6895.204 -8984.081)" fill="#67a1b8"/><path d="M777.848,406.331a.134.134,0,0,1-.05-.009c-.071-.027-7.132-2.764-11.364-8.739-3.572-5.044-4.444-5.228-4.551-5.228h0a.141.141,0,0,1-.2-.189.232.232,0,0,1,.2-.093h0c.654,0,2.308,1.848,4.786,5.347,4.182,5.905,11.164,8.612,11.234,8.638a.141.141,0,0,1-.05.273M761.91,392.323h0Zm0,0h0" transform="translate(-6891.265 -8982.858)" fill="#67a1b8"/><path d="M785.983,395.02a.176.176,0,0,1-.106-.053l0,0-.028-.028h0c-.032-.029-.069-.066-.113-.11l-.64-.64a1.262,1.262,0,0,0-.912-.477.531.531,0,0,0-.374.206.143.143,0,0,1-.151.058c-.711-.178-1.783-1.723-2.919-3.36-.551-.794-1.121-1.615-1.614-2.217a32.589,32.589,0,0,1-2.54-3.8c-1.726-2.86-3.356-5.561-6.2-6.4a.141.141,0,1,1,.08-.27c2.95.867,4.685,3.742,6.363,6.523a32.413,32.413,0,0,0,2.517,3.766c.5.611,1.074,1.436,1.628,2.235.965,1.389,2.052,2.957,2.676,3.22a.817.817,0,0,1,.5-.244,1.492,1.492,0,0,1,1.144.558l.751.751,0,0,.025.025h0a.134.134,0,0,1,0,.2.136.136,0,0,1-.091.049" transform="translate(-6892.887 -8980.2)" fill="#67a1b8"/><rect width="76.192" height="7.01" transform="translate(-6051.488 -8495.855)" fill="#7889b5"/><path d="M1004.764,517.021a5.876,5.876,0,1,1-5.876-5.876,5.876,5.876,0,0,1,5.876,5.876" transform="translate(-6982.191 -9005.234)" fill="#3d3939"/><path d="M1002.547,517.689a2.991,2.991,0,1,1-2.992-2.992,2.992,2.992,0,0,1,2.992,2.992" transform="translate(-6982.859 -9005.901)" fill="#a9b3cc"/><path d="M888.541,517.021a5.876,5.876,0,1,1-5.877-5.876,5.877,5.877,0,0,1,5.877,5.876" transform="translate(-6912.901 -9005.234)" fill="#3d3939"/><path d="M886.324,517.689a2.991,2.991,0,1,1-2.993-2.992,2.993,2.993,0,0,1,2.993,2.992" transform="translate(-6913.569 -9005.901)" fill="#a9b3cc"/><path d="M818.009,410.278a1.5,1.5,0,1,1-1.5-1.5,1.5,1.5,0,0,1,1.5,1.5" transform="translate(-6901.291 -8985.997)" fill="#3d3939"/><path d="M790.3,400.319a.142.142,0,0,1-.124-.208,1.324,1.324,0,0,0,0-1.139,3.981,3.981,0,0,0-.879-1.069.141.141,0,0,1-.049-.087L788.6,393.8a.141.141,0,1,1,.279-.045l.642,3.968a4.191,4.191,0,0,1,.909,1.12,1.587,1.587,0,0,1,0,1.4.14.14,0,0,1-.124.075" transform="translate(-6896.329 -8983.151)" fill="#67a1b8"/><path d="M811.539,406.334a16.918,16.918,0,0,1-4.5-.784c-3.464-.989-14.159-3.479-14.267-3.5a.071.071,0,0,1-.053-.085.07.07,0,0,1,.084-.053c.108.025,10.807,2.516,14.273,3.506a13.263,13.263,0,0,0,4.976.75.07.07,0,0,1,.024.139,3.441,3.441,0,0,1-.541.031" transform="translate(-6897.104 -8984.706)" fill="#a3634c"/><path d="M925.437,419.584H869.069a.922.922,0,0,0-.922.922v31.1a.922.922,0,0,0,.922.922h56.368a.922.922,0,0,0,.922-.922v-31.1a.922.922,0,0,0-.922-.922" transform="translate(-6911.278 -8988.027)" fill="#edc095"/><path d="M902.6,419.558h-6.087v5.2l.561-.7.561.7.562-.7.561.7.561-.7.7.7.561-.7.7.7.658-.658.605.605v.053l.024-.029.029.029V424.7l.508-.636.561.7.562-.7.561.7.561-.7.7.7.562-.7.7.7.658-.658.658.658v-5.2Z" transform="translate(-6916.607 -8988.023)" fill="#ffda75"/><path d="M902.546,458.944h6.087v-5.2l-.561.7-.561-.7-.562.7-.561-.7-.561.7-.7-.7-.561.7-.7-.7-.658.658-.6-.605v-.053l-.024.029-.029-.029v.066l-.508.636-.561-.7-.562.7-.561-.7-.561.7-.7-.7-.562.7-.7-.7-.658.658-.658-.658v5.2Z" transform="translate(-6916.607 -8994.446)" fill="#ffda75"/><rect width="58.256" height="5.677" transform="translate(-6043.117 -8554.571)" fill="#ff5656"/><path d="M901.238,427.639l2.159-1.631,1.369,2.333,2.618-.681.373,2.68,2.679.373-.681,2.618,2.332,1.369-1.631,2.159,1.631,2.158-2.332,1.37.681,2.618-2.679.373-.373,2.679-2.618-.681-1.369,2.333-2.159-1.632-2.158,1.632-1.369-2.333-2.618.681-.373-2.679L892.041,443l.681-2.618-2.332-1.37,1.631-2.158-1.631-2.159,2.332-1.369-.681-2.618,2.679-.373.373-2.68,2.618.681,1.369-2.333Z" transform="translate(-6915.457 -8989.235)" fill="#ab2e2e"/><path d="M894.274,433.715v1.777h-.986v-1.777h-.478v-.577h.478v-2.525h1.294c.048,0,.094,0,.14,0s.094,0,.14.009a1.59,1.59,0,0,1,.6.162.508.508,0,0,1,.274.5v1.788a.539.539,0,0,1-.269.453,1.636,1.636,0,0,1-.9.185Zm.434-2.5a.281.281,0,0,0-.106-.019h-.329v1.941h.309a.507.507,0,0,0,.12-.012c.033-.008.05-.024.05-.049v-1.788a.071.071,0,0,0-.045-.073" transform="translate(-6915.912 -8990.101)" fill="#fff"/><path d="M898.031,435.505a2.71,2.71,0,0,1-.867-.153.531.531,0,0,1-.378-.541V431.29q0-.286.373-.481a1.907,1.907,0,0,1,.892-.195,1.744,1.744,0,0,1,.862.2.564.564,0,0,1,.354.478v3.528a.529.529,0,0,1-.359.544,2.234,2.234,0,0,1-.806.137h-.07Zm.194-4.28a.456.456,0,0,0-.115-.028.124.124,0,0,0-.035-.006h-.065a.134.134,0,0,0-.04.006.537.537,0,0,0-.129.028c-.04.015-.06.033-.06.058v3.529c0,.041.025.071.075.091a.488.488,0,0,0,.184.03.468.468,0,0,0,.175-.027.092.092,0,0,0,.064-.088V431.29c0-.028-.018-.05-.054-.064" transform="translate(-6916.659 -8990.101)" fill="#fff"/><path d="M901.942,435.492h-1V431.2h-.737v-.584h2.441v.584h-.707Z" transform="translate(-6917.302 -8990.101)" fill="#fff"/><path d="M905.491,433.715h-.508v1.777h-1v-1.777h-.478v-.577h.478v-1.849a.517.517,0,0,1,.334-.472,1.955,1.955,0,0,1,.732-.2c.033,0,.065,0,.1,0s.061,0,.094,0a1.808,1.808,0,0,1,.184.01q.1.009.195.027a1.787,1.787,0,0,1,.587.223.476.476,0,0,1,.27.417v4.2h-.987Zm-.04-2.475a.6.6,0,0,0-.089-.031l-.055-.009-.045,0h-.09a.769.769,0,0,0-.129.021c-.04.01-.06.032-.06.063v1.856h.508v-1.856c0-.016-.013-.03-.04-.042" transform="translate(-6917.922 -8990.101)" fill="#fff"/><path d="M909.23,435.492h-1V431.2H907.5v-.584h2.441v.584h-.707Z" transform="translate(-6918.672 -8990.101)" fill="#fff"/><path d="M912.055,435.505a2.709,2.709,0,0,1-.867-.153.531.531,0,0,1-.378-.541V431.29q0-.286.374-.481a1.906,1.906,0,0,1,.892-.195,1.75,1.75,0,0,1,.862.2.564.564,0,0,1,.353.478v3.528a.529.529,0,0,1-.359.544,2.233,2.233,0,0,1-.806.137h-.07Zm.194-4.28a.454.454,0,0,0-.115-.028.123.123,0,0,0-.035-.006h-.065a.136.136,0,0,0-.04.006.537.537,0,0,0-.129.028c-.04.015-.06.033-.06.058v3.529c0,.041.025.071.075.091a.489.489,0,0,0,.184.03.466.466,0,0,0,.175-.027.092.092,0,0,0,.064-.088V431.29c0-.028-.018-.05-.054-.064" transform="translate(-6919.295 -8990.101)" fill="#fff"/><path d="M896.08,447.367a1.939,1.939,0,0,1-.942-.269,1.081,1.081,0,0,1-.4-1v-6.5a1.09,1.09,0,0,1,.415-.936,1.506,1.506,0,0,1,.919-.309,1.4,1.4,0,0,1,.936.365,1.125,1.125,0,0,1,.421.88v1.076H896.36V439.6a.144.144,0,0,0-.089-.135.445.445,0,0,0-.2-.045.261.261,0,0,0-.174.045.189.189,0,0,0-.062.089v6.559a.151.151,0,0,0,.062.14.552.552,0,0,0,.129.062h.1a.443.443,0,0,0,.185-.062.174.174,0,0,0,.084-.162v-1.054h1.088V446.1a1.181,1.181,0,0,1-.4.892,1.371,1.371,0,0,1-1,.364Z" transform="translate(-6916.273 -8991.555)" fill="#fff"/><path d="M900.65,444.071h-.616v3.274h-1.1v-3.274h-.46v-1.065h.448v-4.652h1.122v4.652h.594v-4.652h1.11v8.991h-1.1Z" transform="translate(-6916.976 -8991.555)" fill="#fff"/><rect width="1.121" height="8.991" transform="translate(-6014.88 -8553.202)" fill="#fff"/><path d="M906.433,444.071v3.274h-1.109v-3.274h-.538v-1.065h.538v-4.653h1.457c.053,0,.1,0,.158.006s.1.01.157.017a1.3,1.3,0,0,1,.678.3,1.147,1.147,0,0,1,.309.925v3.3a1.212,1.212,0,0,1-.3.835,1.287,1.287,0,0,1-1.009.342Zm.488-4.608a.2.2,0,0,0-.118-.033h-.37v3.576h.347a.351.351,0,0,0,.135-.023.087.087,0,0,0,.056-.089v-3.3a.151.151,0,0,0-.05-.135" transform="translate(-6918.163 -8991.555)" fill="#fff"/><path d="M910.882,439.609a.157.157,0,0,0-.084-.14.375.375,0,0,0-.2-.05h-.05a.112.112,0,0,0-.05.011.478.478,0,0,0-.146.045.127.127,0,0,0-.067.123v3.308a.2.2,0,0,0,.073.174.361.361,0,0,0,.162.062h.191a1.559,1.559,0,0,1,.79.292.984.984,0,0,1,.365.863V446.1a1.143,1.143,0,0,1-.409.875,1.419,1.419,0,0,1-.948.381,1.311,1.311,0,0,1-.925-.353,1.242,1.242,0,0,1-.454-.8v-1.166h1.087V446.1a.183.183,0,0,0,.084.151.32.32,0,0,0,.2.062.374.374,0,0,0,.2-.056.185.185,0,0,0,.09-.168V444.3a.078.078,0,0,0-.051-.084.352.352,0,0,0-.106-.016h-.045a1.721,1.721,0,0,1-.235-.017,2.623,2.623,0,0,1-.258-.05,1.562,1.562,0,0,1-.622-.37,1.123,1.123,0,0,1-.286-.852V439.6a1.032,1.032,0,0,1,.314-.8,1.625,1.625,0,0,1,.7-.392.944.944,0,0,1,.2-.045,1.778,1.778,0,0,1,.191-.011h.023a1.423,1.423,0,0,1,.958.359,1.136,1.136,0,0,1,.387.885v1.021h-1.076Z" transform="translate(-6918.979 -8991.555)" fill="#fff"/><path d="M925.437,460.082H869.069a.922.922,0,0,0-.922.922v31.1a.922.922,0,0,0,.922.922h56.368a.922.922,0,0,0,.922-.922V461a.922.922,0,0,0-.922-.922" transform="translate(-6911.278 -8995.638)" fill="#edc095"/><path d="M902.6,460.057h-6.087v5.2l.561-.7.561.7.562-.7.561.7.561-.7.7.7.561-.7.7.7.658-.658.605.6v.053l.024-.029.029.029V465.2l.508-.636.561.7.562-.7.561.7.561-.7.7.7.562-.7.7.7.658-.658.658.658v-5.2Z" transform="translate(-6916.607 -8995.633)" fill="#ffda75"/><path d="M902.546,499.443h6.087v-5.2l-.561.7-.561-.7-.562.7-.561-.7-.561.7-.7-.7-.561.7-.7-.7-.658.658-.6-.6v-.053l-.024.029-.029-.029v.066l-.508.636-.561-.7-.562.7-.561-.7-.561.7-.7-.7-.562.7-.7-.7-.658.658-.658-.658v5.2Z" transform="translate(-6916.607 -9002.056)" fill="#ffda75"/><rect width="58.256" height="5.677" transform="translate(-6043.011 -8521.139)" fill="#ff5656"/><path d="M901.368,468.81l2.158-1.631,1.369,2.333,2.618-.681.373,2.68,2.679.373-.681,2.618,2.332,1.369-1.631,2.159,1.631,2.158-2.332,1.37.681,2.618-2.679.373-.373,2.679-2.618-.681-1.369,2.333-2.158-1.631-2.159,1.631-1.369-2.333-2.618.681-.373-2.679-2.679-.373.68-2.618-2.332-1.37,1.631-2.158-1.631-2.159,2.332-1.369-.68-2.618,2.679-.373.373-2.68,2.618.681,1.369-2.333Z" transform="translate(-6915.482 -8996.972)" fill="#ab2e2e"/><path d="M894.4,474.886v1.777h-.986v-1.777h-.478v-.577h.478v-2.525h1.3c.046,0,.093,0,.139,0s.093,0,.14.009a1.584,1.584,0,0,1,.6.162.509.509,0,0,1,.275.5v1.788a.541.541,0,0,1-.269.453,1.638,1.638,0,0,1-.9.185Zm.434-2.5a.277.277,0,0,0-.1-.018H894.4v1.94h.309a.509.509,0,0,0,.119-.012c.033-.008.049-.024.049-.049V472.46a.071.071,0,0,0-.045-.073" transform="translate(-6915.937 -8997.837)" fill="#fff"/><path d="M898.161,476.674a2.688,2.688,0,0,1-.867-.152.531.531,0,0,1-.378-.541V472.46q0-.286.374-.481a1.907,1.907,0,0,1,.892-.195,1.744,1.744,0,0,1,.862.2.564.564,0,0,1,.354.477v3.528a.529.529,0,0,1-.359.544,2.233,2.233,0,0,1-.806.137h-.07Zm.194-4.279a.45.45,0,0,0-.115-.028.122.122,0,0,0-.035-.006h-.065a.133.133,0,0,0-.04.006.532.532,0,0,0-.129.028c-.04.015-.06.033-.06.058v3.528c0,.041.025.071.075.091a.49.49,0,0,0,.184.03.469.469,0,0,0,.175-.027.092.092,0,0,0,.064-.089V472.46c0-.028-.018-.049-.054-.064" transform="translate(-6916.684 -8997.837)" fill="#fff"/><path d="M902.072,476.663h-1v-4.294h-.737v-.584h2.441v.584h-.707Z" transform="translate(-6917.327 -8997.837)" fill="#fff"/><path d="M905.621,474.886h-.508v1.777h-1v-1.777h-.478v-.577h.478V472.46a.517.517,0,0,1,.334-.472,1.955,1.955,0,0,1,.733-.2c.033,0,.065,0,.1,0s.061,0,.094,0a1.809,1.809,0,0,1,.184.01q.1.009.195.027a1.769,1.769,0,0,1,.587.222.477.477,0,0,1,.27.417v4.2h-.987Zm-.04-2.475a.6.6,0,0,0-.089-.031l-.055-.009-.045,0h-.09a.765.765,0,0,0-.129.021c-.04.01-.06.031-.06.063v1.856h.508v-1.856c0-.016-.013-.03-.04-.042" transform="translate(-6917.947 -8997.837)" fill="#fff"/><path d="M909.36,476.663h-1v-4.294h-.737v-.584h2.441v.584h-.707Z" transform="translate(-6918.696 -8997.837)" fill="#fff"/><path d="M912.185,476.674a2.687,2.687,0,0,1-.867-.152.531.531,0,0,1-.378-.541V472.46q0-.286.373-.481a1.908,1.908,0,0,1,.892-.195,1.75,1.75,0,0,1,.862.2.565.565,0,0,1,.353.477v3.528a.529.529,0,0,1-.359.544,2.233,2.233,0,0,1-.806.137h-.07Zm.194-4.279a.451.451,0,0,0-.115-.028.122.122,0,0,0-.035-.006h-.065a.133.133,0,0,0-.04.006.533.533,0,0,0-.129.028c-.04.015-.06.033-.06.058v3.528c0,.041.025.071.075.091a.491.491,0,0,0,.184.03.47.47,0,0,0,.175-.027.092.092,0,0,0,.064-.089V472.46c0-.028-.018-.049-.054-.064" transform="translate(-6919.319 -8997.837)" fill="#fff"/><path d="M896.21,488.538a1.94,1.94,0,0,1-.942-.269,1.081,1.081,0,0,1-.4-1v-6.5a1.09,1.09,0,0,1,.415-.936,1.507,1.507,0,0,1,.919-.309,1.4,1.4,0,0,1,.936.365,1.125,1.125,0,0,1,.421.88v1.076H896.49v-1.076a.144.144,0,0,0-.089-.135.446.446,0,0,0-.2-.045.263.263,0,0,0-.174.045.19.19,0,0,0-.062.089v6.559a.153.153,0,0,0,.062.14.551.551,0,0,0,.129.062h.1a.443.443,0,0,0,.185-.062.175.175,0,0,0,.084-.162v-1.054h1.087v1.065a1.181,1.181,0,0,1-.4.892,1.371,1.371,0,0,1-1,.364Z" transform="translate(-6916.298 -8999.292)" fill="#fff"/><path d="M900.78,485.242h-.616v3.273h-1.1v-3.273h-.46v-1.065h.448v-4.653h1.122v4.653h.594v-4.653h1.11v8.991h-1.1Z" transform="translate(-6917.001 -8999.292)" fill="#fff"/><rect width="1.121" height="8.991" transform="translate(-6014.774 -8519.769)" fill="#fff"/><path d="M906.563,485.242v3.274h-1.11v-3.274h-.538v-1.065h.538v-4.653h1.458c.052,0,.1,0,.157.006s.1.01.157.017a1.3,1.3,0,0,1,.678.3,1.147,1.147,0,0,1,.309.925v3.3a1.211,1.211,0,0,1-.3.835,1.287,1.287,0,0,1-1.009.342Zm.487-4.608a.2.2,0,0,0-.118-.033h-.369v3.576h.348a.351.351,0,0,0,.134-.023.087.087,0,0,0,.056-.089v-3.3a.153.153,0,0,0-.05-.135" transform="translate(-6918.187 -8999.292)" fill="#fff"/><path d="M911.012,480.779a.156.156,0,0,0-.084-.14.375.375,0,0,0-.2-.05h-.05a.113.113,0,0,0-.05.011.48.48,0,0,0-.146.045.127.127,0,0,0-.067.123v3.308a.2.2,0,0,0,.073.174.36.36,0,0,0,.162.062h.191a1.551,1.551,0,0,1,.79.292.984.984,0,0,1,.365.863v1.805a1.143,1.143,0,0,1-.409.875,1.418,1.418,0,0,1-.948.381,1.311,1.311,0,0,1-.925-.353,1.241,1.241,0,0,1-.454-.8v-1.166h1.087v1.065a.183.183,0,0,0,.084.151.32.32,0,0,0,.2.062.374.374,0,0,0,.2-.056.185.185,0,0,0,.09-.168v-1.794a.078.078,0,0,0-.051-.084.353.353,0,0,0-.107-.016h-.045a1.722,1.722,0,0,1-.235-.017,2.356,2.356,0,0,1-.257-.05,1.564,1.564,0,0,1-.623-.37,1.123,1.123,0,0,1-.286-.852v-3.308a1.032,1.032,0,0,1,.314-.8,1.629,1.629,0,0,1,.7-.392.954.954,0,0,1,.2-.045,1.771,1.771,0,0,1,.191-.011h.023a1.421,1.421,0,0,1,.958.359,1.135,1.135,0,0,1,.387.885v1.021h-1.076Z" transform="translate(-6919.003 -8999.292)" fill="#fff"/><path d="M868.936,459.968c4.7-.185,9.4-.283,14.105-.348,2.351-.04,4.7-.05,7.053-.075l7.052-.024,7.053.024c2.351.024,4.7.032,7.052.074,4.7.066,9.4.162,14.106.349-4.7.186-9.4.284-14.106.35-2.35.042-4.7.05-7.052.074l-7.053.024-7.052-.024c-2.351-.024-4.7-.035-7.053-.076-4.7-.067-9.4-.162-14.105-.348" transform="translate(-6911.425 -8995.532)" fill="#d4a070"/><path d="M939.862,492.251c-.185-2.609-.283-5.218-.348-7.828-.041-1.3-.05-2.609-.075-3.913l-.024-3.914.023-3.913c.025-1.305.033-2.609.075-3.914.065-2.609.162-5.218.349-7.828.186,2.609.283,5.218.349,7.828.042,1.305.049,2.609.075,3.914l.024,3.913-.024,3.914c-.024,1.3-.034,2.609-.075,3.913-.066,2.609-.163,5.218-.348,7.828" transform="translate(-6924.67 -8995.799)" fill="#d4a070"/><path d="M939.862,451.779c-.185-2.609-.283-5.218-.348-7.828-.041-1.3-.05-2.609-.075-3.913l-.024-3.914.023-3.913c.025-1.305.033-2.609.075-3.914.065-2.609.162-5.218.349-7.828.186,2.609.283,5.218.349,7.828.042,1.305.049,2.609.075,3.914l.024,3.913-.024,3.914c-.024,1.3-.034,2.609-.075,3.913-.066,2.609-.163,5.218-.348,7.828" transform="translate(-6924.67 -8988.194)" fill="#d4a070"/><path d="M925.437,379.112H869.069a.922.922,0,0,0-.922.922v31.1a.922.922,0,0,0,.922.922h56.368a.922.922,0,0,0,.922-.922v-31.1a.922.922,0,0,0-.922-.922" transform="translate(-6911.278 -8980.423)" fill="#edc095"/><path d="M902.6,379.086h-6.087v5.2l.561-.7.561.7.562-.7.561.7.561-.7.7.7.561-.7.7.7.658-.658.605.605v.053l.024-.029.029.029v-.066l.508-.636.561.7.562-.7.561.7.561-.7.7.7.562-.7.7.7.658-.658.658.658v-5.2Z" transform="translate(-6916.607 -8980.417)" fill="#ffda75"/><path d="M902.546,418.472h6.087v-5.2l-.561.7-.561-.7-.562.7-.561-.7-.561.7-.7-.7-.561.7-.7-.7-.658.658-.6-.6v-.053l-.024.029-.029-.029v.066l-.508.636-.561-.7-.562.7-.561-.7-.561.7-.7-.7-.562.7-.7-.7-.658.658-.658-.658v5.2Z" transform="translate(-6916.607 -8986.841)" fill="#ffda75"/><rect width="58.256" height="5.677" transform="translate(-6043.174 -8587.083)" fill="#ff5656"/><path d="M901.167,387.6l2.159-1.631,1.369,2.333,2.618-.681.373,2.68,2.679.373-.68,2.618,2.332,1.369-1.631,2.159,1.631,2.158-2.332,1.37.68,2.618-2.679.373-.373,2.679-2.618-.681-1.369,2.333-2.159-1.631-2.159,1.631-1.369-2.333-2.618.681-.373-2.679-2.679-.373.681-2.618-2.332-1.37,1.631-2.158-1.631-2.159,2.332-1.369-.681-2.618,2.679-.373.373-2.68,2.618.681,1.369-2.333Z" transform="translate(-6915.444 -8981.711)" fill="#ab2e2e"/><path d="M894.2,393.681v1.777h-.986v-1.777h-.478V393.1h.478v-2.525h1.3c.046,0,.093,0,.139,0s.093,0,.14.009a1.586,1.586,0,0,1,.6.162.51.51,0,0,1,.274.5v1.788a.541.541,0,0,1-.269.453,1.638,1.638,0,0,1-.9.185Zm.434-2.5a.278.278,0,0,0-.1-.018H894.2v1.94h.309a.51.51,0,0,0,.119-.012c.033-.008.049-.024.049-.049v-1.788a.071.071,0,0,0-.045-.073" transform="translate(-6915.898 -8982.577)" fill="#fff"/><path d="M897.96,395.469a2.686,2.686,0,0,1-.867-.152.531.531,0,0,1-.378-.541v-3.522q0-.286.374-.481a1.906,1.906,0,0,1,.892-.195,1.744,1.744,0,0,1,.862.2.564.564,0,0,1,.354.478v3.528a.529.529,0,0,1-.359.544,2.233,2.233,0,0,1-.806.137h-.07Zm.194-4.279a.456.456,0,0,0-.115-.028.126.126,0,0,0-.035-.006h-.065a.136.136,0,0,0-.04.006.537.537,0,0,0-.129.028c-.04.015-.06.033-.06.058v3.528c0,.041.025.071.075.091a.489.489,0,0,0,.184.03.469.469,0,0,0,.175-.027.092.092,0,0,0,.064-.089v-3.528c0-.028-.018-.05-.054-.064" transform="translate(-6916.646 -8982.577)" fill="#fff"/><path d="M901.87,395.458h-1v-4.294h-.737v-.584h2.441v.584h-.707Z" transform="translate(-6917.289 -8982.577)" fill="#fff"/><path d="M905.42,393.681h-.508v1.777h-1v-1.777h-.478V393.1h.478v-1.849a.517.517,0,0,1,.334-.472,1.956,1.956,0,0,1,.732-.2c.033,0,.065,0,.095,0s.061,0,.094,0a1.788,1.788,0,0,1,.184.01q.1.008.195.027a1.789,1.789,0,0,1,.587.222.477.477,0,0,1,.27.417v4.2h-.987Zm-.04-2.475a.611.611,0,0,0-.089-.031l-.055-.009-.045,0h-.09a.76.76,0,0,0-.129.021c-.04.01-.06.032-.06.063V393.1h.508v-1.856c0-.016-.013-.03-.04-.042" transform="translate(-6917.909 -8982.577)" fill="#fff"/><path d="M909.158,395.458h-1v-4.294h-.737v-.584h2.441v.584h-.707Z" transform="translate(-6918.658 -8982.577)" fill="#fff"/><path d="M911.983,395.469a2.686,2.686,0,0,1-.867-.152.531.531,0,0,1-.378-.541v-3.522q0-.286.374-.481a1.906,1.906,0,0,1,.892-.195,1.75,1.75,0,0,1,.862.2.565.565,0,0,1,.353.478v3.528a.529.529,0,0,1-.359.544,2.232,2.232,0,0,1-.806.137h-.07Zm.194-4.279a.455.455,0,0,0-.115-.028.126.126,0,0,0-.035-.006h-.065a.137.137,0,0,0-.04.006.535.535,0,0,0-.129.028c-.04.015-.06.033-.06.058v3.528c0,.041.025.071.075.091a.49.49,0,0,0,.184.03.469.469,0,0,0,.175-.027.092.092,0,0,0,.064-.089v-3.528c0-.028-.018-.05-.054-.064" transform="translate(-6919.281 -8982.577)" fill="#fff"/><path d="M896.008,407.333a1.94,1.94,0,0,1-.942-.269,1.081,1.081,0,0,1-.4-1v-6.5a1.09,1.09,0,0,1,.415-.936,1.508,1.508,0,0,1,.919-.309,1.4,1.4,0,0,1,.936.365,1.125,1.125,0,0,1,.421.88v1.076h-1.065v-1.076a.144.144,0,0,0-.089-.135.446.446,0,0,0-.2-.045.263.263,0,0,0-.174.045.2.2,0,0,0-.062.089v6.559a.153.153,0,0,0,.062.14.557.557,0,0,0,.129.062h.1a.443.443,0,0,0,.185-.062.175.175,0,0,0,.084-.162V405h1.087v1.065a1.181,1.181,0,0,1-.4.892,1.371,1.371,0,0,1-1,.364Z" transform="translate(-6916.26 -8984.031)" fill="#fff"/><path d="M900.579,404.037h-.616v3.273h-1.1v-3.273h-.46v-1.065h.448v-4.653h1.121v4.653h.594v-4.653h1.11v8.991h-1.1Z" transform="translate(-6916.963 -8984.031)" fill="#fff"/><rect width="1.121" height="8.991" transform="translate(-6014.938 -8585.713)" fill="#fff"/><path d="M906.362,404.037v3.274h-1.11v-3.274h-.538v-1.065h.538v-4.653h1.458c.052,0,.1,0,.157.006s.1.01.157.017a1.3,1.3,0,0,1,.678.3,1.146,1.146,0,0,1,.308.925v3.3a1.211,1.211,0,0,1-.3.835,1.287,1.287,0,0,1-1.009.342Zm.487-4.608a.2.2,0,0,0-.118-.033h-.37v3.576h.348a.351.351,0,0,0,.134-.023.087.087,0,0,0,.056-.089v-3.3a.153.153,0,0,0-.05-.135" transform="translate(-6918.149 -8984.031)" fill="#fff"/><path d="M910.81,399.574a.156.156,0,0,0-.084-.14.376.376,0,0,0-.2-.05h-.05a.112.112,0,0,0-.05.011.479.479,0,0,0-.146.045.127.127,0,0,0-.067.123v3.308a.2.2,0,0,0,.073.174.361.361,0,0,0,.162.062h.191a1.559,1.559,0,0,1,.79.292.984.984,0,0,1,.365.863v1.805a1.143,1.143,0,0,1-.409.875,1.418,1.418,0,0,1-.948.381,1.31,1.31,0,0,1-.925-.353,1.242,1.242,0,0,1-.454-.8V405h1.087v1.065a.183.183,0,0,0,.084.151.32.32,0,0,0,.2.062.373.373,0,0,0,.2-.056.185.185,0,0,0,.09-.168v-1.794a.078.078,0,0,0-.051-.084.351.351,0,0,0-.106-.016h-.045a1.722,1.722,0,0,1-.235-.017,2.355,2.355,0,0,1-.257-.05,1.564,1.564,0,0,1-.623-.37,1.124,1.124,0,0,1-.286-.852v-3.308a1.032,1.032,0,0,1,.314-.8,1.629,1.629,0,0,1,.7-.392.954.954,0,0,1,.2-.045,1.772,1.772,0,0,1,.191-.011h.023a1.422,1.422,0,0,1,.958.359,1.135,1.135,0,0,1,.386.885v1.021H910.81Z" transform="translate(-6918.966 -8984.031)" fill="#fff"/><path d="M868.936,419.5c4.7-.185,9.4-.283,14.105-.348,2.351-.041,4.7-.05,7.053-.075l7.052-.024,7.053.024c2.351.025,4.7.033,7.052.075,4.7.066,9.4.163,14.106.349-4.7.187-9.4.284-14.106.349-2.35.042-4.7.049-7.052.075l-7.053.024-7.052-.024c-2.351-.024-4.7-.034-7.053-.075-4.7-.066-9.4-.163-14.105-.348" transform="translate(-6911.425 -8987.927)" fill="#d4a070"/><path d="M939.862,411.307c-.185-2.609-.283-5.218-.348-7.828-.041-1.3-.05-2.609-.075-3.913l-.024-3.914.023-3.913c.025-1.3.033-2.609.075-3.914.065-2.609.162-5.218.349-7.828.186,2.609.283,5.218.349,7.828.042,1.305.049,2.609.075,3.914l.024,3.913-.024,3.914c-.024,1.3-.034,2.609-.075,3.913-.066,2.609-.163,5.218-.348,7.828" transform="translate(-6924.67 -8980.588)" fill="#d4a070"/><rect width="89.397" height="3.755" transform="translate(-6054.175 -8502.645)" fill="#333"/><rect width="7.51" height="4.256" transform="translate(-6042.909 -8500.142)" fill="#333"/><rect width="7.511" height="4.256" transform="translate(-5983.304 -8500.142)" fill="#333"/><rect width="7.51" height="4.256" transform="translate(-6013.231 -8500.142)" fill="#333"/></g></g></svg>