<svg xmlns="http://www.w3.org/2000/svg" width="135" height="135" viewBox="0 0 135 135"><g transform="translate(-810 -5860)"><g transform="translate(810 5860)" fill="#fff" stroke="#f14141" stroke-width="3"><circle cx="67.5" cy="67.5" r="67.5" stroke="none"/><circle cx="67.5" cy="67.5" r="66" fill="none"/></g><g transform="translate(833.001 5882)"><path d="M103.446,39.321v62.226H40V39.321L71.723,32Z" transform="translate(-27.12 -20.34)" fill="#0093b9"/><path d="M104,168h43.924v48.8H104Z" transform="translate(-81.36 -135.598)" fill="#e3e4e2"/><path d="M103.446,39.321v5.288L71.723,36.951,40,44.608V39.321L71.723,32Z" transform="translate(-27.12 -20.34)" fill="#0884a9"/><rect width="9.984" height="4.992" rx="2.496" transform="translate(49.587 26.403) rotate(180)" fill="#57c3c1"/><path d="M86.766,24.541,51.383,16,16,24.541v4.88L51.383,20.88l35.383,8.541Z" transform="translate(-6.781 -6.78)" fill="#e3e4e2"/><path d="M104,168h43.924v20.742H104Z" transform="translate(-81.36 -135.598)" fill="#c9c9c8"/><path d="M59.924,271.043V251.522H37.962V232H16v39.043Z" transform="translate(-6.781 -189.837)" fill="#f8bc1e"/><path d="M208,360h7.321v7.321H208Z" transform="translate(-169.498 -298.315)" fill="#f9da62"/><path d="M188.742,368h-1.83a1.83,1.83,0,0,0-1.83,1.83v3.1a9.715,9.715,0,0,1-9.714,9.714H169.83a1.83,1.83,0,0,0-1.83,1.83v1.83h20.742Z" transform="translate(-135.599 -305.095)" fill="#f5a922"/><path d="M64,360h7.321v7.321H64Z" transform="translate(-47.46 -298.315)" fill="#f9da62"/><path d="M44.742,368h-1.83a1.83,1.83,0,0,0-1.83,1.83v3.1a9.715,9.715,0,0,1-9.714,9.714H25.83a1.83,1.83,0,0,0-1.83,1.83v1.83H44.742Z" transform="translate(-13.561 -305.095)" fill="#f5a922"/><path d="M64,232h7.321v7.321H64Z" transform="translate(-47.46 -189.837)" fill="#f9da62"/><path d="M44.742,240h-1.83a1.83,1.83,0,0,0-1.83,1.83v3.1a9.715,9.715,0,0,1-9.714,9.714H25.83a1.83,1.83,0,0,0-1.83,1.83v1.83H44.742Z" transform="translate(-13.561 -196.617)" fill="#f5a922"/><path d="M120,448h2.44v2.44H120Z" transform="translate(-94.919 -372.894)"/><path d="M53.144,243.522H32.4v-18.3a1.22,1.22,0,0,0-1.22-1.22H9.22A1.22,1.22,0,0,0,8,225.22v39.043a1.22,1.22,0,0,0,1.22,1.22H53.144a1.22,1.22,0,0,0,1.22-1.22V244.742A1.22,1.22,0,0,0,53.144,243.522Zm-13.421,2.44H44.6v4.88h-4.88ZM17.761,226.44h4.88v4.88h-4.88Zm-7.321,0h4.88v6.1a1.22,1.22,0,0,0,1.22,1.22h7.321a1.22,1.22,0,0,0,1.22-1.22v-6.1h4.88v17.082H10.44Zm7.321,19.522h4.88v4.88h-4.88Zm-7.321,0h4.88v6.1a1.22,1.22,0,0,0,1.22,1.22h7.321a1.22,1.22,0,0,0,1.22-1.22v-6.1h4.88v17.082H10.44Zm41.484,17.082H32.4V245.962h4.88v6.1a1.22,1.22,0,0,0,1.22,1.22h7.321a1.22,1.22,0,0,0,1.22-1.22v-6.1h4.88Z" transform="translate(-0.001 -183.057)"/><path d="M264,448h2.44v2.44H264Z" transform="translate(-216.957 -372.894)"/><path d="M120,320h2.44v2.44H120Z" transform="translate(-94.919 -264.416)"/><path d="M79.7,23.827a1.211,1.211,0,0,0,.286.034,1.224,1.224,0,0,0,1.056-.608,1.256,1.256,0,0,0,.164-.641V17.761a1.22,1.22,0,0,0-.934-1.186L44.889,8.034a1.215,1.215,0,0,0-.573,0L8.933,16.575A1.22,1.22,0,0,0,8,17.761v4.846a1.269,1.269,0,0,0,.21.72,1.222,1.222,0,0,0,1.3.5l2.154-.52V38.5H14.1V22.718l30.5-7.363,30.5,7.363V79.986H67.784V32.4a1.22,1.22,0,0,0-1.22-1.22H22.64a1.22,1.22,0,0,0-1.22,1.22v4.88a1.22,1.22,0,0,0,1.22,1.22h42.7v2.44h-30.5v2.44h30.5v2.44h-30.5v2.44h30.5V50.7h-30.5v2.44h30.5V79.986H56.8v2.44h24.4v-2.44h-3.66V23.307ZM23.86,36.062v-2.44H65.344v2.44ZM44.6,12.88a1.211,1.211,0,0,0-.286.034L10.439,21.091v-2.37L44.6,10.475l34.163,8.246v2.37L44.889,12.914A1.211,1.211,0,0,0,44.6,12.88Z"/><path d="M216.541,95.321a3.66,3.66,0,1,0,0-7.321h-4.88a3.66,3.66,0,1,0,0,7.321Zm-6.1-3.66a1.221,1.221,0,0,1,1.22-1.22h4.88a1.22,1.22,0,1,1,0,2.44h-4.88A1.221,1.221,0,0,1,210.44,91.66Z" transform="translate(-169.498 -67.799)"/></g></g></svg>