<svg xmlns="http://www.w3.org/2000/svg" width="220.689" height="203.117" viewBox="0 0 220.689 203.117"><g transform="translate(8682 4604.559)"><g transform="translate(-8681.621 -4598.583)"><path d="M115.9,0A33.619,33.619,0,0,0,92.127,9.847L0,101.974H35.193a33.619,33.619,0,0,0,23.773-9.847L151.093,0Z" transform="matrix(0.998, -0.07, 0.07, 0.998, -0.379, 4.564)" fill="#fde2e2"/><path d="M144.875,0a42.024,42.024,0,0,0-29.716,12.309L0,127.468H43.991a42.024,42.024,0,0,0,29.716-12.309L188.866,0Z" transform="matrix(0.998, -0.07, 0.07, 0.998, 23.012, 69.985)" fill="#fde2e2"/></g><g transform="translate(-8683.691 -4568.598)"><g transform="translate(65.144 1.898)"><path d="M134.049,7.5h61.739V69.244H134.049Z" transform="translate(-118.026 -7.5)" fill="#ffc73b"/><path d="M195.788,7.5V69.244H134.049V62.41h54.905V7.5Z" transform="translate(-118.026 -7.5)" fill="#ffa73e"/><path d="M237.127,7.5H217.776V31.687l9.675-8.846,9.675,8.846Z" transform="translate(-180.56 -7.5)" fill="#ff5a39"/><g transform="translate(0 61.056)"><path d="M139.778,471.074h21.986v8.461H139.778Z" transform="translate(-122.305 -414.788)" fill="#4c7889"/><path d="M139.778,487.787h21.986v4.23H139.778Z" transform="translate(-122.305 -427.271)" fill="#364c59"/><path d="M108.566,284.714l-13.643-14.3A6.27,6.27,0,0,0,86.068,270a6.422,6.422,0,0,0-.413,8.978l-5.338-5.862a4.6,4.6,0,0,1-1.2-3.1V256.1a7.392,7.392,0,0,0-7.389-7.389h-.98v25.406a13.564,13.564,0,0,0,3.6,9.2l9.335,10.11a17,17,0,0,1,4.541,11.568h21.986V288.817A5.951,5.951,0,0,0,108.566,284.714Z" transform="translate(-70.749 -248.71)" fill="#ffd9c0"/><path d="M110.208,299.932v5.062H88.222a17,17,0,0,0-4.541-11.568l-9.335-10.11a13.564,13.564,0,0,1-3.6-9.2V248.71h.98a7.309,7.309,0,0,1,3.351.8V272.7a8.469,8.469,0,0,0,2.255,5.766L87.4,289.992a21.985,21.985,0,0,1,5.3,9.94Z" transform="translate(-70.749 -248.71)" fill="#ffbca1"/></g><g transform="translate(54.324 61.055)"><path d="M0,0H21.986V8.461H0Z" transform="translate(21.987 64.747) rotate(180)" fill="#4c7889"/><path d="M0,0H21.986V4.23H0Z" transform="translate(21.987 64.747) rotate(180)" fill="#364c59"/><path d="M285.365,288.814v16.177h21.986a17,17,0,0,1,4.541-11.568l9.335-10.11a13.564,13.564,0,0,0,3.6-9.2V248.707h-.98a7.392,7.392,0,0,0-7.389,7.389v13.917a4.6,4.6,0,0,1-1.2,3.1l-5.338,5.862a6.422,6.422,0,0,0-.413-8.978,6.27,6.27,0,0,0-8.854.415l-13.643,14.3A5.952,5.952,0,0,0,285.365,288.814Z" transform="translate(-285.365 -248.707)" fill="#ffd9c0"/><path d="M285.365,299.929v5.062h21.986a17,17,0,0,1,4.541-11.568l9.335-10.11a13.564,13.564,0,0,0,3.6-9.2V248.707h-.98a7.309,7.309,0,0,0-3.351.8V272.7a8.469,8.469,0,0,1-2.255,5.766l-10.067,11.522a21.985,21.985,0,0,0-5.3,9.94Z" transform="translate(-285.365 -248.707)" fill="#ffbca1"/></g></g><g transform="translate(63.244)"><path d="M90.7,263.512a8.13,8.13,0,0,0-13.9,3.474l-.687-.755a2.7,2.7,0,0,1-.7-1.821V250.494a9.3,9.3,0,0,0-9.288-9.288h-.98a1.9,1.9,0,0,0-1.9,1.9v6.861a1.9,1.9,0,1,0,3.8,0V245.08a5.5,5.5,0,0,1,4.572,5.414v13.915a6.487,6.487,0,0,0,1.695,4.378l13.031,14.061a1.9,1.9,0,0,0,2.769-2.6l-7.663-8.166a4.516,4.516,0,0,1,.295-6.285,4.369,4.369,0,0,1,6.172.288l.03.032,13.643,14.3a4.029,4.029,0,0,1,1.118,2.792v14.28H84.42a18.843,18.843,0,0,0-4.949-10.96l-9.335-10.109a11.631,11.631,0,0,1-3.095-7.913v-9.72a1.9,1.9,0,1,0-3.8,0v9.72a15.418,15.418,0,0,0,4.1,10.49l9.338,10.112a15.07,15.07,0,0,1,4.034,10.279v8.462a1.9,1.9,0,0,0,1.9,1.9H104.6a1.9,1.9,0,0,0,1.9-1.9V283.213a7.809,7.809,0,0,0-2.168-5.413Zm12,42.442H84.515V301.29H102.7Z" transform="translate(-63.244 -180.151)"/><path d="M319.222,260.134a1.9,1.9,0,0,0,1.9-1.9V243.106a1.9,1.9,0,0,0-1.9-1.9h-.98a9.3,9.3,0,0,0-9.288,9.288v13.915a2.7,2.7,0,0,1-.7,1.821l-.687.755a8.145,8.145,0,0,0-13.9-3.474L280.032,277.8a7.809,7.809,0,0,0-2.168,5.413v24.639a1.9,1.9,0,0,0,1.9,1.9h21.986a1.9,1.9,0,0,0,1.9-1.9v-8.461a15.072,15.072,0,0,1,4.036-10.282L317.018,279a15.418,15.418,0,0,0,4.1-10.49v-1.452a1.9,1.9,0,0,0-3.8,0v1.452a11.631,11.631,0,0,1-3.095,7.913L304.9,286.532a18.846,18.846,0,0,0-4.952,10.963H281.661v-14.28a4.029,4.029,0,0,1,1.118-2.792l13.643-14.3.03-.032a4.369,4.369,0,0,1,6.172-.288,4.516,4.516,0,0,1,.295,6.285l-7.663,8.166a1.9,1.9,0,0,0,2.769,2.6l13.031-14.061a6.489,6.489,0,0,0,1.695-4.378V250.5a5.5,5.5,0,0,1,4.572-5.414v13.154A1.9,1.9,0,0,0,319.222,260.134ZM299.85,301.291v4.664H281.661v-4.664Z" transform="translate(-223.539 -180.153)"/><path d="M128.443,65.54h61.739a1.9,1.9,0,0,0,1.9-1.9V1.9a1.9,1.9,0,0,0-1.9-1.9H128.443a1.9,1.9,0,0,0-1.9,1.9v8.214a1.9,1.9,0,0,0,3.8,0V3.8h17.4V26.085a1.9,1.9,0,0,0,3.179,1.4l8.394-7.675,8.395,7.675a1.9,1.9,0,0,0,3.179-1.4V3.8h17.4V61.743H130.342V18.9a1.9,1.9,0,1,0-3.8,0V63.642A1.9,1.9,0,0,0,128.443,65.54ZM167.09,21.777l-6.5-5.939a1.9,1.9,0,0,0-2.562,0l-6.5,5.939V3.8H167.09v17.98Z" transform="translate(-110.522)"/><path d="M174.271,207.379a1.9,1.9,0,0,0,0-3.8h-5.6a1.9,1.9,0,1,0,0,3.8Z" transform="translate(-140.564 -152.051)"/><path d="M238.222,207.379a1.9,1.9,0,0,0,0-3.8H225.541a1.9,1.9,0,0,0,0,3.8Z" transform="translate(-183.042 -152.051)"/></g></g></g></svg>