<svg xmlns="http://www.w3.org/2000/svg" width="220.689" height="203.118" viewBox="0 0 220.689 203.118"><g transform="translate(8682 4604.559)"><g transform="translate(-8681.621 -4598.583)"><path d="M115.9,0A33.619,33.619,0,0,0,92.127,9.847L0,101.974H35.193a33.619,33.619,0,0,0,23.773-9.847L151.093,0Z" transform="matrix(0.998, -0.07, 0.07, 0.998, -0.379, 4.564)" fill="#fde2e2"/><path d="M144.875,0a42.024,42.024,0,0,0-29.716,12.309L0,127.468H43.991a42.024,42.024,0,0,0,29.716-12.309L188.866,0Z" transform="matrix(0.998, -0.07, 0.07, 0.998, 23.012, 69.985)" fill="#fde2e2"/></g><g transform="translate(-8667.172 -4568)"><g transform="translate(43.617 1.883)"><path d="M130.759,188.2c-3.654,0-6.628-3.594-6.673-8.062-.046-4.547,2.956-8.262,6.673-8.262Z" transform="translate(-105.297 -130.619)" fill="#ffab8a"/><g transform="translate(0 41.26)"><path d="M153.033,419.861v5.492H49.234v-5.492a15.378,15.378,0,0,1,12.462-15.1l4.214-.836,10.326-2.046,15.412-3.052h18.73l8.77,1.724,6.777,1.33,10.324,2.028,4.325.851A15.378,15.378,0,0,1,153.033,419.861Z" transform="translate(-49.234 -341.865)" fill="#3eb1ff"/><path d="M412.689,435.029v5.492h-6.275v-5.492c0-7.367-3.276-14.551-10.509-15.949l4.325.851A15.378,15.378,0,0,1,412.689,435.029Z" transform="translate(-308.889 -357.032)" fill="#4390ff"/><path d="M334.551,407.03V430.5h-6.777V405.7Z" transform="translate(-257.86 -347.01)" fill="#4390ff"/><path d="M156.814,467.63H206.5v9.222H156.814Z" transform="translate(-129.811 -393.396)" fill="#668fa3"/><path d="M327.774,467.63h6.777v9.222h-6.777Z" transform="translate(-257.86 -393.396)" fill="#4c7889"/><g transform="translate(16.677 60.017)"><path d="M126,410.99v23.439H115.674V413.036Z" transform="translate(-115.674 -410.99)" fill="#668fa3"/><path d="M365.1,413.028v21.408H354.774V411l5.2,1.022Z" transform="translate(-294.759 -410.997)" fill="#668fa3"/></g><path d="M380.6,416.077v21.408h-5.128V415.07Z" transform="translate(-293.587 -354.029)" fill="#4c7889"/><path d="M354.774,467.63H365.1v9.222H354.774Z" transform="translate(-278.083 -393.396)" fill="#d4efff"/><path d="M115.677,467.634H126v9.221H115.677Z" transform="translate(-99 -393.399)" fill="#d4efff"/><path d="M375.474,467.63H380.6v9.222h-5.128Z" transform="translate(-293.587 -393.396)" fill="#b7d4e2"/><path d="M235.689,359.654a12.858,12.858,0,0,0,1.255,4.026,9.365,9.365,0,0,1-18.73,0,12.553,12.553,0,0,0,.8-1.97,12.887,12.887,0,0,0,.457-2.053c.028-.2.05-.392.065-.59a12.782,12.782,0,0,0-.738-5.585l-.582-1.581h18.73l-.582,1.581a12.813,12.813,0,0,0-.735,5.585C235.641,359.262,235.661,359.458,235.689,359.654Z" transform="translate(-175.8 -306.714)" fill="#ffd9c0"/><g transform="translate(78.3)"><path d="M361.182,188.2c3.654,0,6.628-3.594,6.673-8.062.046-4.547-2.956-8.262-6.673-8.262Z" transform="translate(-361.182 -171.879)" fill="#ffab8a"/></g><path d="M236.361,353.481a12.813,12.813,0,0,0-.735,5.585,18.49,18.49,0,0,1-16.092,0,12.782,12.782,0,0,0-.738-5.585l-.582-1.581h18.73Z" transform="translate(-175.8 -306.714)" fill="#ffbca1"/><path d="M202.917,193.654c0,6.355-5.4,13.948-16.067,22.573a16.709,16.709,0,0,1-10.258,3.74c-.108.005-.216.005-.324.005a16.732,16.732,0,0,1-10.595-3.752c-10.655-8.619-16.059-16.212-16.059-22.565,0-.675.025-1.35.083-2,.276-2.811.336-11.506.183-19.776l47.562.01h5.276c-.146,8.173-.158,16.975.115,19.749C202.889,192.3,202.917,192.979,202.917,193.654Z" transform="translate(-124.418 -171.88)" fill="#ffd9c0"/><path d="M283.419,193.684c0,6.355-5.4,13.948-16.067,22.573A16.709,16.709,0,0,1,257.094,220a11.9,11.9,0,0,0,8.148-3.74c8.534-8.624,12.861-16.217,12.861-22.573,0-.675-.023-1.35-.068-2.016-.218-2.774-.208-11.576-.09-19.749h5.276c-.146,8.173-.158,16.975.115,19.749C283.392,192.334,283.419,193.009,283.419,193.684Z" transform="translate(-204.921 -171.91)" fill="#ffbca1"/></g><g transform="translate(14.636)"><g transform="translate(7.402 4.174)"><path d="M196.4,47.533v9.8h-59.37v-9.8a23.406,23.406,0,0,1,23.408-23.4H173a23.406,23.406,0,0,1,23.408,23.4Z" transform="translate(-137.034 -24.13)" fill="#ffc73b"/><g transform="translate(34.011)"><path d="M297.893,47.533v9.8h-7.344v-9.8c0-12.924-7.628-23.4-18.014-23.4h1.95A23.406,23.406,0,0,1,297.893,47.533Z" transform="translate(-272.534 -24.13)" fill="#ffa73e"/></g></g><path d="M137.034,117.37H196.4v9.8h-59.37Z" transform="translate(-129.632 -89.792)" fill="#ffa73e"/><g transform="translate(59.427 27.578)"><path d="M344.3,117.37h7.344v9.8H344.3Z" transform="translate(-344.304 -117.37)" fill="#ff8440"/></g><path d="M181.831,156.43v3.341A5.034,5.034,0,0,1,176.8,164.8H112.579a5.034,5.034,0,0,1-5.035-5.033V156.43Z" transform="translate(-107.544 -119.048)" fill="#ffc73b"/><path d="M366.009,156.43v3.341a5.034,5.034,0,0,1-5.035,5.033h-7.53a5.035,5.035,0,0,0,5.035-5.035V156.43Z" transform="translate(-291.723 -119.048)" fill="#ffa73e"/><path d="M239.614,7.5h8.263V44.882h-8.263Z" transform="translate(-206.464 -7.5)" fill="#ffa73e"/><path d="M239.614,117.37h8.263v9.8h-8.263Z" transform="translate(-206.464 -89.792)" fill="#ff8440"/></g></g><g transform="translate(41.734 0)"><path d="M135.317,104.193l-29.245-5.746a10.924,10.924,0,0,1-.128-7.887l.322-.873q.494-.35.965-.733C118.355,79.955,124,71.868,124,64.916c0-.726-.03-1.456-.089-2.171,0-.01,0-.02,0-.029-.039-.393-.072-.937-.1-1.616,3.768-1.009,6.62-4.964,6.668-9.677a11.777,11.777,0,0,0-.232-2.467,6.927,6.927,0,0,0,4.182-6.352V39.266a1.882,1.882,0,0,0-1.883-1.883h-5.631V29.46A25.318,25.318,0,0,0,101.615,4.174h-.067V1.883A1.882,1.882,0,0,0,99.666,0H91.4A1.883,1.883,0,0,0,89.52,1.883V4.174h-.458A25.317,25.317,0,0,0,63.771,29.46v7.923H58.252a1.883,1.883,0,0,0-1.883,1.883V42.6a6.928,6.928,0,0,0,4.372,6.431,11.833,11.833,0,0,0-.219,2.388c.047,4.686,2.868,8.624,6.605,9.66-.032.687-.069,1.25-.11,1.668-.06.671-.09,1.4-.09,2.165,0,6.95,5.638,15.035,16.754,24.027q.39.317.795.611l.371,1.005a10.924,10.924,0,0,1-.129,7.889l-29,5.744a17.29,17.29,0,0,0-13.985,16.947v5.491a1.883,1.883,0,0,0,1.883,1.883H103.43a1.883,1.883,0,1,0,0-3.765H72.5V119.26h45.922v5.488h-6.159a1.883,1.883,0,1,0,0,3.765h35.15a1.882,1.882,0,0,0,1.883-1.883v-5.492a17.289,17.289,0,0,0-13.98-16.946Zm-6.568,11.3h-6.561V105.45l6.561,1.289Zm-2.043-64.109a6.518,6.518,0,0,1-2.993,5.735c-.023-2.12-.023-4.694,0-7.6h2.793a8.044,8.044,0,0,1,.2,1.865ZM101.615,7.939a21.554,21.554,0,0,1,21.445,19.638h-8.043a1.883,1.883,0,0,0,0,3.765h8.124v6.04H101.549V7.939Zm-8.33,23.4h4.5v6.04h-4.5Zm4.5-27.578V27.578h-4.5V3.765ZM67.536,31.343H75.66a1.883,1.883,0,0,0,0-3.765H67.618A21.554,21.554,0,0,1,89.063,7.939h.458V37.383H67.536ZM64.287,51.386a8.058,8.058,0,0,1,.2-1.865h2.785c.015,2.823,0,5.411-.031,7.578A6.538,6.538,0,0,1,64.287,51.386Zm6.406,13.53c0-.654.025-1.27.074-1.813.239-2.426.3-8.291.269-13.582H75.3a1.883,1.883,0,1,0,0-3.765H63.288A3.156,3.156,0,0,1,60.135,42.6V41.148h70.521V42.6a3.156,3.156,0,0,1-3.153,3.152H84.1a1.883,1.883,0,1,0,0,3.765h35.846c-.034,4.2-.043,10.989.207,13.55.05.607.075,1.228.075,1.846,0,5.678-5.314,12.978-15.371,21.113A14.876,14.876,0,0,1,95.5,89.352h-.038a14.973,14.973,0,0,1-9.407-3.333C76,77.89,70.693,70.593,70.693,64.916Zm24.731,28.2h.084a18.6,18.6,0,0,0,6.177-1.06,14.666,14.666,0,0,0,1.183,8.459,7.483,7.483,0,0,1-14.943,0A14.669,14.669,0,0,0,89.1,92a18.614,18.614,0,0,0,6.325,1.112ZM62.175,106.751l6.561-1.3v10.043H62.175Zm-16.676,18v-3.609a13.521,13.521,0,0,1,10.943-13.252l1.968-.39v17.251Zm23.237-.033H62.175V119.26h6.561Zm3.765-9.221V104.706l11.87-2.351a11.258,11.258,0,0,0,11.025,9,11.266,11.266,0,0,0,11.022-9l12.005,2.359v10.784H72.5Zm56.248,3.765v5.456h-6.561V119.26Zm16.783,5.488H132.514V107.479l2.083.409a13.519,13.519,0,0,1,10.935,13.251Z" transform="translate(-41.734 0)"/><path d="M229.827,284.744a8.858,8.858,0,0,0,8.548-6.552,1.883,1.883,0,0,0-3.637-.974,5.085,5.085,0,0,1-9.819,0,1.883,1.883,0,1,0-3.637.974,8.857,8.857,0,0,0,8.546,6.552Z" transform="translate(-176.166 -206.589)"/></g></g></g></svg>