<svg xmlns="http://www.w3.org/2000/svg" width="220.688" height="203.118" viewBox="0 0 220.688 203.118"><g transform="translate(8682 4604.559)"><g transform="translate(-8681.621 -4598.583)"><path d="M115.9,0A33.619,33.619,0,0,0,92.127,9.847L0,101.974H35.193a33.619,33.619,0,0,0,23.773-9.847L151.093,0Z" transform="matrix(0.998, -0.07, 0.07, 0.998, -0.379, 4.564)" fill="#fde2e2"/><path d="M144.875,0a42.024,42.024,0,0,0-29.716,12.309L0,127.468H43.991a42.024,42.024,0,0,0,29.716-12.309L188.866,0Z" transform="matrix(0.998, -0.07, 0.07, 0.998, 23.012, 69.985)" fill="#fde2e2"/></g><g transform="translate(-8639.888 -4577.65)"><g transform="translate(1.999 10.205)"><g transform="translate(0 27.703)"><g transform="translate(0 31.907)"><g transform="translate(89.013)"><path d="M384.922,375.7H341.47V358.419a15.088,15.088,0,0,1,15.089-15.089h13.275a15.089,15.089,0,0,1,15.089,15.089V375.7Z" transform="translate(-341.47 -315.619)" fill="#27d1b3"/><g transform="translate(14.946 27.711)"><path d="M410.567,363.575l-5.189,4.562a1.591,1.591,0,0,1-2.1,0l-5.189-4.562a1.591,1.591,0,0,1-.491-1.59l4.779-18.654h3.9l4.779,18.654a1.592,1.592,0,0,1-.491,1.59Z" transform="translate(-397.548 -343.331)" fill="#fb4a59"/></g><path d="M441.366,358.419V375.7h-7.853V358.419a15.091,15.091,0,0,0-15.089-15.089h7.853A15.091,15.091,0,0,1,441.366,358.419Z" transform="translate(-397.913 -315.619)" fill="#20b69f"/><g transform="translate(9.425)"><path d="M389.134,268.4a12.3,12.3,0,0,1-12.3-12.3v-4.44a12.3,12.3,0,0,1,24.6,0v4.44A12.3,12.3,0,0,1,389.134,268.4Z" transform="translate(-376.833 -239.36)" fill="#ffcec0"/><path d="M424.574,251.666V256.1a12.309,12.309,0,0,1-16.194,11.672,12.308,12.308,0,0,0,8.4-11.672v-4.439a12.312,12.312,0,0,0-8.4-11.672,12.3,12.3,0,0,1,16.194,11.672Z" transform="translate(-399.972 -239.364)" fill="#fdb0a0"/></g></g><path d="M50.952,375.7H7.5V358.419A15.089,15.089,0,0,1,22.589,343.33H35.864a15.088,15.088,0,0,1,15.089,15.089V375.7Z" transform="translate(-7.5 -315.619)" fill="#fb4a59"/><g transform="translate(14.946 27.711)"><path d="M76.6,363.575l-5.189,4.562a1.591,1.591,0,0,1-2.1,0l-5.189-4.562a1.591,1.591,0,0,1-.491-1.59l4.779-18.654h3.9l4.779,18.654A1.592,1.592,0,0,1,76.6,363.575Z" transform="translate(-63.578 -343.331)" fill="#f8f3f1"/></g><path d="M107.4,358.419V375.7H99.543V358.419A15.091,15.091,0,0,0,84.454,343.33h7.853A15.091,15.091,0,0,1,107.4,358.419Z" transform="translate(-63.943 -315.619)" fill="#f82f40"/><g transform="translate(9.425)"><path d="M55.164,268.4a12.3,12.3,0,0,1-12.3-12.3v-4.44a12.3,12.3,0,0,1,24.6,0v4.44a12.3,12.3,0,0,1-12.3,12.3Z" transform="translate(-42.863 -239.36)" fill="#ffcec0"/><path d="M90.6,251.666V256.1A12.309,12.309,0,0,1,74.41,267.777a12.308,12.308,0,0,0,8.4-11.672v-4.439a12.312,12.312,0,0,0-8.4-11.672A12.3,12.3,0,0,1,90.6,251.666Z" transform="translate(-66.002 -239.364)" fill="#fdb0a0"/></g></g><g transform="translate(35.704)"><path d="M202.516,364.864H141.458V338.306a21.2,21.2,0,0,1,21.2-21.2h18.654a21.2,21.2,0,0,1,21.2,21.2v26.557Z" transform="translate(-141.458 -264.476)" fill="#0d5f7f"/><path d="M281.827,338.306v26.557H270.792V338.306a21.206,21.206,0,0,0-21.2-21.2h11.035A21.206,21.206,0,0,1,281.827,338.306Z" transform="translate(-220.77 -264.476)" fill="#094c66"/><path d="M227.477,318.278,211.2,349.287l-16.281-31.009a21.228,21.228,0,0,1,6.956-1.167h18.65A21.228,21.228,0,0,1,227.477,318.278Z" transform="translate(-180.668 -264.481)" fill="#fff"/><path d="M241.444,333.458l-8.309,15.828-8.309-15.828,5.984-16.347h4.649Z" transform="translate(-202.606 -264.481)" fill="#fb4a59"/><g transform="translate(2.498)"><g transform="translate(0 25.749)"><circle cx="6.547" cy="6.547" r="6.547" fill="#fdb0a0"/></g><g transform="translate(42.969 25.749)"><circle cx="6.547" cy="6.547" r="6.547" fill="#f69583"/></g><g transform="translate(10.747 13.689)"><path d="M208.434,211.817a17.285,17.285,0,0,1-17.285-17.285v-6.24a17.285,17.285,0,1,1,34.57,0v6.24A17.285,17.285,0,0,1,208.434,211.817Z" transform="translate(-191.149 -171.007)" fill="#ffcec0"/><path d="M261.86,188.291v6.238a17.283,17.283,0,0,1-17.285,17.285,17.111,17.111,0,0,1-4.152-.5,17.285,17.285,0,0,0,13.129-16.78v-6.238a17.294,17.294,0,0,0-13.129-16.781,17.282,17.282,0,0,1,21.437,16.781Z" transform="translate(-227.29 -171.006)" fill="#fdb0a0"/></g><path d="M277.748,155.277c-3.462.344-10.365.715-16.283-.9A9.7,9.7,0,0,1,254.372,145v-6.6a6.056,6.056,0,0,1,6.056-6.056h4.556a14.983,14.983,0,0,1,14.983,14.983v5.492a2.461,2.461,0,0,1-2.22,2.452Z" transform="translate(-226.775 -128.965)" fill="#7a7179"/><path d="M291.234,147.332v5.492a2.46,2.46,0,0,1-2.223,2.449,56.613,56.613,0,0,1-10.616.089c.351-.031.674-.058.976-.089a2.46,2.46,0,0,0,2.218-2.449v-5.492a14.981,14.981,0,0,0-11.858-14.657,5.963,5.963,0,0,1,1.961-.328h4.556a14.983,14.983,0,0,1,14.985,14.985Z" transform="translate(-238.041 -128.962)" fill="#685e67"/><path d="M163.795,146.633c3.921.414,12.389.953,19.612-1.014a11.427,11.427,0,0,0,8.361-11.053v-7.776a7.139,7.139,0,0,0-7.139-7.139h-5.371A17.661,17.661,0,0,0,161.6,137.313v6.872A2.46,2.46,0,0,0,163.795,146.633Z" transform="translate(-158.727 -119.651)" fill="#9b8f99"/><path d="M204.522,126.785v7.777a11.429,11.429,0,0,1-8.358,11.055c-5.967,1.624-12.781,1.539-17.177,1.229a41.005,41.005,0,0,0,7.457-1.229,11.429,11.429,0,0,0,8.362-11.055v-7.777a7.142,7.142,0,0,0-5.461-6.938,17.637,17.637,0,0,1,2.666-.2h5.372a7.139,7.139,0,0,1,7.138,7.138Z" transform="translate(-171.482 -119.647)" fill="#8b8088"/></g></g></g><g transform="translate(10.951)"><g transform="translate(0)"><circle cx="24.373" cy="24.373" r="24.373" fill="#27d1b3"/><path d="M146.6,40.082a24.392,24.392,0,0,1-30.84,23.506,23.505,23.505,0,0,0-.005-47.01,24.4,24.4,0,0,1,30.845,23.5Z" transform="translate(-97.853 -15.709)" fill="#20b69f"/></g><g transform="translate(8.742 12.312)"><path d="M90.5,85.887,81.752,77.14a1.254,1.254,0,0,1,0-1.773l3.612-3.612a1.254,1.254,0,0,1,1.773,0l5.134,5.134,14.622-14.621a1.254,1.254,0,0,1,1.773,0l3.612,3.612a1.254,1.254,0,0,1,0,1.773L94.046,85.887A2.508,2.508,0,0,1,90.5,85.887Z" transform="translate(-81.385 -61.9)" fill="#bcea73"/></g></g></g><g transform="translate(0 8.206)"><path d="M123.445,96.021a14.238,14.238,0,0,0,3.593-9.464V82.116a14.3,14.3,0,1,0-28.6,0v4.441a14.237,14.237,0,0,0,3.595,9.466,17.093,17.093,0,0,0-5.472,2.42,23.313,23.313,0,0,0-11.285-8.584,1.981,1.981,0,0,0-.216-.076,23.012,23.012,0,0,0-3.363-.875A19.255,19.255,0,0,0,87.235,78.38a8.543,8.543,0,0,0,7.8-14.862,4.468,4.468,0,0,0,.357-1.749V56.277A17,17,0,0,0,78.411,39.3H73.854c-.213,0-.425.011-.637.027A9.123,9.123,0,0,0,66.1,35.91H63.658c.022-.443.037-.886.037-1.332A26.367,26.367,0,1,0,41.072,60.684v1.758a4.486,4.486,0,0,0,.17,1.226,8.543,8.543,0,0,0,7.987,14.711,19.256,19.256,0,0,0,5.54,10.531,22.976,22.976,0,0,0-3.308.859,2,2,0,0,0-.331.116,23.376,23.376,0,0,0-11.221,8.571,17.008,17.008,0,0,0-5.477-2.436,14.237,14.237,0,0,0,3.593-9.464V82.116a14.3,14.3,0,1,0-28.6,0v4.441a14.238,14.238,0,0,0,3.593,9.464A17.116,17.116,0,0,0,0,112.615V129.9a2,2,0,1,0,4,0V112.615a13.1,13.1,0,0,1,13.09-13.09h.623a14.26,14.26,0,0,0,1.349.545l-4,15.614a3.573,3.573,0,0,0,1.107,3.587l5.189,4.562a3.6,3.6,0,0,0,4.74,0l5.189-4.562a3.573,3.573,0,0,0,1.107-3.587l-4-15.614a14.262,14.262,0,0,0,1.349-.545h.623A13.015,13.015,0,0,1,37.9,101.92a23,23,0,0,0-2.19,9.662,2,2,0,0,0,1.986,2.012h.014a2,2,0,0,0,2-1.986A19.252,19.252,0,0,1,51.025,94.241l15.208,28.966v15.073a2,2,0,1,0,4,0V123.207L85.442,94.235a19.226,19.226,0,0,1,11.32,17.5V138.3a2,2,0,0,0,4,0V111.739a23.064,23.064,0,0,0-2.189-9.83,13.1,13.1,0,0,1,7.53-2.383h.623a14.218,14.218,0,0,0,1.349.545l-4,15.613a3.574,3.574,0,0,0,1.107,3.587l5.189,4.562a3.6,3.6,0,0,0,4.74,0l5.189-4.562a3.573,3.573,0,0,0,1.107-3.587l-.639-2.494a2,2,0,1,0-3.873.992l.577,2.251-4.731,4.159-4.731-4.159,4-15.6q.365.019.735.019t.736-.019l1.016,3.964a2,2,0,0,0,3.873-.992l-.958-3.739a14.164,14.164,0,0,0,1.359-.55c.03,0,.059,0,.09,0h.523a13.1,13.1,0,0,1,13.09,13.09V129.9a2,2,0,0,0,4,0V112.616a17.116,17.116,0,0,0-13.019-16.594ZM13.423,82.116a10.3,10.3,0,1,1,20.6,0v4.441a10.3,10.3,0,1,1-20.6,0V82.116Zm15.033,34.318-4.731,4.159-4.732-4.159,4-15.6q.365.019.736.019t.735-.019Zm61.26-41.683a4.514,4.514,0,0,1-2.2-.57v-5.3a19.34,19.34,0,0,0-.153-2.4c1.554-.055,2.93-.161,4.008-.268.138-.014.274-.034.408-.06a4.548,4.548,0,0,1-2.063,8.6ZM78.41,43.294A13,13,0,0,1,91.394,56.277v5.492a.462.462,0,0,1-.418.462c-3.419.339-9.985.682-15.56-.836a7.529,7.529,0,0,1-2.4-1.143,13.52,13.52,0,0,0,2.221-7.428V45.048a9.154,9.154,0,0,0-.171-1.755H78.41ZM52,56.493a2,2,0,0,0-2.227-3.32,22.377,22.377,0,1,1,6.253-6.309,2,2,0,1,0,3.339,2.2,26.216,26.216,0,0,0,3.788-9.155H66.1a5.146,5.146,0,0,1,5.14,5.14v7.776a9.434,9.434,0,0,1-6.887,9.124c-7.041,1.917-15.547,1.306-18.877.955a.46.46,0,0,1-.409-.461V59.793A26.223,26.223,0,0,0,52,56.493ZM42.2,70.2a4.539,4.539,0,0,1,1.757-3.589,4.469,4.469,0,0,0,1.1.264c1.1.116,2.445.232,3.967.311-.05.567-.078,1.132-.078,1.692v5.3A4.544,4.544,0,0,1,42.2,70.2Zm10.747,4.918v-6.24a15.161,15.161,0,0,1,.088-1.6,48.884,48.884,0,0,0,12.371-1.481,13.174,13.174,0,0,0,4.938-2.564,11.548,11.548,0,0,0,4.022,2.012,39.706,39.706,0,0,0,8.959,1.234,15.416,15.416,0,0,1,.193,2.4v6.24a15.286,15.286,0,1,1-30.572,0Zm15.286,43.292L62.1,106.743l4.542-12.408c.523.043,1.051.071,1.586.071s1.062-.028,1.586-.071l4.542,12.408ZM58.9,92.536h1.05a19.149,19.149,0,0,0,2.71,1.047L59.6,101.965l-4.724-9A19.1,19.1,0,0,1,58.9,92.536Zm17.963,9.43L73.8,93.583a19.151,19.151,0,0,0,2.713-1.049h1.046a19.208,19.208,0,0,1,4.034.43Zm25.569-15.408V82.116a10.3,10.3,0,0,1,20.6,0v4.441a10.3,10.3,0,1,1-20.6,0Z" transform="translate(0 -8.206)"/><path d="M135.957,424.906a2,2,0,0,0-2,2v17.028a2,2,0,0,0,4,0V426.9A2,2,0,0,0,135.957,424.906Z" transform="translate(-98.254 -313.843)"/><path d="M278.584,445.24h-.052a2,2,0,0,0-.006,4h.052a2,2,0,0,0,.006-4Z" transform="translate(-202.829 -328.757)"/><path d="M108.2,58.965l-3.612-3.612a3.253,3.253,0,0,0-4.6,0L86.776,68.561,83.055,64.84a3.253,3.253,0,0,0-4.6,0l-3.613,3.612a3.256,3.256,0,0,0,0,4.6L83.589,81.8a4.512,4.512,0,0,0,6.374,0L108.2,63.565a3.257,3.257,0,0,0,0-4.6ZM87.136,78.972a.51.51,0,0,1-.72,0l-8.22-8.22,2.559-2.559L85.363,72.8a2,2,0,0,0,2.827,0l14.095-14.094,2.559,2.559Z" transform="translate(-54.197 -42.088)"/></g></g></g></svg>