<svg xmlns="http://www.w3.org/2000/svg" width="190" height="174.872" viewBox="0 0 190 174.872"><g transform="translate(8682 4604.559)"><g transform="translate(-8682 -4604.559)"><path d="M99.783,0A28.944,28.944,0,0,0,79.316,8.478L0,87.794H30.3a28.944,28.944,0,0,0,20.467-8.478L130.082,0Z" transform="matrix(0.998, -0.07, 0.07, 0.998, 0, 9.074)" fill="#dae3f6"/><path d="M124.729,0A36.18,36.18,0,0,0,99.145,10.6L0,109.742H37.874a36.18,36.18,0,0,0,25.584-10.6L162.6,0Z" transform="matrix(0.998, -0.07, 0.07, 0.998, 20.138, 65.397)" fill="#dae3f6"/></g><g transform="translate(-8641.177 -4571.299)"><g transform="translate(2.715 2.715)"><g transform="translate(94.346 5.146)"><path d="M62.849,6.012a3.354,3.354,0,0,1,1.012,2.419,3.441,3.441,0,0,1-3.431,3.431H57V5h3.431A3.354,3.354,0,0,1,62.849,6.012Z" transform="translate(-57 -5)" fill="#ccd1d9"/></g><g transform="translate(46.315 5.146)"><path d="M59.877,5v6.862H29V5Z" transform="translate(-29 -5)" fill="#ccd1d9"/></g><g transform="translate(18.869)"><path d="M40.446,8.862H13V5.431A3.441,3.441,0,0,1,16.431,2H37.015a3.441,3.441,0,0,1,3.431,3.431V8.862Z" transform="translate(-13 -2)" fill="#969faa"/></g><g transform="translate(18.869 13.723)"><path d="M13,10H40.446V20.292H13Z" transform="translate(-13 -10)" fill="#969faa"/></g><g transform="translate(18.869 6.862)"><path d="M40.446,12.862H13V6H40.446v6.862Z" transform="translate(-13 -6)" fill="#aab2bd"/></g><g transform="translate(77.192)"><path d="M64.154,7.146V17.438a1.72,1.72,0,0,1-1.715,1.715H48.715A1.72,1.72,0,0,1,47,17.438V3.715A1.72,1.72,0,0,1,48.715,2H62.438a1.72,1.72,0,0,1,1.715,1.715Z" transform="translate(-47 -2)" fill="#aab2bd"/></g><g transform="translate(82.338 5.146)"><ellipse cx="3.5" cy="3" rx="3.5" ry="3" transform="translate(0.3 0.492)" fill="#fcd770"/></g><g transform="translate(3.431 24.015)"><path d="M55.461,16l6.862,10.292H4L10.862,16h44.6Z" transform="translate(-4 -16)" fill="#ccd1d9"/></g><g transform="translate(75.477 61.754)"><path d="M46,38H66.585V58.585H46Z" transform="translate(-46 -38)" fill="#d3a06c"/></g><g transform="translate(44.6 68.615)"><path d="M28,42H48.585V62.585H28Z" transform="translate(-28 -42)" fill="#d3a06c"/></g><g transform="translate(13.723 68.615)"><path d="M10,42H30.585V62.585H10Z" transform="translate(-10 -42)" fill="#d3a06c"/></g><g transform="translate(3.431 34.308)"><path d="M62.323,22V56.308H45.169V76.892H34.877V56.308H14.292V76.892H7.431A6.843,6.843,0,0,0,4,77.818V22Z" transform="translate(-4 -22)" fill="#e6e9ed"/></g><g transform="translate(48.031 41.169)"><ellipse cx="3.5" cy="3" rx="3.5" ry="3" transform="translate(-0.393 0.469)" fill="#fcd770"/></g><g transform="translate(34.308 41.169)"><ellipse cx="3.5" cy="3" rx="3.5" ry="3" transform="translate(0.331 0.469)" fill="#fcd770"/></g><g transform="translate(80.623 41.169)"><path d="M59.292,31.146v.1a5.147,5.147,0,0,1-10.292,0v-.1a5.146,5.146,0,1,1,10.292,0Z" transform="translate(-49 -26)" fill="#fcd770"/></g><g transform="translate(0 89.2)"><g transform="translate(82.338)"><path d="M63.723,54H50a6.862,6.862,0,0,1,0,13.723H63.723a6.862,6.862,0,0,0,0-13.723Z" transform="translate(-50 -54)" fill="#ccd1d9"/></g><g transform="translate(61.754)"><path d="M51.723,60.862A6.86,6.86,0,0,1,58.585,54H38a6.862,6.862,0,0,1,0,13.723H58.585A6.86,6.86,0,0,1,51.723,60.862Z" transform="translate(-38 -54)" fill="#ccd1d9"/></g><g transform="translate(41.169)"><path d="M39.723,60.862A6.86,6.86,0,0,1,46.585,54H26a6.862,6.862,0,0,1,0,13.723H46.585A6.86,6.86,0,0,1,39.723,60.862Z" transform="translate(-26 -54)" fill="#ccd1d9"/></g><g transform="translate(20.585)"><path d="M27.723,60.862A6.86,6.86,0,0,1,34.585,54H14a6.862,6.862,0,0,1,0,13.723H34.585A6.86,6.86,0,0,1,27.723,60.862Z" transform="translate(-14 -54)" fill="#ccd1d9"/></g><path d="M15.723,60.862A6.86,6.86,0,0,1,22.585,54H8.862a6.843,6.843,0,0,0-3.431.926,7.248,7.248,0,0,0-1.424,1.081A6.865,6.865,0,0,0,8.862,67.723H22.585A6.86,6.86,0,0,1,15.723,60.862Z" transform="translate(-2 -54)" fill="#ccd1d9"/></g><g transform="translate(75.477 89.2)"><ellipse cx="7" cy="6.5" rx="7" ry="6.5" transform="translate(0.162 0.438)" fill="#969faa"/></g><g transform="translate(54.892 89.2)"><ellipse cx="7" cy="6.5" rx="7" ry="6.5" transform="translate(-0.254 0.438)" fill="#969faa"/></g><g transform="translate(34.308 89.2)"><circle cx="6.5" cy="6.5" r="6.5" transform="translate(0.331 0.438)" fill="#969faa"/></g><g transform="translate(13.723 89.2)"><ellipse cx="7" cy="6.5" rx="7" ry="6.5" transform="translate(-0.085 0.438)" fill="#969faa"/></g><g transform="translate(82.338 61.754)"><path d="M56.862,38v6.862H50V38h6.862Z" transform="translate(-50 -38)" fill="#b27946"/></g><g transform="translate(51.461 68.615)"><path d="M32,42h6.862v6.862H32Z" transform="translate(-32 -42)" fill="#b27946"/></g><g transform="translate(20.585 68.615)"><path d="M14,42h6.862v6.862H14Z" transform="translate(-14 -42)" fill="#b27946"/></g><g transform="translate(10.292 41.169)"><path d="M8,26H25.154V46.585H8Z" transform="translate(-8 -26)" fill="#69d6f4"/></g></g><g transform="translate(1 1)"><path d="M98.777,90.2H69.615V69.615H66.184V36.5L58.525,25.015H50.746V16.438H78.192v1.715a3.434,3.434,0,0,0,3.431,3.431h5.146V42.413A6.865,6.865,0,0,0,81.76,47.67,15.458,15.458,0,0,0,69.615,62.754a8.593,8.593,0,0,0,6.862,8.4V86.769h24.015V71.157a8.592,8.592,0,0,0,6.862-8.4A15.458,15.458,0,0,0,95.209,47.67,6.865,6.865,0,0,0,90.2,42.413V21.585h5.146a3.434,3.434,0,0,0,3.431-3.431V16.438h1.715a5.146,5.146,0,1,0,0-10.292H98.777V4.431A3.434,3.434,0,0,0,95.346,1H81.623a3.434,3.434,0,0,0-3.431,3.431V6.146H50.746A5.152,5.152,0,0,0,45.6,1H25.015a5.152,5.152,0,0,0-5.146,5.146V25.015H12.09L4.431,36.5V91.958a8.548,8.548,0,0,0,5.146,15.4h89.2a8.577,8.577,0,0,0,0-17.154ZM73.046,62.754a12.016,12.016,0,0,1,8.947-11.6,6.845,6.845,0,0,0,4.776,4.5v7.105H76.477v4.831A5.139,5.139,0,0,1,73.046,62.754Zm13.723,3.431H90.2v3.431H86.769ZM97.061,83.338H79.907V66.184h3.431v6.862H93.63V66.184h3.431ZM94.975,51.153a12.014,12.014,0,0,1,8.947,11.6,5.139,5.139,0,0,1-3.431,4.831V62.754H90.2V55.649a6.845,6.845,0,0,0,4.776-4.5Zm-3.06-2.122A3.431,3.431,0,1,1,88.484,45.6,3.434,3.434,0,0,1,91.915,49.031Zm8.577-39.454a1.715,1.715,0,0,1,0,3.431H98.777V9.577ZM81.623,4.431H95.346l0,13.723H81.623ZM90.2,98.777a5.146,5.146,0,1,1-5.146-5.146A5.152,5.152,0,0,1,90.2,98.777Zm-72.046,0a5.146,5.146,0,1,1,5.146,5.146A5.152,5.152,0,0,1,18.154,98.777Zm6.862-25.731h3.431v3.431H25.015Zm6.862,6.862V73.046h3.431V90.2H18.154V73.046h3.431v6.862ZM30.117,93.63h6.949a8.407,8.407,0,0,0,0,10.292H30.119a8.407,8.407,0,0,0,0-10.292Zm8.622,5.146a5.146,5.146,0,1,1,5.146,5.146A5.152,5.152,0,0,1,38.738,98.777ZM50.7,93.63H57.65a8.407,8.407,0,0,0,0,10.292H50.7a8.407,8.407,0,0,0,0-10.292Zm8.621,5.146a5.146,5.146,0,1,1,5.146,5.146A5.152,5.152,0,0,1,59.323,98.777ZM71.286,93.63h6.949a8.407,8.407,0,0,0,0,10.292H71.288a8.407,8.407,0,0,0,0-10.292ZM49.031,90.2V73.046h3.431v6.862H62.754V73.046h3.431V90.2Zm6.862-17.154h3.431v3.431H55.892ZM47.315,14.723H23.3V11.292H47.315ZM78.192,9.577v3.431H50.746V9.577ZM25.015,4.431H45.6a1.718,1.718,0,0,1,1.715,1.715V7.862H23.3V6.146A1.718,1.718,0,0,1,25.015,4.431ZM23.3,18.154H47.315v6.862H23.3ZM13.925,28.446H56.69l4.575,6.862H9.35ZM7.862,38.738H62.754V69.615H45.6V90.2H38.738V69.615H14.723V90.2H9.577a8.569,8.569,0,0,0-1.715.173ZM4.431,98.777A5.152,5.152,0,0,1,9.577,93.63h6.906a8.4,8.4,0,0,0,0,10.292H9.577A5.152,5.152,0,0,1,4.431,98.777Zm94.346,5.146H91.87a8.4,8.4,0,0,0,0-10.292h6.906a5.146,5.146,0,0,1,0,10.292Z" transform="translate(-1 -1)"/><path d="M54.146,4a5.146,5.146,0,1,0,5.146,5.146A5.152,5.152,0,0,0,54.146,4Zm0,6.862a1.715,1.715,0,1,1,1.715-1.715A1.718,1.718,0,0,1,54.146,10.862Z" transform="translate(33.338 1.146)"/><path d="M27.585,25H7V49.015H27.585ZM24.154,45.585H10.431V28.431H24.154Z" transform="translate(3.292 16.169)"/><path d="M26.146,35.292A5.146,5.146,0,1,0,21,30.146,5.152,5.152,0,0,0,26.146,35.292Zm0-6.862a1.715,1.715,0,1,1-1.715,1.715A1.718,1.718,0,0,1,26.146,28.431Z" transform="translate(13.308 16.169)"/><path d="M34.146,35.292A5.146,5.146,0,1,0,29,30.146,5.152,5.152,0,0,0,34.146,35.292Zm0-6.862a1.715,1.715,0,1,1-1.715,1.715A1.718,1.718,0,0,1,34.146,28.431Z" transform="translate(19.031 16.169)"/><path d="M21,33H45.015v3.431H21Z" transform="translate(13.308 21.892)"/><path d="M21,37h3.431v3.431H21Z" transform="translate(13.308 24.754)"/><path d="M25,37H35.292v3.431H25Z" transform="translate(16.169 24.754)"/><path d="M33,37h3.431v3.431H33Z" transform="translate(21.892 24.754)"/></g></g></g></svg>