<svg xmlns="http://www.w3.org/2000/svg" width="190" height="174.872" viewBox="0 0 190 174.872"><g transform="translate(8682 4604.559)"><g transform="translate(-8682 -4604.559)"><path d="M99.783,0A28.944,28.944,0,0,0,79.316,8.478L0,87.794H30.3a28.944,28.944,0,0,0,20.467-8.478L130.082,0Z" transform="matrix(0.998, -0.07, 0.07, 0.998, 0, 9.074)" fill="#dae3f6"/><path d="M124.729,0A36.18,36.18,0,0,0,99.145,10.6L0,109.742H37.874a36.18,36.18,0,0,0,25.584-10.6L162.6,0Z" transform="matrix(0.998, -0.07, 0.07, 0.998, 20.138, 65.397)" fill="#dae3f6"/></g><g transform="translate(-8651.682 -4591.491)"><g transform="translate(2.16 21.413)"><g transform="translate(1.241 1.242)"><path d="M105.483,173.6h8.353v23.114h-8.353Z" transform="translate(-55.389 -99.232)" fill="#72c2e9"/><path d="M143.1,173.6v23.114l-8.353.005V173.6Z" transform="translate(-70.112 -99.232)" fill="#72c2e9"/><path d="M107.261,220.124v5.939H92.416a5.939,5.939,0,0,1,5.939-5.939Z" transform="translate(-48.815 -122.64)" fill="#fc5d3d"/><path d="M149.073,226.064h-14.33v-5.934l8.353-.005h.037A5.939,5.939,0,0,1,149.073,226.064Z" transform="translate(-70.112 -122.64)" fill="#fc5d3d"/><path d="M105.483,173.6h8.353v7.131h-8.353Z" transform="translate(-55.389 -99.232)" fill="#4ba5c8"/><path d="M134.743,173.6H143.1v7.131h-8.353Z" transform="translate(-70.112 -99.232)" fill="#4ba5c8"/><path d="M123.542,49.843h-.761a5.416,5.416,0,0,1-5.416-5.416V37.669h11.594v6.758A5.416,5.416,0,0,1,123.542,49.843Z" transform="translate(-61.368 -30.835)" fill="#ffb69f"/><path d="M132.678,23.913H121.836a4.471,4.471,0,0,0-4.471,4.471v2.363H129.2a3.478,3.478,0,0,0,3.478-3.478Z" transform="translate(-61.368 -23.913)" fill="#aeaeae"/><path d="M128.854,88.873H101V72.11a9.936,9.936,0,0,1,9.937-9.937h7.985a9.936,9.936,0,0,1,9.937,9.937Z" transform="translate(-53.132 -43.164)" fill="#fc5d3d"/><path d="M40.071,180.462h7.853v25.645H40.071Z" transform="translate(-22.476 -102.683)" fill="#efefef"/><path d="M200.122,180.462h7.853v25.645h-7.853Z" transform="translate(-103.009 -102.683)" fill="#efefef"/><g transform="translate(0 45.709)"><path d="M40.071,180.462h7.853v3.722H40.071Z" transform="translate(-22.476 -148.393)" fill="#aeaeae"/><path d="M200.122,180.462h7.853v3.722h-7.853Z" transform="translate(-103.009 -148.393)" fill="#aeaeae"/><path d="M111.184,147.984H20.692a16.035,16.035,0,0,1,0-32.07h90.492a16.035,16.035,0,0,1,0,32.07Z" transform="translate(-4.657 -115.914)" fill="#aeaeae"/></g><path d="M28.231,148.078a8.591,8.591,0,0,1,0-17.181h90.492a8.591,8.591,0,0,1,0,17.181Z" transform="translate(-12.196 -77.744)" fill="#4a4842"/><circle cx="8.591" cy="8.591" r="8.591" transform="translate(97.936 53.153)" fill="#efefef"/><circle cx="3.274" cy="3.274" r="3.274" transform="translate(103.253 58.47)" fill="#f0c020"/><circle cx="8.591" cy="8.591" r="8.591" transform="translate(67.772 53.153)" fill="#efefef"/><circle cx="3.274" cy="3.274" r="3.274" transform="translate(73.089 58.47)" fill="#f0c020"/><circle cx="8.591" cy="8.591" r="8.591" transform="translate(37.608 53.153)" fill="#efefef"/><circle cx="3.274" cy="3.274" r="3.274" transform="translate(42.925 58.47)" fill="#f0c020"/><circle cx="8.591" cy="8.591" r="8.591" transform="translate(7.444 53.153)" fill="#efefef"/><circle cx="3.274" cy="3.274" r="3.274" transform="translate(12.761 58.47)" fill="#f0c020"/><path d="M156.666,43.187c-.625-2.695-1.038-4.474-4.691-5.682a1.33,1.33,0,0,1,0-2.524c2.12-.7,3.652-1.206,4.691-5.682a1.331,1.331,0,0,1,2.59,0c1.063,4.582,2.659,5.011,4.691,5.682a1.33,1.33,0,0,1,0,2.524c-2.12.7-3.652,1.207-4.691,5.682a1.33,1.33,0,0,1-2.59,0Z" transform="translate(-78.325 -26.108)"/><path d="M164.845,41.613a7.052,7.052,0,0,0-2.3,2.6,7.379,7.379,0,0,0-2.43-2.579,7.065,7.065,0,0,0,2.4-2.712,7.219,7.219,0,0,0,2.324,2.691Z" transform="translate(-82.88 -31.465)" fill="#f0c020"/><path d="M156.666,43.187c-.625-2.695-1.038-4.474-4.691-5.682a1.33,1.33,0,0,1,0-2.524c2.12-.7,3.652-1.206,4.691-5.682a1.331,1.331,0,0,1,2.59,0c1.063,4.582,2.659,5.011,4.691,5.682a1.33,1.33,0,0,1,0,2.524c-2.12.7-3.652,1.207-4.691,5.682a1.33,1.33,0,0,1-2.59,0Z" transform="translate(-78.325 -26.108)"/><path d="M164.845,41.613a7.052,7.052,0,0,0-2.3,2.6,7.379,7.379,0,0,0-2.43-2.579,7.065,7.065,0,0,0,2.4-2.712,7.219,7.219,0,0,0,2.324,2.691Z" transform="translate(-82.88 -31.465)" fill="#f0c020"/><path d="M194.5,74.32V93.859H170.02V74.32a2.239,2.239,0,0,1,2.239-2.239h20A2.239,2.239,0,0,1,194.5,74.32Z" transform="translate(-87.862 -48.15)" fill="#f0c020"/><path d="M194.609,81.9l-3.7-3.738-3.7,3.738V72.082h7.4Z" transform="translate(-96.51 -48.15)" fill="#fc5d3d"/><path d="M61.189,74.32V93.859H36.709V74.32a2.239,2.239,0,0,1,2.239-2.239h20A2.239,2.239,0,0,1,61.189,74.32Z" transform="translate(-20.785 -48.15)" fill="#f0c020"/><path d="M61.3,81.9l-3.7-3.738L53.9,81.9V72.082h7.4Z" transform="translate(-29.432 -48.15)" fill="#fc5d3d"/></g><g transform="translate(86.474 41.773)"><path d="M193.476,107.976h-9.564a1.242,1.242,0,1,1,0-2.484h9.564a1.242,1.242,0,1,1,0,2.484Zm-14.532,0h-1.49a1.242,1.242,0,1,1,0-2.484h1.49a1.242,1.242,0,1,1,0,2.484Z" transform="translate(-176.211 -105.492)" fill="#f8e5b0"/></g><g transform="translate(20.241 41.773)"><path d="M60.165,107.976H50.6a1.242,1.242,0,0,1,0-2.484h9.564a1.242,1.242,0,1,1,0,2.484Zm-14.532,0H44.142a1.242,1.242,0,0,1,0-2.484h1.491a1.242,1.242,0,0,1,0,2.484Z" transform="translate(-42.9 -105.492)" fill="#f8e5b0"/></g><path d="M99.067,76a1.243,1.243,0,0,1,2.42.571A1.243,1.243,0,0,1,99.067,76Z" transform="translate(-50.904 -48.399)"/><path d="M244.921,131.825a1.25,1.25,0,0,1,.477-1.694,1.275,1.275,0,0,1,1.689.482,1.241,1.241,0,1,1-2.166,1.212Z" transform="translate(-124.231 -76.042)"/><path d="M2.16,84.4A17.264,17.264,0,0,1,18.083,67.177V48.826a3.485,3.485,0,0,1,3.481-3.481h20a3.485,3.485,0,0,1,3.481,3.481V67.12h4.978V54.247a1.242,1.242,0,0,1,2.484,0V67.12h3.1V51.95a1.242,1.242,0,0,1,2.484,0V67.12h13.77V51.95a1.242,1.242,0,0,1,2.484,0V67.12h3.535V51.6A8.73,8.73,0,0,0,69.188,42.9H61.2a8.719,8.719,0,0,0-6.464,2.877,1.279,1.279,0,0,1-1.754.089,1.24,1.24,0,0,1-.089-1.754,11.191,11.191,0,0,1,6.821-3.593,6.628,6.628,0,0,1-1.562-4.276V27.127a5.72,5.72,0,0,1,5.714-5.714H74.711a1.242,1.242,0,0,1,1.242,1.242v3.357a4.727,4.727,0,0,1-3.72,4.611v5.625a6.628,6.628,0,0,1-1.56,4.275A11.2,11.2,0,0,1,80.367,51.6V67.121h3.95V48.826A3.485,3.485,0,0,1,87.8,45.344h20a3.485,3.485,0,0,1,3.481,3.481V67.177a17.2,17.2,0,0,1,10.452,4.609,1.241,1.241,0,0,1,.06,1.754,1.274,1.274,0,0,1-1.754.06,14.785,14.785,0,0,0-10.023-3.993H19.354a14.792,14.792,0,0,0,.08,29.584h90.493a14.805,14.805,0,0,0,14.5-17.712v0a1.241,1.241,0,0,1,2.434-.487A17.438,17.438,0,0,1,127.2,84.4a17.252,17.252,0,0,1-17.593,17.275V124.84h13.029a1.242,1.242,0,0,1,0,2.484H6.733a1.242,1.242,0,1,1,0-2.484h13.02v-7.7a1.242,1.242,0,1,1,2.484,0v7.7h5.37V101.675h-5.37V107.2a1.242,1.242,0,0,1-2.484,0v-5.525A17.256,17.256,0,0,1,2.16,84.4ZM30.091,124.84H45.874a7.19,7.19,0,0,1,6.378-5.909V101.675H30.091Zm50.862,0a4.706,4.706,0,0,0-4.565-3.455h0l-7.112,0v3.451H80.953Zm-5.81-23.162H69.274V118.9l5.869,0Zm-8.354,0h-3.7V124.84h3.7ZM48.411,124.837H60.605v-3.455H52.941a4.705,4.705,0,0,0-4.531,3.455Zm12.195-23.162H54.736V118.9h5.869Zm46.52,23.162V101.676h-5.369v23.161Zm-7.853-23.162H77.627v17.336a7.192,7.192,0,0,1,5.862,5.83H99.272ZM65.6,40.42a4.178,4.178,0,0,0,4.146-4.173V30.732H60.64v5.516a4.178,4.178,0,0,0,4.146,4.173ZM60.64,28.247H70.991a2.257,2.257,0,0,0,2.478-2.236V23.9h-9.6a3.233,3.233,0,0,0-3.229,3.229Zm34.7,19.582v5.559L96.915,51.8a1.242,1.242,0,0,1,1.765,0l1.576,1.592V47.83ZM86.8,67.12h22V48.826a1,1,0,0,0-1-1h-5.057v8.579a1.243,1.243,0,0,1-2.124.874L97.8,54.435,94.98,57.282a1.243,1.243,0,0,1-2.124-.874V47.829H87.8a1,1,0,0,0-1,1V67.12ZM29.106,47.83v5.559L30.682,51.8a1.242,1.242,0,0,1,1.765,0l1.576,1.592V47.83Zm-8.539,1V67.12h22V48.826a1,1,0,0,0-1-1H36.508v8.579a1.243,1.243,0,0,1-2.124.874l-2.819-2.846-2.819,2.846a1.243,1.243,0,0,1-2.124-.874V47.829H21.564a1,1,0,0,0-1,1Z" transform="translate(-2.16 -21.413)"/><path d="M117.465,128.4a9.833,9.833,0,1,1,0,19.666H26.973a9.833,9.833,0,0,1,0-19.666ZM87.3,130.881a7.349,7.349,0,1,0,7.349,7.349A7.357,7.357,0,0,0,87.3,130.881Zm-30.164,0a7.349,7.349,0,1,0,7.349,7.349A7.357,7.357,0,0,0,57.137,130.881Zm-30.164,14.7a7.349,7.349,0,1,0-7.349-7.349A7.357,7.357,0,0,0,26.973,145.578Zm23.654,0a9.789,9.789,0,0,1,0-14.7H33.483a9.789,9.789,0,0,1,0,14.7Zm30.164,0a9.788,9.788,0,0,1,0-14.7H63.647a9.788,9.788,0,0,1,0,14.7Zm30.164,0a9.789,9.789,0,0,1,0-14.7H93.812a9.789,9.789,0,0,1,0,14.7Zm6.51-14.7a7.349,7.349,0,1,0,7.349,7.349A7.357,7.357,0,0,0,117.465,130.881Z" transform="translate(-9.697 -75.244)"/><path d="M214.5,139.1a4.515,4.515,0,1,1-4.515,4.515A4.52,4.52,0,0,1,214.5,139.1Zm0,2.484a2.031,2.031,0,1,0,2.031,2.031A2.033,2.033,0,0,0,214.5,141.584Z" transform="translate(-106.729 -80.629)"/><path d="M149.268,143.615a4.515,4.515,0,1,1,4.515,4.515A4.52,4.52,0,0,1,149.268,143.615Zm2.484,0a2.031,2.031,0,1,0,2.031-2.031A2.033,2.033,0,0,0,151.752,143.615Z" transform="translate(-76.18 -80.629)"/><path d="M88.556,143.615a4.515,4.515,0,1,1,4.515,4.515A4.52,4.52,0,0,1,88.556,143.615Zm2.484,0a2.031,2.031,0,1,0,2.031-2.031A2.033,2.033,0,0,0,91.04,143.615Z" transform="translate(-45.632 -80.629)"/><path d="M32.358,148.13a4.515,4.515,0,1,1,4.515-4.515A4.52,4.52,0,0,1,32.358,148.13Zm0-2.484a2.031,2.031,0,1,0-2.031-2.031A2.033,2.033,0,0,0,32.358,145.646Z" transform="translate(-15.083 -80.629)"/><circle cx="1.242" cy="1.242" r="1.242" transform="translate(17.593 89.513)"/></g></g></g></svg>