<svg xmlns="http://www.w3.org/2000/svg" width="220.688" height="203.118" viewBox="0 0 220.688 203.118"><g transform="translate(8682 4604.559)"><g transform="translate(-8681.621 -4598.583)"><path d="M115.9,0A33.619,33.619,0,0,0,92.127,9.847L0,101.974H35.193a33.619,33.619,0,0,0,23.773-9.847L151.093,0Z" transform="matrix(0.998, -0.07, 0.07, 0.998, -0.379, 4.564)" fill="#fde2e2"/><path d="M144.875,0a42.024,42.024,0,0,0-29.716,12.309L0,127.468H43.991a42.024,42.024,0,0,0,29.716-12.309L188.866,0Z" transform="matrix(0.998, -0.07, 0.07, 0.998, 23.012, 69.985)" fill="#fde2e2"/></g><g transform="translate(-8663.874 -4571)"><g transform="translate(35.985 1.966)"><g transform="translate(0)"><path d="M129.333,167.973h-83a4.813,4.813,0,0,1-4.813-4.813V53.2a4.813,4.813,0,0,1,4.813-4.813h83a4.813,4.813,0,0,1,4.813,4.813V163.159A4.813,4.813,0,0,1,129.333,167.973Z" transform="translate(-41.515 -37.67)" fill="#ffc250"/><path d="M331.135,48.39H315.026a4.813,4.813,0,0,1,4.813,4.813V163.158a4.813,4.813,0,0,1-4.813,4.813h16.109a4.813,4.813,0,0,0,4.813-4.813V53.2a4.813,4.813,0,0,0-4.813-4.814Z" transform="translate(-243.318 -37.67)" fill="#eab14d"/><path d="M71.522,180.524V80.118a1.72,1.72,0,0,1,1.72-1.72H146.7a1.72,1.72,0,0,1,1.72,1.72V180.524a1.72,1.72,0,0,1-1.72,1.72H73.243A1.72,1.72,0,0,1,71.522,180.524Z" transform="translate(-63.655 -59.81)" fill="#f5f5f5"/><path d="M312.925,78.4H296.816a1.72,1.72,0,0,1,1.72,1.72V180.524a1.72,1.72,0,0,1-1.72,1.72h16.109a1.72,1.72,0,0,0,1.72-1.72V80.118A1.72,1.72,0,0,0,312.925,78.4Z" transform="translate(-229.882 -59.81)" fill="#eaeaea"/><path d="M170.237,13.49V10.956A3.456,3.456,0,0,0,166.78,7.5H153.242a3.456,3.456,0,0,0-3.456,3.456V13.49a1.414,1.414,0,0,1-1.413,1.413h-5.634a3.394,3.394,0,0,0-3.394,3.394v7.79h41.335V18.3a3.394,3.394,0,0,0-3.394-3.394h-5.634a1.414,1.414,0,0,1-1.414-1.414Z" transform="translate(-113.695 -7.5)" fill="#c2d0da"/><g transform="translate(17.875 28.328)"><path d="M109.694,133.74V118.588a3.04,3.04,0,0,1,3.04-3.04h15.152a3.04,3.04,0,0,1,3.04,3.04V133.74a3.04,3.04,0,0,1-3.04,3.04H112.734A3.039,3.039,0,0,1,109.694,133.74Z" transform="translate(-109.694 -115.548)" fill="#66b49d"/><path d="M109.694,254.147V238.995a3.04,3.04,0,0,1,3.04-3.04h15.152a3.04,3.04,0,0,1,3.04,3.04v15.152a3.04,3.04,0,0,1-3.04,3.04H112.734A3.04,3.04,0,0,1,109.694,254.147Z" transform="translate(-109.694 -204.387)" fill="#66b49d"/><path d="M109.694,374.552V359.4a3.04,3.04,0,0,1,3.04-3.04h15.152a3.04,3.04,0,0,1,3.04,3.04v15.152a3.04,3.04,0,0,1-3.04,3.04H112.734A3.04,3.04,0,0,1,109.694,374.552Z" transform="translate(-109.694 -293.225)" fill="#66b49d"/></g><g transform="translate(50.73 30.551)"><g transform="translate(3.229 0)"><path d="M298.188,182.045l-1.931-2.543-7.224-4.574-2.777-.438-36.99,58.451a15.226,15.226,0,0,0-1.938,4.578,11.915,11.915,0,0,1,10.56,6.687A15.222,15.222,0,0,0,261.2,240.5Z" transform="translate(-247.328 -161.26)" fill="#fc8086"/><path d="M424.146,126.813l-3.121-1.977a5.214,5.214,0,0,0-7.2,1.617l-2.862,4.523.913,1.841,8.686,5.5,2.332.214,2.864-4.526A5.214,5.214,0,0,0,424.146,126.813Z" transform="translate(-368.065 -124.027)" fill="#8c9ba6"/></g><path d="M0,0H7.432V14.122H0Z" transform="matrix(0.535, -0.845, 0.845, 0.535, 42.162, 13.213)" fill="#c9e2e7"/><path d="M248.8,421.582l-10.532,8.487a2,2,0,0,1-3.2-2.024l3.169-13.15A11.915,11.915,0,0,1,248.8,421.582Z" transform="translate(-235.011 -338.636)" fill="#7c8b96"/></g></g></g><g transform="translate(34.02 0)"><g transform="translate(0)"><path d="M138.206,135.722a1.966,1.966,0,0,0-2.75.418l-3.892,5.288-1.331-1.828a1.967,1.967,0,1,0-3.18,2.316l2.3,3.153a2.744,2.744,0,0,0,2.2,1.124h.007a2.743,2.743,0,0,0,2.2-1.113l4.864-6.608A1.968,1.968,0,0,0,138.206,135.722Z" transform="translate(-102.384 -99.856)"/><path d="M138.2,258.749a1.966,1.966,0,0,0-2.75.418l-3.892,5.288-1.331-1.828a1.967,1.967,0,1,0-3.18,2.315l2.3,3.153a2.743,2.743,0,0,0,2.2,1.124h.007a2.743,2.743,0,0,0,2.2-1.113l4.864-6.608A1.967,1.967,0,0,0,138.2,258.749Z" transform="translate(-102.383 -190.628)"/><path d="M138.2,376.533a1.966,1.966,0,0,0-2.75.418l-3.892,5.288-1.331-1.828a1.967,1.967,0,1,0-3.18,2.315l2.3,3.153a2.743,2.743,0,0,0,2.2,1.124h.007a2.743,2.743,0,0,0,2.2-1.113l4.864-6.608A1.967,1.967,0,0,0,138.2,376.533Z" transform="translate(-102.383 -277.532)"/><path d="M222.492,136.8H246.8a1.967,1.967,0,1,0,0-3.934H222.492a1.967,1.967,0,1,0,0,3.934Z" transform="translate(-171.628 -98.032)"/><path d="M222.492,168.142h12.154a1.967,1.967,0,1,0,0-3.934H222.492a1.967,1.967,0,0,0,0,3.934Z" transform="translate(-171.628 -121.156)"/><path d="M222.492,257.206H238.8a1.967,1.967,0,0,0,0-3.934h-16.31a1.967,1.967,0,0,0,0,3.934Z" transform="translate(-171.628 -186.87)"/><path d="M234.646,288.548a1.967,1.967,0,1,0,0-3.934H222.492a1.967,1.967,0,0,0,0,3.934Z" transform="translate(-171.628 -209.995)"/><path d="M122.356,108.047H107.2a5.012,5.012,0,0,0-5.007,5.007v15.152a5.012,5.012,0,0,0,5.007,5.007h15.152a5.012,5.012,0,0,0,5.007-5.007V113.054A5.012,5.012,0,0,0,122.356,108.047Zm1.073,20.159a1.074,1.074,0,0,1-1.073,1.073H107.2a1.074,1.074,0,0,1-1.073-1.073V113.054a1.074,1.074,0,0,1,1.073-1.073h15.152a1.074,1.074,0,0,1,1.073,1.073Z" transform="translate(-84.323 -79.719)"/><path d="M122.356,228.453H107.2a5.012,5.012,0,0,0-5.007,5.007v15.152a5.012,5.012,0,0,0,5.007,5.007h15.152a5.012,5.012,0,0,0,5.007-5.007V233.46A5.012,5.012,0,0,0,122.356,228.453Zm1.073,20.159a1.074,1.074,0,0,1-1.073,1.073H107.2a1.074,1.074,0,0,1-1.073-1.073V233.46a1.074,1.074,0,0,1,1.073-1.073h15.152a1.074,1.074,0,0,1,1.073,1.073Z" transform="translate(-84.323 -168.558)"/><path d="M122.356,348.857H107.2a5.012,5.012,0,0,0-5.007,5.007v15.152a5.012,5.012,0,0,0,5.007,5.007h15.152a5.012,5.012,0,0,0,5.007-5.007V353.864A5.012,5.012,0,0,0,122.356,348.857Zm1.073,20.159a1.074,1.074,0,0,1-1.073,1.073H107.2a1.074,1.074,0,0,1-1.073-1.073V353.864a1.074,1.074,0,0,1,1.073-1.073h15.152a1.074,1.074,0,0,1,1.073,1.073Z" transform="translate(-84.323 -257.395)"/><path d="M147.08,33.642l-3.121-1.977a7.18,7.18,0,0,0-9.91,2.227l-2.862,4.523-3.975,6.28-4.495,7.1V22.275a3.691,3.691,0,0,0-3.687-3.687H104.936V14.654H123.8A2.85,2.85,0,0,1,126.65,17.5V34.534a1.967,1.967,0,0,0,3.934,0V17.5a6.788,6.788,0,0,0-6.78-6.78H104.529A5.368,5.368,0,0,0,99.575,7.4H94.494V5.423A5.429,5.429,0,0,0,89.071,0H75.533A5.429,5.429,0,0,0,70.11,5.423V7.4H65.029a5.367,5.367,0,0,0-4.954,3.317H40.8a6.788,6.788,0,0,0-6.78,6.78V127.455a6.788,6.788,0,0,0,6.78,6.78h83a6.788,6.788,0,0,0,6.78-6.78v-44.1a1.967,1.967,0,0,0-3.934,0v44.1A2.85,2.85,0,0,1,123.8,130.3h-83a2.85,2.85,0,0,1-2.847-2.846V17.5A2.85,2.85,0,0,1,40.8,14.654H59.668v3.934H45.574a3.691,3.691,0,0,0-3.687,3.687V122.68a3.691,3.691,0,0,0,3.687,3.687H119.03a3.691,3.691,0,0,0,3.687-3.687V85.563l19.75-31.209v0l3.973-6.278,2.864-4.526a7.189,7.189,0,0,0-2.226-9.906Zm-7.675.922a3.221,3.221,0,0,1,2.449.425l3.121,1.977a3.25,3.25,0,0,1,1.007,4.479l-1.812,2.863-8.608-5.451L137.373,36a3.224,3.224,0,0,1,2.032-1.432ZM102.154,110.7a13.241,13.241,0,0,1-1.246,1.661,13.826,13.826,0,0,0-2.091-2.238L135.467,52.25l2.625,1.662Zm-13.431,11.73a.264.264,0,0,0-.037-.014h0l2.779-11.54a9.9,9.9,0,0,1,6.494,4.112c-10.414,8.392-9.085,7.306-9.233,7.44Zm44.735-80.25,8.608,5.451L140.2,50.588l-8.608-5.451ZM63.6,12.808c0-.024,0-.048,0-.073,0-.008,0-.017,0-.025a1.428,1.428,0,0,1,1.424-1.374h5.634a3.384,3.384,0,0,0,3.38-3.38V5.423a1.491,1.491,0,0,1,1.49-1.489H89.072a1.491,1.491,0,0,1,1.49,1.489V7.957a3.384,3.384,0,0,0,3.38,3.38h5.634A1.428,1.428,0,0,1,101,12.711c0,.008,0,.017,0,.025,0,.024,0,.048,0,.072v5.78H63.6ZM45.821,22.521h72.963V58.014L98.2,90.543a1.967,1.967,0,1,0,3.324,2.1l27.961-44.185,2.66,1.684L95.494,108.02a13.811,13.811,0,0,0-2.917-.933,13.3,13.3,0,0,1,.969-1.837l3.058-4.831a1.967,1.967,0,1,0-3.324-2.1l-3.057,4.831a17.159,17.159,0,0,0-2.189,5.169h0l-3.169,13.148a4.083,4.083,0,0,0-.114.969H45.821Zm72.963,99.913H94.99l6.75-5.439a17.153,17.153,0,0,0,3.737-4.189l13.306-21.026Z" transform="translate(-34.02 0)"/></g></g></g></g></svg>