<svg xmlns="http://www.w3.org/2000/svg" xmlns:xlink="http://www.w3.org/1999/xlink" width="1048" height="240" viewBox="0 0 1048 240">
  <defs>
    <filter id="Trazado_212199" x="0" y="0" width="1048" height="240" filterUnits="userSpaceOnUse">
      <feOffset dy="3" input="SourceAlpha"/>
      <feGaussianBlur stdDeviation="3" result="blur"/>
      <feFlood flood-opacity="0.161"/>
      <feComposite operator="in" in2="blur"/>
      <feComposite in="SourceGraphic"/>
    </filter>
    <clipPath id="clip-path">
      <rect id="Rectángulo_39302" data-name="Rectángulo 39302" width="104.748" height="104.748" fill="none"/>
    </clipPath>
  </defs>
  <g id="Grupo_149001" data-name="Grupo 149001" transform="translate(-276 -17169.023)">
    <g transform="matrix(1, 0, 0, 1, 276, 17169.02)" filter="url(#Trazado_212199)">
      <path id="Trazado_212199-2" data-name="Trazado 212199" d="M20,0h990a20,20,0,0,1,20,20V202a20,20,0,0,1-20,20H20A20,20,0,0,1,0,202V20A20,20,0,0,1,20,0Z" transform="translate(9 6)" fill="#fde2e2"/>
    </g>
    <g id="supervision" transform="translate(327 17205.273)">
      <g id="Grupo_80802" data-name="Grupo 80802" transform="translate(2.7 2.7)">
        <g id="Grupo_80789" data-name="Grupo 80789" transform="translate(3.399 69.68)">
          <path id="Trazado_125099" data-name="Trazado 125099" d="M40.4,75.291H4V61.2A18.239,18.239,0,0,1,22.2,43a18.519,18.519,0,0,1,2.192.136,18.219,18.219,0,0,1,15.822,15.5l1.173,8.158.051.136,8.175-3.722,3.365,7.58-7.444,3.4a12.446,12.446,0,0,1-5.133,1.1Z" transform="translate(-4 -43)" fill="#fcd770"/>
        </g>
        <g id="Grupo_80790" data-name="Grupo 80790" transform="translate(53.229 83.276)">
          <path id="Trazado_125100" data-name="Trazado 125100" d="M40.288,61.18c.935-1.954.986-2.294.986-2.651a4.134,4.134,0,0,0-4.13-4.13h-.068a4.006,4.006,0,0,0-1.716.374l-2.039.918A9.8,9.8,0,0,1,41.682,51h2.991a6.78,6.78,0,0,1,3.4.918,7.181,7.181,0,0,1,1.411,1.071,6.841,6.841,0,0,1,1.988,4.81,3.409,3.409,0,0,1-3.4,3.4H40.3Z" transform="translate(-33.32 -51)" fill="#b4dd7f"/>
        </g>
        <g id="Grupo_80791" data-name="Grupo 80791" transform="translate(50.985 76.478)">
          <path id="Trazado_125101" data-name="Trazado 125101" d="M34.243,58.489l-.017.017-2.226,1V47H49v7.716a6.78,6.78,0,0,0-3.4-.918H42.6a9.8,9.8,0,0,0-8.362,4.691Z" transform="translate(-32 -47)" fill="#aab2bd"/>
        </g>
        <g id="Grupo_80792" data-name="Grupo 80792" transform="translate(23.249 62.882)">
          <path id="Trazado_125102" data-name="Trazado 125102" d="M94.4,39v6.8a6.8,6.8,0,0,1-6.8,6.8h-59.4a18.121,18.121,0,0,0-11.982-6.662V40.7H15.68A5.415,5.415,0,0,0,19.5,39.119L19.623,39Z" transform="translate(-15.68 -39)" fill="#ccd1d9"/>
        </g>
        <g id="Grupo_80793" data-name="Grupo 80793" transform="translate(24.711 18.695)">
          <path id="Trazado_125103" data-name="Trazado 125103" d="M87,13H25.717A16.925,16.925,0,0,1,16.54,26.443a6.821,6.821,0,0,1,2.481,5.251h5.1a3.4,3.4,0,0,1,3.4,3.4,3.424,3.424,0,0,1-3.4,3.4h-5.1l1.445,14.446c.017.17.017.357.017.527a5.435,5.435,0,0,1-1.462,3.722H93.8V19.8A6.8,6.8,0,0,0,87,13Z" transform="translate(-16.54 -13)" fill="#69d6f4"/>
        </g>
        <g id="Grupo_80794" data-name="Grupo 80794" transform="translate(61.182 1.7)">
          <circle id="Elipse_4768" data-name="Elipse 4768" cx="17" cy="17" r="17" transform="translate(0.118 -0.398)" fill="#e6e9ed"/>
        </g>
        <g id="Grupo_80795" data-name="Grupo 80795" transform="translate(42.488 45.887)">
          <path id="Trazado_125104" data-name="Trazado 125104" d="M27,29H40.6V39.2H27Z" transform="translate(-27 -29)" fill="#fcd770"/>
        </g>
        <g id="Grupo_80796" data-name="Grupo 80796">
          <path id="Trazado_125105" data-name="Trazado 125105" d="M35.888,20.695a16.925,16.925,0,0,1-9.177,13.443,6.769,6.769,0,0,0-4.317-1.547H15.6a10.047,10.047,0,0,0-4.878,1.241A16.993,16.993,0,1,1,35.99,19,14.042,14.042,0,0,1,35.888,20.695Z" transform="translate(-2 -2)" fill="#e6e9ed"/>
        </g>
        <g id="Grupo_80797" data-name="Grupo 80797" transform="translate(3.399 44.187)">
          <path id="Trazado_125106" data-name="Trazado 125106" d="M14.2,39.9v8.5A14.92,14.92,0,0,1,4,34.237V28H14.2l-1.6,1.6a6.154,6.154,0,0,0,0,8.7Z" transform="translate(-4 -28)" fill="#656d78"/>
        </g>
        <g id="Grupo_80798" data-name="Grupo 80798" transform="translate(3.399 30.591)">
          <path id="Trazado_125107" data-name="Trazado 125107" d="M27.793,26.8H23.1a3.414,3.414,0,0,0-3.042,1.869L17.6,33.6H4V30.2a10.223,10.223,0,0,1,5.319-8.956A10.047,10.047,0,0,1,14.2,20H21a6.8,6.8,0,0,1,6.8,6.8Z" transform="translate(-4 -20)" fill="#ff826e"/>
        </g>
        <g id="Grupo_80799" data-name="Grupo 80799" transform="translate(16.995 37.389)">
          <path id="Trazado_125108" data-name="Trazado 125108" d="M27.3,24a3.4,3.4,0,0,1,3.4,3.4,3.424,3.424,0,0,1-3.4,3.4H12l2.464-4.929A3.414,3.414,0,0,1,17.506,24H27.3Z" transform="translate(-12 -24)" fill="#fc6e51"/>
        </g>
        <g id="Grupo_80800" data-name="Grupo 80800" transform="translate(49.014 86.675)">
          <path id="Trazado_125109" data-name="Trazado 125109" d="M38.879,53a4.134,4.134,0,0,1,4.13,4.13c0,.357-.051.7-.986,2.651A3.949,3.949,0,0,1,40.578,60.9l-6.373,2.889-3.365-7.58,1.971-.9,2.226-1,.017-.017,2.039-.918A4.006,4.006,0,0,1,38.811,53Z" transform="translate(-30.84 -53)" fill="#f0d0b4"/>
        </g>
        <g id="Grupo_80801" data-name="Grupo 80801" transform="translate(10.197 44.187)">
          <path id="Trazado_125110" data-name="Trazado 125110" d="M11.4,48.394V39.9L9.8,38.3a6.154,6.154,0,0,1,0-8.7L11.4,28H25L26.44,42.446c.017.17.017.357.017.527A5.435,5.435,0,0,1,25,46.695l-.119.119a5.415,5.415,0,0,1-3.824,1.581H21.6v5.234a18.519,18.519,0,0,0-2.192-.136,18.038,18.038,0,0,0-7.937,1.835l-.068-.136Z" transform="translate(-8 -28)" fill="#f0d0b4"/>
        </g>
      </g>
      <g id="Grupo_80803" data-name="Grupo 80803" transform="translate(1 1)">
        <path id="Trazado_125111" data-name="Trazado 125111" d="M18.6,14.586l2.174,6.523h8.023v-3.4H23.22L18.6,3.838,13.181,20.079,11.149,16.01H5v3.4H9.048l4.765,9.527Z" transform="translate(1.798 0.985)"/>
        <path id="Trazado_125112" data-name="Trazado 125112" d="M97.872,80.877a8.507,8.507,0,0,0,8.5-8.5V28.192a8.507,8.507,0,0,0-6.876-8.334,18.681,18.681,0,0,0-37.224-.163H38.389A18.695,18.695,0,1,0,8.417,34.6,11.857,11.857,0,0,0,4.4,43.488v9.645A16.583,16.583,0,0,0,14.6,68.452v4.772A19.91,19.91,0,0,0,4.4,90.583V106.37H43.243v-.039a13.973,13.973,0,0,0,5.088-1.224l13.827-6.285a5.792,5.792,0,0,0,1.455-.95H70.68a5.092,5.092,0,0,0,4.786-3.4h25.805a5.1,5.1,0,1,0,0-10.2h-10.2a1.7,1.7,0,0,1-1.7-1.7v-1.7Zm0-3.4H39.219a20.025,20.025,0,0,0-11.026-6.4v-2.5a7.1,7.1,0,0,0,2.318-1.3h72.46v5.1A5.1,5.1,0,0,1,97.872,77.478Zm-30.591,6.8h-3a11.558,11.558,0,0,0-8.9,4.208V80.877h13.6v3.571A8.49,8.49,0,0,0,67.281,84.276Zm-22.41,9.556L44,87.768a19.69,19.69,0,0,0-2.35-6.892H51.985V90.6ZM22.444,45.186l1.23-2.459a1.69,1.69,0,0,1,1.521-.94H34.99a1.7,1.7,0,0,1,0,3.4ZM80.877,6.1a15.3,15.3,0,1,1-15.3,15.3A15.313,15.313,0,0,1,80.877,6.1Zm-18.608,17a18.688,18.688,0,0,0,37.2.28,5.087,5.087,0,0,1,3.506,4.818v35.69H32.74a7.046,7.046,0,0,0,.286-2.723L31.768,48.585H34.99a5.1,5.1,0,0,0,0-10.2H31.42a8.437,8.437,0,0,0-1.385-3.146,18.554,18.554,0,0,0,8.008-12.148ZM4.4,19.695a15.3,15.3,0,1,1,23.076,13.13,8.418,8.418,0,0,0-4.38-1.234H16.3a11.822,11.822,0,0,0-4.764,1A15.3,15.3,0,0,1,4.4,19.695ZM7.8,43.488a8.507,8.507,0,0,1,8.5-8.5h6.8a5.1,5.1,0,0,1,4.8,3.4H25.194a5.072,5.072,0,0,0-4.561,2.818l-1.99,3.98H7.8Zm0,9.645V48.585h4.658a7.789,7.789,0,0,0-1.259,4.25,7.908,7.908,0,0,0,2.3,5.554l1.1,1.1v5.172A13.181,13.181,0,0,1,7.8,53.132Zm8.1,2.853A4.488,4.488,0,0,1,14.6,52.835,4.425,4.425,0,0,1,15.9,49.684l1.1-1.1H28.354L29.645,61.5A3.7,3.7,0,0,1,28.576,64.5a3.743,3.743,0,0,1-2.626,1.088H21.394v3.4h3.4V70.7c-.165-.005-.326-.024-.491-.024A19.773,19.773,0,0,0,18,71.722V58.08Zm31.023,46.028a10.683,10.683,0,0,1-14.651-6.657l-2.451-8.17-3.256.976,2.451,8.17a14.011,14.011,0,0,0,4.349,6.638H7.8V90.583a16.5,16.5,0,0,1,32.84-2.333L41.645,95.3l-2.26,1.028,1.407,3.093,10.063-4.575,1.99,4.477Zm13.829-6.286-4.811,2.187-1.99-4.478,4.721-2.146a2.547,2.547,0,0,1,1.072-.216,2.435,2.435,0,0,1,1.008,4.653Zm9.927-1.254H65.493a5.656,5.656,0,0,0,.088-.962,5.814,5.814,0,0,0-3.766-5.428,8,8,0,0,1,2.468-.408h3a5.1,5.1,0,0,1,5.1,5.1,1.7,1.7,0,0,1-1.7,1.7Zm20.394-6.8h10.2a1.7,1.7,0,0,1,0,3.4H75.607a8.477,8.477,0,0,0-3.227-5.054V80.877h13.6v1.7a5.1,5.1,0,0,0,5.1,5.1Z" transform="translate(-1 -1)"/>
        <path id="Trazado_125113" data-name="Trazado 125113" d="M57,42h3.4v3.4H57Z" transform="translate(38.173 27.68)"/>
        <path id="Trazado_125114" data-name="Trazado 125114" d="M53,42h3.4v3.4H53Z" transform="translate(35.375 27.68)"/>
        <path id="Trazado_125115" data-name="Trazado 125115" d="M49,42h3.4v3.4H49Z" transform="translate(32.576 27.68)"/>
        <path id="Trazado_125116" data-name="Trazado 125116" d="M42,8h3.4v3.4H42Z" transform="translate(27.68 3.897)"/>
        <path id="Trazado_125117" data-name="Trazado 125117" d="M46,8H59.6v3.4H46Z" transform="translate(30.478 3.897)"/>
        <path id="Trazado_125118" data-name="Trazado 125118" d="M42,12h3.4v3.4H42Z" transform="translate(27.68 6.695)"/>
        <path id="Trazado_125119" data-name="Trazado 125119" d="M46,12H59.6v3.4H46Z" transform="translate(30.478 6.695)"/>
        <path id="Trazado_125120" data-name="Trazado 125120" d="M42,16h3.4v3.4H42Z" transform="translate(27.68 9.493)"/>
        <path id="Trazado_125121" data-name="Trazado 125121" d="M46,16H59.6v3.4H46Z" transform="translate(30.478 9.493)"/>
        <path id="Trazado_125122" data-name="Trazado 125122" d="M43,28H26V41.6H43ZM39.6,38.2H29.4V31.4H39.6Z" transform="translate(16.488 17.887)"/>
        <path id="Trazado_125123" data-name="Trazado 125123" d="M26,24H43v3.4H26Z" transform="translate(16.488 15.089)"/>
        <path id="Trazado_125124" data-name="Trazado 125124" d="M26,20H43v3.4H26Z" transform="translate(16.488 12.291)"/>
        <path id="Trazado_125125" data-name="Trazado 125125" d="M26,16H43v3.4H26Z" transform="translate(16.488 9.493)"/>
        <path id="Trazado_125126" data-name="Trazado 125126" d="M38,34h3.4v3.4H38Z" transform="translate(24.882 22.084)"/>
        <path id="Trazado_125127" data-name="Trazado 125127" d="M42,34H70.892v3.4H42Z" transform="translate(27.68 22.084)"/>
        <path id="Trazado_125128" data-name="Trazado 125128" d="M38,30H73.69v3.4H38Z" transform="translate(24.882 19.286)"/>
        <path id="Trazado_125129" data-name="Trazado 125129" d="M38,26H73.69v3.4H38Z" transform="translate(24.882 16.488)"/>
      </g>
    </g>
    <path id="Trazado_212201" data-name="Trazado 212201" d="M26.549,16.186a5.193,5.193,0,0,1-.8,2.622,4.833,4.833,0,0,1-2.056,1.763,7,7,0,0,1-3.022.625,5.584,5.584,0,0,1-4.414-1.826,7.54,7.54,0,0,1-1.611-5.156v-.7a8.607,8.607,0,0,1,.728-3.657,5.513,5.513,0,0,1,2.095-2.422,5.844,5.844,0,0,1,3.164-.854,6.129,6.129,0,0,1,4.16,1.362,5.383,5.383,0,0,1,1.787,3.755H23.16a2.547,2.547,0,0,0-.654-1.865,2.691,2.691,0,0,0-1.875-.566,2.048,2.048,0,0,0-1.875.957,6.151,6.151,0,0,0-.625,3.057v1.006a6.806,6.806,0,0,0,.571,3.252,2.091,2.091,0,0,0,1.968.977,2.632,2.632,0,0,0,1.807-.557,2.363,2.363,0,0,0,.664-1.768Zm3.506,1.621a1.874,1.874,0,0,1,1.3.464,1.619,1.619,0,0,1,0,2.373,2.049,2.049,0,0,1-2.6,0,1.618,1.618,0,0,1,0-2.363A1.858,1.858,0,0,1,30.055,17.807ZM37.867,21H34.449V6.781h3.418Zm4.268-3.193a1.874,1.874,0,0,1,1.3.464,1.619,1.619,0,0,1,0,2.373,2.049,2.049,0,0,1-2.6,0,1.618,1.618,0,0,1,0-2.363A1.858,1.858,0,0,1,42.135,17.807Zm16.2-3.623a8.385,8.385,0,0,1-.771,3.682,5.7,5.7,0,0,1-2.192,2.466,6.1,6.1,0,0,1-3.237.864,6.191,6.191,0,0,1-3.223-.835,5.692,5.692,0,0,1-2.192-2.388,8.144,8.144,0,0,1-.825-3.564v-.8a8.422,8.422,0,0,1,.767-3.687,5.688,5.688,0,0,1,2.2-2.466,6.5,6.5,0,0,1,6.479-.01,5.79,5.79,0,0,1,2.2,2.446,8.18,8.18,0,0,1,.8,3.638Zm-3.486-.6a5.979,5.979,0,0,0-.708-3.218,2.271,2.271,0,0,0-2.026-1.1q-2.578,0-2.725,3.867l-.01,1.045a6.149,6.149,0,0,0,.693,3.213,2.268,2.268,0,0,0,2.061,1.123,2.24,2.24,0,0,0,2-1.1,5.982,5.982,0,0,0,.713-3.174Z" transform="translate(344 17332.273)" fill="#12263f"/>
    <path id="Trazado_212202" data-name="Trazado 212202" d="M13.431,21H10.022L4.983,12.152V21H1.556V6.781H4.983l5.029,8.848V6.781h3.418Zm8.311-1.143A3.393,3.393,0,0,1,18.919,21.2a3.328,3.328,0,0,1-2.632-1.011,4.251,4.251,0,0,1-.894-2.905V10.434h3.291V17.3A1.183,1.183,0,0,0,20,18.656a1.72,1.72,0,0,0,1.611-.811V10.434h3.311V21H21.839ZM20.569,6h3.477L21.331,9.066l-2.686,0Zm9.268,4.434.107,1.24a3.633,3.633,0,0,1,3.018-1.436,2.675,2.675,0,0,1,2.705,1.592,3.516,3.516,0,0,1,3.105-1.592q3.213,0,3.3,3.887V21h-3.3V14.33a2.014,2.014,0,0,0-.273-1.182,1.164,1.164,0,0,0-1-.371,1.559,1.559,0,0,0-1.455.869l.01.137V21h-3.3V14.35a2.117,2.117,0,0,0-.264-1.2,1.161,1.161,0,0,0-1.006-.371,1.578,1.578,0,0,0-1.445.869V21H26.751V10.434ZM49.065,21.2a5.432,5.432,0,0,1-3.936-1.45,5.008,5.008,0,0,1-1.5-3.774V15.7a6.489,6.489,0,0,1,.6-2.861,4.395,4.395,0,0,1,1.753-1.919,5.292,5.292,0,0,1,2.734-.679,4.574,4.574,0,0,1,3.516,1.382,5.43,5.43,0,0,1,1.289,3.853v1.279H46.976a2.372,2.372,0,0,0,.771,1.4,2.3,2.3,0,0,0,1.543.508,2.958,2.958,0,0,0,2.441-1.094l1.5,1.777a4.2,4.2,0,0,1-1.743,1.353A5.891,5.891,0,0,1,49.065,21.2Zm-.371-8.418q-1.445,0-1.719,1.914H50.3v-.254a1.63,1.63,0,0,0-.4-1.226A1.593,1.593,0,0,0,48.694,12.777Zm12.539.635-1.084-.078a1.947,1.947,0,0,0-1.992.977V21H54.866V10.434h3.086l.107,1.357a2.548,2.548,0,0,1,2.314-1.553,3.209,3.209,0,0,1,.918.117Zm.42,2.207a6.236,6.236,0,0,1,.615-2.817,4.4,4.4,0,0,1,1.768-1.9,5.323,5.323,0,0,1,2.705-.664,4.858,4.858,0,0,1,3.74,1.47,5.64,5.64,0,0,1,1.367,4v.117a5.472,5.472,0,0,1-1.372,3.921,4.871,4.871,0,0,1-3.716,1.45,4.927,4.927,0,0,1-3.623-1.353,5.29,5.29,0,0,1-1.475-3.667Zm3.291.205a3.932,3.932,0,0,0,.459,2.148,1.529,1.529,0,0,0,1.357.684q1.758,0,1.8-2.705v-.332q0-2.842-1.816-2.842-1.65,0-1.787,2.451ZM78.431,21V6.781h4.58a6.737,6.737,0,0,1,3.389.854,6.006,6.006,0,0,1,2.349,2.412,7.283,7.283,0,0,1,.854,3.491v.654a7.325,7.325,0,0,1-.825,3.5,6.032,6.032,0,0,1-2.324,2.422A6.589,6.589,0,0,1,83.108,21ZM81.858,9.428v8.936H83.05a2.666,2.666,0,0,0,2.266-1.05,5.145,5.145,0,0,0,.791-3.12v-.615a5.1,5.1,0,0,0-.791-3.105,2.713,2.713,0,0,0-2.3-1.045ZM96.321,21.2a5.432,5.432,0,0,1-3.936-1.45,5.008,5.008,0,0,1-1.5-3.774V15.7a6.489,6.489,0,0,1,.6-2.861,4.395,4.395,0,0,1,1.753-1.919,5.292,5.292,0,0,1,2.734-.679,4.574,4.574,0,0,1,3.516,1.382,5.43,5.43,0,0,1,1.289,3.853v1.279H94.231a2.372,2.372,0,0,0,.771,1.4,2.3,2.3,0,0,0,1.543.508,2.958,2.958,0,0,0,2.441-1.094l1.5,1.777a4.2,4.2,0,0,1-1.743,1.353A5.891,5.891,0,0,1,96.321,21.2Zm-.371-8.418q-1.445,0-1.719,1.914h3.32v-.254a1.63,1.63,0,0,0-.4-1.226A1.593,1.593,0,0,0,95.95,12.777Zm14.707,3.4V21h-3.428V6.781H112.9a6.608,6.608,0,0,1,2.886.6,4.526,4.526,0,0,1,1.943,1.709,4.667,4.667,0,0,1,.688,2.515,4.114,4.114,0,0,1-1.489,3.325,6.179,6.179,0,0,1-4.087,1.245Zm0-2.646H112.9a2.118,2.118,0,0,0,1.519-.5,1.85,1.85,0,0,0,.522-1.406,2.287,2.287,0,0,0-.537-1.592,1.9,1.9,0,0,0-1.465-.605h-2.285ZM125.208,21.2a5.432,5.432,0,0,1-3.936-1.45,5.008,5.008,0,0,1-1.5-3.774V15.7a6.489,6.489,0,0,1,.6-2.861,4.395,4.395,0,0,1,1.753-1.919,5.292,5.292,0,0,1,2.734-.679,4.574,4.574,0,0,1,3.516,1.382,5.43,5.43,0,0,1,1.289,3.853v1.279h-6.543a2.372,2.372,0,0,0,.771,1.4,2.3,2.3,0,0,0,1.543.508,2.958,2.958,0,0,0,2.441-1.094l1.5,1.777a4.2,4.2,0,0,1-1.743,1.353A5.891,5.891,0,0,1,125.208,21.2Zm-.371-8.418q-1.445,0-1.719,1.914h3.32v-.254a1.63,1.63,0,0,0-.4-1.226A1.593,1.593,0,0,0,124.837,12.777Zm12.539.635-1.084-.078a1.947,1.947,0,0,0-1.992.977V21h-3.291V10.434h3.086l.107,1.357a2.548,2.548,0,0,1,2.314-1.553,3.209,3.209,0,0,1,.918.117Zm6.719,4.619a.76.76,0,0,0-.439-.674,6.684,6.684,0,0,0-1.67-.527,7.615,7.615,0,0,1-2.031-.718,3.4,3.4,0,0,1-1.221-1.079,2.577,2.577,0,0,1-.42-1.455,2.92,2.92,0,0,1,1.2-2.4,4.948,4.948,0,0,1,3.145-.942,5.482,5.482,0,0,1,3.359.947,2.962,2.962,0,0,1,1.27,2.49h-3.3q0-1.27-1.338-1.27a1.326,1.326,0,0,0-.869.288.892.892,0,0,0-.352.718.819.819,0,0,0,.43.713,4.06,4.06,0,0,0,1.372.449,11.857,11.857,0,0,1,1.655.42,3.007,3.007,0,0,1,2.383,2.939,2.767,2.767,0,0,1-1.284,2.354,5.632,5.632,0,0,1-3.325.908,5.747,5.747,0,0,1-2.422-.488,4.05,4.05,0,0,1-1.66-1.328,3.007,3.007,0,0,1-.6-1.768h3.076a1.272,1.272,0,0,0,.488,1.069,2.009,2.009,0,0,0,1.2.337,1.58,1.58,0,0,0,1.011-.273A.875.875,0,0,0,144.095,18.031Zm4.3-2.412a6.236,6.236,0,0,1,.615-2.817,4.4,4.4,0,0,1,1.768-1.9,5.323,5.323,0,0,1,2.705-.664,4.858,4.858,0,0,1,3.74,1.47,5.64,5.64,0,0,1,1.367,4v.117a5.472,5.472,0,0,1-1.372,3.921A4.871,4.871,0,0,1,153.5,21.2a4.927,4.927,0,0,1-3.623-1.353,5.29,5.29,0,0,1-1.475-3.667Zm3.291.205a3.932,3.932,0,0,0,.459,2.148,1.529,1.529,0,0,0,1.357.684q1.758,0,1.8-2.705v-.332q0-2.842-1.816-2.842-1.65,0-1.787,2.451Zm11.377-5.391.107,1.24a3.583,3.583,0,0,1,3.018-1.436,3.015,3.015,0,0,1,2.466.986,4.7,4.7,0,0,1,.845,2.969V21h-3.3V14.33a1.783,1.783,0,0,0-.322-1.177,1.491,1.491,0,0,0-1.172-.376,1.569,1.569,0,0,0-1.436.762V21h-3.291V10.434ZM177.269,21a3.716,3.716,0,0,1-.312-.947,3.06,3.06,0,0,1-2.539,1.143,3.749,3.749,0,0,1-2.539-.9,2.875,2.875,0,0,1-1.045-2.271,2.955,2.955,0,0,1,1.27-2.6,6.468,6.468,0,0,1,3.691-.879h1.016v-.559q0-1.462-1.26-1.462a1.03,1.03,0,0,0-1.172,1.158h-3.291a2.95,2.95,0,0,1,1.3-2.487,5.479,5.479,0,0,1,3.325-.956,4.8,4.8,0,0,1,3.193.986,3.429,3.429,0,0,1,1.2,2.705v4.678a4.79,4.79,0,0,0,.449,2.227V21Zm-2.061-2.148a1.836,1.836,0,0,0,1.021-.264,1.653,1.653,0,0,0,.581-.6V16.3h-.957q-1.719,0-1.719,1.543a.942.942,0,0,0,.3.728A1.1,1.1,0,0,0,175.208,18.852Zm12.256-.82a.76.76,0,0,0-.439-.674,6.684,6.684,0,0,0-1.67-.527,7.615,7.615,0,0,1-2.031-.718,3.4,3.4,0,0,1-1.221-1.079,2.577,2.577,0,0,1-.42-1.455,2.92,2.92,0,0,1,1.2-2.4,4.948,4.948,0,0,1,3.145-.942,5.482,5.482,0,0,1,3.359.947,2.962,2.962,0,0,1,1.27,2.49h-3.3q0-1.27-1.338-1.27a1.326,1.326,0,0,0-.869.288.892.892,0,0,0-.352.718.819.819,0,0,0,.43.713,4.06,4.06,0,0,0,1.372.449,11.857,11.857,0,0,1,1.655.42,3.007,3.007,0,0,1,2.383,2.939,2.767,2.767,0,0,1-1.284,2.354,5.632,5.632,0,0,1-3.325.908,5.747,5.747,0,0,1-2.422-.488,4.05,4.05,0,0,1-1.66-1.328,3.007,3.007,0,0,1-.6-1.768h3.076a1.272,1.272,0,0,0,.488,1.069,2.009,2.009,0,0,0,1.2.337,1.58,1.58,0,0,0,1.011-.273A.875.875,0,0,0,187.464,18.031Zm9.277-2.393a6.455,6.455,0,0,1,1.084-3.955,3.568,3.568,0,0,1,3.027-1.445,3.035,3.035,0,0,1,2.383,1.113V6h3.3V21h-2.959l-.166-1.133a3.116,3.116,0,0,1-2.578,1.328,3.562,3.562,0,0,1-2.988-1.445A6.659,6.659,0,0,1,196.741,15.639Zm3.291.205q0,2.813,1.641,2.813a1.62,1.62,0,0,0,1.563-.918V13.715a1.576,1.576,0,0,0-1.543-.937q-1.523,0-1.65,2.461ZM213.519,21.2a5.432,5.432,0,0,1-3.936-1.45,5.008,5.008,0,0,1-1.5-3.774V15.7a6.489,6.489,0,0,1,.6-2.861,4.395,4.395,0,0,1,1.753-1.919,5.292,5.292,0,0,1,2.734-.679,4.574,4.574,0,0,1,3.516,1.382,5.43,5.43,0,0,1,1.289,3.853v1.279h-6.543a2.372,2.372,0,0,0,.771,1.4,2.3,2.3,0,0,0,1.543.508,2.958,2.958,0,0,0,2.441-1.094l1.5,1.777a4.2,4.2,0,0,1-1.743,1.353A5.891,5.891,0,0,1,213.519,21.2Zm-.371-8.418q-1.445,0-1.719,1.914h3.32v-.254a1.63,1.63,0,0,0-.4-1.226A1.593,1.593,0,0,0,213.147,12.777Zm15.781-6,3.174,9.893,3.164-9.893h4.512V21h-3.437V17.68l.332-6.8L233.235,21H230.97l-3.447-10.127.332,6.807V21h-3.428V6.781Zm14.912,11.025a1.874,1.874,0,0,1,1.3.464,1.619,1.619,0,0,1,0,2.373,2.049,2.049,0,0,1-2.6,0,1.618,1.618,0,0,1,0-2.363A1.858,1.858,0,0,1,243.841,17.807Zm16.2-3.623a8.385,8.385,0,0,1-.771,3.682,5.7,5.7,0,0,1-2.192,2.466,6.1,6.1,0,0,1-3.237.864,6.191,6.191,0,0,1-3.223-.835,5.692,5.692,0,0,1-2.192-2.388,8.144,8.144,0,0,1-.825-3.564v-.8a8.422,8.422,0,0,1,.767-3.687,5.688,5.688,0,0,1,2.2-2.466,6.5,6.5,0,0,1,6.479-.01,5.79,5.79,0,0,1,2.2,2.446,8.18,8.18,0,0,1,.8,3.638Zm-3.486-.6a5.979,5.979,0,0,0-.708-3.218,2.271,2.271,0,0,0-2.026-1.1q-2.578,0-2.725,3.867l-.01,1.045a6.15,6.15,0,0,0,.693,3.213,2.268,2.268,0,0,0,2.061,1.123,2.24,2.24,0,0,0,2-1.1,5.982,5.982,0,0,0,.713-3.174Zm5.947,4.219a1.874,1.874,0,0,1,1.3.464,1.619,1.619,0,0,1,0,2.373,2.049,2.049,0,0,1-2.6,0,1.618,1.618,0,0,1,0-2.363A1.858,1.858,0,0,1,262.5,17.807ZM266.663,21V6.781h4.58a6.737,6.737,0,0,1,3.389.854,6.006,6.006,0,0,1,2.349,2.412,7.283,7.283,0,0,1,.854,3.491v.654a7.325,7.325,0,0,1-.825,3.5,6.032,6.032,0,0,1-2.324,2.422,6.589,6.589,0,0,1-3.345.884Zm3.428-11.572v8.936h1.191a2.666,2.666,0,0,0,2.266-1.05,5.145,5.145,0,0,0,.791-3.12v-.615a5.1,5.1,0,0,0-.791-3.105,2.713,2.713,0,0,0-2.3-1.045Z" transform="translate(511 17332.273)" fill="#12263f"/>
    <path id="Trazado_212203" data-name="Trazado 212203" d="M10.281,6.781H13.7v9.756a4.665,4.665,0,0,1-.63,2.422,4.3,4.3,0,0,1-1.758,1.65A5.372,5.372,0,0,1,8.8,21.2a5.179,5.179,0,0,1-3.613-1.172A4.259,4.259,0,0,1,3.894,16.7H7.332a2.348,2.348,0,0,0,.337,1.416,1.334,1.334,0,0,0,1.128.439,1.276,1.276,0,0,0,1.1-.532,2.5,2.5,0,0,0,.386-1.489Zm5.01,8.838a6.236,6.236,0,0,1,.615-2.817,4.4,4.4,0,0,1,1.768-1.9,5.323,5.323,0,0,1,2.705-.664,4.858,4.858,0,0,1,3.74,1.47,5.64,5.64,0,0,1,1.367,4v.117a5.472,5.472,0,0,1-1.372,3.921A4.871,4.871,0,0,1,20.4,21.2a4.927,4.927,0,0,1-3.623-1.353A5.29,5.29,0,0,1,15.3,16.176Zm3.291.205a3.932,3.932,0,0,0,.459,2.148,1.529,1.529,0,0,0,1.357.684q1.758,0,1.8-2.705v-.332q0-2.842-1.816-2.842-1.65,0-1.787,2.451Zm14.746-2.412-1.084-.078a1.947,1.947,0,0,0-1.992.977V21H26.96V10.434h3.086l.107,1.357a2.548,2.548,0,0,1,2.314-1.553,3.209,3.209,0,0,1,.918.117Zm4.209-2.979.107,1.24a3.583,3.583,0,0,1,3.018-1.436,3.015,3.015,0,0,1,2.466.986,4.7,4.7,0,0,1,.845,2.969V21h-3.3V14.33a1.783,1.783,0,0,0-.322-1.177,1.491,1.491,0,0,0-1.172-.376,1.569,1.569,0,0,0-1.436.762V21H34.451V10.434ZM51.746,21a3.716,3.716,0,0,1-.312-.947A3.06,3.06,0,0,1,48.894,21.2a3.749,3.749,0,0,1-2.539-.9,2.875,2.875,0,0,1-1.045-2.271,2.955,2.955,0,0,1,1.27-2.6,6.468,6.468,0,0,1,3.691-.879h1.016v-.559q0-1.462-1.26-1.462a1.03,1.03,0,0,0-1.172,1.158H45.564a2.95,2.95,0,0,1,1.3-2.487,5.479,5.479,0,0,1,3.325-.956,4.8,4.8,0,0,1,3.193.986,3.429,3.429,0,0,1,1.2,2.705v4.678a4.79,4.79,0,0,0,.449,2.227V21Zm-2.061-2.148a1.836,1.836,0,0,0,1.021-.264,1.653,1.653,0,0,0,.581-.6V16.3H50.33q-1.719,0-1.719,1.543a.942.942,0,0,0,.3.728A1.1,1.1,0,0,0,49.685,18.852Zm6.309-3.213a6.455,6.455,0,0,1,1.084-3.955A3.568,3.568,0,0,1,60.1,10.238a3.035,3.035,0,0,1,2.383,1.113V6h3.3V21H62.83l-.166-1.133A3.116,3.116,0,0,1,60.085,21.2,3.562,3.562,0,0,1,57.1,19.75,6.659,6.659,0,0,1,55.994,15.639Zm3.291.205q0,2.813,1.641,2.813a1.62,1.62,0,0,0,1.563-.918V13.715a1.576,1.576,0,0,0-1.543-.937q-1.523,0-1.65,2.461ZM73.611,21a3.716,3.716,0,0,1-.312-.947A3.06,3.06,0,0,1,70.759,21.2a3.749,3.749,0,0,1-2.539-.9,2.875,2.875,0,0,1-1.045-2.271,2.955,2.955,0,0,1,1.27-2.6,6.468,6.468,0,0,1,3.691-.879h1.016v-.559q0-1.462-1.26-1.462a1.03,1.03,0,0,0-1.172,1.158H67.429a2.95,2.95,0,0,1,1.3-2.487,5.479,5.479,0,0,1,3.325-.956,4.8,4.8,0,0,1,3.193.986,3.429,3.429,0,0,1,1.2,2.705v4.678a4.79,4.79,0,0,0,.449,2.227V21ZM71.55,18.852a1.836,1.836,0,0,0,1.021-.264,1.653,1.653,0,0,0,.581-.6V16.3h-.957q-1.719,0-1.719,1.543a.942.942,0,0,0,.3.728A1.1,1.1,0,0,0,71.55,18.852ZM86.726,21h-3.3V6h3.3ZM94.7,21a3.716,3.716,0,0,1-.312-.947A3.06,3.06,0,0,1,91.853,21.2a3.749,3.749,0,0,1-2.539-.9,2.875,2.875,0,0,1-1.045-2.271,2.955,2.955,0,0,1,1.27-2.6,6.468,6.468,0,0,1,3.691-.879h1.016v-.559q0-1.462-1.26-1.462a1.03,1.03,0,0,0-1.172,1.158H88.523a2.95,2.95,0,0,1,1.3-2.487,5.479,5.479,0,0,1,3.325-.956,4.8,4.8,0,0,1,3.193.986,3.429,3.429,0,0,1,1.2,2.705v4.678A4.79,4.79,0,0,0,98,20.834V21Zm-2.061-2.148a1.836,1.836,0,0,0,1.021-.264,1.653,1.653,0,0,0,.581-.6V16.3h-.957q-1.719,0-1.719,1.543a.942.942,0,0,0,.3.728A1.1,1.1,0,0,0,92.644,18.852ZM109.177,15.8A6.44,6.44,0,0,1,108.1,19.8a3.6,3.6,0,0,1-3.027,1.4,3.122,3.122,0,0,1-2.6-1.279L102.341,21H99.392V6h3.291v5.283a3.013,3.013,0,0,1,2.373-1.045,3.6,3.6,0,0,1,3.047,1.416,6.473,6.473,0,0,1,1.074,3.984Zm-3.3-.21a4.3,4.3,0,0,0-.405-2.169,1.366,1.366,0,0,0-1.245-.648,1.576,1.576,0,0,0-1.543.848v4.192a1.585,1.585,0,0,0,1.563.838,1.4,1.4,0,0,0,1.475-1.131A8.121,8.121,0,0,0,105.876,15.595Zm4.336.024a6.236,6.236,0,0,1,.615-2.817,4.4,4.4,0,0,1,1.768-1.9,5.323,5.323,0,0,1,2.705-.664,4.858,4.858,0,0,1,3.74,1.47,5.64,5.64,0,0,1,1.367,4v.117a5.472,5.472,0,0,1-1.372,3.921,4.871,4.871,0,0,1-3.716,1.45,4.927,4.927,0,0,1-3.623-1.353,5.29,5.29,0,0,1-1.475-3.667Zm3.291.205a3.932,3.932,0,0,0,.459,2.148,1.529,1.529,0,0,0,1.357.684q1.758,0,1.8-2.705v-.332q0-2.842-1.816-2.842-1.65,0-1.787,2.451Zm14.746-2.412-1.084-.078a1.947,1.947,0,0,0-1.992.977V21h-3.291V10.434h3.086l.107,1.357a2.548,2.548,0,0,1,2.314-1.553,3.209,3.209,0,0,1,.918.117ZM135.1,21a3.716,3.716,0,0,1-.312-.947,3.06,3.06,0,0,1-2.539,1.143,3.749,3.749,0,0,1-2.539-.9,2.875,2.875,0,0,1-1.045-2.271,2.955,2.955,0,0,1,1.27-2.6,6.468,6.468,0,0,1,3.691-.879h1.016v-.559q0-1.462-1.26-1.462a1.03,1.03,0,0,0-1.172,1.158h-3.291a2.95,2.95,0,0,1,1.3-2.487,5.479,5.479,0,0,1,3.325-.956,4.8,4.8,0,0,1,3.193.986,3.429,3.429,0,0,1,1.2,2.705v4.678a4.79,4.79,0,0,0,.449,2.227V21Zm-2.061-2.148a1.836,1.836,0,0,0,1.021-.264,1.653,1.653,0,0,0,.581-.6V16.3h-.957q-1.719,0-1.719,1.543a.942.942,0,0,0,.3.728A1.1,1.1,0,0,0,133.035,18.852ZM143.23,21h-3.3V6h3.3Z" transform="translate(844.436 17332.273)" fill="#12263f"/>
    <path id="Trazado_212200" data-name="Trazado 212200" d="M57.926,16.186a5.193,5.193,0,0,1-.8,2.622,4.833,4.833,0,0,1-2.056,1.763,7,7,0,0,1-3.022.625,5.584,5.584,0,0,1-4.414-1.826,7.54,7.54,0,0,1-1.611-5.156v-.7a8.607,8.607,0,0,1,.728-3.657,5.513,5.513,0,0,1,2.095-2.422,5.844,5.844,0,0,1,3.164-.854,6.129,6.129,0,0,1,4.16,1.362,5.383,5.383,0,0,1,1.787,3.755H54.537a2.547,2.547,0,0,0-.654-1.865,2.691,2.691,0,0,0-1.875-.566,2.048,2.048,0,0,0-1.875.957,6.151,6.151,0,0,0-.625,3.057v1.006a6.806,6.806,0,0,0,.571,3.252,2.091,2.091,0,0,0,1.968.977,2.632,2.632,0,0,0,1.807-.557,2.363,2.363,0,0,0,.664-1.768Zm1.055-.566A6.236,6.236,0,0,1,59.6,12.8a4.4,4.4,0,0,1,1.768-1.9,5.323,5.323,0,0,1,2.705-.664,4.858,4.858,0,0,1,3.74,1.47,5.64,5.64,0,0,1,1.367,4v.117A5.472,5.472,0,0,1,67.8,19.745a4.871,4.871,0,0,1-3.716,1.45,4.927,4.927,0,0,1-3.623-1.353,5.29,5.29,0,0,1-1.475-3.667Zm3.291.205a3.932,3.932,0,0,0,.459,2.148,1.529,1.529,0,0,0,1.357.684q1.758,0,1.8-2.705v-.332q0-2.842-1.816-2.842-1.65,0-1.787,2.451Zm11.377-5.391.107,1.24a3.583,3.583,0,0,1,3.018-1.436,3.015,3.015,0,0,1,2.466.986,4.7,4.7,0,0,1,.845,2.969V21h-3.3V14.33a1.783,1.783,0,0,0-.322-1.177,1.491,1.491,0,0,0-1.172-.376,1.569,1.569,0,0,0-1.436.762V21H70.563V10.434Zm13.789,7.6A.76.76,0,0,0,87,17.357a6.684,6.684,0,0,0-1.67-.527,7.615,7.615,0,0,1-2.031-.718,3.4,3.4,0,0,1-1.221-1.079,2.577,2.577,0,0,1-.42-1.455,2.92,2.92,0,0,1,1.2-2.4A4.948,4.948,0,0,1,86,10.238a5.482,5.482,0,0,1,3.359.947,2.962,2.962,0,0,1,1.27,2.49h-3.3q0-1.27-1.338-1.27a1.326,1.326,0,0,0-.869.288.892.892,0,0,0-.352.718.819.819,0,0,0,.43.713,4.06,4.06,0,0,0,1.372.449,11.857,11.857,0,0,1,1.655.42,3.007,3.007,0,0,1,2.383,2.939,2.767,2.767,0,0,1-1.284,2.354A5.631,5.631,0,0,1,86,21.2a5.747,5.747,0,0,1-2.422-.488,4.05,4.05,0,0,1-1.66-1.328,3.007,3.007,0,0,1-.6-1.768H84.4a1.272,1.272,0,0,0,.488,1.069,2.009,2.009,0,0,0,1.2.337,1.58,1.58,0,0,0,1.011-.273A.875.875,0,0,0,87.438,18.031ZM95.982,7.807v2.627h1.738v2.285H95.982v4.834a1.234,1.234,0,0,0,.215.83,1.152,1.152,0,0,0,.85.234,4.828,4.828,0,0,0,.82-.059v2.354a6.074,6.074,0,0,1-1.855.283,3.448,3.448,0,0,1-2.51-.8,3.282,3.282,0,0,1-.811-2.432V12.719H91.344V10.434h1.348V7.807ZM104.967,21a3.716,3.716,0,0,1-.312-.947,3.06,3.06,0,0,1-2.539,1.143,3.749,3.749,0,0,1-2.539-.9,2.875,2.875,0,0,1-1.045-2.271,2.955,2.955,0,0,1,1.27-2.6,6.468,6.468,0,0,1,3.691-.879h1.016v-.559q0-1.462-1.26-1.462a1.03,1.03,0,0,0-1.172,1.158H98.785a2.95,2.95,0,0,1,1.3-2.487,5.479,5.479,0,0,1,3.325-.956,4.8,4.8,0,0,1,3.193.986,3.429,3.429,0,0,1,1.2,2.705v4.678a4.79,4.79,0,0,0,.449,2.227V21Zm-2.061-2.148a1.836,1.836,0,0,0,1.021-.264,1.653,1.653,0,0,0,.581-.6V16.3h-.957q-1.719,0-1.719,1.543a.942.942,0,0,0,.3.728A1.1,1.1,0,0,0,102.906,18.852Zm9.746-8.418.107,1.24a3.583,3.583,0,0,1,3.018-1.436,3.015,3.015,0,0,1,2.466.986,4.7,4.7,0,0,1,.845,2.969V21h-3.3V14.33a1.783,1.783,0,0,0-.322-1.177,1.491,1.491,0,0,0-1.172-.376,1.569,1.569,0,0,0-1.436.762V21h-3.291V10.434Zm12.09-2.627v2.627h1.738v2.285h-1.738v4.834a1.234,1.234,0,0,0,.215.83,1.152,1.152,0,0,0,.85.234,4.828,4.828,0,0,0,.82-.059v2.354a6.074,6.074,0,0,1-1.855.283,3.448,3.448,0,0,1-2.51-.8,3.282,3.282,0,0,1-.811-2.432V12.719H120.1V10.434h1.348V7.807ZM132.887,21.2a5.432,5.432,0,0,1-3.936-1.45,5.008,5.008,0,0,1-1.5-3.774V15.7a6.489,6.489,0,0,1,.6-2.861,4.395,4.395,0,0,1,1.753-1.919,5.292,5.292,0,0,1,2.734-.679,4.574,4.574,0,0,1,3.516,1.382,5.43,5.43,0,0,1,1.289,3.853v1.279H130.8a2.372,2.372,0,0,0,.771,1.4,2.3,2.3,0,0,0,1.543.508,2.958,2.958,0,0,0,2.441-1.094l1.5,1.777a4.2,4.2,0,0,1-1.743,1.353A5.891,5.891,0,0,1,132.887,21.2Zm-.371-8.418q-1.445,0-1.719,1.914h3.32v-.254a1.63,1.63,0,0,0-.4-1.226A1.593,1.593,0,0,0,132.516,12.777Zm10.713,2.861a6.455,6.455,0,0,1,1.084-3.955,3.568,3.568,0,0,1,3.027-1.445,3.035,3.035,0,0,1,2.383,1.113V6h3.3V21h-2.959l-.166-1.133A3.116,3.116,0,0,1,147.32,21.2a3.562,3.562,0,0,1-2.988-1.445A6.659,6.659,0,0,1,143.229,15.639Zm3.291.205q0,2.813,1.641,2.813a1.62,1.62,0,0,0,1.563-.918V13.715a1.576,1.576,0,0,0-1.543-.937q-1.523,0-1.65,2.461ZM160.006,21.2a5.432,5.432,0,0,1-3.936-1.45,5.008,5.008,0,0,1-1.5-3.774V15.7a6.489,6.489,0,0,1,.6-2.861,4.395,4.395,0,0,1,1.753-1.919,5.292,5.292,0,0,1,2.734-.679,4.574,4.574,0,0,1,3.516,1.382,5.43,5.43,0,0,1,1.289,3.853v1.279h-6.543a2.372,2.372,0,0,0,.771,1.4,2.3,2.3,0,0,0,1.543.508,2.958,2.958,0,0,0,2.441-1.094l1.5,1.777a4.2,4.2,0,0,1-1.743,1.353A5.891,5.891,0,0,1,160.006,21.2Zm-.371-8.418q-1.445,0-1.719,1.914h3.32v-.254a1.63,1.63,0,0,0-.4-1.226A1.593,1.593,0,0,0,159.635,12.777Zm10.713,2.861a6.455,6.455,0,0,1,1.084-3.955,3.568,3.568,0,0,1,3.027-1.445,3.035,3.035,0,0,1,2.383,1.113V6h3.3V21h-2.959l-.166-1.133a3.116,3.116,0,0,1-2.578,1.328,3.562,3.562,0,0,1-2.988-1.445A6.659,6.659,0,0,1,170.348,15.639Zm3.291.205q0,2.813,1.641,2.813a1.62,1.62,0,0,0,1.563-.918V13.715a1.576,1.576,0,0,0-1.543-.937q-1.523,0-1.65,2.461ZM185.6,21h-3.311V10.434H185.6Zm-1.23-14.8h3.477l-2.715,3.066-2.686,0Zm9.3,14.8a3.716,3.716,0,0,1-.312-.947,3.06,3.06,0,0,1-2.539,1.143,3.749,3.749,0,0,1-2.539-.9,2.875,2.875,0,0,1-1.045-2.271,2.955,2.955,0,0,1,1.27-2.6,6.468,6.468,0,0,1,3.691-.879h1.016v-.559q0-1.462-1.26-1.462a1.03,1.03,0,0,0-1.172,1.158h-3.291a2.95,2.95,0,0,1,1.3-2.487,5.479,5.479,0,0,1,3.325-.956,4.8,4.8,0,0,1,3.193.986,3.429,3.429,0,0,1,1.2,2.705v4.678a4.79,4.79,0,0,0,.449,2.227V21Zm-2.061-2.148a1.836,1.836,0,0,0,1.021-.264,1.653,1.653,0,0,0,.581-.6V16.3h-.957q-1.719,0-1.719,1.543a.942.942,0,0,0,.3.728A1.1,1.1,0,0,0,191.607,18.852Zm12.256-.82a.76.76,0,0,0-.439-.674,6.684,6.684,0,0,0-1.67-.527,7.615,7.615,0,0,1-2.031-.718,3.4,3.4,0,0,1-1.221-1.079,2.577,2.577,0,0,1-.42-1.455,2.92,2.92,0,0,1,1.2-2.4,4.948,4.948,0,0,1,3.145-.942,5.482,5.482,0,0,1,3.359.947,2.962,2.962,0,0,1,1.27,2.49h-3.3q0-1.27-1.338-1.27a1.326,1.326,0,0,0-.869.288.892.892,0,0,0-.352.718.819.819,0,0,0,.43.713,4.06,4.06,0,0,0,1.372.449,11.857,11.857,0,0,1,1.655.42,3.007,3.007,0,0,1,2.383,2.939,2.767,2.767,0,0,1-1.284,2.354,5.632,5.632,0,0,1-3.325.908,5.747,5.747,0,0,1-2.422-.488,4.05,4.05,0,0,1-1.66-1.328,3.007,3.007,0,0,1-.6-1.768h3.076a1.272,1.272,0,0,0,.488,1.069,2.009,2.009,0,0,0,1.2.337,1.58,1.58,0,0,0,1.011-.273A.875.875,0,0,0,203.863,18.031ZM44.708,42.795A6.372,6.372,0,0,1,43.6,46.726a3.554,3.554,0,0,1-2.993,1.47,3.046,3.046,0,0,1-2.393-1.064v4.932H34.923V37.434H38l.1.977a3.046,3.046,0,0,1,2.49-1.172,3.582,3.582,0,0,1,3.037,1.44,6.45,6.45,0,0,1,1.084,3.96Zm-3.291-.205q0-2.812-1.641-2.812a1.549,1.549,0,0,0-1.562.84v4.16a1.6,1.6,0,0,0,1.582.879q1.572,0,1.621-2.715ZM52.55,40.412l-1.084-.078a1.947,1.947,0,0,0-1.992.977V48H46.183V37.434h3.086l.107,1.357a2.548,2.548,0,0,1,2.314-1.553,3.209,3.209,0,0,1,.918.117Zm.42,2.207a6.236,6.236,0,0,1,.615-2.817,4.4,4.4,0,0,1,1.768-1.9,5.323,5.323,0,0,1,2.705-.664,4.858,4.858,0,0,1,3.74,1.47,5.64,5.64,0,0,1,1.367,4v.117a5.472,5.472,0,0,1-1.372,3.921,4.871,4.871,0,0,1-3.716,1.45,4.927,4.927,0,0,1-3.623-1.353,5.29,5.29,0,0,1-1.475-3.667Zm3.291.205a3.932,3.932,0,0,0,.459,2.148,1.529,1.529,0,0,0,1.357.684q1.758,0,1.8-2.705v-.332q0-2.842-1.816-2.842-1.65,0-1.787,2.451Zm7.939-.186a6.455,6.455,0,0,1,1.084-3.955,3.568,3.568,0,0,1,3.027-1.445,3.035,3.035,0,0,1,2.383,1.113V33H74V48H71.036l-.166-1.133A3.116,3.116,0,0,1,68.292,48.2,3.562,3.562,0,0,1,65.3,46.75,6.659,6.659,0,0,1,64.2,42.639Zm3.291.205q0,2.813,1.641,2.813a1.62,1.62,0,0,0,1.563-.918V40.715a1.576,1.576,0,0,0-1.543-.937q-1.523,0-1.65,2.461Zm14.668,4.014A3.393,3.393,0,0,1,79.337,48.2a3.328,3.328,0,0,1-2.632-1.011,4.251,4.251,0,0,1-.894-2.905V37.434H79.1V44.3a1.183,1.183,0,0,0,1.318,1.357,1.72,1.72,0,0,0,1.611-.811V37.434h3.311V48H82.257Zm9.453-1.2a1.464,1.464,0,0,0,1.074-.376,1.379,1.379,0,0,0,.371-1.05h3.086A3.653,3.653,0,0,1,94.9,47.082,4.631,4.631,0,0,1,91.69,48.2a4.689,4.689,0,0,1-3.633-1.445,5.7,5.7,0,0,1-1.328-4v-.137a6.436,6.436,0,0,1,.591-2.827,4.3,4.3,0,0,1,1.7-1.885,5.081,5.081,0,0,1,2.637-.659,4.573,4.573,0,0,1,3.271,1.143,4.053,4.053,0,0,1,1.211,3.1H93.058a1.806,1.806,0,0,0-.4-1.26,1.382,1.382,0,0,0-1.074-.439q-1.279,0-1.494,1.631a11.508,11.508,0,0,0-.068,1.426,4.52,4.52,0,0,0,.381,2.207A1.319,1.319,0,0,0,91.612,45.656Zm9.756-10.85v2.627h1.738v2.285h-1.738v4.834a1.234,1.234,0,0,0,.215.83,1.152,1.152,0,0,0,.85.234,4.828,4.828,0,0,0,.82-.059v2.354a6.074,6.074,0,0,1-1.855.283,3.448,3.448,0,0,1-2.51-.8,3.282,3.282,0,0,1-.811-2.432V39.719H96.729V37.434h1.348V34.807ZM107.872,48h-3.3V37.434h3.3Zm-3.5-13.291a1.469,1.469,0,0,1,.508-1.152,2.159,2.159,0,0,1,2.637,0,1.561,1.561,0,0,1,0,2.3,2.159,2.159,0,0,1-2.637,0A1.469,1.469,0,0,1,104.376,34.709Zm9.736,9.375,1.67-6.65h3.467L115.8,48h-3.359L109,37.434h3.477Zm5.557-1.465a6.236,6.236,0,0,1,.615-2.817,4.4,4.4,0,0,1,1.768-1.9,5.323,5.323,0,0,1,2.705-.664,4.858,4.858,0,0,1,3.74,1.47,5.64,5.64,0,0,1,1.367,4v.117a5.472,5.472,0,0,1-1.372,3.921,4.871,4.871,0,0,1-3.716,1.45,4.927,4.927,0,0,1-3.623-1.353,5.29,5.29,0,0,1-1.475-3.667Zm3.291.205a3.932,3.932,0,0,0,.459,2.148,1.529,1.529,0,0,0,1.357.684q1.758,0,1.8-2.705v-.332q0-2.842-1.816-2.842-1.65,0-1.787,2.451Zm13.887,2.207a.76.76,0,0,0-.439-.674,6.685,6.685,0,0,0-1.67-.527,7.615,7.615,0,0,1-2.031-.718,3.4,3.4,0,0,1-1.221-1.079,2.577,2.577,0,0,1-.42-1.455,2.92,2.92,0,0,1,1.2-2.4,4.948,4.948,0,0,1,3.145-.942,5.482,5.482,0,0,1,3.359.947,2.962,2.962,0,0,1,1.27,2.49h-3.3q0-1.27-1.338-1.27a1.326,1.326,0,0,0-.869.288.892.892,0,0,0-.352.718.819.819,0,0,0,.43.713,4.06,4.06,0,0,0,1.372.449,11.857,11.857,0,0,1,1.655.42,3.007,3.007,0,0,1,2.383,2.939,2.767,2.767,0,0,1-1.284,2.354,5.632,5.632,0,0,1-3.325.908,5.747,5.747,0,0,1-2.422-.488,4.05,4.05,0,0,1-1.66-1.328,3.007,3.007,0,0,1-.6-1.768h3.076a1.272,1.272,0,0,0,.488,1.069,2.009,2.009,0,0,0,1.2.337,1.58,1.58,0,0,0,1.011-.273A.875.875,0,0,0,136.847,45.031Zm19.5-2.236a6.372,6.372,0,0,1-1.108,3.931,3.554,3.554,0,0,1-2.993,1.47,3.046,3.046,0,0,1-2.393-1.064v4.932h-3.291V37.434h3.076l.1.977a3.046,3.046,0,0,1,2.49-1.172,3.582,3.582,0,0,1,3.037,1.44,6.45,6.45,0,0,1,1.084,3.96Zm-3.291-.205q0-2.812-1.641-2.812a1.549,1.549,0,0,0-1.562.84v4.16a1.6,1.6,0,0,0,1.582.879q1.572,0,1.621-2.715Zm4.326.029A6.236,6.236,0,0,1,158,39.8a4.4,4.4,0,0,1,1.768-1.9,5.323,5.323,0,0,1,2.705-.664,4.858,4.858,0,0,1,3.74,1.47,5.64,5.64,0,0,1,1.367,4v.117a5.472,5.472,0,0,1-1.372,3.921,4.871,4.871,0,0,1-3.716,1.45,4.927,4.927,0,0,1-3.623-1.353,5.29,5.29,0,0,1-1.475-3.667Zm3.291.205a3.932,3.932,0,0,0,.459,2.148,1.529,1.529,0,0,0,1.357.684q1.758,0,1.8-2.705v-.332q0-2.842-1.816-2.842-1.65,0-1.787,2.451Zm14.746-2.412-1.084-.078a1.947,1.947,0,0,0-1.992.977V48h-3.291V37.434h3.086l.107,1.357a2.548,2.548,0,0,1,2.314-1.553,3.209,3.209,0,0,1,.918.117Zm9.277-2.979.107,1.24a3.633,3.633,0,0,1,3.018-1.436,2.675,2.675,0,0,1,2.705,1.592,3.516,3.516,0,0,1,3.105-1.592q3.213,0,3.3,3.887V48h-3.3V41.33a2.014,2.014,0,0,0-.273-1.182,1.164,1.164,0,0,0-1-.371,1.559,1.559,0,0,0-1.455.869l.01.137V48h-3.3V41.35a2.117,2.117,0,0,0-.264-1.2,1.161,1.161,0,0,0-1.006-.371,1.578,1.578,0,0,0-1.445.869V48h-3.291V37.434ZM203.927,48.2a5.432,5.432,0,0,1-3.936-1.45,5.008,5.008,0,0,1-1.5-3.774V42.7a6.489,6.489,0,0,1,.6-2.861,4.395,4.395,0,0,1,1.753-1.919,5.292,5.292,0,0,1,2.734-.679,4.574,4.574,0,0,1,3.516,1.382,5.43,5.43,0,0,1,1.289,3.853v1.279h-6.543a2.372,2.372,0,0,0,.771,1.4,2.3,2.3,0,0,0,1.543.508,2.958,2.958,0,0,0,2.441-1.094l1.5,1.777a4.2,4.2,0,0,1-1.743,1.353A5.891,5.891,0,0,1,203.927,48.2Zm-.371-8.418q-1.445,0-1.719,1.914h3.32v-.254a1.63,1.63,0,0,0-.4-1.226A1.593,1.593,0,0,0,203.556,39.777Zm11.68,5.254a.76.76,0,0,0-.439-.674,6.685,6.685,0,0,0-1.67-.527,7.615,7.615,0,0,1-2.031-.718,3.4,3.4,0,0,1-1.221-1.079,2.577,2.577,0,0,1-.42-1.455,2.92,2.92,0,0,1,1.2-2.4,4.948,4.948,0,0,1,3.145-.942,5.482,5.482,0,0,1,3.359.947,2.962,2.962,0,0,1,1.27,2.49h-3.3q0-1.27-1.338-1.27a1.326,1.326,0,0,0-.869.288.892.892,0,0,0-.352.718.819.819,0,0,0,.43.713,4.06,4.06,0,0,0,1.372.449,11.857,11.857,0,0,1,1.655.42,3.007,3.007,0,0,1,2.383,2.939,2.767,2.767,0,0,1-1.284,2.354,5.632,5.632,0,0,1-3.325.908,5.747,5.747,0,0,1-2.422-.488,4.05,4.05,0,0,1-1.66-1.328,3.007,3.007,0,0,1-.6-1.768H212.2a1.272,1.272,0,0,0,.488,1.069,2.009,2.009,0,0,0,1.2.337,1.58,1.58,0,0,0,1.011-.273A.875.875,0,0,0,215.235,45.031Z" transform="translate(1062 17318.773)" fill="#12263f"/>
    <g id="Grupo_80804" data-name="Grupo 80804" transform="translate(-37 167.273)">
      <rect id="Rectángulo_35055" data-name="Rectángulo 35055" width="33.075" height="7" transform="translate(521.962 17110)" fill="#f14141"/>
      <rect id="Rectángulo_39300" data-name="Rectángulo 39300" width="33.075" height="7" transform="translate(521.962 17094)" fill="#f14141"/>
    </g>
    <g id="Grupo_80851" data-name="Grupo 80851" transform="translate(251.903 174.161)">
      <rect id="Rectángulo_35055-2" data-name="Rectángulo 35055" width="39.708" height="5.573" transform="translate(517.679 17083.615) rotate(40)" fill="#f14141"/>
      <rect id="Rectángulo_39301" data-name="Rectángulo 39301" width="39.707" height="5.573" transform="translate(548.096 17087.885) rotate(140)" fill="#f14141"/>
    </g>
    <g id="Grupo_148883" data-name="Grupo 148883" transform="translate(510.903 174.161)">
      <rect id="Rectángulo_35055-3" data-name="Rectángulo 35055" width="39.708" height="5.573" transform="translate(517.679 17083.615) rotate(40)" fill="#f14141"/>
      <rect id="Rectángulo_39301-2" data-name="Rectángulo 39301" width="39.707" height="5.573" transform="translate(548.096 17087.885) rotate(140)" fill="#f14141"/>
    </g>
    <g id="humano" transform="translate(594 17205.273)">
      <g id="Grupo_80849" data-name="Grupo 80849" transform="translate(2.694 2.694)">
        <g id="Grupo_80805" data-name="Grupo 80805" transform="translate(13.718 10.161)">
          <path id="Trazado_125130" data-name="Trazado 125130" d="M26.7,14.774H10.1a8.47,8.47,0,0,1,16.6,0Z" transform="translate(-10.1 -8)" fill="#656d78"/>
        </g>
        <g id="Grupo_80806" data-name="Grupo 80806" transform="translate(42.508)">
          <path id="Trazado_125131" data-name="Trazado 125131" d="M43.7,8.774H27.1a8.47,8.47,0,0,1,16.6,0Z" transform="translate(-27.1 -2)" fill="#b27946"/>
        </g>
        <g id="Grupo_80807" data-name="Grupo 80807" transform="translate(71.298 10.161)">
          <path id="Trazado_125132" data-name="Trazado 125132" d="M54.8,8.339A8.48,8.48,0,0,1,60.7,14.774H44.1A8.468,8.468,0,0,1,52.4,8,8.685,8.685,0,0,1,54.8,8.339Z" transform="translate(-44.1 -8)" fill="#e6e9ed"/>
        </g>
        <g id="Grupo_80808" data-name="Grupo 80808" transform="translate(82.002 6.774)">
          <path id="Trazado_125133" data-name="Trazado 125133" d="M63.257,12.774a6.772,6.772,0,0,1-6.774,6.774h-.169a8.553,8.553,0,0,0,0-3.387A8.48,8.48,0,0,0,50.42,9.726a6.782,6.782,0,0,1,12.837,3.048Z" transform="translate(-50.42 -6)" fill="#e6e9ed"/>
        </g>
        <g id="Grupo_80809" data-name="Grupo 80809" transform="translate(10.331 27.266)">
          <path id="Trazado_125134" data-name="Trazado 125134" d="M14.7,19.624A5.074,5.074,0,0,0,19.785,24.7H8.1a8.462,8.462,0,0,1,6.6-6.6Z" transform="translate(-8.1 -18.1)" fill="#b4dd7f"/>
        </g>
        <g id="Grupo_80810" data-name="Grupo 80810" transform="translate(22.016 27.266)">
          <path id="Trazado_125135" data-name="Trazado 125135" d="M26.8,25.5a17.982,17.982,0,0,0-1.321,4.251,10.2,10.2,0,0,0-8.79-5.047H15a5.088,5.088,0,0,0,5.081-5.081V18.1A8.477,8.477,0,0,1,26.8,25.5Z" transform="translate(-15 -18.1)" fill="#b4dd7f"/>
        </g>
        <g id="Grupo_80811" data-name="Grupo 80811" transform="translate(79.597 27.266)">
          <path id="Trazado_125136" data-name="Trazado 125136" d="M60.855,26.4v1.626A11.368,11.368,0,0,0,52.81,24.7H49a5.088,5.088,0,0,0,5.081-5.081V18.1A8.468,8.468,0,0,1,60.855,26.4Z" transform="translate(-49 -18.1)" fill="#b4dd7f"/>
        </g>
        <g id="Grupo_80812" data-name="Grupo 80812" transform="translate(67.793 27.266)">
          <path id="Trazado_125137" data-name="Trazado 125137" d="M53.834,24.7h-.423a11.4,11.4,0,0,0-9.924,5.775H43.47A18.328,18.328,0,0,0,42.03,25.5a8.477,8.477,0,0,1,6.723-7.4v1.524A5.074,5.074,0,0,0,53.834,24.7Z" transform="translate(-42.03 -18.1)" fill="#b4dd7f"/>
        </g>
        <g id="Grupo_80813" data-name="Grupo 80813" transform="translate(38.952 17.105)">
          <path id="Trazado_125138" data-name="Trazado 125138" d="M31.774,13.624A5.074,5.074,0,0,0,36.855,18.7,18.544,18.544,0,0,0,25,22.956V20.4a8.468,8.468,0,0,1,6.774-8.3Z" transform="translate(-25 -12.1)" fill="#ff826e"/>
        </g>
        <g id="Grupo_80814" data-name="Grupo 80814" transform="translate(50.806 17.105)">
          <path id="Trazado_125139" data-name="Trazado 125139" d="M43.855,20.4v2.557A18.544,18.544,0,0,0,32,18.7a5.088,5.088,0,0,0,5.081-5.081V12.1a8.435,8.435,0,0,1,6.774,8.3Z" transform="translate(-32 -12.1)" fill="#ff826e"/>
        </g>
        <g id="Grupo_80815" data-name="Grupo 80815" transform="translate(0 67.285)">
          <path id="Trazado_125140" data-name="Trazado 125140" d="M14.414,47.827l3.963,7.35,3.946,7.333V76.058H2V53.094a11.638,11.638,0,0,1,4.657-9.315,11.457,11.457,0,0,1,4.471-2.049Z" transform="translate(-2 -41.73)" fill="#ff826e"/>
        </g>
        <g id="Grupo_80816" data-name="Grupo 80816" transform="translate(20.323 81.781)">
          <path id="Trazado_125141" data-name="Trazado 125141" d="M20.774,56.573V70.121H14V56.573l3.387-6.283v4.59a1.7,1.7,0,0,0,1.694,1.694Z" transform="translate(-14 -50.29)" fill="#ff826e"/>
        </g>
        <g id="Grupo_80817" data-name="Grupo 80817" transform="translate(16.377 76.21)">
          <path id="Trazado_125142" data-name="Trazado 125142" d="M13.922,47h5.64A17.651,17.651,0,0,0,19,51.369v1.2l-3.387,6.283L11.67,51.522Z" transform="translate(-11.67 -47)" fill="#e6e9ed"/>
        </g>
        <g id="Grupo_80818" data-name="Grupo 80818" transform="translate(16.935 69.435)">
          <path id="Trazado_125143" data-name="Trazado 125143" d="M15.387,43l5.589,2.794a16.386,16.386,0,0,0-1.626,3.98H13.694L12,44.694Z" transform="translate(-12 -43)" fill="#ccd1d9"/>
        </g>
        <g id="Grupo_80819" data-name="Grupo 80819" transform="translate(12.414 71.129)">
          <path id="Trazado_125144" data-name="Trazado 125144" d="M15.545,49.081,13.293,53.6,9.33,46.252,13.852,44Z" transform="translate(-9.33 -44)" fill="#fcd770"/>
        </g>
        <g id="Grupo_80820" data-name="Grupo 80820" transform="translate(20.323 66.048)">
          <path id="Trazado_125145" data-name="Trazado 125145" d="M19.081,41l5.047,1.016a16.586,16.586,0,0,0-4.539,5.165L14,44.387Z" transform="translate(-14 -41)" fill="#ffc729"/>
        </g>
        <g id="Grupo_80821" data-name="Grupo 80821" transform="translate(9.128 66.048)">
          <path id="Trazado_125146" data-name="Trazado 125146" d="M18.584,44.387,15.2,46.081l-4.522,2.252-3.285-6.1a1.248,1.248,0,0,1,.237-.068L13.5,41Z" transform="translate(-7.39 -41)" fill="#ffc729"/>
        </g>
        <g id="Grupo_80822" data-name="Grupo 80822" transform="translate(6.774 33.871)">
          <path id="Trazado_125147" data-name="Trazado 125147" d="M31.4,39.85a12.7,12.7,0,0,1-2.354,3.015l-1.2,1.152a7.98,7.98,0,0,0,.169-1.694V39.139a6.79,6.79,0,0,0-5.131-6.571L21.767,32.3l-.017-.017a5.785,5.785,0,0,1-3.844,2.286l-3.912.559a3.4,3.4,0,0,0-2.913,3.353v3.844a7.98,7.98,0,0,0,.169,1.694l-1.2-1.152A12.935,12.935,0,0,1,6,33.431V25.387A3.4,3.4,0,0,1,9.387,22H22.935a10.2,10.2,0,0,1,8.79,5.047,17.615,17.615,0,0,0-.322,3.421Z" transform="translate(-6 -22)" fill="#b27946"/>
        </g>
        <g id="Grupo_80823" data-name="Grupo 80823" transform="translate(69.232 33.871)">
          <path id="Trazado_125148" data-name="Trazado 125148" d="M63.406,38.478a3.4,3.4,0,0,0-2.913-3.353l-3.912-.559a5.785,5.785,0,0,1-3.844-2.286l-.017.017-1.118.271a6.79,6.79,0,0,0-5.131,6.571v3.184a7.98,7.98,0,0,0,.169,1.694l-1.2-1.152a12.7,12.7,0,0,1-2.354-3.015V30.468a17.684,17.684,0,0,0-.2-2.693H42.9A11.4,11.4,0,0,1,52.821,22h4.234A11.448,11.448,0,0,1,68.486,33.431a12.935,12.935,0,0,1-4.048,9.433l-1.2,1.152a7.981,7.981,0,0,0,.169-1.694Z" transform="translate(-42.88 -22)" fill="#b27946"/>
        </g>
        <g id="Grupo_80824" data-name="Grupo 80824" transform="translate(81.29 67.285)">
          <path id="Trazado_125149" data-name="Trazado 125149" d="M63.548,76.058H50V62.51l3.946-7.333,3.963-7.35,3.285-6.1a11.608,11.608,0,0,1,7.892,6.148,11.707,11.707,0,0,1,1.236,5.216V76.058Z" transform="translate(-50 -41.73)" fill="#e6e9ed"/>
        </g>
        <g id="Grupo_80825" data-name="Grupo 80825" transform="translate(74.516 81.781)">
          <path id="Trazado_125150" data-name="Trazado 125150" d="M52.774,56.573V70.121H46V56.573h1.694a1.7,1.7,0,0,0,1.694-1.694V50.29Z" transform="translate(-46 -50.29)" fill="#e6e9ed"/>
        </g>
        <g id="Grupo_80826" data-name="Grupo 80826" transform="translate(77.344 76.21)">
          <path id="Trazado_125151" data-name="Trazado 125151" d="M53.31,47l2.252,4.522-3.946,7.333-3.387-6.283v-1.2A17.651,17.651,0,0,0,47.67,47Z" transform="translate(-47.67 -47)" fill="#fcd770"/>
        </g>
        <g id="Grupo_80827" data-name="Grupo 80827" transform="translate(75.702 69.435)">
          <path id="Trazado_125152" data-name="Trazado 125152" d="M55.676,44.694l-1.694,5.081H48.326a16.386,16.386,0,0,0-1.626-3.98L52.289,43Z" transform="translate(-46.7 -43)" fill="#ffc729"/>
        </g>
        <g id="Grupo_80828" data-name="Grupo 80828" transform="translate(82.984 71.129)">
          <path id="Trazado_125153" data-name="Trazado 125153" d="M57.215,46.252,53.252,53.6,51,49.081,52.694,44Z" transform="translate(-51 -44)" fill="#ff826e"/>
        </g>
        <g id="Grupo_80829" data-name="Grupo 80829" transform="translate(81.29 66.048)">
          <path id="Trazado_125154" data-name="Trazado 125154" d="M61.194,42.236l-3.285,6.1-4.522-2.252L50,44.387,55.081,41l5.877,1.169a1.248,1.248,0,0,1,.237.068Z" transform="translate(-50 -41)" fill="#fc6e51"/>
        </g>
        <g id="Grupo_80830" data-name="Grupo 80830" transform="translate(71.163 66.048)">
          <path id="Trazado_125155" data-name="Trazado 125155" d="M54.147,44.387l-5.589,2.794a16.586,16.586,0,0,0-4.539-5.165L49.067,41Z" transform="translate(-44.02 -41)" fill="#fc6e51"/>
        </g>
        <g id="Grupo_80831" data-name="Grupo 80831" transform="translate(27.097 88.065)">
          <path id="Trazado_125156" data-name="Trazado 125156" d="M28.161,62.468v5.081H18V54h7.13a20.324,20.324,0,0,0,1.016,3.421Z" transform="translate(-18 -54)" fill="#f0d0b4"/>
        </g>
        <g id="Grupo_80832" data-name="Grupo 80832" transform="translate(64.355 88.065)">
          <path id="Trazado_125157" data-name="Trazado 125157" d="M50.161,54V67.548H40V62.468l2.015-5.047A20.324,20.324,0,0,0,43.031,54Z" transform="translate(-40 -54)" fill="#f0d0b4"/>
        </g>
        <g id="Grupo_80833" data-name="Grupo 80833" transform="translate(23.71 63.627)">
          <path id="Trazado_125158" data-name="Trazado 125158" d="M26.517,64.008H17.694A1.7,1.7,0,0,1,16,62.314V56.522a17.651,17.651,0,0,1,.559-4.369h.017a16.386,16.386,0,0,1,1.626-3.98,16.586,16.586,0,0,1,4.539-5.165,11.843,11.843,0,0,1,1.744-1.135,17.023,17.023,0,0,1,5.877-2.083l1.406-.22,4.945,9.2L43.1,60.621V77.556H29.548V72.476l-2.015-5.047a20.324,20.324,0,0,1-1.016-3.421Z" transform="translate(-16 -39.57)" fill="#b4dd7f"/>
        </g>
        <g id="Grupo_80834" data-name="Grupo 80834" transform="translate(50.806 63.627)">
          <path id="Trazado_125159" data-name="Trazado 125159" d="M48.58,64.008a20.324,20.324,0,0,1-1.016,3.421l-2.015,5.047v5.081H32V60.621l6.385-11.855,4.945-9.2,1.406.22a17.023,17.023,0,0,1,5.877,2.083,11.842,11.842,0,0,1,1.744,1.135A16.586,16.586,0,0,1,56.9,48.173a16.386,16.386,0,0,1,1.626,3.98h.017a17.651,17.651,0,0,1,.559,4.369v5.792A1.7,1.7,0,0,1,57.4,64.008H48.58Z" transform="translate(-32 -39.57)" fill="#b4dd7f"/>
        </g>
        <g id="Grupo_80835" data-name="Grupo 80835" transform="translate(44.422 72.823)">
          <path id="Trazado_125160" data-name="Trazado 125160" d="M41,45,34.615,56.855,28.23,45Z" transform="translate(-28.23 -45)" fill="#ffeaa7"/>
        </g>
        <g id="Grupo_80836" data-name="Grupo 80836" transform="translate(32.177 23.71)">
          <path id="Trazado_125161" data-name="Trazado 125161" d="M39.629,26.161a14.787,14.787,0,0,1-9.382,6.283l-2.473.491V39.71a11.861,11.861,0,0,0,6.774,10.7V50.6a5.066,5.066,0,0,1-4.3,5.013l-1.948.3-1.406.22a17.023,17.023,0,0,0-5.877,2.083L21,58.2V34.629a17.614,17.614,0,0,1,.322-3.421,17.982,17.982,0,0,1,1.321-4.251,18.649,18.649,0,0,1,28.841-6.706,17.627,17.627,0,0,1,1.321,1.2,18.623,18.623,0,0,1,3.81,5.5,18.328,18.328,0,0,1,1.44,4.979,17.683,17.683,0,0,1,.2,2.693V58.2l-.017.017a17.023,17.023,0,0,0-5.877-2.083l-1.406-.22-1.948-.3a5.066,5.066,0,0,1-4.3-5.013v-.051a11.513,11.513,0,0,0,6.774-10.483v-7.13l-2.473-.491a14.845,14.845,0,0,1-9.382-6.283Z" transform="translate(-21 -16)" fill="#656d78"/>
        </g>
        <g id="Grupo_80837" data-name="Grupo 80837" transform="translate(16.935 27.097)">
          <path id="Trazado_125162" data-name="Trazado 125162" d="M22.161,18.169v1.524a5.081,5.081,0,1,1-10.161,0V18.169A7.98,7.98,0,0,1,13.694,18h6.774a7.98,7.98,0,0,1,1.694.169Z" transform="translate(-12 -18)" fill="#f0d0b4"/>
        </g>
        <g id="Grupo_80838" data-name="Grupo 80838" transform="translate(13.548 16.935)">
          <path id="Trazado_125163" data-name="Trazado 125163" d="M26.766,12a7.98,7.98,0,0,1,.169,1.694,8.468,8.468,0,0,1-16.935,0A7.98,7.98,0,0,1,10.169,12Z" transform="translate(-10 -12)" fill="#f0d0b4"/>
        </g>
        <g id="Grupo_80839" data-name="Grupo 80839" transform="translate(45.726 16.935)">
          <path id="Trazado_125164" data-name="Trazado 125164" d="M39.161,12.169v1.524a5.081,5.081,0,0,1-10.161,0V12.169A7.98,7.98,0,0,1,30.694,12h6.774A7.98,7.98,0,0,1,39.161,12.169Z" transform="translate(-29 -12)" fill="#f0d0b4"/>
        </g>
        <g id="Grupo_80840" data-name="Grupo 80840" transform="translate(42.339 6.774)">
          <path id="Trazado_125165" data-name="Trazado 125165" d="M43.766,6a7.98,7.98,0,0,1,.169,1.694A8.468,8.468,0,0,1,27,7.694,7.98,7.98,0,0,1,27.169,6Z" transform="translate(-27 -6)" fill="#f0d0b4"/>
        </g>
        <g id="Grupo_80841" data-name="Grupo 80841" transform="translate(74.516 27.097)">
          <path id="Trazado_125166" data-name="Trazado 125166" d="M56.161,18.169v1.524a5.081,5.081,0,0,1-10.161,0V18.169A7.981,7.981,0,0,1,47.694,18h6.774a7.981,7.981,0,0,1,1.694.169Z" transform="translate(-46 -18)" fill="#f0d0b4"/>
        </g>
        <g id="Grupo_80842" data-name="Grupo 80842" transform="translate(71.129 16.935)">
          <path id="Trazado_125167" data-name="Trazado 125167" d="M60.766,15.387A8.469,8.469,0,0,1,44,13.694,7.981,7.981,0,0,1,44.169,12h16.6a8.553,8.553,0,0,1,0,3.387Z" transform="translate(-44 -12)" fill="#f0d0b4"/>
        </g>
        <g id="Grupo_80843" data-name="Grupo 80843" transform="translate(76.21 61.662)">
          <path id="Trazado_125168" data-name="Trazado 125168" d="M52.081,39.409a8.308,8.308,0,0,0,3.98-1l1.1,4.386-5.081,3.387L47,42.8l1.1-4.386Z" transform="translate(-47 -38.41)" fill="#f0d0b4"/>
        </g>
        <g id="Grupo_80844" data-name="Grupo 80844" transform="translate(72.823 44.151)">
          <path id="Trazado_125169" data-name="Trazado 125169" d="M51.266,28.07a5.785,5.785,0,0,0,3.844,2.286l3.912.559a3.4,3.4,0,0,1,2.913,3.353v3.844a7.981,7.981,0,0,1-.169,1.694,8.438,8.438,0,0,1-4.319,5.775,8.308,8.308,0,0,1-3.98,1l-3.98-1a8.226,8.226,0,0,1-2.015-1.473,8.545,8.545,0,0,1-2.3-4.3A7.981,7.981,0,0,1,45,38.113V34.929a6.79,6.79,0,0,1,5.131-6.571l1.118-.271Z" transform="translate(-45 -28.07)" fill="#f0d0b4"/>
        </g>
        <g id="Grupo_80845" data-name="Grupo 80845" transform="translate(15.242 61.662)">
          <path id="Trazado_125170" data-name="Trazado 125170" d="M21.161,42.8l-5.081,3.387L11,42.8l1.1-4.386a8.308,8.308,0,0,0,3.98,1l3.98-1Z" transform="translate(-11 -38.41)" fill="#f0d0b4"/>
        </g>
        <g id="Grupo_80846" data-name="Grupo 80846" transform="translate(11.855 44.151)">
          <path id="Trazado_125171" data-name="Trazado 125171" d="M20.8,28.358a6.79,6.79,0,0,1,5.131,6.571v3.184a7.981,7.981,0,0,1-.169,1.694,8.545,8.545,0,0,1-2.3,4.3,8.226,8.226,0,0,1-2.015,1.473l-3.98,1a8.308,8.308,0,0,1-3.98-1,8.438,8.438,0,0,1-4.319-5.775A7.98,7.98,0,0,1,9,38.113V34.268a3.4,3.4,0,0,1,2.913-3.353l3.912-.559a5.785,5.785,0,0,0,3.844-2.286l.017.017Z" transform="translate(-9 -28.07)" fill="#f0d0b4"/>
        </g>
        <g id="Grupo_80847" data-name="Grupo 80847" transform="translate(39.477 58.123)">
          <path id="Trazado_125172" data-name="Trazado 125172" d="M47.97,41.824l-4.945,9.2H30.255l-4.945-9.2,1.948-.3a5.066,5.066,0,0,0,4.3-5.013V36.32a11.813,11.813,0,0,0,5.131,1.152H37a11.322,11.322,0,0,0,4.725-1.016v.051a5.066,5.066,0,0,0,4.3,5.013Z" transform="translate(-25.31 -36.32)" fill="#f0d0b4"/>
        </g>
        <g id="Grupo_80848" data-name="Grupo 80848" transform="translate(38.952 33.871)">
          <path id="Trazado_125173" data-name="Trazado 125173" d="M48.71,28.774V35.9a11.513,11.513,0,0,1-6.774,10.483A11.322,11.322,0,0,1,37.21,47.4h-.3A11.876,11.876,0,0,1,25,35.548V28.774l2.473-.491A14.787,14.787,0,0,0,36.855,22a14.845,14.845,0,0,0,9.382,6.283Z" transform="translate(-25 -22)" fill="#f0d0b4"/>
        </g>
      </g>
      <g id="Grupo_80850" data-name="Grupo 80850" transform="translate(1 1)">
        <path id="Trazado_125174" data-name="Trazado 125174" d="M100.664,70.666a13.45,13.45,0,0,0-5.391-2.41l-4.827-.965-.54-2.164A10.179,10.179,0,0,0,93.8,59.475l.86-.82A14.713,14.713,0,0,0,99.226,48a13.06,13.06,0,0,0-3.387-8.771v-.97a10.167,10.167,0,0,0-6.629-9.514A10.178,10.178,0,0,0,91.9,24.595,8.449,8.449,0,1,0,83.889,11.3a10.141,10.141,0,0,0-8.522,17.44,10.1,10.1,0,0,0-5.309,4.551,20.509,20.509,0,0,0-3.009-3.363V28.1a10.167,10.167,0,0,0-6.629-9.514,10.161,10.161,0,1,0-13.84,0A10.167,10.167,0,0,0,39.952,28.1v1.831a20.5,20.5,0,0,0-3.009,3.362,10.111,10.111,0,0,0-5.311-4.551,10.16,10.16,0,1,0-13.841,0,10.183,10.183,0,0,0-6.063,6.264,5.083,5.083,0,0,0-3.953,4.945V48A14.719,14.719,0,0,0,12.34,58.653l.862.821a10.185,10.185,0,0,0,3.892,5.651l-.54,2.164-4.827.965A13.346,13.346,0,0,0,1,81.34V106H106V81.34A13.414,13.414,0,0,0,100.664,70.666ZM32.83,59.477l.347-.332v8.5c-.152.1-.31.19-.459.293l-3.24-.647-.54-2.164a10.185,10.185,0,0,0,3.892-5.651ZM28.452,70.54l1.067.213a18.185,18.185,0,0,0-1.55,1.959l-1.585-.793ZM22.544,77.21,21.7,74.681l1.316-.659,3.3,1.651q-.333.752-.6,1.534H22.544Zm-3.9-1,.854,2.562-.484.969-1.577-2.928ZM22.369,80.6h2.545a19.073,19.073,0,0,0-.2,2.674v.769l-1.694,3.145-2.042-3.8Zm2.34,10.588.351-.65A3.381,3.381,0,0,0,28.1,92.452v10.161H24.71Zm6.774,1.267h4.11a20.984,20.984,0,0,0,.764,2.349l1.9,4.75v3.062H31.484ZM39.5,93.542a17.407,17.407,0,0,1-.354-11.962l.715-2.142-3.211-1.072-.716,2.142a20.8,20.8,0,0,0-1.065,6.573q0,1,.095,1.983H28.1V83.271A15.162,15.162,0,0,1,41.022,68.205l.217-.034L51.806,87.8v14.815H41.645V98.9Zm14-54.21A16.312,16.312,0,0,0,62.542,44.5l1.119.224v5.739a9.818,9.818,0,0,1-9.806,9.807h-.3A10.2,10.2,0,0,1,43.339,50.11V44.727l1.119-.224A16.312,16.312,0,0,0,53.5,39.332ZM49.759,63.114a13.657,13.657,0,0,0,3.8.547h.3a13.175,13.175,0,0,0,3.409-.462,6.7,6.7,0,0,0,4.962,4.393l-3.355,6.231H48.128l-3.355-6.231a6.7,6.7,0,0,0,4.986-4.478ZM53.5,83.8l-3.548-6.59h7.1Zm1.694,4L65.763,68.173l.217.034A15.159,15.159,0,0,1,78.9,83.271v5.794H72.036q.091-.986.093-1.983a20.757,20.757,0,0,0-1.067-6.573l-.715-2.142-3.211,1.072.713,2.141A17.4,17.4,0,0,1,67.5,93.542L65.355,98.9v3.712H55.194ZM73.823,59.145l.347.33a10.185,10.185,0,0,0,3.892,5.651l-.54,2.164-3.24.647c-.149-.1-.307-.195-.459-.293ZM84.456,77.21H81.279q-.267-.785-.6-1.534l3.3-1.653,1.316.659Zm-5.426-4.5a18.614,18.614,0,0,0-1.55-1.959l1.067-.213,2.07,1.379ZM68.742,99.551l1.9-4.75a20.534,20.534,0,0,0,.764-2.349h4.11v10.161H68.742Zm10.161-7.1a3.38,3.38,0,0,0,3.037-1.917l.351.65v11.428H78.9Zm5.081-5.267L82.29,84.04v-.769a18.82,18.82,0,0,0-.207-2.674h2.545l1.4,2.794Zm4.007-7.441-.484-.969.854-2.562,1.208.6ZM92.6,71.177l-1.429,2.654-3.822-1.912,2.07-1.379ZM87.132,68l-3.148,2.1-3.148-2.1.337-1.35a9.966,9.966,0,0,0,5.623,0Zm3.626-11.108a6.774,6.774,0,1,1-13.548,0V53.708a5.073,5.073,0,0,1,3.849-4.928l.139-.036a7.509,7.509,0,0,0,4.188,2.07l3.917.561a1.7,1.7,0,0,1,1.455,1.675Zm4.5-5.3a11.321,11.321,0,0,1-1.113,2.357V53.05a5.1,5.1,0,0,0-4.361-5.028l-3.917-.561a4.183,4.183,0,0,1-3.577-4.122H78.9a7.48,7.48,0,0,0,.41,2.442,8.455,8.455,0,0,0-5.49,7.927V45.032a20.287,20.287,0,0,0-.137-2.28,9.759,9.759,0,0,1,8.185-4.495H86.1A9.753,9.753,0,0,1,95.839,48a11.288,11.288,0,0,1-.581,3.584Zm-9.58-20.1a3.387,3.387,0,1,1-6.774,0Zm6.469,4.876a13.017,13.017,0,0,0-4.112-1.329,6.7,6.7,0,0,0,.938-2.654A6.757,6.757,0,0,1,92.147,36.36ZM82.29,28.1a6.781,6.781,0,0,1-6.774-6.774H89.065A6.781,6.781,0,0,1,82.29,28.1Zm8.468-16.935A5.056,5.056,0,0,1,92.435,21a10.158,10.158,0,0,0-5.111-8.488A5.053,5.053,0,0,1,90.758,11.161ZM82.29,14.548a6.752,6.752,0,0,1,5.833,3.387H76.459A6.747,6.747,0,0,1,82.29,14.548ZM75.6,32.358a6.708,6.708,0,0,0,1.5,3.431,13.222,13.222,0,0,0-4.351,2.786c-.159-.474-.322-.945-.515-1.4A6.726,6.726,0,0,1,75.6,32.358Zm-12.012-4.94a20.2,20.2,0,0,0-4.755-1.973,6.694,6.694,0,0,0,1.346-3.23A6.741,6.741,0,0,1,63.592,27.418Zm-13.479-6.1h6.774a3.387,3.387,0,1,1-6.774,0ZM53.5,17.935a6.781,6.781,0,0,1-6.774-6.774H60.274A6.781,6.781,0,0,1,53.5,17.935Zm0-13.548a6.752,6.752,0,0,1,5.833,3.387H47.669A6.747,6.747,0,0,1,53.5,4.387ZM46.816,22.215a6.694,6.694,0,0,0,1.346,3.23,20.2,20.2,0,0,0-4.755,1.973,6.746,6.746,0,0,1,3.409-5.2ZM53.5,28.1A16.955,16.955,0,0,1,70.435,45.032V65.926a18.877,18.877,0,0,0-3.941-1.067l-3.348-.515A3.36,3.36,0,0,1,60.408,61.9a13.192,13.192,0,0,0,6.639-11.435V41.95L63.2,41.181a12.934,12.934,0,0,1-8.012-5.172V31.484H51.8v4.525a12.943,12.943,0,0,1-8.012,5.172l-3.841.769v8.16a13.534,13.534,0,0,0,6.681,11.643,3.361,3.361,0,0,1-2.779,2.591l-3.348.515a18.877,18.877,0,0,0-3.941,1.067V45.032A16.955,16.955,0,0,1,53.5,28.1ZM34.761,37.173c-.12.285-.212.581-.32.87a11.915,11.915,0,0,0-4.31-2.54,6.7,6.7,0,0,0,1.263-3.147,6.716,6.716,0,0,1,3.367,4.816ZM21.323,31.484H28.1a3.387,3.387,0,1,1-6.774,0ZM24.71,28.1a6.781,6.781,0,0,1-6.774-6.774H31.484A6.781,6.781,0,0,1,24.71,28.1Zm0-13.548a6.752,6.752,0,0,1,5.833,3.387H18.879A6.747,6.747,0,0,1,24.71,14.548Zm-6.686,17.8a6.69,6.69,0,0,0,.855,2.52H15.468A6.8,6.8,0,0,1,18.024,32.351Zm-6.281,19.23A11.27,11.27,0,0,1,11.161,48V39.952a1.7,1.7,0,0,1,1.694-1.694H26.4a8.5,8.5,0,0,1,7.021,3.766,20.472,20.472,0,0,0-.247,3.008v8.676a8.454,8.454,0,0,0-5.49-7.927,7.48,7.48,0,0,0,.41-2.442H24.71a4.186,4.186,0,0,1-3.575,4.124l-3.917.561a5.1,5.1,0,0,0-4.363,5.026v.891a11.335,11.335,0,0,1-1.113-2.359Zm4.5,1.468A1.7,1.7,0,0,1,17.7,51.373l3.917-.561a7.525,7.525,0,0,0,4.188-2.07l.141.036a5.076,5.076,0,0,1,3.849,4.93v3.179a6.774,6.774,0,1,1-13.548,0Zm6.774,14a10.081,10.081,0,0,0,2.811-.4l.337,1.35-3.148,2.1-3.148-2.1.337-1.35A10.081,10.081,0,0,0,23.016,67.048ZM17.58,70.54l2.07,1.379-3.822,1.912L14.4,71.177ZM4.387,81.34a9.883,9.883,0,0,1,6.6-9.357l10.339,19.2v11.426H11.161V83.984H7.774v18.629H4.387Zm98.226,21.273H99.226V83.984H95.839v18.629H85.677V91.187l10.339-19.2a9.877,9.877,0,0,1,6.6,9.355Z" transform="translate(-1 -1)"/>
        <path id="Trazado_125175" data-name="Trazado 125175" d="M34.7,36.391a7.133,7.133,0,0,0,6.417-3.966l.178-.357-3.03-1.516-.178.359a3.787,3.787,0,0,1-6.774,0l-.178-.357-3.03,1.516.178.356A7.133,7.133,0,0,0,34.7,36.391Z" transform="translate(17.799 19.496)"/>
      </g>
    </g>
    <g id="Grupo_148885" data-name="Grupo 148885" transform="translate(866 17206.527)">
      <g id="Grupo_148884" data-name="Grupo 148884" clip-path="url(#clip-path)">
        <path id="Trazado_211732" data-name="Trazado 211732" d="M103.263,44.594a11.2,11.2,0,0,1-10.115-7.46Q92.62,35.719,92,34.353a11.224,11.224,0,0,1,1.86-12.459,1.637,1.637,0,0,0-.1-2.2l-8.7-8.7a1.638,1.638,0,0,0-2.2-.1A11.235,11.235,0,0,1,70.4,12.75q-1.366-.622-2.782-1.149a11.162,11.162,0,0,1-7.46-10.113A1.637,1.637,0,0,0,58.526,0h-12.3a1.636,1.636,0,0,0-1.629,1.486A11.2,11.2,0,0,1,37.133,11.6q-1.414.528-2.78,1.149a11.227,11.227,0,0,1-12.46-1.86,1.637,1.637,0,0,0-2.2.1l-8.7,8.7a1.637,1.637,0,0,0-.1,2.2,11.233,11.233,0,0,1,1.86,12.459q-.62,1.366-1.149,2.78a11.162,11.162,0,0,1-10.113,7.46A1.637,1.637,0,0,0,0,46.223v12.3a1.637,1.637,0,0,0,1.486,1.63A11.2,11.2,0,0,1,11.6,67.616q.528,1.414,1.149,2.781a11.223,11.223,0,0,1-1.86,12.46,1.636,1.636,0,0,0,.1,2.2l8.7,8.7a1.634,1.634,0,0,0,2.2.1A11.232,11.232,0,0,1,34.352,92q1.368.62,2.781,1.149a11.212,11.212,0,0,1,7.46,10.115,1.636,1.636,0,0,0,1.629,1.485h12.3a1.637,1.637,0,0,0,1.63-1.486,11.2,11.2,0,0,1,7.46-10.113Q69.029,92.621,70.4,92a11.225,11.225,0,0,1,12.46,1.86,1.634,1.634,0,0,0,2.2-.1l8.7-8.7a1.637,1.637,0,0,0,.1-2.2A11.235,11.235,0,0,1,92,70.4q.62-1.366,1.149-2.78a11.162,11.162,0,0,1,10.113-7.46,1.637,1.637,0,0,0,1.486-1.63v-12.3A1.636,1.636,0,0,0,103.263,44.594Zm-1.788,12.459a14.4,14.4,0,0,0-11.394,9.42q-.487,1.307-1.062,2.57A14.468,14.468,0,0,0,90.4,83.786L83.785,90.4A14.469,14.469,0,0,0,69.04,89.02q-1.261.575-2.569,1.062a14.4,14.4,0,0,0-9.42,11.394H47.7a14.4,14.4,0,0,0-9.42-11.394q-1.309-.488-2.571-1.062A14.465,14.465,0,0,0,20.963,90.4l-6.617-6.615a14.467,14.467,0,0,0,1.383-14.743q-.574-1.263-1.062-2.57A14.4,14.4,0,0,0,3.273,57.052V47.7a14.4,14.4,0,0,0,11.393-9.419q.489-1.308,1.063-2.572a14.466,14.466,0,0,0-1.383-14.743l6.616-6.616a14.473,14.473,0,0,0,14.744,1.382q1.263-.574,2.569-1.061A14.4,14.4,0,0,0,47.7,3.274h9.355a14.4,14.4,0,0,0,9.422,11.394q1.306.486,2.569,1.062a14.475,14.475,0,0,0,14.743-1.383L90.4,20.964a14.466,14.466,0,0,0-1.382,14.743q.575,1.263,1.062,2.571a14.4,14.4,0,0,0,11.394,9.42Z" transform="translate(0 -0.001)"/>
        <path id="Trazado_211733" data-name="Trazado 211733" d="M105.068,60.647a14.4,14.4,0,0,0-11.394,9.42q-.487,1.307-1.062,2.57a14.468,14.468,0,0,0,1.382,14.743L87.378,94a14.469,14.469,0,0,0-14.745-1.382q-1.261.575-2.569,1.062a14.4,14.4,0,0,0-9.42,11.394H51.29a14.4,14.4,0,0,0-9.42-11.394q-1.309-.488-2.571-1.062a14.465,14.465,0,0,0-14.743,1.381L17.94,87.379a14.467,14.467,0,0,0,1.383-14.743q-.574-1.263-1.062-2.57A14.4,14.4,0,0,0,6.867,60.646V51.291A14.4,14.4,0,0,0,18.26,41.872q.489-1.308,1.063-2.572A14.466,14.466,0,0,0,17.94,24.557l6.616-6.616A14.473,14.473,0,0,0,39.3,19.323q1.263-.574,2.569-1.061A14.4,14.4,0,0,0,51.29,6.868h9.355a14.4,14.4,0,0,0,9.422,11.394q1.306.486,2.569,1.062a14.475,14.475,0,0,0,14.743-1.383l6.616,6.616A14.466,14.466,0,0,0,92.613,39.3q.575,1.263,1.062,2.571a14.4,14.4,0,0,0,11.394,9.42Z" transform="translate(-3.594 -3.594)" fill="#fbdab3"/>
        <path id="Trazado_211734" data-name="Trazado 211734" d="M77.652,48.3A29.349,29.349,0,1,0,107,77.653,29.383,29.383,0,0,0,77.652,48.3Zm0,55.425a26.076,26.076,0,1,1,26.076-26.076,26.1,26.1,0,0,1-26.076,26.076" transform="translate(-25.278 -25.278)"/>
        <path id="Trazado_211735" data-name="Trazado 211735" d="M81.246,107.322a26.076,26.076,0,1,1,26.076-26.076,26.1,26.1,0,0,1-26.076,26.076" transform="translate(-28.872 -28.872)" fill="#2c78dc"/>
        <path id="Trazado_211736" data-name="Trazado 211736" d="M103.727,82.948H98.161V81.03A3.567,3.567,0,0,0,94.6,77.467h-6.02a3.567,3.567,0,0,0-3.562,3.563v1.918H79.443a4.521,4.521,0,0,0-4.516,4.516v3.362a4.482,4.482,0,0,0,2.189,3.855v9.306a4.38,4.38,0,0,0,4.375,4.375h20.188a4.38,4.38,0,0,0,4.374-4.375v-9.3a4.485,4.485,0,0,0,2.189-3.856V87.463A4.52,4.52,0,0,0,103.727,82.948ZM88.29,81.03a.289.289,0,0,1,.289-.289H94.6a.289.289,0,0,1,.288.289v1.918h-6.6ZM78.2,87.463a1.244,1.244,0,0,1,1.242-1.243c8.029,0,17.217,0,24.285,0a1.244,1.244,0,0,1,1.242,1.243v3.362a1.238,1.238,0,0,1-.872,1.186l-11.286,3.52a4.1,4.1,0,0,1-2.453,0l-11.285-3.52a1.237,1.237,0,0,1-.873-1.186V87.463Zm23.479,17.624H81.491a1.1,1.1,0,0,1-1.1-1.1V95.851l8.994,2.805a7.354,7.354,0,0,0,4.4,0l8.993-2.805v8.135a1.1,1.1,0,0,1-1.1,1.1" transform="translate(-39.211 -40.54)"/>
        <path id="Trazado_211737" data-name="Trazado 211737" d="M102.969,84.624a.289.289,0,0,1,.289-.289h6.02a.289.289,0,0,1,.289.289v1.918h-6.6Z" transform="translate(-53.886 -44.134)" fill="#f7931e"/>
        <path id="Trazado_211738" data-name="Trazado 211738" d="M81.8,97.075a1.243,1.243,0,0,1,1.242-1.242c8.03,0,17.217,0,24.285,0a1.243,1.243,0,0,1,1.242,1.242v3.362a1.237,1.237,0,0,1-.872,1.186l-11.286,3.52a4.1,4.1,0,0,1-2.453,0l-11.285-3.52a1.238,1.238,0,0,1-.873-1.186Z" transform="translate(-42.809 -50.152)" fill="#f7931e"/>
        <path id="Trazado_211739" data-name="Trazado 211739" d="M107.684,125.271H87.5a1.1,1.1,0,0,1-1.1-1.1v-8.135l8.994,2.805a7.355,7.355,0,0,0,4.4,0l8.993-2.805v8.135a1.1,1.1,0,0,1-1.1,1.1" transform="translate(-45.212 -60.723)" fill="#f7931e"/>
      </g>
    </g>
    <g id="Grupo_148886" data-name="Grupo 148886" transform="translate(0 -42.353)">
      <rect id="Rectángulo_39303" data-name="Rectángulo 39303" width="121" height="105" transform="translate(1125 17249)" fill="none"/>
      <g id="calendario" transform="translate(1125 17175.742)">
        <g id="Grupo_80855" data-name="Grupo 80855" transform="translate(1.771 92.609)">
          <path id="Trazado_125183" data-name="Trazado 125183" d="M150.025,187.417h-79a2.4,2.4,0,0,1-2.39-2.21l-5.448-69.471H147l5.418,69.1a2.4,2.4,0,0,1-2.39,2.585Z" transform="translate(-50.023 -115.735)" fill="#31a7fb"/>
          <path id="Trazado_125184" data-name="Trazado 125184" d="M152.337,183.835H82.5a7.214,7.214,0,0,1-6.934-5.28l-10.4-37.673-1.973-25.15H147Z" transform="translate(-50.025 -115.732)" fill="#1c96f9"/>
          <path id="Trazado_125185" data-name="Trazado 125185" d="M27.075,186.949l-10.683-6.267-6.8-.862a2.4,2.4,0,0,1-2.043-2.881l13.107-61.2Z" transform="translate(-7.494 -115.734)" fill="#1785f8"/>
          <path id="Trazado_125186" data-name="Trazado 125186" d="M49.405,115.735l6.419,71.214-10.683-6.267Z" transform="translate(-36.244 -115.734)" fill="#1576f7"/>
          <g id="Grupo_80854" data-name="Grupo 80854" transform="translate(13.161 0)">
            <path id="Trazado_125187" data-name="Trazado 125187" d="M167.39,176.006,151.23,117.5a2.4,2.4,0,0,0-2.311-1.759H63.184l17,61.547a2.4,2.4,0,0,0,2.311,1.759h82.586A2.4,2.4,0,0,0,167.39,176.006Z" transform="translate(-63.184 -115.735)" fill="#eaf6ff"/>
            <path id="Trazado_125188" data-name="Trazado 125188" d="M413.737,179.04h-8.785A2.4,2.4,0,0,0,407.264,176l-16.16-58.51a2.4,2.4,0,0,0-2.311-1.76h8.785a2.4,2.4,0,0,1,2.311,1.76L416.049,176A2.4,2.4,0,0,1,413.737,179.04Z" transform="translate(-311.842 -115.732)" fill="#d9ecfd"/>
            <path id="Trazado_125189" data-name="Trazado 125189" d="M155.074,131.413l-3.844-13.918a2.4,2.4,0,0,0-2.311-1.759H63.184l4.33,15.678Z" transform="translate(-63.184 -115.734)" fill="#f14141"/>
            <path id="Trazado_125190" data-name="Trazado 125190" d="M391.1,117.492l3.844,13.918h8.785l-3.844-13.918a2.4,2.4,0,0,0-2.311-1.76h-8.785A2.4,2.4,0,0,1,391.1,117.492Z" transform="translate(-311.842 -115.732)" fill="#fb3a82"/>
          </g>
        </g>
        <path id="Trazado_125191" data-name="Trazado 125191" d="M151.312,228.675l-3.052-9.516a2.4,2.4,0,0,0-2.283-1.665H138.95a2.4,2.4,0,0,0-2.283,3.13l3.052,9.516A2.4,2.4,0,0,0,142,231.8h7.027a2.4,2.4,0,0,0,2.283-3.13Z" transform="translate(-104.28 -100.835)" fill="#31a7fb"/>
        <g id="Grupo_80856" data-name="Grupo 80856" transform="translate(0 85.453)">
          <path id="Trazado_125192" data-name="Trazado 125192" d="M120.847,152.408,105.255,95.951A7.151,7.151,0,0,0,93.546,87.9a7.141,7.141,0,0,0-10.767,0,7.141,7.141,0,0,0-10.767,0,7.141,7.141,0,0,0-10.767,0,7.141,7.141,0,0,0-10.767,0,7.141,7.141,0,0,0-10.767,0,7.141,7.141,0,0,0-10.767,0,7.15,7.15,0,0,0-12.326,2.973H15.3a1.774,1.774,0,0,0-2.1,1.362L3.767,136.286a1.772,1.772,0,1,0,3.466.742l4.337-20.25L9.023,155.562l-4.931-.626a.625.625,0,0,1-.533-.751l1.9-8.863a1.772,1.772,0,1,0-3.466-.742l-1.9,8.863a4.17,4.17,0,0,0,3.553,5.01l6.44.817,10.37,6.083.018.009a4.134,4.134,0,0,0,2.3.7h79a4.17,4.17,0,0,0,4.157-4.5l-.3-3.879h11.2a4.17,4.17,0,0,0,4.02-5.28ZM17.261,94.382H26.7a3.612,3.612,0,0,1-3.142,1.838,1.772,1.772,0,0,0,0,3.545,7.168,7.168,0,0,0,6.933-5.383h6.976a3.612,3.612,0,0,1-3.142,1.838,1.772,1.772,0,0,0,0,3.545,7.168,7.168,0,0,0,6.933-5.383h6.976a3.612,3.612,0,0,1-3.142,1.838,1.772,1.772,0,0,0,0,3.545,7.168,7.168,0,0,0,6.933-5.383H59a3.612,3.612,0,0,1-3.142,1.838,1.772,1.772,0,0,0,0,3.545,7.168,7.168,0,0,0,6.933-5.383H69.77a3.612,3.612,0,0,1-3.142,1.838,1.772,1.772,0,0,0,0,3.545,7.168,7.168,0,0,0,6.933-5.383h6.976A3.612,3.612,0,0,1,77.4,96.22a1.772,1.772,0,0,0,0,3.545,7.168,7.168,0,0,0,6.933-5.383h6.976a3.612,3.612,0,0,1-3.142,1.838,1.772,1.772,0,1,0,0,3.545A7.168,7.168,0,0,0,95.1,94.382h5.572a.627.627,0,0,1,.6.459l.113.41a3.594,3.594,0,0,1-2.454.969,1.772,1.772,0,1,0,0,3.545,7.113,7.113,0,0,0,3.454-.891l2.11,7.641H20.612ZM98.93,89a3.614,3.614,0,0,1,3.3,2.147,4.14,4.14,0,0,0-1.56-.308l-4.883,0A3.612,3.612,0,0,1,98.93,89ZM88.162,89a3.612,3.612,0,0,1,3.146,1.844l-6.293,0A3.612,3.612,0,0,1,88.162,89ZM77.4,89a3.612,3.612,0,0,1,3.149,1.849l-6.3,0A3.612,3.612,0,0,1,77.4,89ZM66.628,89a3.612,3.612,0,0,1,3.152,1.854l-6.305,0A3.613,3.613,0,0,1,66.628,89ZM55.861,89a3.612,3.612,0,0,1,3.155,1.858l-6.311,0A3.613,3.613,0,0,1,55.861,89ZM45.093,89a3.613,3.613,0,0,1,3.158,1.863l-6.317,0A3.613,3.613,0,0,1,45.093,89ZM34.326,89a3.614,3.614,0,0,1,3.161,1.868l-6.323,0A3.613,3.613,0,0,1,34.326,89ZM23.559,89a3.613,3.613,0,0,1,3.164,1.873l-6.329,0A3.614,3.614,0,0,1,23.559,89Zm-8.47,28.281,3.355,42.784-5.936-3.482ZM117.325,153.9a.614.614,0,0,1-.5.246H92.883a1.772,1.772,0,1,0,0,3.545h9.188l.326,4.156a.625.625,0,0,1-.623.674h-79a.628.628,0,0,1-.623-.576l-4-51.045,6.048,21.9a1.773,1.773,0,0,0,3.417-.944l-6.019-21.793h83.882l11.957,43.292A.614.614,0,0,1,117.325,153.9Z" transform="translate(0 -85.453)"/>
          <path id="Trazado_125193" data-name="Trazado 125193" d="M169.665,326.327h-50.15a.626.626,0,0,1-.6-.459l-3.769-13.646a1.773,1.773,0,0,0-3.417.944l3.769,13.646a4.181,4.181,0,0,0,4.019,3.06h50.15a1.773,1.773,0,0,0,0-3.545Z" transform="translate(-85.274 -257.637)"/>
          <path id="Trazado_125194" data-name="Trazado 125194" d="M132.3,224.953a4.157,4.157,0,0,0,3.971,2.9h7.026a4.17,4.17,0,0,0,3.971-5.444l-3.052-9.516a4.158,4.158,0,0,0-3.971-2.9h-7.027a4.17,4.17,0,0,0-3.971,5.444Zm.413-11.158a.613.613,0,0,1,.505-.257h7.027a.623.623,0,0,1,.6.434l3.052,9.516a.625.625,0,0,1-.6.816h-7.026a.623.623,0,0,1-.6-.434l-3.052-9.516A.613.613,0,0,1,132.71,213.795Z" transform="translate(-98.545 -180.561)"/>
          <path id="Trazado_125195" data-name="Trazado 125195" d="M218.465,216.582h3.272a1.772,1.772,0,0,0,0-3.545h-3.272a1.772,1.772,0,1,0,0,3.545Z" transform="translate(-165.482 -182.885)"/>
          <path id="Trazado_125196" data-name="Trazado 125196" d="M265.285,216.582h3.272a1.772,1.772,0,0,0,0-3.545h-3.272a1.772,1.772,0,0,0,0,3.545Z" transform="translate(-201.238 -182.885)"/>
          <path id="Trazado_125197" data-name="Trazado 125197" d="M312.1,216.582h3.272a1.772,1.772,0,0,0,0-3.545H312.1a1.772,1.772,0,0,0,0,3.545Z" transform="translate(-236.992 -182.885)"/>
          <path id="Trazado_125198" data-name="Trazado 125198" d="M358.923,216.582H362.2a1.772,1.772,0,0,0,0-3.545h-3.272a1.772,1.772,0,0,0,0,3.545Z" transform="translate(-272.746 -182.885)"/>
          <path id="Trazado_125199" data-name="Trazado 125199" d="M405.742,216.582h3.272a1.772,1.772,0,0,0,0-3.545h-3.272a1.772,1.772,0,0,0,0,3.545Z" transform="translate(-308.501 -182.885)"/>
          <path id="Trazado_125200" data-name="Trazado 125200" d="M226.66,255.7a1.772,1.772,0,0,0,1.772,1.772H231.7a1.772,1.772,0,1,0,0-3.545h-3.272A1.772,1.772,0,0,0,226.66,255.7Z" transform="translate(-173.094 -214.11)"/>
          <path id="Trazado_125201" data-name="Trazado 125201" d="M273.479,255.7a1.772,1.772,0,0,0,1.772,1.772h3.272a1.772,1.772,0,1,0,0-3.545h-3.272A1.772,1.772,0,0,0,273.479,255.7Z" transform="translate(-208.848 -214.11)"/>
          <path id="Trazado_125202" data-name="Trazado 125202" d="M320.3,255.7a1.772,1.772,0,0,0,1.772,1.772h3.272a1.772,1.772,0,0,0,0-3.545h-3.272A1.772,1.772,0,0,0,320.3,255.7Z" transform="translate(-244.602 -214.11)"/>
          <path id="Trazado_125203" data-name="Trazado 125203" d="M373.934,255.7a1.772,1.772,0,0,0-1.772-1.772h-3.272a1.772,1.772,0,1,0,0,3.545h3.272A1.772,1.772,0,0,0,373.934,255.7Z" transform="translate(-280.357 -214.11)"/>
          <path id="Trazado_125204" data-name="Trazado 125204" d="M420.752,255.7a1.772,1.772,0,0,0-1.772-1.772h-3.272a1.772,1.772,0,1,0,0,3.545h3.272A1.772,1.772,0,0,0,420.752,255.7Z" transform="translate(-316.111 -214.11)"/>
          <path id="Trazado_125205" data-name="Trazado 125205" d="M236.626,296.586a1.772,1.772,0,0,0,1.772,1.772h3.272a1.772,1.772,0,1,0,0-3.545H238.4A1.772,1.772,0,0,0,236.626,296.586Z" transform="translate(-180.705 -245.336)"/>
          <path id="Trazado_125206" data-name="Trazado 125206" d="M283.444,296.586a1.772,1.772,0,0,0,1.772,1.772h3.272a1.772,1.772,0,1,0,0-3.545h-3.272A1.772,1.772,0,0,0,283.444,296.586Z" transform="translate(-216.458 -245.336)"/>
          <path id="Trazado_125207" data-name="Trazado 125207" d="M330.264,296.586a1.772,1.772,0,0,0,1.772,1.772h3.272a1.772,1.772,0,1,0,0-3.545h-3.272A1.772,1.772,0,0,0,330.264,296.586Z" transform="translate(-252.213 -245.336)"/>
          <path id="Trazado_125208" data-name="Trazado 125208" d="M382.126,298.359a1.772,1.772,0,0,0,0-3.545h-3.272a1.772,1.772,0,0,0,0,3.545Z" transform="translate(-287.967 -245.336)"/>
          <path id="Trazado_125209" data-name="Trazado 125209" d="M428.945,298.359a1.772,1.772,0,0,0,0-3.545h-3.272a1.772,1.772,0,0,0,0,3.545Z" transform="translate(-323.721 -245.336)"/>
          <path id="Trazado_125210" data-name="Trazado 125210" d="M248.592,335.7H245.32a1.772,1.772,0,1,0,0,3.545h3.272a1.772,1.772,0,1,0,0-3.545Z" transform="translate(-185.991 -276.56)"/>
          <path id="Trazado_125211" data-name="Trazado 125211" d="M295.411,335.7h-3.272a1.772,1.772,0,1,0,0,3.545h3.272a1.772,1.772,0,1,0,0-3.545Z" transform="translate(-221.745 -276.56)"/>
          <path id="Trazado_125212" data-name="Trazado 125212" d="M342.23,335.7h-3.272a1.772,1.772,0,1,0,0,3.545h3.272a1.772,1.772,0,0,0,0-3.545Z" transform="translate(-257.5 -276.56)"/>
          <path id="Trazado_125213" data-name="Trazado 125213" d="M389.049,335.7h-3.272a1.772,1.772,0,1,0,0,3.545h3.272a1.772,1.772,0,1,0,0-3.545Z" transform="translate(-293.254 -276.56)"/>
          <path id="Trazado_125214" data-name="Trazado 125214" d="M435.868,335.7H432.6a1.772,1.772,0,1,0,0,3.545h3.272a1.772,1.772,0,0,0,0-3.545Z" transform="translate(-329.008 -276.56)"/>
          <path id="Trazado_125215" data-name="Trazado 125215" d="M165.011,302.91a1.773,1.773,0,0,0-1.237,2.181l2.187,7.917a1.773,1.773,0,1,0,3.417-.944l-2.187-7.917A1.773,1.773,0,0,0,165.011,302.91Z" transform="translate(-125.021 -251.47)"/>
          <path id="Trazado_125216" data-name="Trazado 125216" d="M195.158,319.659a1.773,1.773,0,0,0-1.237,2.181l1.093,3.958a1.773,1.773,0,1,0,3.417-.944l-1.093-3.959A1.772,1.772,0,0,0,195.158,319.659Z" transform="translate(-148.043 -264.26)"/>
        </g>
      </g>
    </g>
  </g>
</svg>
