<svg xmlns="http://www.w3.org/2000/svg" xmlns:xlink="http://www.w3.org/1999/xlink" width="1048" height="240" viewBox="0 0 1048 240">
  <defs>
    <filter id="Trazado_212204" x="0" y="0" width="1048" height="240" filterUnits="userSpaceOnUse">
      <feOffset dy="3" input="SourceAlpha"/>
      <feGaussianBlur stdDeviation="3" result="blur"/>
      <feFlood flood-opacity="0.161"/>
      <feComposite operator="in" in2="blur"/>
      <feComposite in="SourceGraphic"/>
    </filter>
  </defs>
  <g id="Grupo_149002" data-name="Grupo 149002" transform="translate(-276 -20401.16)">
    <g transform="matrix(1, 0, 0, 1, 276, 20401.16)" filter="url(#Trazado_212204)">
      <path id="Trazado_212204-2" data-name="Trazado 212204" d="M20,0h990a20,20,0,0,1,20,20V202a20,20,0,0,1-20,20H20A20,20,0,0,1,0,202V20A20,20,0,0,1,20,0Z" transform="translate(9 6)" fill="#fde2e2"/>
    </g>
    <path id="Trazado_212205" data-name="Trazado 212205" d="M26.944,16.186a5.193,5.193,0,0,1-.8,2.622,4.833,4.833,0,0,1-2.056,1.763,7,7,0,0,1-3.022.625,5.584,5.584,0,0,1-4.414-1.826,7.54,7.54,0,0,1-1.611-5.156v-.7a8.607,8.607,0,0,1,.728-3.657,5.513,5.513,0,0,1,2.095-2.422,5.844,5.844,0,0,1,3.164-.854,6.129,6.129,0,0,1,4.16,1.362,5.383,5.383,0,0,1,1.787,3.755H23.556A2.547,2.547,0,0,0,22.9,9.828a2.691,2.691,0,0,0-1.875-.566,2.048,2.048,0,0,0-1.875.957,6.151,6.151,0,0,0-.625,3.057v1.006a6.806,6.806,0,0,0,.571,3.252,2.091,2.091,0,0,0,1.968.977,2.632,2.632,0,0,0,1.807-.557,2.363,2.363,0,0,0,.664-1.768Zm3.506,1.621a1.874,1.874,0,0,1,1.3.464,1.619,1.619,0,0,1,0,2.373,2.049,2.049,0,0,1-2.6,0,1.618,1.618,0,0,1,0-2.363A1.858,1.858,0,0,1,30.45,17.807ZM38.263,21H34.845V6.781h3.418Zm4.268-3.193a1.874,1.874,0,0,1,1.3.464,1.619,1.619,0,0,1,0,2.373,2.049,2.049,0,0,1-2.6,0,1.618,1.618,0,0,1,0-2.363A1.858,1.858,0,0,1,42.53,17.807Zm7.588-1.631V21H46.69V6.781h5.674a6.608,6.608,0,0,1,2.886.6,4.526,4.526,0,0,1,1.943,1.709,4.667,4.667,0,0,1,.688,2.515,4.114,4.114,0,0,1-1.489,3.325,6.179,6.179,0,0,1-4.087,1.245Zm0-2.646h2.246a2.118,2.118,0,0,0,1.519-.5,1.85,1.85,0,0,0,.522-1.406,2.287,2.287,0,0,0-.537-1.592A1.9,1.9,0,0,0,52.4,9.428H50.118Z" transform="translate(423 20558.785)" fill="#12263f"/>
    <path id="Trazado_212206" data-name="Trazado 212206" d="M15.193,21H11.785L6.746,12.152V21H3.318V6.781H6.746l5.029,8.848V6.781h3.418ZM23.5,19.857A3.393,3.393,0,0,1,20.682,21.2a3.328,3.328,0,0,1-2.632-1.011,4.251,4.251,0,0,1-.894-2.905V10.434h3.291V17.3a1.183,1.183,0,0,0,1.318,1.357,1.72,1.72,0,0,0,1.611-.811V10.434h3.311V21H23.6ZM22.332,6h3.477L23.094,9.066l-2.686,0ZM31.6,10.434l.107,1.24a3.633,3.633,0,0,1,3.018-1.436A2.675,2.675,0,0,1,37.43,11.83a3.516,3.516,0,0,1,3.105-1.592q3.213,0,3.3,3.887V21h-3.3V14.33a2.014,2.014,0,0,0-.273-1.182,1.164,1.164,0,0,0-1-.371,1.559,1.559,0,0,0-1.455.869l.01.137V21h-3.3V14.35a2.117,2.117,0,0,0-.264-1.2,1.161,1.161,0,0,0-1.006-.371,1.578,1.578,0,0,0-1.445.869V21H28.514V10.434ZM50.828,21.2a5.432,5.432,0,0,1-3.936-1.45,5.008,5.008,0,0,1-1.5-3.774V15.7a6.489,6.489,0,0,1,.6-2.861,4.395,4.395,0,0,1,1.753-1.919,5.292,5.292,0,0,1,2.734-.679,4.574,4.574,0,0,1,3.516,1.382,5.43,5.43,0,0,1,1.289,3.853v1.279H48.738a2.372,2.372,0,0,0,.771,1.4,2.3,2.3,0,0,0,1.543.508,2.958,2.958,0,0,0,2.441-1.094L55,19.34a4.2,4.2,0,0,1-1.743,1.353A5.891,5.891,0,0,1,50.828,21.2Zm-.371-8.418q-1.445,0-1.719,1.914h3.32v-.254a1.63,1.63,0,0,0-.4-1.226A1.593,1.593,0,0,0,50.457,12.777ZM63,13.412l-1.084-.078a1.947,1.947,0,0,0-1.992.977V21H56.629V10.434h3.086l.107,1.357a2.548,2.548,0,0,1,2.314-1.553,3.209,3.209,0,0,1,.918.117Zm.42,2.207a6.236,6.236,0,0,1,.615-2.817A4.4,4.4,0,0,1,65.8,10.9a5.323,5.323,0,0,1,2.705-.664,4.858,4.858,0,0,1,3.74,1.47,5.64,5.64,0,0,1,1.367,4v.117a5.472,5.472,0,0,1-1.372,3.921,4.871,4.871,0,0,1-3.716,1.45A4.927,4.927,0,0,1,64.9,19.843a5.29,5.29,0,0,1-1.475-3.667Zm3.291.205a3.932,3.932,0,0,0,.459,2.148,1.529,1.529,0,0,0,1.357.684q1.758,0,1.8-2.705v-.332q0-2.842-1.816-2.842-1.65,0-1.787,2.451Zm12.92-.186a6.455,6.455,0,0,1,1.084-3.955,3.568,3.568,0,0,1,3.027-1.445,3.035,3.035,0,0,1,2.383,1.113V6h3.3V21H86.463L86.3,19.867A3.116,3.116,0,0,1,83.719,21.2,3.562,3.562,0,0,1,80.73,19.75,6.659,6.659,0,0,1,79.627,15.639Zm3.291.205q0,2.813,1.641,2.813a1.62,1.62,0,0,0,1.563-.918V13.715a1.576,1.576,0,0,0-1.543-.937q-1.523,0-1.65,2.461ZM96.4,21.2a5.432,5.432,0,0,1-3.936-1.45,5.008,5.008,0,0,1-1.5-3.774V15.7a6.489,6.489,0,0,1,.6-2.861,4.395,4.395,0,0,1,1.753-1.919,5.292,5.292,0,0,1,2.734-.679,4.574,4.574,0,0,1,3.516,1.382,5.43,5.43,0,0,1,1.289,3.853v1.279H94.314a2.372,2.372,0,0,0,.771,1.4,2.3,2.3,0,0,0,1.543.508,2.958,2.958,0,0,0,2.441-1.094l1.5,1.777a4.2,4.2,0,0,1-1.743,1.353A5.891,5.891,0,0,1,96.4,21.2Zm-.371-8.418q-1.445,0-1.719,1.914h3.32v-.254a1.63,1.63,0,0,0-.4-1.226A1.593,1.593,0,0,0,96.033,12.777Zm17.422,7.08a3.393,3.393,0,0,1-2.822,1.338A3.328,3.328,0,0,1,108,20.185a4.251,4.251,0,0,1-.894-2.905V10.434H110.4V17.3a1.183,1.183,0,0,0,1.318,1.357,1.72,1.72,0,0,0,1.611-.811V10.434h3.311V21h-3.086Zm8.008-9.424.107,1.24a3.583,3.583,0,0,1,3.018-1.436,3.015,3.015,0,0,1,2.466.986,4.7,4.7,0,0,1,.845,2.969V21h-3.3V14.33a1.783,1.783,0,0,0-.322-1.177,1.491,1.491,0,0,0-1.172-.376,1.569,1.569,0,0,0-1.436.762V21h-3.291V10.434ZM133.191,21h-3.3V10.434h3.3ZM129.7,7.709a1.469,1.469,0,0,1,.508-1.152,2.159,2.159,0,0,1,2.637,0,1.469,1.469,0,0,1,.508,1.152,1.469,1.469,0,0,1-.508,1.152,2.159,2.159,0,0,1-2.637,0A1.469,1.469,0,0,1,129.7,7.709Zm5.107,7.93a6.455,6.455,0,0,1,1.084-3.955,3.568,3.568,0,0,1,3.027-1.445,3.035,3.035,0,0,1,2.383,1.113V6h3.3V21h-2.959l-.166-1.133a3.116,3.116,0,0,1-2.578,1.328,3.562,3.562,0,0,1-2.988-1.445A6.659,6.659,0,0,1,134.8,15.639Zm3.291.205q0,2.813,1.641,2.813a1.62,1.62,0,0,0,1.563-.918V13.715a1.576,1.576,0,0,0-1.543-.937q-1.523,0-1.65,2.461ZM152.42,21a3.716,3.716,0,0,1-.312-.947,3.06,3.06,0,0,1-2.539,1.143,3.749,3.749,0,0,1-2.539-.9,2.875,2.875,0,0,1-1.045-2.271,2.955,2.955,0,0,1,1.27-2.6,6.468,6.468,0,0,1,3.691-.879h1.016v-.559q0-1.462-1.26-1.462a1.03,1.03,0,0,0-1.172,1.158h-3.291a2.95,2.95,0,0,1,1.3-2.487,5.479,5.479,0,0,1,3.325-.956,4.8,4.8,0,0,1,3.193.986,3.429,3.429,0,0,1,1.2,2.705v4.678a4.79,4.79,0,0,0,.449,2.227V21Zm-2.061-2.148a1.836,1.836,0,0,0,1.021-.264,1.653,1.653,0,0,0,.581-.6V16.3H151q-1.719,0-1.719,1.543a.942.942,0,0,0,.3.728A1.1,1.1,0,0,0,150.359,18.852Zm6.309-3.213a6.455,6.455,0,0,1,1.084-3.955,3.568,3.568,0,0,1,3.027-1.445,3.035,3.035,0,0,1,2.383,1.113V6h3.3V21H163.5l-.166-1.133A3.116,3.116,0,0,1,160.76,21.2a3.562,3.562,0,0,1-2.988-1.445A6.659,6.659,0,0,1,156.668,15.639Zm3.291.205q0,2.813,1.641,2.813a1.62,1.62,0,0,0,1.563-.918V13.715a1.576,1.576,0,0,0-1.543-.937q-1.523,0-1.65,2.461ZM173.445,21.2a5.432,5.432,0,0,1-3.936-1.45,5.008,5.008,0,0,1-1.5-3.774V15.7a6.489,6.489,0,0,1,.6-2.861,4.395,4.395,0,0,1,1.753-1.919,5.292,5.292,0,0,1,2.734-.679,4.574,4.574,0,0,1,3.516,1.382,5.43,5.43,0,0,1,1.289,3.853v1.279h-6.543a2.372,2.372,0,0,0,.771,1.4,2.3,2.3,0,0,0,1.543.508,2.958,2.958,0,0,0,2.441-1.094l1.5,1.777a4.2,4.2,0,0,1-1.743,1.353A5.891,5.891,0,0,1,173.445,21.2Zm-.371-8.418q-1.445,0-1.719,1.914h3.32v-.254a1.63,1.63,0,0,0-.4-1.226A1.593,1.593,0,0,0,173.074,12.777Zm11.68,5.254a.76.76,0,0,0-.439-.674,6.684,6.684,0,0,0-1.67-.527,7.615,7.615,0,0,1-2.031-.718,3.4,3.4,0,0,1-1.221-1.079,2.577,2.577,0,0,1-.42-1.455,2.92,2.92,0,0,1,1.2-2.4,4.948,4.948,0,0,1,3.145-.942,5.482,5.482,0,0,1,3.359.947,2.962,2.962,0,0,1,1.27,2.49h-3.3q0-1.27-1.338-1.27a1.326,1.326,0,0,0-.869.288.892.892,0,0,0-.352.718.819.819,0,0,0,.43.713,4.06,4.06,0,0,0,1.372.449,11.857,11.857,0,0,1,1.655.42,3.007,3.007,0,0,1,2.383,2.939,2.767,2.767,0,0,1-1.284,2.354,5.632,5.632,0,0,1-3.325.908,5.747,5.747,0,0,1-2.422-.488,4.05,4.05,0,0,1-1.66-1.328,3.007,3.007,0,0,1-.6-1.768h3.076a1.272,1.272,0,0,0,.488,1.069,2.009,2.009,0,0,0,1.2.337,1.58,1.58,0,0,0,1.011-.273A.875.875,0,0,0,184.754,18.031Zm9.277-2.393a6.455,6.455,0,0,1,1.084-3.955,3.568,3.568,0,0,1,3.027-1.445,3.035,3.035,0,0,1,2.383,1.113V6h3.3V21h-2.959l-.166-1.133a3.116,3.116,0,0,1-2.578,1.328,3.562,3.562,0,0,1-2.988-1.445A6.659,6.659,0,0,1,194.031,15.639Zm3.291.205q0,2.813,1.641,2.813a1.62,1.62,0,0,0,1.563-.918V13.715a1.576,1.576,0,0,0-1.543-.937q-1.523,0-1.65,2.461ZM210.809,21.2a5.432,5.432,0,0,1-3.936-1.45,5.008,5.008,0,0,1-1.5-3.774V15.7a6.489,6.489,0,0,1,.6-2.861,4.395,4.395,0,0,1,1.753-1.919,5.292,5.292,0,0,1,2.734-.679,4.574,4.574,0,0,1,3.516,1.382,5.43,5.43,0,0,1,1.289,3.853v1.279h-6.543a2.372,2.372,0,0,0,.771,1.4,2.3,2.3,0,0,0,1.543.508,2.958,2.958,0,0,0,2.441-1.094l1.5,1.777a4.2,4.2,0,0,1-1.743,1.353A5.891,5.891,0,0,1,210.809,21.2Zm-.371-8.418q-1.445,0-1.719,1.914h3.32v-.254a1.63,1.63,0,0,0-.4-1.226A1.593,1.593,0,0,0,210.438,12.777ZM225.037,21h-3.3V6h3.3Zm7.979,0a3.716,3.716,0,0,1-.312-.947,3.06,3.06,0,0,1-2.539,1.143,3.749,3.749,0,0,1-2.539-.9,2.875,2.875,0,0,1-1.045-2.271,2.955,2.955,0,0,1,1.27-2.6,6.468,6.468,0,0,1,3.691-.879h1.016v-.559q0-1.462-1.26-1.462a1.03,1.03,0,0,0-1.172,1.158h-3.291a2.95,2.95,0,0,1,1.3-2.487,5.479,5.479,0,0,1,3.325-.956,4.8,4.8,0,0,1,3.193.986,3.429,3.429,0,0,1,1.2,2.705v4.678a4.79,4.79,0,0,0,.449,2.227V21Zm-2.061-2.148a1.836,1.836,0,0,0,1.021-.264,1.653,1.653,0,0,0,.581-.6V16.3H231.6q-1.719,0-1.719,1.543a.942.942,0,0,0,.3.728A1.1,1.1,0,0,0,230.955,18.852ZM27.327,42.619a6.236,6.236,0,0,1,.615-2.817,4.4,4.4,0,0,1,1.768-1.9,5.323,5.323,0,0,1,2.705-.664,4.858,4.858,0,0,1,3.74,1.47,5.64,5.64,0,0,1,1.367,4v.117a5.472,5.472,0,0,1-1.372,3.921,4.871,4.871,0,0,1-3.716,1.45,4.927,4.927,0,0,1-3.623-1.353,5.29,5.29,0,0,1-1.475-3.667Zm3.291.205a3.932,3.932,0,0,0,.459,2.148,1.529,1.529,0,0,0,1.357.684q1.758,0,1.8-2.705v-.332q0-2.842-1.816-2.842-1.65,0-1.787,2.451Zm14.746-2.412-1.084-.078a1.947,1.947,0,0,0-1.992.977V48H39V37.434h3.086l.107,1.357A2.548,2.548,0,0,1,44.5,37.238a3.209,3.209,0,0,1,.918.117Zm.771,2.227a6.455,6.455,0,0,1,1.084-3.955,3.568,3.568,0,0,1,3.027-1.445,3.035,3.035,0,0,1,2.383,1.113V33h3.3V48H52.972l-.166-1.133A3.116,3.116,0,0,1,50.228,48.2a3.562,3.562,0,0,1-2.988-1.445A6.659,6.659,0,0,1,46.136,42.639Zm3.291.205q0,2.813,1.641,2.813a1.62,1.62,0,0,0,1.563-.918V40.715a1.576,1.576,0,0,0-1.543-.937q-1.523,0-1.65,2.461ZM62.913,48.2a5.432,5.432,0,0,1-3.936-1.45,5.008,5.008,0,0,1-1.5-3.774V42.7a6.489,6.489,0,0,1,.6-2.861,4.395,4.395,0,0,1,1.753-1.919,5.292,5.292,0,0,1,2.734-.679,4.574,4.574,0,0,1,3.516,1.382,5.43,5.43,0,0,1,1.289,3.853v1.279H60.823a2.372,2.372,0,0,0,.771,1.4,2.3,2.3,0,0,0,1.543.508,2.958,2.958,0,0,0,2.441-1.094l1.5,1.777a4.2,4.2,0,0,1-1.743,1.353A5.891,5.891,0,0,1,62.913,48.2Zm-.371-8.418q-1.445,0-1.719,1.914h3.32v-.254a1.63,1.63,0,0,0-.4-1.226A1.593,1.593,0,0,0,62.542,39.777Zm9.17-2.344.107,1.24a3.583,3.583,0,0,1,3.018-1.436,3.015,3.015,0,0,1,2.466.986,4.7,4.7,0,0,1,.845,2.969V48h-3.3V41.33a1.783,1.783,0,0,0-.322-1.177,1.491,1.491,0,0,0-1.172-.376,1.569,1.569,0,0,0-1.436.762V48H68.626V37.434Zm12.822,5.205a6.455,6.455,0,0,1,1.084-3.955,3.568,3.568,0,0,1,3.027-1.445,3.035,3.035,0,0,1,2.383,1.113V33h3.3V48H91.37L91.2,46.867A3.116,3.116,0,0,1,88.626,48.2a3.562,3.562,0,0,1-2.988-1.445A6.659,6.659,0,0,1,84.534,42.639Zm3.291.205q0,2.813,1.641,2.813a1.62,1.62,0,0,0,1.563-.918V40.715a1.576,1.576,0,0,0-1.543-.937q-1.523,0-1.65,2.461ZM101.312,48.2a5.432,5.432,0,0,1-3.936-1.45,5.008,5.008,0,0,1-1.5-3.774V42.7a6.489,6.489,0,0,1,.6-2.861,4.395,4.395,0,0,1,1.753-1.919,5.292,5.292,0,0,1,2.734-.679,4.574,4.574,0,0,1,3.516,1.382,5.43,5.43,0,0,1,1.289,3.853v1.279H99.222a2.372,2.372,0,0,0,.771,1.4,2.3,2.3,0,0,0,1.543.508,2.958,2.958,0,0,0,2.441-1.094l1.5,1.777a4.2,4.2,0,0,1-1.743,1.353A5.891,5.891,0,0,1,101.312,48.2Zm-.371-8.418q-1.445,0-1.719,1.914h3.32v-.254a1.63,1.63,0,0,0-.4-1.226A1.593,1.593,0,0,0,100.94,39.777Zm20.938,3.018a6.372,6.372,0,0,1-1.108,3.931,3.554,3.554,0,0,1-2.993,1.47,3.046,3.046,0,0,1-2.393-1.064v4.932h-3.291V37.434h3.076l.1.977a3.046,3.046,0,0,1,2.49-1.172,3.582,3.582,0,0,1,3.037,1.44,6.45,6.45,0,0,1,1.084,3.96Zm-3.291-.205q0-2.812-1.641-2.812a1.549,1.549,0,0,0-1.562.84v4.16a1.6,1.6,0,0,0,1.582.879q1.572,0,1.621-2.715Zm11.133-2.178-1.084-.078a1.947,1.947,0,0,0-1.992.977V48h-3.291V37.434h3.086l.107,1.357a2.548,2.548,0,0,1,2.314-1.553,3.209,3.209,0,0,1,.918.117Zm.42,2.207a6.236,6.236,0,0,1,.615-2.817,4.4,4.4,0,0,1,1.768-1.9,5.323,5.323,0,0,1,2.705-.664,4.858,4.858,0,0,1,3.74,1.47,5.64,5.64,0,0,1,1.367,4v.117a5.472,5.472,0,0,1-1.372,3.921,4.871,4.871,0,0,1-3.716,1.45,4.927,4.927,0,0,1-3.623-1.353,5.29,5.29,0,0,1-1.475-3.667Zm3.291.205a3.932,3.932,0,0,0,.459,2.148,1.529,1.529,0,0,0,1.357.684q1.758,0,1.8-2.705v-.332q0-2.842-1.816-2.842-1.65,0-1.787,2.451Zm7.939-.186a6.455,6.455,0,0,1,1.084-3.955,3.568,3.568,0,0,1,3.027-1.445,3.035,3.035,0,0,1,2.383,1.113V33h3.3V48h-2.959l-.166-1.133a3.116,3.116,0,0,1-2.578,1.328,3.562,3.562,0,0,1-2.988-1.445A6.659,6.659,0,0,1,141.37,42.639Zm3.291.205q0,2.813,1.641,2.813a1.62,1.62,0,0,0,1.563-.918V40.715a1.576,1.576,0,0,0-1.543-.937q-1.523,0-1.65,2.461Zm14.668,4.014a3.393,3.393,0,0,1-2.822,1.338,3.328,3.328,0,0,1-2.632-1.011,4.251,4.251,0,0,1-.894-2.905V37.434h3.291V44.3a1.183,1.183,0,0,0,1.318,1.357,1.72,1.72,0,0,0,1.611-.811V37.434h3.311V48h-3.086Zm9.453-1.2a1.464,1.464,0,0,0,1.074-.376,1.379,1.379,0,0,0,.371-1.05h3.086a3.653,3.653,0,0,1-1.245,2.852A4.631,4.631,0,0,1,168.86,48.2a4.689,4.689,0,0,1-3.633-1.445,5.7,5.7,0,0,1-1.328-4v-.137a6.436,6.436,0,0,1,.591-2.827,4.3,4.3,0,0,1,1.7-1.885,5.081,5.081,0,0,1,2.637-.659,4.573,4.573,0,0,1,3.271,1.143,4.053,4.053,0,0,1,1.211,3.1h-3.086a1.807,1.807,0,0,0-.4-1.26,1.382,1.382,0,0,0-1.074-.439q-1.279,0-1.494,1.631a11.507,11.507,0,0,0-.068,1.426,4.52,4.52,0,0,0,.381,2.207A1.319,1.319,0,0,0,168.782,45.656Zm10.391,0a1.464,1.464,0,0,0,1.074-.376,1.379,1.379,0,0,0,.371-1.05H183.7a3.653,3.653,0,0,1-1.245,2.852,4.631,4.631,0,0,1-3.208,1.113,4.689,4.689,0,0,1-3.633-1.445,5.7,5.7,0,0,1-1.328-4v-.137a6.436,6.436,0,0,1,.591-2.827,4.3,4.3,0,0,1,1.7-1.885,5.081,5.081,0,0,1,2.637-.659,4.573,4.573,0,0,1,3.271,1.143,4.053,4.053,0,0,1,1.211,3.1h-3.086a1.807,1.807,0,0,0-.4-1.26,1.382,1.382,0,0,0-1.074-.439q-1.279,0-1.494,1.631a11.507,11.507,0,0,0-.068,1.426,4.52,4.52,0,0,0,.381,2.207A1.319,1.319,0,0,0,179.173,45.656ZM188.567,48h-3.3V37.434h3.3Zm-3.5-13.291a1.469,1.469,0,0,1,.508-1.152,2.159,2.159,0,0,1,2.637,0,1.561,1.561,0,0,1,0,2.3,2.159,2.159,0,0,1-2.637,0A1.469,1.469,0,0,1,185.071,34.709Zm5.107,7.91a6.236,6.236,0,0,1,.615-2.817,4.4,4.4,0,0,1,1.768-1.9,5.323,5.323,0,0,1,2.705-.664,4.858,4.858,0,0,1,3.74,1.47,5.64,5.64,0,0,1,1.367,4v.117A5.472,5.472,0,0,1,199,46.745a4.871,4.871,0,0,1-3.716,1.45,4.927,4.927,0,0,1-3.623-1.353,5.29,5.29,0,0,1-1.475-3.667Zm3.291.205a3.932,3.932,0,0,0,.459,2.148,1.529,1.529,0,0,0,1.357.684q1.758,0,1.8-2.705v-.332q0-2.842-1.816-2.842-1.65,0-1.787,2.451ZM195.716,33h3.477l-2.715,3.066-2.686,0Zm9.131,4.434.107,1.24a3.583,3.583,0,0,1,3.018-1.436,3.015,3.015,0,0,1,2.466.986,4.7,4.7,0,0,1,.845,2.969V48h-3.3V41.33a1.783,1.783,0,0,0-.322-1.177,1.491,1.491,0,0,0-1.172-.376,1.569,1.569,0,0,0-1.436.762V48h-3.291V37.434Z" transform="translate(646 20558.785)" fill="#12263f"/>
    <path id="Trazado_212207" data-name="Trazado 212207" d="M22.1,9.428H17.833V21H14.406V9.428H10.216V6.781H22.1ZM26.867,21h-3.3V10.434h3.3Zm-3.5-13.291a1.469,1.469,0,0,1,.508-1.152,2.159,2.159,0,0,1,2.637,0,1.469,1.469,0,0,1,.508,1.152,1.469,1.469,0,0,1-.508,1.152,2.159,2.159,0,0,1-2.637,0A1.469,1.469,0,0,1,23.371,7.709ZM34.005,21.2a5.432,5.432,0,0,1-3.936-1.45,5.008,5.008,0,0,1-1.5-3.774V15.7a6.489,6.489,0,0,1,.6-2.861,4.395,4.395,0,0,1,1.753-1.919,5.292,5.292,0,0,1,2.734-.679,4.574,4.574,0,0,1,3.516,1.382,5.43,5.43,0,0,1,1.289,3.853v1.279H31.916a2.372,2.372,0,0,0,.771,1.4,2.3,2.3,0,0,0,1.543.508,2.958,2.958,0,0,0,2.441-1.094l1.5,1.777a4.2,4.2,0,0,1-1.743,1.353A5.891,5.891,0,0,1,34.005,21.2Zm-.371-8.418q-1.445,0-1.719,1.914h3.32v-.254a1.63,1.63,0,0,0-.4-1.226A1.593,1.593,0,0,0,33.634,12.777Zm9.258-2.344L43,11.674a3.633,3.633,0,0,1,3.018-1.436,2.675,2.675,0,0,1,2.705,1.592,3.516,3.516,0,0,1,3.105-1.592q3.213,0,3.3,3.887V21h-3.3V14.33a2.014,2.014,0,0,0-.273-1.182,1.164,1.164,0,0,0-1-.371,1.559,1.559,0,0,0-1.455.869l.01.137V21h-3.3V14.35a2.117,2.117,0,0,0-.264-1.2,1.161,1.161,0,0,0-1.006-.371,1.578,1.578,0,0,0-1.445.869V21H39.806V10.434Zm23.926,5.361a6.372,6.372,0,0,1-1.108,3.931,3.554,3.554,0,0,1-2.993,1.47,3.046,3.046,0,0,1-2.393-1.064v4.932H57.033V10.434h3.076l.1.977a3.046,3.046,0,0,1,2.49-1.172,3.582,3.582,0,0,1,3.037,1.44,6.45,6.45,0,0,1,1.084,3.96Zm-3.291-.205q0-2.812-1.641-2.812a1.549,1.549,0,0,0-1.562.84v4.16a1.6,1.6,0,0,0,1.582.879q1.572,0,1.621-2.715Zm4.326.029a6.236,6.236,0,0,1,.615-2.817,4.4,4.4,0,0,1,1.768-1.9,5.323,5.323,0,0,1,2.705-.664,4.858,4.858,0,0,1,3.74,1.47,5.64,5.64,0,0,1,1.367,4v.117a5.472,5.472,0,0,1-1.372,3.921A4.871,4.871,0,0,1,72.96,21.2a4.927,4.927,0,0,1-3.623-1.353,5.29,5.29,0,0,1-1.475-3.667Zm3.291.205a3.932,3.932,0,0,0,.459,2.148,1.529,1.529,0,0,0,1.357.684q1.758,0,1.8-2.705v-.332q0-2.842-1.816-2.842-1.65,0-1.787,2.451ZM89.591,21.2a5.432,5.432,0,0,1-3.936-1.45,5.008,5.008,0,0,1-1.5-3.774V15.7a6.489,6.489,0,0,1,.6-2.861,4.395,4.395,0,0,1,1.753-1.919,5.292,5.292,0,0,1,2.734-.679,4.574,4.574,0,0,1,3.516,1.382,5.43,5.43,0,0,1,1.289,3.853v1.279H87.5a2.372,2.372,0,0,0,.771,1.4,2.3,2.3,0,0,0,1.543.508,2.958,2.958,0,0,0,2.441-1.094l1.5,1.777a4.2,4.2,0,0,1-1.743,1.353A5.891,5.891,0,0,1,89.591,21.2Zm-.371-8.418q-1.445,0-1.719,1.914h3.32v-.254a1.63,1.63,0,0,0-.4-1.226A1.593,1.593,0,0,0,89.22,12.777Zm11.68,5.254a.76.76,0,0,0-.439-.674,6.684,6.684,0,0,0-1.67-.527,7.615,7.615,0,0,1-2.031-.718,3.4,3.4,0,0,1-1.221-1.079,2.577,2.577,0,0,1-.42-1.455,2.92,2.92,0,0,1,1.2-2.4,4.948,4.948,0,0,1,3.145-.942,5.482,5.482,0,0,1,3.359.947,2.962,2.962,0,0,1,1.27,2.49h-3.3q0-1.27-1.338-1.27a1.326,1.326,0,0,0-.869.288.892.892,0,0,0-.352.718.819.819,0,0,0,.43.713,4.06,4.06,0,0,0,1.372.449,11.857,11.857,0,0,1,1.655.42,3.007,3.007,0,0,1,2.383,2.939,2.767,2.767,0,0,1-1.284,2.354,5.631,5.631,0,0,1-3.325.908,5.747,5.747,0,0,1-2.422-.488,4.05,4.05,0,0,1-1.66-1.328,3.007,3.007,0,0,1-.6-1.768h3.076a1.272,1.272,0,0,0,.488,1.069,2.009,2.009,0,0,0,1.2.337,1.58,1.58,0,0,0,1.011-.273A.875.875,0,0,0,100.9,18.031Zm8.545-10.225v2.627h1.738v2.285h-1.738v4.834a1.234,1.234,0,0,0,.215.83,1.152,1.152,0,0,0,.85.234,4.828,4.828,0,0,0,.82-.059v2.354a6.074,6.074,0,0,1-1.855.283,3.448,3.448,0,0,1-2.51-.8,3.282,3.282,0,0,1-.811-2.432V12.719h-1.348V10.434h1.348V7.807ZM118.429,21a3.716,3.716,0,0,1-.312-.947,3.06,3.06,0,0,1-2.539,1.143,3.749,3.749,0,0,1-2.539-.9,2.875,2.875,0,0,1-1.045-2.271,2.955,2.955,0,0,1,1.27-2.6,6.468,6.468,0,0,1,3.691-.879h1.016v-.559q0-1.462-1.26-1.462a1.03,1.03,0,0,0-1.172,1.158h-3.291a2.95,2.95,0,0,1,1.3-2.487,5.479,5.479,0,0,1,3.325-.956,4.8,4.8,0,0,1,3.193.986,3.429,3.429,0,0,1,1.2,2.705v4.678a4.79,4.79,0,0,0,.449,2.227V21Zm-2.061-2.148a1.836,1.836,0,0,0,1.021-.264,1.653,1.653,0,0,0,.581-.6V16.3h-.957q-1.719,0-1.719,1.543a.942.942,0,0,0,.3.728A1.1,1.1,0,0,0,116.369,18.852ZM117.189,6h3.477l-2.715,3.066-2.686,0Zm8.926,4.434.107,1.24a3.583,3.583,0,0,1,3.018-1.436,3.015,3.015,0,0,1,2.466.986,4.7,4.7,0,0,1,.845,2.969V21h-3.3V14.33a1.783,1.783,0,0,0-.322-1.177,1.491,1.491,0,0,0-1.172-.376,1.569,1.569,0,0,0-1.436.762V21h-3.291V10.434Zm7.842,5.205a6.455,6.455,0,0,1,1.084-3.955,3.568,3.568,0,0,1,3.027-1.445,3.035,3.035,0,0,1,2.383,1.113V6h3.3V21h-2.959l-.166-1.133a3.116,3.116,0,0,1-2.578,1.328,3.562,3.562,0,0,1-2.988-1.445A6.659,6.659,0,0,1,133.957,15.639Zm3.291.205q0,2.813,1.641,2.813a1.62,1.62,0,0,0,1.563-.918V13.715a1.576,1.576,0,0,0-1.543-.937q-1.523,0-1.65,2.461ZM151.574,21a3.716,3.716,0,0,1-.312-.947,3.06,3.06,0,0,1-2.539,1.143,3.749,3.749,0,0,1-2.539-.9,2.875,2.875,0,0,1-1.045-2.271,2.955,2.955,0,0,1,1.27-2.6,6.468,6.468,0,0,1,3.691-.879h1.016v-.559q0-1.462-1.26-1.462a1.03,1.03,0,0,0-1.172,1.158h-3.291a2.95,2.95,0,0,1,1.3-2.487,5.479,5.479,0,0,1,3.325-.956,4.8,4.8,0,0,1,3.193.986,3.429,3.429,0,0,1,1.2,2.705v4.678a4.79,4.79,0,0,0,.449,2.227V21Zm-2.061-2.148a1.836,1.836,0,0,0,1.021-.264,1.653,1.653,0,0,0,.581-.6V16.3h-.957q-1.719,0-1.719,1.543a.942.942,0,0,0,.3.728A1.1,1.1,0,0,0,149.513,18.852Zm13.115-5.439-1.084-.078a1.947,1.947,0,0,0-1.992.977V21h-3.291V10.434h3.086l.107,1.357a2.548,2.548,0,0,1,2.314-1.553,3.209,3.209,0,0,1,.918.117Zm5.752,2.227a6.455,6.455,0,0,1,1.084-3.955,3.568,3.568,0,0,1,3.027-1.445,3.035,3.035,0,0,1,2.383,1.113V6h3.3V21h-2.959l-.166-1.133a3.116,3.116,0,0,1-2.578,1.328,3.562,3.562,0,0,1-2.988-1.445A6.659,6.659,0,0,1,168.38,15.639Zm3.291.205q0,2.813,1.641,2.813a1.62,1.62,0,0,0,1.563-.918V13.715a1.576,1.576,0,0,0-1.543-.937q-1.523,0-1.65,2.461ZM185.158,21.2a5.432,5.432,0,0,1-3.936-1.45,5.008,5.008,0,0,1-1.5-3.774V15.7a6.489,6.489,0,0,1,.6-2.861,4.395,4.395,0,0,1,1.753-1.919,5.292,5.292,0,0,1,2.734-.679,4.574,4.574,0,0,1,3.516,1.382,5.43,5.43,0,0,1,1.289,3.853v1.279h-6.543a2.372,2.372,0,0,0,.771,1.4,2.3,2.3,0,0,0,1.543.508,2.958,2.958,0,0,0,2.441-1.094l1.5,1.777a4.2,4.2,0,0,1-1.743,1.353A5.891,5.891,0,0,1,185.158,21.2Zm-.371-8.418q-1.445,0-1.719,1.914h3.32v-.254a1.63,1.63,0,0,0-.4-1.226A1.593,1.593,0,0,0,184.787,12.777ZM62.35,48h-3.3V33h3.3Zm7.979,0a3.716,3.716,0,0,1-.312-.947A3.06,3.06,0,0,1,67.477,48.2a3.749,3.749,0,0,1-2.539-.9,2.875,2.875,0,0,1-1.045-2.271,2.955,2.955,0,0,1,1.27-2.6,6.468,6.468,0,0,1,3.691-.879H69.87v-.559q0-1.462-1.26-1.462a1.03,1.03,0,0,0-1.172,1.158H64.147a2.95,2.95,0,0,1,1.3-2.487,5.479,5.479,0,0,1,3.325-.956,4.8,4.8,0,0,1,3.193.986,3.429,3.429,0,0,1,1.2,2.705v4.678a4.79,4.79,0,0,0,.449,2.227V48Zm-2.061-2.148a1.836,1.836,0,0,0,1.021-.264,1.653,1.653,0,0,0,.581-.6V43.3h-.957q-1.719,0-1.719,1.543a.942.942,0,0,0,.3.728A1.1,1.1,0,0,0,68.268,45.852Zm21.514-3.057a6.372,6.372,0,0,1-1.108,3.931A3.554,3.554,0,0,1,85.68,48.2a3.046,3.046,0,0,1-2.393-1.064v4.932H80V37.434h3.076l.1.977a3.046,3.046,0,0,1,2.49-1.172,3.582,3.582,0,0,1,3.037,1.44,6.45,6.45,0,0,1,1.084,3.96Zm-3.291-.205q0-2.812-1.641-2.812a1.549,1.549,0,0,0-1.562.84v4.16a1.6,1.6,0,0,0,1.582.879q1.572,0,1.621-2.715Zm11.133-2.178-1.084-.078a1.947,1.947,0,0,0-1.992.977V48H91.256V37.434h3.086l.107,1.357a2.548,2.548,0,0,1,2.314-1.553,3.209,3.209,0,0,1,.918.117Zm6.3,7.783a5.432,5.432,0,0,1-3.936-1.45,5.008,5.008,0,0,1-1.5-3.774V42.7a6.489,6.489,0,0,1,.6-2.861,4.395,4.395,0,0,1,1.753-1.919,5.292,5.292,0,0,1,2.734-.679,4.574,4.574,0,0,1,3.516,1.382,5.43,5.43,0,0,1,1.289,3.853v1.279h-6.543a2.372,2.372,0,0,0,.771,1.4,2.3,2.3,0,0,0,1.543.508,2.958,2.958,0,0,0,2.441-1.094l1.5,1.777a4.2,4.2,0,0,1-1.743,1.353A5.891,5.891,0,0,1,103.922,48.2Zm-.371-8.418q-1.445,0-1.719,1.914h3.32v-.254a1.63,1.63,0,0,0-.4-1.226A1.593,1.593,0,0,0,103.551,39.777Zm9.17-2.344.107,1.24a3.583,3.583,0,0,1,3.018-1.436,3.015,3.015,0,0,1,2.466.986,4.7,4.7,0,0,1,.845,2.969V48h-3.3V41.33a1.783,1.783,0,0,0-.322-1.177,1.491,1.491,0,0,0-1.172-.376,1.569,1.569,0,0,0-1.436.762V48h-3.291V37.434Zm7.842,5.205a6.455,6.455,0,0,1,1.084-3.955,3.568,3.568,0,0,1,3.027-1.445,3.035,3.035,0,0,1,2.383,1.113V33h3.3V48H127.4l-.166-1.133a3.116,3.116,0,0,1-2.578,1.328,3.562,3.562,0,0,1-2.988-1.445A6.659,6.659,0,0,1,120.563,42.639Zm3.291.205q0,2.813,1.641,2.813a1.62,1.62,0,0,0,1.563-.918V40.715a1.576,1.576,0,0,0-1.543-.937q-1.523,0-1.65,2.461ZM138.18,48a3.716,3.716,0,0,1-.312-.947,3.06,3.06,0,0,1-2.539,1.143,3.749,3.749,0,0,1-2.539-.9,2.875,2.875,0,0,1-1.045-2.271,2.955,2.955,0,0,1,1.27-2.6,6.468,6.468,0,0,1,3.691-.879h1.016v-.559q0-1.462-1.26-1.462a1.03,1.03,0,0,0-1.172,1.158H132a2.95,2.95,0,0,1,1.3-2.487,5.479,5.479,0,0,1,3.325-.956,4.8,4.8,0,0,1,3.193.986,3.429,3.429,0,0,1,1.2,2.705v4.678a4.79,4.79,0,0,0,.449,2.227V48Zm-2.061-2.148a1.836,1.836,0,0,0,1.021-.264,1.652,1.652,0,0,0,.581-.6V43.3h-.957q-1.719,0-1.719,1.543a.942.942,0,0,0,.3.728A1.1,1.1,0,0,0,136.12,45.852Z" transform="translate(994.124 20558.785)" fill="#12263f"/>
    <g id="transportador_1_" data-name="transportador(1)" transform="translate(405.601 20430.988)">
      <g id="Grupo_80923" data-name="Grupo 80923" transform="translate(2.706 2.706)">
        <g id="Grupo_80894" data-name="Grupo 80894" transform="translate(93.854 5.119)">
          <path id="Trazado_125286" data-name="Trazado 125286" d="M62.819,6.007a3.337,3.337,0,0,1,1.007,2.406,3.423,3.423,0,0,1-3.413,3.413H57V5h3.413A3.337,3.337,0,0,1,62.819,6.007Z" transform="translate(-57 -5)" fill="#ccd1d9"/>
        </g>
        <g id="Grupo_80895" data-name="Grupo 80895" transform="translate(46.074 5.119)">
          <path id="Trazado_125287" data-name="Trazado 125287" d="M59.716,5v6.826H29V5Z" transform="translate(-29 -5)" fill="#ccd1d9"/>
        </g>
        <g id="Grupo_80896" data-name="Grupo 80896" transform="translate(18.771)">
          <path id="Trazado_125288" data-name="Trazado 125288" d="M40.3,8.826H13V5.413A3.423,3.423,0,0,1,16.413,2H36.89A3.423,3.423,0,0,1,40.3,5.413V8.826Z" transform="translate(-13 -2)" fill="#969faa"/>
        </g>
        <g id="Grupo_80897" data-name="Grupo 80897" transform="translate(18.771 13.651)">
          <path id="Trazado_125289" data-name="Trazado 125289" d="M13,10H40.3V20.239H13Z" transform="translate(-13 -10)" fill="#969faa"/>
        </g>
        <g id="Grupo_80898" data-name="Grupo 80898" transform="translate(18.771 6.826)">
          <path id="Trazado_125290" data-name="Trazado 125290" d="M40.3,12.826H13V6H40.3v6.826Z" transform="translate(-13 -6)" fill="#aab2bd"/>
        </g>
        <g id="Grupo_80899" data-name="Grupo 80899" transform="translate(76.789)">
          <path id="Trazado_125291" data-name="Trazado 125291" d="M64.064,7.119V17.358a1.711,1.711,0,0,1-1.706,1.706H48.706A1.711,1.711,0,0,1,47,17.358V3.706A1.711,1.711,0,0,1,48.706,2H62.358a1.711,1.711,0,0,1,1.706,1.706Z" transform="translate(-47 -2)" fill="#aab2bd"/>
        </g>
        <g id="Grupo_80900" data-name="Grupo 80900" transform="translate(81.909 5.119)">
          <ellipse id="Elipse_4771" data-name="Elipse 4771" cx="3" cy="3.5" rx="3" ry="3.5" transform="translate(0.385 -0.026)" fill="#fcd770"/>
        </g>
        <g id="Grupo_80901" data-name="Grupo 80901" transform="translate(3.413 23.89)">
          <path id="Trazado_125292" data-name="Trazado 125292" d="M55.193,16l6.826,10.239H4L10.826,16H55.193Z" transform="translate(-4 -16)" fill="#ccd1d9"/>
        </g>
        <g id="Grupo_80902" data-name="Grupo 80902" transform="translate(75.083 61.432)">
          <path id="Trazado_125293" data-name="Trazado 125293" d="M46,38H66.477V58.477H46Z" transform="translate(-46 -38)" fill="#d3a06c"/>
        </g>
        <g id="Grupo_80903" data-name="Grupo 80903" transform="translate(44.367 68.257)">
          <path id="Trazado_125294" data-name="Trazado 125294" d="M28,42H48.477V62.477H28Z" transform="translate(-28 -42)" fill="#d3a06c"/>
        </g>
        <g id="Grupo_80904" data-name="Grupo 80904" transform="translate(13.651 68.257)">
          <path id="Trazado_125295" data-name="Trazado 125295" d="M10,42H30.477V62.477H10Z" transform="translate(-10 -42)" fill="#d3a06c"/>
        </g>
        <g id="Grupo_80905" data-name="Grupo 80905" transform="translate(3.413 34.129)">
          <path id="Trazado_125296" data-name="Trazado 125296" d="M62.019,22V56.129H44.954V76.606H34.716V56.129H14.239V76.606H7.413A6.808,6.808,0,0,0,4,77.527V22Z" transform="translate(-4 -22)" fill="#e6e9ed"/>
        </g>
        <g id="Grupo_80906" data-name="Grupo 80906" transform="translate(47.78 40.954)">
          <circle id="Elipse_4772" data-name="Elipse 4772" cx="3.5" cy="3.5" r="3.5" transform="translate(-0.486 0.138)" fill="#fcd770"/>
        </g>
        <g id="Grupo_80907" data-name="Grupo 80907" transform="translate(34.129 40.954)">
          <circle id="Elipse_4773" data-name="Elipse 4773" cx="3.5" cy="3.5" r="3.5" transform="translate(0.165 0.138)" fill="#fcd770"/>
        </g>
        <g id="Grupo_80908" data-name="Grupo 80908" transform="translate(80.202 40.954)">
          <path id="Trazado_125297" data-name="Trazado 125297" d="M59.239,31.119v.1a5.12,5.12,0,0,1-10.239,0v-.1a5.119,5.119,0,1,1,10.239,0Z" transform="translate(-49 -26)" fill="#fcd770"/>
        </g>
        <g id="Grupo_80914" data-name="Grupo 80914" transform="translate(0 88.735)">
          <g id="Grupo_80909" data-name="Grupo 80909" transform="translate(81.909)">
            <path id="Trazado_125298" data-name="Trazado 125298" d="M63.651,54H50a6.826,6.826,0,1,1,0,13.651H63.651a6.826,6.826,0,0,0,0-13.651Z" transform="translate(-50 -54)" fill="#ccd1d9"/>
          </g>
          <g id="Grupo_80910" data-name="Grupo 80910" transform="translate(61.432)">
            <path id="Trazado_125299" data-name="Trazado 125299" d="M51.651,60.826A6.824,6.824,0,0,1,58.477,54H38a6.826,6.826,0,1,1,0,13.651H58.477A6.824,6.824,0,0,1,51.651,60.826Z" transform="translate(-38 -54)" fill="#ccd1d9"/>
          </g>
          <g id="Grupo_80911" data-name="Grupo 80911" transform="translate(40.954)">
            <path id="Trazado_125300" data-name="Trazado 125300" d="M39.651,60.826A6.824,6.824,0,0,1,46.477,54H26a6.826,6.826,0,1,1,0,13.651H46.477A6.824,6.824,0,0,1,39.651,60.826Z" transform="translate(-26 -54)" fill="#ccd1d9"/>
          </g>
          <g id="Grupo_80912" data-name="Grupo 80912" transform="translate(20.477)">
            <path id="Trazado_125301" data-name="Trazado 125301" d="M27.651,60.826A6.824,6.824,0,0,1,34.477,54H14a6.826,6.826,0,1,1,0,13.651H34.477A6.824,6.824,0,0,1,27.651,60.826Z" transform="translate(-14 -54)" fill="#ccd1d9"/>
          </g>
          <g id="Grupo_80913" data-name="Grupo 80913">
            <path id="Trazado_125302" data-name="Trazado 125302" d="M15.651,60.826A6.824,6.824,0,0,1,22.477,54H8.826a6.808,6.808,0,0,0-3.413.921A7.21,7.21,0,0,0,4,56,6.83,6.83,0,0,0,8.826,67.651H22.477A6.824,6.824,0,0,1,15.651,60.826Z" transform="translate(-2 -54)" fill="#ccd1d9"/>
          </g>
        </g>
        <g id="Grupo_80915" data-name="Grupo 80915" transform="translate(75.083 88.735)">
          <circle id="Elipse_4774" data-name="Elipse 4774" cx="6.5" cy="6.5" r="6.5" transform="translate(0.21 0.358)" fill="#969faa"/>
        </g>
        <g id="Grupo_80916" data-name="Grupo 80916" transform="translate(54.606 88.735)">
          <ellipse id="Elipse_4775" data-name="Elipse 4775" cx="7" cy="6.5" rx="7" ry="6.5" transform="translate(-0.313 0.358)" fill="#969faa"/>
        </g>
        <g id="Grupo_80917" data-name="Grupo 80917" transform="translate(34.129 88.735)">
          <circle id="Elipse_4776" data-name="Elipse 4776" cx="6.5" cy="6.5" r="6.5" transform="translate(0.165 0.358)" fill="#969faa"/>
        </g>
        <g id="Grupo_80918" data-name="Grupo 80918" transform="translate(13.651 88.735)">
          <ellipse id="Elipse_4777" data-name="Elipse 4777" cx="7" cy="6.5" rx="7" ry="6.5" transform="translate(-0.358 0.358)" fill="#969faa"/>
        </g>
        <g id="Grupo_80919" data-name="Grupo 80919" transform="translate(81.909 61.432)">
          <path id="Trazado_125303" data-name="Trazado 125303" d="M56.826,38v6.826H50V38h6.826Z" transform="translate(-50 -38)" fill="#b27946"/>
        </g>
        <g id="Grupo_80920" data-name="Grupo 80920" transform="translate(51.193 68.257)">
          <path id="Trazado_125304" data-name="Trazado 125304" d="M32,42h6.826v6.826H32Z" transform="translate(-32 -42)" fill="#b27946"/>
        </g>
        <g id="Grupo_80921" data-name="Grupo 80921" transform="translate(20.477 68.257)">
          <path id="Trazado_125305" data-name="Trazado 125305" d="M14,42h6.826v6.826H14Z" transform="translate(-14 -42)" fill="#b27946"/>
        </g>
        <g id="Grupo_80922" data-name="Grupo 80922" transform="translate(10.239 40.954)">
          <path id="Trazado_125306" data-name="Trazado 125306" d="M8,26H25.064V46.477H8Z" transform="translate(-8 -26)" fill="#69d6f4"/>
        </g>
      </g>
      <g id="Grupo_80924" data-name="Grupo 80924" transform="translate(1 1)">
        <path id="Trazado_125307" data-name="Trazado 125307" d="M98.267,89.734H69.257V69.257H65.844V36.318L58.225,24.89H50.487V16.358h27.3v1.706A3.416,3.416,0,0,0,81.2,21.477h5.119V42.2a6.83,6.83,0,0,0-4.983,5.23,15.377,15.377,0,0,0-12.082,15,8.548,8.548,0,0,0,6.826,8.36v15.53h23.89V70.791a8.547,8.547,0,0,0,6.826-8.36,15.377,15.377,0,0,0-12.082-15,6.83,6.83,0,0,0-4.983-5.23V21.477h5.119a3.416,3.416,0,0,0,3.413-3.413V16.358h1.706a5.119,5.119,0,1,0,0-10.239H98.267V4.413A3.416,3.416,0,0,0,94.854,1H81.2a3.416,3.416,0,0,0-3.413,3.413V6.119h-27.3A5.126,5.126,0,0,0,45.367,1H24.89a5.126,5.126,0,0,0-5.119,5.119V24.89H12.032L4.413,36.318V91.484A8.5,8.5,0,0,0,9.532,106.8H98.267a8.532,8.532,0,0,0,0-17.064Zm-25.6-27.3a11.953,11.953,0,0,1,8.9-11.541,6.809,6.809,0,0,0,4.751,4.473v7.068H76.083v4.805A5.112,5.112,0,0,1,72.67,62.432Zm13.651,3.413h3.413v3.413H86.322ZM96.56,82.909H79.5V65.844h3.413V72.67H93.147V65.844H96.56ZM94.485,50.891a11.952,11.952,0,0,1,8.9,11.541,5.112,5.112,0,0,1-3.413,4.805V62.432H89.734V55.364a6.81,6.81,0,0,0,4.751-4.473ZM91.441,48.78a3.413,3.413,0,1,1-3.413-3.413A3.416,3.416,0,0,1,91.441,48.78ZM99.973,9.532a1.706,1.706,0,1,1,0,3.413H98.267V9.532ZM81.2,4.413H94.854l0,13.651H81.2Zm8.532,93.854a5.119,5.119,0,1,1-5.119-5.119A5.126,5.126,0,0,1,89.734,98.267Zm-71.67,0a5.119,5.119,0,1,1,5.119,5.119A5.126,5.126,0,0,1,18.064,98.267Zm6.826-25.6H28.3v3.413H24.89ZM31.716,79.5V72.67h3.413V89.734H18.064V72.67h3.413V79.5ZM29.965,93.147h6.913a8.363,8.363,0,0,0,0,10.239H29.967a8.363,8.363,0,0,0,0-10.239Zm8.577,5.119a5.119,5.119,0,1,1,5.119,5.119A5.126,5.126,0,0,1,38.542,98.267Zm11.9-5.119h6.913a8.363,8.363,0,0,0,0,10.239H50.444a8.363,8.363,0,0,0,0-10.239Zm8.577,5.119a5.119,5.119,0,1,1,5.119,5.119A5.126,5.126,0,0,1,59.019,98.267Zm11.9-5.119h6.913a8.363,8.363,0,0,0,0,10.239H70.921a8.363,8.363,0,0,0,0-10.239ZM48.78,89.734V72.67h3.413V79.5H62.432V72.67h3.413V89.734ZM55.606,72.67h3.413v3.413H55.606ZM47.074,14.651H23.184V11.239h23.89ZM77.789,9.532v3.413h-27.3V9.532ZM24.89,4.413H45.367a1.709,1.709,0,0,1,1.706,1.706V7.826H23.184V6.119A1.709,1.709,0,0,1,24.89,4.413ZM23.184,18.064h23.89V24.89H23.184ZM13.858,28.3H56.4l4.551,6.826H9.307ZM7.826,38.542H62.432V69.257H45.367V89.734H38.542V69.257H14.651V89.734H9.532a8.524,8.524,0,0,0-1.706.172ZM4.413,98.267a5.126,5.126,0,0,1,5.119-5.119H16.4a8.36,8.36,0,0,0,0,10.239H9.532A5.126,5.126,0,0,1,4.413,98.267Zm93.854,5.119H91.4a8.36,8.36,0,0,0,0-10.239h6.87a5.119,5.119,0,0,1,0,10.239Z" transform="translate(-1 -1)"/>
        <path id="Trazado_125308" data-name="Trazado 125308" d="M54.119,4a5.119,5.119,0,1,0,5.119,5.119A5.126,5.126,0,0,0,54.119,4Zm0,6.826a1.706,1.706,0,1,1,1.706-1.706A1.709,1.709,0,0,1,54.119,10.826Z" transform="translate(32.909 1.119)"/>
        <path id="Trazado_125309" data-name="Trazado 125309" d="M27.477,25H7V48.89H27.477ZM24.064,45.477H10.413V28.413H24.064Z" transform="translate(3.239 15.954)"/>
        <path id="Trazado_125310" data-name="Trazado 125310" d="M26.119,35.239A5.119,5.119,0,1,0,21,30.119,5.126,5.126,0,0,0,26.119,35.239Zm0-6.826a1.706,1.706,0,1,1-1.706,1.706A1.709,1.709,0,0,1,26.119,28.413Z" transform="translate(13.129 15.954)"/>
        <path id="Trazado_125311" data-name="Trazado 125311" d="M34.119,35.239A5.119,5.119,0,1,0,29,30.119,5.126,5.126,0,0,0,34.119,35.239Zm0-6.826a1.706,1.706,0,1,1-1.706,1.706A1.709,1.709,0,0,1,34.119,28.413Z" transform="translate(18.78 15.954)"/>
        <path id="Trazado_125312" data-name="Trazado 125312" d="M21,33H44.89v3.413H21Z" transform="translate(13.129 21.606)"/>
        <path id="Trazado_125313" data-name="Trazado 125313" d="M21,37h3.413v3.413H21Z" transform="translate(13.129 24.432)"/>
        <path id="Trazado_125314" data-name="Trazado 125314" d="M25,37H35.239v3.413H25Z" transform="translate(15.954 24.432)"/>
        <path id="Trazado_125315" data-name="Trazado 125315" d="M33,37h3.413v3.413H33Z" transform="translate(21.606 24.432)"/>
      </g>
    </g>
    <g id="produccion-en-masa" transform="translate(699.949 20412.855)">
      <g id="Grupo_80925" data-name="Grupo 80925" transform="translate(22.304 20.894)">
        <path id="Trazado_125316" data-name="Trazado 125316" d="M126.978,69.737V93.515H42.7V69.737H56.749V45.958H70.794V22.18H98.883V45.958h14.045V69.737Z" transform="translate(-42.7 -22.18)" fill="#efbf27"/>
      </g>
      <g id="Grupo_80936" data-name="Grupo 80936" transform="translate(4.276 92.227)">
        <g id="Grupo_80926" data-name="Grupo 80926" transform="translate(0)">
          <path id="Trazado_125317" data-name="Trazado 125317" d="M110.155,200.6H21.307a15.743,15.743,0,0,1,0-31.487h88.848a15.743,15.743,0,1,1,0,31.487Z" transform="translate(-5.564 -169.116)" fill="#aeaeae"/>
        </g>
        <g id="Grupo_80927" data-name="Grupo 80927" transform="translate(7.309 7.309)">
          <path id="Trazado_125318" data-name="Trazado 125318" d="M29.054,201.04a8.435,8.435,0,0,1,0-16.869H117.9a8.435,8.435,0,0,1,0,16.869Z" transform="translate(-20.619 -184.171)" fill="#4a4842"/>
        </g>
        <g id="Grupo_80928" data-name="Grupo 80928" transform="translate(96.157 7.309)">
          <circle id="Elipse_4778" data-name="Elipse 4778" cx="8.435" cy="8.435" r="8.435" fill="#efefef"/>
        </g>
        <g id="Grupo_80929" data-name="Grupo 80929" transform="translate(101.377 12.53)">
          <circle id="Elipse_4779" data-name="Elipse 4779" cx="3.214" cy="3.214" r="3.214" fill="#f0c020"/>
        </g>
        <g id="Grupo_80930" data-name="Grupo 80930" transform="translate(66.54 7.309)">
          <circle id="Elipse_4780" data-name="Elipse 4780" cx="8.435" cy="8.435" r="8.435" fill="#efefef"/>
        </g>
        <g id="Grupo_80931" data-name="Grupo 80931" transform="translate(71.761 12.53)">
          <circle id="Elipse_4781" data-name="Elipse 4781" cx="3.214" cy="3.214" r="3.214" fill="#f0c020"/>
        </g>
        <g id="Grupo_80932" data-name="Grupo 80932" transform="translate(36.925 7.309)">
          <circle id="Elipse_4782" data-name="Elipse 4782" cx="8.435" cy="8.435" r="8.435" fill="#efefef"/>
        </g>
        <g id="Grupo_80933" data-name="Grupo 80933" transform="translate(42.146 12.53)">
          <circle id="Elipse_4783" data-name="Elipse 4783" cx="3.214" cy="3.214" r="3.214" fill="#f0c020"/>
        </g>
        <g id="Grupo_80934" data-name="Grupo 80934" transform="translate(7.309 7.309)">
          <circle id="Elipse_4784" data-name="Elipse 4784" cx="8.435" cy="8.435" r="8.435" fill="#efefef"/>
        </g>
        <g id="Grupo_80935" data-name="Grupo 80935" transform="translate(12.529 12.53)">
          <circle id="Elipse_4785" data-name="Elipse 4785" cx="3.214" cy="3.214" r="3.214" fill="#f0c020"/>
        </g>
      </g>
      <g id="Grupo_80937" data-name="Grupo 80937" transform="translate(32.071 68.448)">
        <path id="Trazado_125319" data-name="Trazado 125319" d="M70.265,130.586,68,128.566a.971.971,0,0,0-1.291,0l-2.269,2.02a.971.971,0,0,1-1.617-.725v-9.725h9.062v9.725A.971.971,0,0,1,70.265,130.586Z" transform="translate(-62.819 -120.136)" fill="#fb5c3c"/>
      </g>
      <g id="Grupo_80938" data-name="Grupo 80938" transform="translate(60.162 68.448)">
        <path id="Trazado_125320" data-name="Trazado 125320" d="M128.128,130.586l-2.269-2.02a.971.971,0,0,0-1.291,0l-2.269,2.02a.971.971,0,0,1-1.617-.725v-9.725h9.062v9.725A.971.971,0,0,1,128.128,130.586Z" transform="translate(-120.682 -120.136)" fill="#fb5c3c"/>
      </g>
      <g id="Grupo_80939" data-name="Grupo 80939" transform="translate(27.24 85.942)">
        <path id="Trazado_125321" data-name="Trazado 125321" d="M126.059,158.6H124.6a1.214,1.214,0,0,1,0-2.427h1.456a1.214,1.214,0,1,1,0,2.427Zm-6.311,0H54.081a1.214,1.214,0,1,1,0-2.427h65.668a1.214,1.214,0,0,1,0,2.427Z" transform="translate(-52.867 -156.171)" fill="#f7e4b0"/>
      </g>
      <g id="Grupo_80940" data-name="Grupo 80940" transform="translate(40.816 62.55)">
        <path id="Trazado_125322" data-name="Trazado 125322" d="M126.872,110.413h-1.456a1.214,1.214,0,0,1,0-2.427h1.456a1.214,1.214,0,0,1,0,2.427Zm-6.311,0H82.047a1.214,1.214,0,1,1,0-2.427h38.514a1.214,1.214,0,1,1,0,2.427Z" transform="translate(-80.833 -107.986)" fill="#f7e4b0"/>
      </g>
      <g id="Grupo_80941" data-name="Grupo 80941" transform="translate(53.464 38.526)">
        <path id="Trazado_125323" data-name="Trazado 125323" d="M127.629,60.927h-1.456a1.214,1.214,0,1,1,0-2.427h1.456a1.214,1.214,0,0,1,0,2.427Zm-6.311,0H108.1a1.214,1.214,0,1,1,0-2.427h13.219a1.214,1.214,0,0,1,0,2.427Z" transform="translate(-106.885 -58.5)" fill="#f7e4b0"/>
      </g>
      <g id="Grupo_80942" data-name="Grupo 80942" transform="translate(88.253 68.448)">
        <path id="Trazado_125324" data-name="Trazado 125324" d="M185.992,130.586l-2.269-2.02a.971.971,0,0,0-1.291,0l-2.269,2.02a.971.971,0,0,1-1.617-.725v-9.725h9.062v9.725a.971.971,0,0,1-1.616.725Z" transform="translate(-178.546 -120.136)" fill="#fb5c3c"/>
      </g>
      <g id="Grupo_80943" data-name="Grupo 80943" transform="translate(46.116 44.671)">
        <path id="Trazado_125325" data-name="Trazado 125325" d="M99.2,81.607l-2.269-2.02a.971.971,0,0,0-1.291,0l-2.269,2.02a.971.971,0,0,1-1.617-.725V71.157h9.062v9.725a.97.97,0,0,1-1.616.725Z" transform="translate(-91.75 -71.157)" fill="#fb5c3c"/>
      </g>
      <g id="Grupo_80944" data-name="Grupo 80944" transform="translate(74.208 44.671)">
        <path id="Trazado_125326" data-name="Trazado 125326" d="M157.06,81.607l-2.269-2.02a.971.971,0,0,0-1.291,0l-2.269,2.02a.971.971,0,0,1-1.617-.725V71.157h9.062v9.725a.971.971,0,0,1-1.616.725Z" transform="translate(-149.614 -71.157)" fill="#fb5c3c"/>
      </g>
      <g id="Grupo_80945" data-name="Grupo 80945" transform="translate(100.284 44.524)">
        <path id="Trazado_125327" data-name="Trazado 125327" d="M208.441,84.471c-.57-2.46-.948-4.086-4.282-5.188a1.215,1.215,0,0,1,0-2.305c1.936-.639,3.334-1.1,4.282-5.188a1.215,1.215,0,0,1,2.365,0c.971,4.183,2.427,4.576,4.282,5.188a1.214,1.214,0,0,1,0,2.3c-1.936.64-3.335,1.1-4.282,5.188A1.214,1.214,0,0,1,208.441,84.471Z" transform="translate(-203.328 -70.855)"/>
      </g>
      <g id="Grupo_80946" data-name="Grupo 80946" transform="translate(104.39 49.354)">
        <path id="Trazado_125328" data-name="Trazado 125328" d="M216.1,83.261a6.44,6.44,0,0,0-2.1,2.374,6.739,6.739,0,0,0-2.219-2.355,6.452,6.452,0,0,0,2.194-2.476,6.583,6.583,0,0,0,2.122,2.456Z" transform="translate(-211.785 -80.805)" fill="#f0c020"/>
      </g>
      <g id="Grupo_80947" data-name="Grupo 80947" transform="translate(16.011 44.524)">
        <path id="Trazado_125329" data-name="Trazado 125329" d="M34.85,84.471c-.57-2.46-.948-4.086-4.282-5.188a1.215,1.215,0,0,1,0-2.305c1.936-.639,3.334-1.1,4.282-5.188a1.215,1.215,0,0,1,2.365,0c.971,4.183,2.427,4.576,4.282,5.188a1.214,1.214,0,0,1,0,2.3c-1.936.64-3.335,1.1-4.282,5.188A1.214,1.214,0,0,1,34.85,84.471Z" transform="translate(-29.737 -70.855)"/>
      </g>
      <g id="Grupo_80948" data-name="Grupo 80948" transform="translate(20.117 49.354)">
        <path id="Trazado_125330" data-name="Trazado 125330" d="M42.511,83.261a6.44,6.44,0,0,0-2.1,2.374,6.739,6.739,0,0,0-2.219-2.355A6.452,6.452,0,0,0,40.389,80.8,6.583,6.583,0,0,0,42.511,83.261Z" transform="translate(-38.195 -80.805)" fill="#f0c020"/>
      </g>
      <g id="Grupo_80949" data-name="Grupo 80949" transform="translate(60.161 20.894)">
        <path id="Trazado_125331" data-name="Trazado 125331" d="M129.744,22.18v9.651a.971.971,0,0,1-1.617.723l-2.267-2.02a.976.976,0,0,0-1.291,0l-2.272,2.02a.971.971,0,0,1-1.617-.723V22.18Z" transform="translate(-120.68 -22.18)" fill="#fb5c3c"/>
      </g>
      <g id="Grupo_80950" data-name="Grupo 80950" transform="translate(3.06 19.68)">
        <path id="Trazado_125332" data-name="Trazado 125332" d="M20.017,124.93H93.333a1.214,1.214,0,0,0,0-2.427,0,0,0,0,0,0,0H20.017a14.528,14.528,0,1,1,0-29.055h88.851a14.528,14.528,0,1,1,0,29.055h-5.826a1.216,1.216,0,0,0,0,2.432h5.826a16.957,16.957,0,1,0,0-33.915H107.79V68.45a1.21,1.21,0,0,0-1.209-1.214H93.746V44.672a1.209,1.209,0,0,0-1.214-1.214H79.7V20.894a1.209,1.209,0,0,0-1.214-1.214H50.4a1.211,1.211,0,0,0-1.214,1.214V43.457c-7.4,0,2.548,0-12.831,0a1.208,1.208,0,0,0-1.214,1.214v6.471a1.214,1.214,0,1,0,2.427,0V45.886H44.9V54.4a2.184,2.184,0,0,0,3.637,1.632l2.108-1.876,2.107,1.876A2.184,2.184,0,0,0,56.393,54.4V45.884h7.089v21.35H37.567V60.853a1.214,1.214,0,0,0-2.427-.01v6.392c-.2,0-3.725,0-12.835,0A1.208,1.208,0,0,0,21.1,68.45V91.015H20.018a16.957,16.957,0,1,0,0,33.915Zm85.346-33.915H79.7V83.5a1.214,1.214,0,0,0-2.427,0v7.515H51.611V69.663h7.338v8.511a2.185,2.185,0,0,0,3.637,1.632l2.107-1.876L66.8,79.805a2.185,2.185,0,0,0,3.637-1.632V69.663h6.835V73.79a1.214,1.214,0,1,0,2.427,0V69.663H87.04v8.511a2.185,2.185,0,0,0,3.637,1.632l2.107-1.876,2.107,1.876a2.185,2.185,0,0,0,3.638-1.632v-8.51h6.833ZM96.1,69.664v7.969l-1.865-1.66a2.184,2.184,0,0,0-2.905,0l-1.865,1.66v-7.97H96.1ZM75.422,45.884h6.634v7.969l-1.864-1.659a2.183,2.183,0,0,0-2.906,0l-1.865,1.66ZM61.377,22.107h6.634V30l-1.865-1.66a2.184,2.184,0,0,0-2.905,0L61.377,30Zm-2.427,0v8.436a2.184,2.184,0,0,0,3.637,1.632L64.694,30.3,66.8,32.175a2.184,2.184,0,0,0,3.637-1.632V22.107h6.835v21.35H51.612V22.107ZM53.965,53.854,52.1,52.194a2.185,2.185,0,0,0-2.905,0l-1.865,1.66V45.886h6.634Zm11.944-7.97h7.086v8.511a2.185,2.185,0,0,0,3.637,1.632l2.107-1.876,2.107,1.876a2.184,2.184,0,0,0,3.637-1.632V45.886h6.834v21.35H65.909Zm2.1,23.778v7.97l-1.865-1.66a2.184,2.184,0,0,0-2.905,0l-1.865,1.66v-7.97Zm-34.726,0c3.472,0,1.863,0,6.634,0v7.97l-1.865-1.66a2.184,2.184,0,0,0-2.9,0l-1.865,1.66Zm-9.768,0h7.34v8.51a2.184,2.184,0,0,0,3.637,1.632L36.6,77.929l2.107,1.876a2.185,2.185,0,0,0,3.637-1.632V69.663h6.836V91.015H23.518Z" transform="translate(-3.06 -19.68)"/>
      </g>
      <g id="Grupo_80951" data-name="Grupo 80951" transform="translate(96.974 122.498)">
        <path id="Trazado_125333" data-name="Trazado 125333" d="M196.51,232.689a1.214,1.214,0,1,0,1.214-1.219A1.217,1.217,0,0,0,196.51,232.689Z" transform="translate(-196.51 -231.47)"/>
      </g>
      <g id="Grupo_80952" data-name="Grupo 80952" transform="translate(10.371 98.322)">
        <path id="Trazado_125334" data-name="Trazado 125334" d="M126.263,191.319a9.659,9.659,0,0,0-9.648-9.648H27.767a9.648,9.648,0,1,0,0,19.3h88.848a9.659,9.659,0,0,0,9.648-9.648Zm-2.427,0a7.221,7.221,0,1,1-7.221-7.221A7.229,7.229,0,0,1,123.836,191.319Zm-29.616,0A7.221,7.221,0,1,1,87,184.1,7.229,7.229,0,0,1,94.22,191.319Zm-29.616,0a7.221,7.221,0,1,1-7.22-7.221A7.229,7.229,0,0,1,64.6,191.319Zm-44.057,0a7.221,7.221,0,1,1,7.221,7.221A7.229,7.229,0,0,1,20.546,191.319Zm13.6,7.221a9.606,9.606,0,0,0,0-14.442H51.006a9.606,9.606,0,0,0,0,14.442Zm29.616,0a9.606,9.606,0,0,0,0-14.442H80.622a9.606,9.606,0,0,0,0,14.442Zm29.616,0a9.606,9.606,0,0,0,0-14.442h16.861a9.606,9.606,0,0,0,0,14.442Z" transform="translate(-18.119 -181.671)"/>
      </g>
      <g id="Grupo_80953" data-name="Grupo 80953" transform="translate(104.439 103.542)">
        <path id="Trazado_125335" data-name="Trazado 125335" d="M211.887,196.852a4.427,4.427,0,1,0,4.427-4.427A4.433,4.433,0,0,0,211.887,196.852Zm6.428,0a2,2,0,1,1-2-2A2,2,0,0,1,218.315,196.852Z" transform="translate(-211.887 -192.425)"/>
      </g>
      <g id="Grupo_80954" data-name="Grupo 80954" transform="translate(74.823 103.542)">
        <path id="Trazado_125336" data-name="Trazado 125336" d="M155.309,201.28a4.428,4.428,0,1,0-4.427-4.428A4.432,4.432,0,0,0,155.309,201.28Zm0-6.428a2,2,0,1,1-2,2A2,2,0,0,1,155.309,194.852Z" transform="translate(-150.882 -192.425)"/>
      </g>
      <g id="Grupo_80955" data-name="Grupo 80955" transform="translate(45.208 103.542)">
        <path id="Trazado_125337" data-name="Trazado 125337" d="M94.305,201.28a4.428,4.428,0,1,0-4.427-4.428A4.432,4.432,0,0,0,94.305,201.28Zm0-6.428a2,2,0,1,1-2,2A2,2,0,0,1,94.305,194.852Z" transform="translate(-89.878 -192.425)"/>
      </g>
      <g id="Grupo_80956" data-name="Grupo 80956" transform="translate(15.591 103.542)">
        <path id="Trazado_125338" data-name="Trazado 125338" d="M37.728,196.852A4.427,4.427,0,1,0,33.3,201.28,4.432,4.432,0,0,0,37.728,196.852Zm-6.428,0a2,2,0,1,1,2,2A2,2,0,0,1,31.3,196.852Z" transform="translate(-28.873 -192.425)"/>
      </g>
      <g id="Grupo_80957" data-name="Grupo 80957" transform="translate(35.14 54.784)">
        <circle id="Elipse_4786" data-name="Elipse 4786" cx="1.214" cy="1.214" r="1.214"/>
      </g>
      <g id="Grupo_80958" data-name="Grupo 80958" transform="translate(77.274 77.431)">
        <circle id="Elipse_4787" data-name="Elipse 4787" cx="1.214" cy="1.214" r="1.214"/>
      </g>
    </g>
    <g id="gerente-de-tiempo" transform="translate(1070.987 20461.703)">
      <g id="Grupo_80706" data-name="Grupo 80706" transform="translate(-29.897 -29.848)">
        <g id="Grupo_80705" data-name="Grupo 80705" transform="translate(0 0)">
          <circle id="Elipse_4764" data-name="Elipse 4764" cx="43.515" cy="43.515" r="43.515" transform="translate(7.409 7.4)" fill="#ffe27a"/>
          <path id="Trazado_124862" data-name="Trazado 124862" d="M51.516,263.333A43.514,43.514,0,0,1,8.039,221.577c-.023.584-.038,1.17-.038,1.76a43.515,43.515,0,1,0,87.031,0c0-.59-.015-1.176-.038-1.76a43.515,43.515,0,0,1-43.477,41.756Z" transform="translate(-0.592 -172.422)" fill="#f9cf58"/>
          <circle id="Elipse_4765" data-name="Elipse 4765" cx="36.008" cy="36.008" r="36.008" transform="translate(0 50.915) rotate(-45)" fill="#f9f6f6"/>
          <path id="Trazado_124863" data-name="Trazado 124863" d="M82.409,255.825a36.008,36.008,0,0,1-35.964-34.248q-.042.875-.043,1.76a36.008,36.008,0,0,0,72.015,0q0-.885-.043-1.76A36.009,36.009,0,0,1,82.409,255.825Z" transform="translate(-31.485 -172.422)" fill="#ecdaec"/>
          <path id="Trazado_124864" data-name="Trazado 124864" d="M122.469,85.746,100.345,107.87A36.008,36.008,0,1,0,125.806,46.4V77.689" transform="translate(-74.882 -31.494)" fill="#ff4755"/>
          <circle id="Elipse_4766" data-name="Elipse 4766" cx="4.72" cy="4.72" r="4.72" transform="translate(46.205 46.195)" fill="#ffe27a"/>
          <path id="Trazado_124865" data-name="Trazado 124865" d="M211.156,224.537a4.72,4.72,0,0,1-4.379-2.96,4.72,4.72,0,1,0,8.758,0A4.719,4.719,0,0,1,211.156,224.537Z" transform="translate(-160.231 -172.422)" fill="#f9cf58"/>
          <path id="Trazado_124866" data-name="Trazado 124866" d="M125.806,255.825a35.868,35.868,0,0,1-23.64-8.848l-1.821,1.821a36.008,36.008,0,0,0,61.469-25.461q0-.885-.043-1.76A36.008,36.008,0,0,1,125.806,255.825Z" transform="translate(-74.882 -172.422)" fill="#fc2b3a"/>
        </g>
        <path id="Trazado_124867" data-name="Trazado 124867" d="M282.656,254.054l-4.518-.679a21.078,21.078,0,0,0-3.323-8.018l2.716-3.676a1.617,1.617,0,0,0-.157-2.1l-2.339-2.339a1.617,1.617,0,0,0-2.1-.157l-3.676,2.716a21.079,21.079,0,0,0-8.019-3.323l-.679-4.518a1.617,1.617,0,0,0-1.6-1.376h-3.307a1.617,1.617,0,0,0-1.6,1.376l-.679,4.518a21.077,21.077,0,0,0-8.019,3.323l-3.677-2.716a1.617,1.617,0,0,0-2.1.157l-2.339,2.338a1.616,1.616,0,0,0-.157,2.1l2.716,3.676a21.08,21.08,0,0,0-3.323,8.019l-4.518.679a1.617,1.617,0,0,0-1.376,1.6v3.307a1.617,1.617,0,0,0,1.376,1.6l4.518.679a21.08,21.08,0,0,0,3.323,8.019l-2.716,3.676a1.617,1.617,0,0,0,.157,2.1l2.339,2.339a1.617,1.617,0,0,0,2.1.157l3.677-2.716a21.078,21.078,0,0,0,8.019,3.323l.679,4.518a1.617,1.617,0,0,0,1.6,1.376h3.308a1.617,1.617,0,0,0,1.6-1.376l.679-4.518a21.079,21.079,0,0,0,8.019-3.323l3.676,2.716a1.617,1.617,0,0,0,2.1-.157l2.339-2.339a1.617,1.617,0,0,0,.157-2.1l-2.716-3.676a21.079,21.079,0,0,0,3.323-8.019l4.518-.679a1.617,1.617,0,0,0,1.376-1.6v-3.307A1.617,1.617,0,0,0,282.656,254.054ZM257.3,270.847a13.541,13.541,0,1,1,13.541-13.541A13.541,13.541,0,0,1,257.3,270.847Z" transform="translate(-179.652 -179.663)" fill="#4a80aa"/>
        <circle id="Elipse_4767" data-name="Elipse 4767" cx="13.541" cy="13.541" r="13.541" transform="translate(64.111 64.101)" fill="#ffe27a"/>
        <path id="Trazado_124868" data-name="Trazado 124868" d="M311.568,391.589a13.522,13.522,0,0,0,13.424-15.3,13.538,13.538,0,0,1-26.847,0,13.522,13.522,0,0,0,13.423,15.3Z" transform="translate(-233.916 -296.886)" fill="#407093"/>
        <path id="Trazado_124869" data-name="Trazado 124869" d="M311.567,370.07a13.541,13.541,0,0,1-13.424-11.782,13.541,13.541,0,1,0,26.848,0A13.541,13.541,0,0,1,311.567,370.07Z" transform="translate(-233.915 -282.405)" fill="#f9cf58"/>
      </g>
      <g id="Grupo_80707" data-name="Grupo 80707" transform="translate(-24.052 -24.012)">
        <path id="Trazado_124870" data-name="Trazado 124870" d="M305.63,290.593a15.037,15.037,0,1,0,5.512,29.031,1.469,1.469,0,0,0-1.077-2.734,12.113,12.113,0,1,1,4.348-2.939,1.469,1.469,0,0,0,2.133,2.022,15.037,15.037,0,0,0-10.915-25.38Z" transform="translate(-233.78 -233.78)"/>
        <path id="Trazado_124871" data-name="Trazado 124871" d="M97.47,67.138l-3.52-.529a22.417,22.417,0,0,0-2.768-6.68L93.3,57.066a3.07,3.07,0,0,0-.3-4.02L90.654,50.7a3.121,3.121,0,0,0-.8-.577,45.511,45.511,0,0,0,.285-5.056A45.071,45.071,0,0,0,16.025,10.606a1.469,1.469,0,1,0,1.895,2.246A42.132,42.132,0,0,1,87.2,45.07a42.6,42.6,0,0,1-.318,5.167c-.085.051-.168.106-.249.166L83.77,52.518q-.839-.519-1.715-.959a37.874,37.874,0,0,0,.562-6.49,37.377,37.377,0,0,0-6.276-20.789A1.469,1.469,0,1,0,73.9,25.91a34.449,34.449,0,0,1,5.783,19.16,34.968,34.968,0,0,1-.407,5.316,22.518,22.518,0,0,0-2.181-.636l-.529-3.52a3.07,3.07,0,0,0-3.055-2.63H70.193a3.071,3.071,0,0,0-3.055,2.63l-.529,3.519a22.414,22.414,0,0,0-6.68,2.768L57.066,50.4a3.071,3.071,0,0,0-4.02.3L50.7,53.046a3.07,3.07,0,0,0-.3,4.02l2.116,2.864a22.412,22.412,0,0,0-2.768,6.68l-3.52.529a3.071,3.071,0,0,0-2.63,3.055v3.314a3.07,3.07,0,0,0,2.63,3.055l3.52.529a22.518,22.518,0,0,0,.636,2.181,34.967,34.967,0,0,1-5.316.407,34.476,34.476,0,0,1-23.4-9.133L41.852,50.365a6.2,6.2,0,1,0,4.687-11.316V10.494A34.485,34.485,0,0,1,70.4,21.486a1.469,1.469,0,0,0,2.15-2,37.547,37.547,0,1,0-27.48,63.134,37.87,37.87,0,0,0,6.49-.562q.441.875.959,1.715L50.4,86.634c-.06.081-.115.164-.166.249a42.61,42.61,0,0,1-5.167.317A42.131,42.131,0,0,1,13.828,16.8,1.469,1.469,0,0,0,11.65,14.83,45.07,45.07,0,0,0,45.07,90.139a45.513,45.513,0,0,0,5.056-.285,3.119,3.119,0,0,0,.577.8L53.046,93a3.071,3.071,0,0,0,4.02.3l2.864-2.116a22.414,22.414,0,0,0,6.68,2.768l.529,3.52a3.071,3.071,0,0,0,3.055,2.63h3.314a3.07,3.07,0,0,0,3.055-2.63l.529-3.52a22.409,22.409,0,0,0,6.679-2.768L86.634,93.3a3.07,3.07,0,0,0,4.02-.3L93,90.654a3.071,3.071,0,0,0,.3-4.02L91.182,83.77a22.41,22.41,0,0,0,2.768-6.679l3.52-.529a3.07,3.07,0,0,0,2.63-3.055V70.193a3.07,3.07,0,0,0-2.629-3.055ZM48.329,45.07a3.26,3.26,0,1,1-3.26-3.26A3.263,3.263,0,0,1,48.329,45.07ZM10.494,46.539h5.321a1.469,1.469,0,0,0,0-2.938H10.494a34.477,34.477,0,0,1,9.1-21.93l3.752,3.752a1.469,1.469,0,0,0,2.078-2.078l-3.752-3.752a34.476,34.476,0,0,1,21.929-9.1V39.049a6.194,6.194,0,0,0-3.826,9.238L19.593,68.468a34.477,34.477,0,0,1-9.1-21.929ZM97.161,73.507a.15.15,0,0,1-.128.149l-4.527.681a1.469,1.469,0,0,0-1.225,1.182,19.55,19.55,0,0,1-3.1,7.476,1.469,1.469,0,0,0,.031,1.7l2.721,3.684a.15.15,0,0,1-.015.2l-2.343,2.343a.149.149,0,0,1-.2.014L84.7,88.212a1.47,1.47,0,0,0-1.7-.031,19.546,19.546,0,0,1-7.476,3.1A1.469,1.469,0,0,0,74.337,92.5l-.681,4.527a.15.15,0,0,1-.149.128H70.194a.149.149,0,0,1-.149-.128l-.68-4.527a1.469,1.469,0,0,0-1.182-1.226,19.552,19.552,0,0,1-7.476-3.1,1.469,1.469,0,0,0-1.7.031L55.32,90.933a.152.152,0,0,1-.2-.014l-2.343-2.344a.15.15,0,0,1-.015-.2L55.488,84.7a1.469,1.469,0,0,0,.031-1.7,19.551,19.551,0,0,1-3.1-7.476A1.469,1.469,0,0,0,51.2,74.336l-4.527-.681a.152.152,0,0,1-.128-.149V70.193a.15.15,0,0,1,.128-.149l4.527-.68a1.469,1.469,0,0,0,1.226-1.182,19.55,19.55,0,0,1,3.1-7.476,1.469,1.469,0,0,0-.031-1.7L52.767,55.32a.151.151,0,0,1,.015-.2l2.343-2.343a.151.151,0,0,1,.2-.015L59,55.487a1.469,1.469,0,0,0,1.7.031,19.55,19.55,0,0,1,7.476-3.1,1.469,1.469,0,0,0,1.182-1.226l.68-4.527a.15.15,0,0,1,.149-.128h3.314a.15.15,0,0,1,.149.128l.681,4.527a1.469,1.469,0,0,0,1.182,1.225,19.551,19.551,0,0,1,7.476,3.1,1.469,1.469,0,0,0,1.7-.031l3.684-2.721a.15.15,0,0,1,.2.015l2.343,2.343a.151.151,0,0,1,.014.2L88.213,59a1.469,1.469,0,0,0-.031,1.7,19.549,19.549,0,0,1,3.1,7.476,1.469,1.469,0,0,0,1.226,1.182l4.527.68a.15.15,0,0,1,.128.149v3.314Z" transform="translate(0)"/>
        <path id="Trazado_124872" data-name="Trazado 124872" d="M344.919,343.355l-5.488,5.628-2.382-2.316A1.469,1.469,0,1,0,335,348.773l3.434,3.339a1.469,1.469,0,0,0,2.076-.028l6.513-6.678a1.469,1.469,0,0,0-2.1-2.051Z" transform="translate(-269.147 -275.87)"/>
      </g>
    </g>
    <g id="Grupo_148892" data-name="Grupo 148892" transform="translate(58.037 3412.161)">
      <rect id="Rectngulo_35055" data-name="Rectngulo 35055" width="33.075" height="7" transform="translate(521.962 17110)" fill="#f14141"/>
      <rect id="Rectngulo_39300" data-name="Rectngulo 39300" width="33.075" height="7" transform="translate(521.962 17094)" fill="#f14141"/>
    </g>
    <g id="Grupo_148893" data-name="Grupo 148893" transform="translate(417.903 3419.546)">
      <rect id="Rectngulo_35055-2" data-name="Rectngulo 35055" width="39.708" height="5.573" transform="translate(517.679 17083.615) rotate(40)" fill="#f14141"/>
      <rect id="Rectngulo_39301" data-name="Rectngulo 39301" width="39.707" height="5.573" transform="translate(548.096 17087.885) rotate(140)" fill="#f14141"/>
    </g>
  </g>
</svg>
